<svg width="43" height="33" viewBox="0 0 43 33" fill="none" xmlns="http://www.w3.org/2000/svg">
<path d="M1.0625 10.7978C1.23809 13.6817 8.43708 16.218 20.6227 16.218C33.2297 16.218 40.0775 14.3071 40.1829 10.7978C40.2882 7.2886 33.4755 4.75223 20.9036 4.78697C10.3685 4.82172 1.51902 5.55136 1.0625 10.7978Z" fill="#F7D3B0"/>
<path d="M1.90527 10.7631C2.08086 13.3343 8.9638 15.5927 20.6227 15.5927C32.6678 15.5927 39.2347 13.8902 39.3401 10.7631C39.4454 7.6361 32.9136 5.34294 20.9036 5.41243C10.7899 5.44717 2.32668 6.10732 1.90527 10.7631Z" fill="#E2BFA3"/>
<path d="M1.90527 10.7631C2.04574 12.8131 6.47049 14.6893 14.2665 15.3494C13.8451 15.0715 13.4588 14.7588 13.0374 14.4461C10.6494 12.5351 8.71798 10.0335 7.48889 7.21914C7.38353 6.97593 7.27818 6.73272 7.17283 6.4895C4.08253 7.25389 2.11598 8.57419 1.90527 10.7631Z" fill="#CEAD97"/>
<path d="M10.6492 13.7513C10.5088 13.6123 10.3332 13.4733 10.2278 13.2648C10.1225 13.0564 10.0874 12.8479 10.0523 12.6394C9.91179 12.0488 9.45527 11.5623 8.85828 11.3539C8.71781 11.2844 8.54222 11.2496 8.43687 11.1454C8.33152 11.0064 8.33152 10.8674 8.33152 10.6937C8.26129 10.0683 7.80477 9.54714 7.20778 9.33867C7.03219 9.26918 6.82149 9.23444 6.68102 9.13021C6.32985 8.88699 6.40008 8.36582 6.18938 7.98362C6.08403 7.77516 5.87333 7.63618 5.69774 7.46245C5.38169 7.21924 5.06563 6.94128 4.74958 6.69807C4.43353 6.42011 4.08236 6.17689 3.66095 6.1074C3.45025 6.07266 3.20443 6.1074 3.02885 5.96842C2.85326 5.86419 2.81814 5.65572 2.71279 5.482C2.3265 4.71761 1.16764 4.50914 0.500418 5.06506C-0.166806 5.62098 -0.166806 6.76756 0.500418 7.32347C0.0438963 7.70567 0.00877928 8.43531 0.254599 8.95648C0.500418 9.47765 0.992057 9.89459 1.4837 10.242C1.58905 10.3463 1.72951 10.4158 1.79975 10.5547C1.9051 10.7632 1.86998 10.9717 1.86998 11.1802C1.86998 12.153 2.60744 13.0911 3.59072 13.2996L11.1058 16.1834C11.4569 15.3843 11.2462 14.3767 10.6492 13.7513Z" fill="#6FB56B"/>
<path d="M8.89341 8.29616C8.472 7.77499 8.08571 7.25381 7.83989 6.66315C7.59407 6.07249 7.52384 5.34285 7.76966 4.75218C7.83989 4.6132 7.94524 4.43948 7.94524 4.3005C7.98036 4.09203 7.91013 3.91831 7.87501 3.70984C7.73454 3.01494 8.01548 2.2853 8.54224 1.83362C9.06899 1.38193 9.84157 1.24295 10.5088 1.48617C10.9302 1.13872 11.5623 1.06923 12.0539 1.31244C12.5456 1.55566 12.8616 2.11158 12.8265 2.63275C13.3533 2.49377 13.88 2.84122 14.161 3.2929C14.4419 3.74458 14.477 4.3005 14.5121 4.82167C15.2847 4.78693 16.0573 5.13438 16.5489 5.72504C17.0054 6.3157 17.181 7.18432 16.9352 7.91397C17.6727 8.50463 18.375 9.19952 18.5506 10.1376C18.7262 11.041 18.1292 12.1528 17.181 12.1876C17.7078 12.2223 17.9536 12.9172 17.7078 13.4036C17.4971 13.8553 16.9703 14.1333 16.5138 14.3418C15.5305 14.7587 14.5121 15.0367 13.4586 15.1756C12.8265 15.2451 12.1944 15.2799 11.5974 15.0714C10.2981 14.585 9.7011 13.1952 9.24458 12.0139C8.78805 10.9715 7.48872 9.16478 8.89341 8.29616Z" fill="#81CC7A"/>
<path d="M27.2246 5.48202C27.5758 4.96085 28.2781 4.71763 28.8751 4.89136C28.9453 4.12697 29.5775 3.46682 30.3149 3.36258C31.0524 3.25835 31.8601 3.71003 32.1761 4.40493C32.6678 4.02273 33.4403 4.47442 33.5808 5.06508C33.7213 5.65574 33.4052 6.28115 33.0189 6.76758C33.5106 6.90656 33.7564 7.53196 33.6861 8.01839C33.6159 8.50482 33.2999 8.9565 32.9838 9.40819C33.651 9.89461 33.7564 10.9022 33.3701 11.5971C32.9838 12.292 32.141 12.7089 31.3333 12.7437C30.4905 12.7784 29.7882 12.431 29.0156 12.0835C26.3818 15.2801 22.9052 7.80992 27.2597 7.25401C26.9437 6.69809 26.8734 6.00319 27.2246 5.48202Z" fill="#6FB56B"/>
<path d="M30.8766 8.57388C31.2278 7.98322 31.6492 7.46205 32.1759 7.04511C32.5622 6.73241 33.0187 6.52394 33.4753 6.31547C34.7044 5.72481 36.2144 5.0994 37.3733 5.7943C37.584 5.93327 37.7947 6.07225 38.0054 6.21123C38.497 6.45445 39.094 6.38496 39.6559 6.38496C40.2177 6.38496 40.8147 6.45445 41.2712 6.76715C41.7629 7.07985 42.0789 7.60103 42.0438 8.15694C42.0087 8.4349 41.8682 8.71286 41.8682 9.02557C41.8682 9.26878 41.9736 9.51199 42.0087 9.78995C42.1141 10.4154 41.6926 11.145 41.0254 11.2492C40.8147 11.284 40.5689 11.2492 40.3231 11.284C39.3047 11.423 38.8833 12.7085 37.9702 13.0907C37.6893 13.1949 37.4084 13.2297 37.1274 13.2992C36.8465 13.4034 36.5656 13.5424 36.2846 13.6814C34.5288 14.4805 32.2462 14.0636 30.9117 12.6738C29.7177 11.3882 30.0689 9.89419 30.8766 8.57388Z" fill="#81CC7A"/>
<path d="M27.5406 13.2645C27.6459 13.2992 27.7162 13.334 27.8215 13.2992C27.9269 13.2645 27.962 13.1255 27.9971 13.0213C28.2078 12.3959 28.9804 12.0137 29.6476 12.2221C29.7881 12.2569 29.9285 12.3264 30.069 12.3264C30.2797 12.2916 30.4202 12.1179 30.5958 12.0137C31.0172 11.701 31.6493 11.7357 32.0356 12.0832C32.1409 12.1874 32.2463 12.2916 32.3516 12.3611C32.4921 12.4306 32.6677 12.3959 32.8081 12.4654C33.3349 12.6043 33.4402 13.3687 33.967 13.5077C34.3182 12.9518 35.161 12.8475 35.7228 13.2297C36.2847 13.6119 36.4954 14.3068 36.4603 14.967C36.355 16.4263 34.9152 17.6423 33.4754 17.5381C32.8081 17.5034 32.176 17.1907 31.5088 17.1907C30.8767 17.1907 30.2797 17.4686 29.6827 17.6771C28.2429 18.233 26.8031 18.0593 26.3817 16.4263C26.1008 15.4882 25.7145 12.8475 27.5406 13.2645Z" fill="#6FB56B"/>
<path d="M28.7697 5.48193C28.7697 5.48193 27.1894 8.50473 31.2981 10.2767C35.4068 12.0487 36.5657 8.60897 36.5657 8.60897L28.7697 5.48193Z" fill="#E24C24"/>
<path d="M36.4942 8.67732C36.8459 7.84524 35.4048 6.45654 33.2755 5.57557C31.1462 4.6946 29.1349 4.65496 28.7832 5.48704C28.4316 6.31912 29.8726 7.70782 32.002 8.58879C34.1313 9.46977 36.1425 9.5094 36.4942 8.67732Z" fill="#FF5A27"/>
<path d="M36.1702 8.54322C36.477 7.81736 35.1446 6.57478 33.1942 5.76784C31.2438 4.9609 29.414 4.89516 29.1072 5.62102C28.8005 6.34688 30.1329 7.58946 32.0832 8.3964C34.0336 9.20334 35.8634 9.26907 36.1702 8.54322Z" fill="#FF8B78"/>
<path d="M31.4736 6.00317C31.2981 6.00317 31.0874 6.03792 31.0522 6.21164C31.0171 6.28113 31.0171 6.35062 30.982 6.42011C30.9469 6.4896 30.8767 6.4896 30.8415 6.55909C30.8064 6.59384 30.8415 6.66333 30.8415 6.69807C30.9118 7.01077 31.2629 7.14975 31.579 7.21924C32.3516 7.46246 33.1241 7.74042 33.8967 7.98363C34.1074 8.05312 34.3532 8.12261 34.4937 7.98363C34.6342 7.8794 34.6342 7.67093 34.5639 7.4972C34.4937 7.32348 34.3532 7.21924 34.2128 7.11501C33.7914 6.80231 33.3348 6.4896 32.8432 6.31588C32.4218 6.1769 32.0004 6.00317 31.4736 6.00317Z" fill="#FF5A27"/>
<path d="M29.788 5.93328C29.9284 5.96803 30.0689 6.03752 30.2094 6.07226C30.2445 6.07226 30.2796 6.07226 30.2796 6.03752C30.3147 6.03752 30.3147 6.00277 30.3147 5.96803C30.3147 5.89854 30.2796 5.86379 30.2094 5.82905C30.1743 5.82905 30.104 5.7943 30.0689 5.7943H30.104C29.9987 5.75956 29.9284 5.75956 29.8231 5.72481C29.7529 5.69007 29.6826 5.72481 29.6826 5.7943C29.7177 5.82905 29.7177 5.93328 29.788 5.93328Z" fill="#FFB164"/>
<path d="M30.2797 5.65556C30.4202 5.72505 30.5255 5.51658 30.3851 5.44709C30.2446 5.3776 30.1392 5.58607 30.2797 5.65556Z" fill="#FFB164"/>
<path d="M30.2797 5.65532C30.3499 5.69007 30.4202 5.72481 30.5255 5.75956C30.5606 5.75956 30.5958 5.75956 30.6309 5.75956C30.666 5.75956 30.7011 5.72481 30.7011 5.69007C30.7011 5.65532 30.7011 5.62058 30.7011 5.58583C30.7011 5.55109 30.666 5.55109 30.6309 5.51634C30.5606 5.4816 30.4904 5.44685 30.3851 5.41211C30.3499 5.41211 30.3148 5.41211 30.2797 5.41211C30.2446 5.41211 30.2095 5.44685 30.2095 5.4816C30.2095 5.51634 30.2095 5.55109 30.2095 5.58583C30.2446 5.62058 30.2446 5.62058 30.2797 5.65532Z" fill="#FFB164"/>
<path d="M31.1926 5.41225C31.1926 5.447 31.1926 5.447 31.1926 5.48174C31.1926 5.51649 31.1926 5.51649 31.2277 5.55123C31.2629 5.58597 31.2629 5.62072 31.3331 5.65546C31.3331 5.65546 31.3682 5.65546 31.3682 5.69021H31.4033H31.4384C31.4384 5.69021 31.4736 5.69021 31.4736 5.65546V5.62072C31.4736 5.58598 31.4736 5.58597 31.4736 5.55123C31.4736 5.51649 31.4384 5.48174 31.4384 5.48174C31.4384 5.48174 31.4384 5.48174 31.4736 5.51649L31.4384 5.48174C31.4384 5.48174 31.4384 5.48174 31.4384 5.51649C31.4384 5.51649 31.4384 5.48174 31.4033 5.48174V5.51649V5.48174V5.51649V5.48174C31.4033 5.48174 31.4033 5.447 31.3682 5.447L31.3331 5.41225H31.298C31.2629 5.41225 31.2277 5.41225 31.2277 5.447C31.2277 5.37751 31.1926 5.41225 31.1926 5.41225Z" fill="#FFB164"/>
<path d="M32.0004 5.62091C32.0004 5.65566 31.9653 5.6904 31.9653 5.75989V5.79464C31.9653 5.79464 31.9653 5.82938 32.0004 5.82938L32.0356 5.86413H32.0707C32.1058 5.86413 32.1409 5.86413 32.1409 5.82938C32.1409 5.82938 32.1409 5.82938 32.176 5.79464C32.176 5.79464 32.2111 5.75989 32.2111 5.72515C32.2111 5.6904 32.2463 5.65566 32.2463 5.58617V5.55142C32.2463 5.55142 32.2463 5.51668 32.2111 5.51668L32.176 5.48193H32.1409C32.1058 5.48193 32.0707 5.48193 32.0707 5.51668C32.0707 5.51668 32.0707 5.51668 32.0356 5.55142C32.0004 5.58617 32.0004 5.58617 32.0004 5.62091Z" fill="#FFB164"/>
<path d="M33.37 6.35047C33.4051 6.31572 33.4753 6.31572 33.5104 6.28098C33.5104 6.28098 33.5455 6.28098 33.5455 6.24623L33.5807 6.21149V6.17674V6.142C33.5807 6.142 33.5807 6.142 33.5807 6.10725L33.5455 6.07251H33.5104C33.4753 6.07251 33.4753 6.07251 33.4402 6.07251C33.4051 6.10725 33.3348 6.10725 33.2997 6.142C33.2997 6.142 33.2646 6.142 33.2646 6.17674L33.2295 6.21149V6.24623V6.28098C33.2295 6.28098 33.2295 6.28098 33.2295 6.31572L33.2646 6.35047H33.2997C33.3348 6.35047 33.37 6.35047 33.37 6.35047Z" fill="#FFB164"/>
<path d="M34.2828 6.90647C34.3531 6.90647 34.4233 6.94121 34.5287 6.94121C34.5638 6.94121 34.5989 6.94121 34.5989 6.90647C34.634 6.90647 34.634 6.87172 34.634 6.83698C34.634 6.80223 34.634 6.76749 34.5989 6.76749C34.5638 6.73274 34.5638 6.73274 34.5287 6.73274C34.4584 6.73274 34.3882 6.698 34.2828 6.698C34.2477 6.698 34.2126 6.698 34.2126 6.73274C34.1775 6.73274 34.1775 6.76749 34.1775 6.80223C34.1775 6.83698 34.1775 6.87172 34.2126 6.87172C34.2477 6.87172 34.2477 6.90647 34.2828 6.90647Z" fill="#FFB164"/>
<path d="M34.9151 7.49676C35.0204 7.56625 35.1609 7.60099 35.2662 7.60099C35.3014 7.60099 35.3365 7.60099 35.3365 7.56625C35.3716 7.56625 35.3716 7.5315 35.3716 7.49676C35.3716 7.46201 35.3716 7.42727 35.3365 7.42727C35.3013 7.39252 35.3014 7.39252 35.2662 7.39252C35.2311 7.39252 35.2311 7.39252 35.196 7.39252H35.2311C35.1609 7.35778 35.0555 7.32303 34.9853 7.28829C34.9151 7.25354 34.8448 7.28829 34.8448 7.35778C34.8097 7.39252 34.8448 7.46201 34.9151 7.49676Z" fill="#FFB164"/>
<path d="M35.1258 8.1572C35.2312 8.22669 35.3014 8.29618 35.4067 8.36567C35.4419 8.40041 35.477 8.40041 35.477 8.40041C35.5121 8.40041 35.5472 8.36567 35.5472 8.36567C35.5823 8.33092 35.5823 8.22669 35.5121 8.19194C35.4067 8.12246 35.3365 8.05297 35.2312 7.98348C35.196 7.94873 35.1609 7.94873 35.1609 7.94873C35.1258 7.94873 35.0907 7.98348 35.0907 7.98348C35.0556 8.05297 35.0556 8.12245 35.1258 8.1572Z" fill="#FFB164"/>
<path d="M34.4936 8.33095C34.5288 8.40044 34.5639 8.46993 34.599 8.53942C34.599 8.53942 34.599 8.57417 34.6341 8.57417L34.6692 8.60891C34.7043 8.60891 34.7395 8.60891 34.7746 8.60891C34.8097 8.60891 34.8097 8.57416 34.8448 8.53942C34.8448 8.50468 34.8448 8.46993 34.8448 8.43519C34.8097 8.3657 34.7746 8.29621 34.7395 8.22672C34.7395 8.22672 34.7395 8.19197 34.7043 8.19197L34.6692 8.15723C34.6341 8.15723 34.599 8.15723 34.5639 8.15723C34.5288 8.15723 34.5288 8.19197 34.4936 8.22672C34.4936 8.26146 34.4585 8.29621 34.4936 8.33095Z" fill="#FFB164"/>
<path d="M33.5806 8.33095V8.3657C33.5806 8.3657 33.5806 8.3657 33.5806 8.33095C33.5806 8.3657 33.5806 8.40044 33.5806 8.40044V8.3657C33.5806 8.3657 33.5806 8.3657 33.5806 8.40044V8.43519V8.46993C33.5806 8.46993 33.5806 8.50468 33.6157 8.50468L33.6508 8.53942C33.6859 8.53942 33.721 8.53942 33.7561 8.53942C33.7913 8.53942 33.8264 8.50468 33.8264 8.46993C33.8264 8.43519 33.8615 8.40044 33.8615 8.3657C33.8615 8.33095 33.8615 8.29621 33.8615 8.26146C33.8615 8.22672 33.8264 8.19197 33.8264 8.19197C33.8264 8.19197 33.7913 8.19197 33.7913 8.15723H33.7561C33.721 8.15723 33.6859 8.19197 33.6859 8.19197V8.22672C33.5806 8.29621 33.5454 8.33095 33.5806 8.33095Z" fill="#FFB164"/>
<path d="M32.3515 8.01822C32.3515 8.05297 32.3515 8.05297 32.3515 8.08771V8.05297C32.3515 8.08771 32.3164 8.12245 32.3164 8.12245V8.1572V8.19194C32.3164 8.22669 32.3515 8.26143 32.3866 8.26143C32.4218 8.26143 32.4569 8.26143 32.492 8.26143C32.492 8.26143 32.492 8.26143 32.5271 8.26143L32.5622 8.22669C32.5622 8.19194 32.5973 8.1572 32.5973 8.1572C32.5973 8.12245 32.6325 8.08771 32.6325 8.05297C32.6325 8.01822 32.6325 7.98348 32.5973 7.98348L32.5622 7.94873H32.5271C32.492 7.94873 32.4569 7.94873 32.4569 7.98348C32.3515 7.94873 32.3515 7.98348 32.3515 8.01822Z" fill="#FFB164"/>
<path d="M31.5086 7.63605V7.6708V7.63605C31.5086 7.6708 31.4735 7.6708 31.4735 7.6708C31.4735 7.6708 31.5086 7.6708 31.5086 7.63605C31.4735 7.6708 31.4735 7.70554 31.4384 7.70554C31.4384 7.70554 31.4384 7.70554 31.4735 7.70554C31.4735 7.70554 31.4384 7.70554 31.4384 7.74029C31.4384 7.74029 31.4033 7.74028 31.4033 7.77503L31.3682 7.80977C31.3682 7.84452 31.3682 7.87926 31.3682 7.91401C31.3682 7.94875 31.4033 7.94875 31.4384 7.9835H31.4735C31.5086 7.9835 31.5086 7.9835 31.5437 7.9835C31.5789 7.9835 31.5789 7.94875 31.614 7.94875L31.6491 7.91401C31.6842 7.87926 31.6842 7.87926 31.6842 7.84452C31.6842 7.80977 31.7193 7.80977 31.7193 7.77503C31.7193 7.74028 31.7193 7.70554 31.7193 7.6708C31.7193 7.63605 31.6842 7.60131 31.6491 7.60131C31.614 7.60131 31.5789 7.60131 31.5437 7.60131C31.5437 7.56656 31.5086 7.60131 31.5086 7.63605Z" fill="#FFB164"/>
<path d="M30.7713 6.90616C30.7362 6.90616 30.7011 6.9409 30.666 6.9409H30.7011C30.6309 6.9409 30.5958 6.97565 30.5255 6.97565C30.4904 6.97565 30.4553 7.01039 30.4553 7.01039C30.4202 7.04514 30.4202 7.07988 30.4202 7.07988C30.4202 7.11463 30.4553 7.14937 30.4553 7.14937H30.4904C30.5255 7.14937 30.5255 7.14937 30.5606 7.14937C30.666 7.14937 30.7713 7.11463 30.8767 7.07988C30.9118 7.07988 30.9118 7.04514 30.9469 7.01039C30.9469 6.97565 30.9469 6.9409 30.9469 6.90616C30.9469 6.87141 30.9118 6.87141 30.8767 6.83667C30.8416 6.90616 30.8065 6.90616 30.7713 6.90616Z" fill="#FFB164"/>
<path d="M29.8231 6.55864C29.8582 6.55864 29.8933 6.5239 29.9284 6.5239C29.9284 6.5239 29.9636 6.5239 29.9636 6.48915L29.9987 6.45441V6.41966V6.38492C29.9987 6.38492 29.9987 6.38492 29.9987 6.35017L29.9636 6.31543H29.9284C29.8933 6.31543 29.8933 6.31543 29.8582 6.31543C29.8231 6.31543 29.788 6.35017 29.7529 6.35017C29.7529 6.35017 29.7177 6.35017 29.7177 6.38492L29.6826 6.41966V6.45441V6.48915C29.6826 6.48915 29.6826 6.48915 29.6826 6.5239L29.7177 6.55864H29.7529C29.788 6.55864 29.788 6.55864 29.8231 6.55864Z" fill="#FFB164"/>
<path opacity="0.24" d="M29.1912 8.29599C29.3668 8.53921 29.5072 8.78242 29.7882 8.88666C29.8935 8.9214 29.9989 8.95615 30.0691 8.85191C30.1042 8.78242 30.0691 8.67819 30.034 8.6087C29.9286 8.46972 29.8233 8.29599 29.7882 8.12227C29.7179 7.80957 29.6477 7.14941 29.1561 7.14941C28.6293 7.18416 29.0507 8.12227 29.1912 8.29599Z" fill="white"/>
<path d="M16.4436 10.7282C16.0924 9.99855 16.0573 9.09519 16.549 8.43504C16.9704 7.87912 17.6727 7.56641 18.3399 7.28846C17.462 6.48932 17.2513 5.13428 17.8483 4.12667C18.4453 3.11907 19.7797 2.56316 20.9737 2.80637C20.6928 1.93775 21.4302 0.964894 22.4135 0.756425C23.3617 0.547956 24.4152 1.03438 24.9419 1.79877C25.6092 1.41658 26.5924 1.55556 27.0841 2.11147C27.5757 2.70214 27.5406 3.6055 26.9787 4.12667C27.9269 4.92581 28.0322 6.41983 27.1894 7.3232C27.7162 7.74014 27.9971 8.36555 27.8918 8.99095C27.8215 9.61636 27.4001 10.1723 26.8031 10.485C26.9436 10.9019 27.049 11.3536 26.8383 11.7358C26.5924 12.1875 25.9955 12.3612 25.4687 12.3612C24.9419 12.3612 24.3801 12.257 23.8533 12.3612C24.064 12.8476 23.6426 13.4035 23.1159 13.612C22.5891 13.8205 21.9921 13.751 21.4302 13.7163C20.7981 13.6468 20.166 13.5773 19.4988 13.5425C19.1476 13.5078 18.7613 13.473 18.4804 13.2646C18.1292 13.0214 18.0239 12.4654 17.7078 12.1527C17.2513 11.7011 16.7597 11.3536 16.4436 10.7282Z" fill="#89E269"/>
<path d="M28.3481 10.7283L28.2778 11.9791C28.2778 11.9791 28.9099 13.7511 31.6491 14.0985C34.7043 14.4807 36.9517 13.5078 36.9869 11.7011C36.9869 11.3884 36.6006 10.624 36.6006 10.624L28.3129 10.6935L28.3481 10.7283Z" fill="#59B24F"/>
<path d="M36.6441 11.074C36.7054 9.90496 34.9022 8.86225 32.6166 8.74502C30.331 8.62779 28.4285 9.48042 28.3673 10.6494C28.306 11.8184 30.1092 12.8611 32.3948 12.9784C34.6804 13.0956 36.5829 12.243 36.6441 11.074Z" fill="#84D17D"/>
<path d="M36.39 11.0064C36.4251 11.9097 34.7395 12.7088 32.5973 12.6394C30.4903 12.5699 28.6291 11.597 28.594 10.6936C28.5589 9.79028 30.4201 8.88692 32.5271 8.9564C34.6692 9.06064 36.3549 10.103 36.39 11.0064Z" fill="#B0EDA9"/>
<path d="M30.139 10.5197C30.0687 10.4502 29.9985 10.3807 29.9634 10.3112C29.9634 10.1722 30.139 10.1027 30.2794 10.1027C30.5955 10.068 30.8764 10.1375 31.1574 10.2417C31.052 10.1375 30.9818 9.9985 30.9467 9.89426C30.9467 9.85952 30.9115 9.82478 30.9467 9.82478C30.9818 9.75529 31.052 9.75529 31.1222 9.79003C31.4383 9.92901 31.7543 10.1027 32.0704 10.3112C32.0002 10.1722 31.9299 10.0332 31.8948 9.89426C31.8948 9.75529 31.9299 9.58156 32.0704 9.51207C32.246 9.40784 32.4567 9.51207 32.5972 9.65105C32.7376 9.79003 32.8079 9.9985 32.843 10.1722C33.0888 9.96375 33.44 9.85952 33.7911 9.89426C33.8614 9.89426 33.9667 9.92901 34.0018 9.9985C34.0721 10.1027 33.9667 10.207 33.8614 10.2765C34.2477 10.1722 34.7042 10.2765 35.0202 10.5544C35.0554 10.5892 35.0905 10.6239 35.0905 10.6934C35.0905 10.7281 35.0554 10.7629 35.0554 10.7629C34.9149 10.9366 34.7042 11.0408 34.4935 11.0756C34.2828 11.1103 34.037 11.1103 33.8263 11.1103C34.037 11.1798 34.2477 11.2841 34.4584 11.423C34.4935 11.423 34.4935 11.4578 34.5286 11.4925C34.5286 11.5273 34.5286 11.5273 34.4935 11.562C34.353 11.8052 34.037 11.8747 33.756 11.7705C33.4751 11.701 33.2644 11.5273 33.0186 11.3535C33.1239 11.4925 33.2293 11.6663 33.1942 11.84C33.159 12.0137 33.0186 12.1527 32.843 12.1179C32.7727 12.0832 32.7025 12.0484 32.6674 11.979C32.4918 11.8052 32.3513 11.5968 32.2811 11.3883C32.2811 11.6663 32.0353 11.9095 31.7192 11.9442C31.649 11.9442 31.5788 11.9442 31.5085 11.8747C31.4383 11.8052 31.4383 11.701 31.4734 11.6315C31.5085 11.562 31.5788 11.4925 31.649 11.423C31.4383 11.562 31.1925 11.6663 30.9818 11.5273C30.9115 11.4925 30.8764 11.423 30.8764 11.3535C30.8764 11.3188 30.9467 11.2841 30.9818 11.2493C31.0871 11.1798 31.3329 11.1103 31.3681 11.0061C30.8764 10.8671 30.4901 10.7976 30.139 10.5197Z" fill="#C1FFB8"/>
<path d="M14.7227 17.2601L16.0923 18.3024C16.0923 18.3024 18.8666 19.171 22.1324 17.1558C25.8197 14.8974 27.1191 12.2568 25.0472 10.7975C24.696 10.5543 23.3615 10.2764 23.3615 10.2764L14.5823 17.2253L14.7227 17.2601Z" fill="#59B24F"/>
<path d="M20.7104 16.2665C23.4959 14.6693 25.1313 12.3113 24.363 10.9997C23.5948 9.68815 20.7139 9.91964 17.9284 11.5168C15.1429 13.1139 13.5075 15.4719 14.2758 16.7835C15.044 18.0951 17.9249 17.8636 20.7104 16.2665Z" fill="#84D17D"/>
<path d="M23.6074 10.7628C24.661 11.4577 23.8182 13.5076 21.4653 15.2101C19.1125 16.9126 16.0222 17.7118 14.9335 17.0169C13.88 16.322 14.7931 14.0983 17.1108 12.3958C19.4285 10.6933 22.5539 10.0679 23.6074 10.7628Z" fill="#B0EDA9"/>
<path d="M16.3732 15.6271C16.2328 15.6618 16.0572 15.6618 15.9518 15.5923C15.7763 15.4881 15.8816 15.2796 16.0221 15.1406C16.303 14.8627 16.6893 14.6542 17.1107 14.4805C16.9 14.4805 16.6542 14.4457 16.4786 14.3763C16.4435 14.3763 16.3732 14.3415 16.3732 14.3068C16.303 14.2373 16.4435 14.1678 16.5488 14.133C17.0405 13.9593 17.6023 13.8203 18.1291 13.7508C17.8833 13.7161 17.6726 13.6814 17.497 13.5771C17.3214 13.4729 17.2161 13.2992 17.2512 13.1254C17.3214 12.917 17.6375 12.778 17.9535 12.778C18.2696 12.778 18.5505 12.8822 18.8314 12.9865C18.8666 12.6043 19.1124 12.2221 19.4987 11.9789C19.604 11.9094 19.7094 11.8746 19.8498 11.8746C20.0254 11.9094 20.0605 12.0831 20.0254 12.2221C20.3064 11.8051 20.9385 11.5272 21.5706 11.4924C21.6408 11.4924 21.7462 11.4924 21.8164 11.5272C21.8515 11.5619 21.8515 11.5967 21.8866 11.6314C21.9569 11.8746 21.8515 12.1526 21.6408 12.3611C21.4652 12.5695 21.2194 12.778 20.9736 12.9517C21.2896 12.8127 21.6408 12.7432 22.0271 12.6738C22.0622 12.6738 22.1324 12.6738 22.1676 12.6738C22.2027 12.6738 22.2027 12.7085 22.2378 12.7432C22.3431 13.0559 22.0973 13.3687 21.711 13.5424C21.3248 13.7161 20.8682 13.7508 20.4468 13.8203C20.7278 13.8203 21.0087 13.8898 21.1843 14.0636C21.3599 14.2025 21.3248 14.4805 21.114 14.5847C21.0087 14.6195 20.8682 14.6542 20.7629 14.6542C20.3766 14.6542 20.0254 14.6195 19.6743 14.5152C19.9903 14.7584 20.0254 15.1406 19.7094 15.4186C19.6391 15.4881 19.5338 15.5576 19.3933 15.5576C19.2528 15.5576 19.1124 15.4881 19.0773 15.3839C19.007 15.2796 19.0421 15.1754 19.0421 15.0712C18.9719 15.3491 18.8314 15.6618 18.4452 15.7313C18.3398 15.766 18.1993 15.7313 18.1291 15.6618C18.094 15.6271 18.094 15.5576 18.1291 15.5228C18.1642 15.3839 18.3398 15.1059 18.2696 15.0017C17.5672 15.2449 17.0756 15.5228 16.3732 15.6271Z" fill="#C1FFB8"/>
<path d="M16.5488 2.77139L15.2846 3.32731C15.2846 3.32731 13.8097 4.82134 14.6876 7.63567C15.6709 10.7975 17.6375 12.5347 19.4284 11.6661C19.7094 11.5271 20.3064 10.728 20.3064 10.728L16.584 2.7019L16.5488 2.77139Z" fill="#59B24F"/>
<path d="M19.8436 11.1045C21.0438 10.6642 21.3115 8.42573 20.4416 6.10481C19.5717 3.78389 17.8935 2.25938 16.6934 2.69974C15.4932 3.14009 15.2255 5.37855 16.0954 7.69947C16.9653 10.0204 18.6434 11.5449 19.8436 11.1045Z" fill="#84D17D"/>
<path d="M19.8497 10.7628C18.9718 11.2144 17.4266 9.96363 16.5487 7.87893C15.6708 5.79424 15.8112 3.46634 16.6892 3.01466C17.5671 2.56297 19.2527 3.91802 20.1306 6.00271C21.0086 8.0874 20.7276 10.3111 19.8497 10.7628Z" fill="#B0EDA9"/>
<path d="M17.5321 4.40435C17.5672 4.30012 17.5672 4.19588 17.6725 4.12639C17.813 4.0569 17.9535 4.19588 18.0237 4.33486C18.1642 4.61282 18.2695 4.92552 18.3046 5.27297C18.3749 5.13399 18.4451 4.99501 18.5505 4.89078C18.5856 4.85604 18.5856 4.85604 18.6207 4.82129C18.6909 4.82129 18.7261 4.89078 18.7261 4.99501C18.7612 5.37721 18.7261 5.7594 18.6207 6.17634C18.6909 6.03736 18.7963 5.89838 18.9368 5.82889C19.0772 5.7594 19.2528 5.72466 19.3933 5.82889C19.5689 5.93313 19.5689 6.21108 19.4986 6.41955C19.4284 6.62802 19.2528 6.767 19.1123 6.90598C19.4284 7.04496 19.7093 7.32292 19.8147 7.67037C19.8498 7.73986 19.8498 7.84409 19.8147 7.91358C19.7444 8.01782 19.5689 7.98307 19.4635 7.91358C19.7444 8.22628 19.8498 8.74746 19.7093 9.1644C19.7093 9.23389 19.6742 9.26863 19.604 9.30338C19.5689 9.30338 19.5337 9.30338 19.4986 9.30338C19.2528 9.26863 19.0772 9.09491 18.9368 8.92118C18.7963 8.71271 18.6909 8.50424 18.6207 8.26103C18.6558 8.50424 18.6207 8.7822 18.5856 9.02542C18.5856 9.06016 18.5856 9.09491 18.5505 9.12965C18.5154 9.12965 18.5154 9.12965 18.4802 9.12965C18.1993 9.09491 17.9886 8.81695 17.9184 8.50424C17.8832 8.19154 17.9535 7.87884 18.0237 7.56613C17.9535 7.73986 17.813 7.91358 17.6374 7.98307C17.4618 8.05256 17.2511 7.94833 17.216 7.7746C17.216 7.70511 17.216 7.60088 17.2511 7.53139C17.3565 7.28817 17.4618 7.04496 17.6374 6.87124C17.3565 7.01022 17.0053 6.87124 16.8648 6.59328C16.8297 6.52379 16.7946 6.41955 16.8297 6.35006C16.8648 6.24583 16.9702 6.21108 17.0756 6.21108C17.1809 6.21108 17.2511 6.24583 17.3565 6.28057C17.1458 6.14159 16.9 5.93313 16.9351 5.65517C16.9351 5.58568 17.0053 5.48144 17.0756 5.48144C17.1107 5.48144 17.1809 5.48144 17.216 5.51619C17.3214 5.58568 17.5321 5.79415 17.6374 5.79415C17.5321 5.30772 17.4267 4.89078 17.5321 4.40435Z" fill="#C1FFB8"/>
<path d="M10.895 12.4657C10.895 12.4657 11.1408 15.8707 15.5656 15.2453C20.0255 14.6199 19.1826 11.0759 19.1826 11.0759L10.895 12.4657Z" fill="#E24C24"/>
<path d="M15.2943 13.4201C17.5744 13.0662 19.3081 12.057 19.1669 11.166C19.0256 10.275 17.0627 9.83966 14.7827 10.1936C12.5026 10.5475 10.7688 11.5567 10.9101 12.4477C11.0514 13.3387 13.0143 13.774 15.2943 13.4201Z" fill="#FF5A27"/>
<path d="M15.2617 13.2142C17.3502 12.89 18.9432 11.9971 18.82 11.2198C18.6967 10.4426 16.9038 10.0754 14.8154 10.3996C12.7269 10.7238 11.1339 11.6166 11.2571 12.3939C11.3804 13.1711 13.1733 13.5384 15.2617 13.2142Z" fill="#FF8B78"/>
<path d="M13.4937 11.493C13.3532 11.5972 13.2128 11.7362 13.2479 11.9099C13.2479 11.9794 13.3181 12.0489 13.3181 12.1184C13.3181 12.1879 13.283 12.2573 13.283 12.3268C13.283 12.3616 13.3181 12.4311 13.3532 12.4658C13.5991 12.6743 13.9502 12.6048 14.2663 12.5353C15.074 12.3616 15.8466 12.1531 16.6542 11.9794C16.8649 11.9446 17.1108 11.8404 17.1459 11.6667C17.2161 11.493 17.1108 11.3192 16.9352 11.215C16.7947 11.1108 16.6191 11.076 16.4435 11.076C15.9168 11.0065 15.39 11.0065 14.8633 11.1108C14.3716 11.1455 13.9151 11.215 13.4937 11.493Z" fill="#FF5A27"/>
<path d="M12.0186 12.3269C12.1591 12.2922 12.2996 12.2574 12.44 12.2227C12.4752 12.2227 12.4752 12.188 12.5103 12.1532C12.5103 12.1185 12.5103 12.0837 12.5103 12.049C12.4752 11.9795 12.4049 11.9795 12.3698 11.9795C12.3347 11.9795 12.2996 12.0142 12.2293 12.0142H12.2645C12.1591 12.049 12.0889 12.049 11.9835 12.0837C11.9133 12.0837 11.8782 12.1532 11.8782 12.2227C11.9133 12.2922 11.9484 12.3269 12.0186 12.3269Z" fill="#FFB164"/>
<path d="M12.2997 11.8057C12.4402 11.771 12.4051 11.5625 12.2646 11.5625C12.089 11.5972 12.1241 11.8405 12.2997 11.8057Z" fill="#FFB164"/>
<path d="M12.2997 11.8057C12.405 11.8057 12.4753 11.8057 12.5806 11.771C12.6157 11.771 12.6509 11.7362 12.6509 11.7362C12.6509 11.7015 12.686 11.6667 12.686 11.6667C12.686 11.632 12.6509 11.5972 12.6509 11.5972C12.6157 11.5625 12.5806 11.5625 12.5806 11.5625C12.4753 11.5625 12.405 11.5625 12.2997 11.5972C12.2646 11.5972 12.2295 11.632 12.2295 11.632C12.2295 11.6667 12.1943 11.7015 12.1943 11.7015C12.1943 11.7362 12.2295 11.771 12.2295 11.771C12.2295 11.8057 12.2646 11.8057 12.2997 11.8057Z" fill="#FFB164"/>
<path d="M12.967 11.1456C12.967 11.1804 13.0021 11.1804 13.0021 11.2151C13.0021 11.2499 13.0372 11.2499 13.0724 11.2499C13.1075 11.2846 13.1777 11.2846 13.2128 11.3194H13.2479C13.2479 11.3194 13.2831 11.3194 13.2831 11.2846L13.3182 11.2499V11.2151V11.1804C13.3182 11.1456 13.3182 11.1456 13.2831 11.1109C13.2479 11.0762 13.2479 11.0762 13.2128 11.0762C13.2128 11.0762 13.2128 11.0762 13.1777 11.0762H13.2128C13.2128 11.0762 13.1777 11.0762 13.1777 11.0414C13.1777 11.0414 13.1777 11.0414 13.2128 11.0414L13.1777 11.0067C13.1777 11.0067 13.1777 11.0067 13.2128 11.0414L13.1777 11.0067C13.1777 11.0067 13.1777 11.0067 13.1777 11.0414C13.1777 11.0414 13.1777 11.0067 13.1426 11.0067L13.1075 10.9719H13.0724H13.0372C13.0021 10.9719 13.0021 11.0067 12.967 11.0414C12.9319 11.0762 12.9319 11.1109 12.967 11.1456Z" fill="#FFB164"/>
<path d="M13.7043 10.9022C13.7043 10.937 13.7395 10.9717 13.7395 11.0412C13.7395 11.0412 13.7395 11.076 13.7746 11.076L13.8097 11.1107H13.8448H13.8799C13.915 11.1107 13.915 11.076 13.9502 11.0412V11.0065C13.9502 10.9717 13.9502 10.9717 13.9502 10.937C13.9502 10.9022 13.915 10.8675 13.915 10.798C13.915 10.798 13.915 10.7633 13.8799 10.7633L13.8448 10.7285H13.8097H13.7746C13.7395 10.7285 13.7395 10.7633 13.7043 10.798V10.8328C13.7043 10.8675 13.7043 10.8675 13.7043 10.9022Z" fill="#FFB164"/>
<path d="M15.2847 10.798C15.3198 10.7632 15.3549 10.7285 15.39 10.659C15.39 10.659 15.39 10.6243 15.4251 10.6243V10.5895V10.5548C15.4251 10.5548 15.4251 10.52 15.39 10.52C15.39 10.52 15.39 10.52 15.3549 10.52C15.3198 10.52 15.3198 10.52 15.2847 10.52H15.2496C15.2144 10.52 15.2144 10.5548 15.2144 10.5548C15.1793 10.5895 15.1442 10.6243 15.1091 10.6937C15.1091 10.6937 15.1091 10.7285 15.074 10.7285V10.7632V10.798C15.074 10.798 15.074 10.8327 15.1091 10.8327C15.1091 10.8327 15.1091 10.8327 15.1442 10.8327C15.1793 10.8327 15.1793 10.8327 15.2144 10.8327H15.2496L15.2847 10.798Z" fill="#FFB164"/>
<path d="M16.3733 10.7981C16.4436 10.7634 16.5138 10.7286 16.584 10.6939C16.6192 10.6939 16.6192 10.6592 16.6543 10.6244C16.6543 10.5897 16.6543 10.5549 16.6543 10.5202C16.6543 10.4854 16.6192 10.4854 16.584 10.4507C16.5489 10.4507 16.5138 10.4507 16.4787 10.4507C16.4085 10.4854 16.3382 10.5202 16.268 10.5549C16.2329 10.5549 16.2329 10.5897 16.1978 10.6244C16.1978 10.6592 16.1978 10.6939 16.1978 10.7286C16.1978 10.7634 16.2329 10.7634 16.268 10.7981C16.3031 10.7981 16.3382 10.7981 16.3733 10.7981Z" fill="#FFB164"/>
<path d="M17.2161 10.9719C17.3566 10.9719 17.4619 10.9371 17.5673 10.9024C17.6024 10.9024 17.6024 10.8676 17.6375 10.8329C17.6375 10.7982 17.6375 10.7634 17.6375 10.7287C17.6375 10.6939 17.6024 10.6939 17.5673 10.6592C17.5322 10.6592 17.497 10.6592 17.4619 10.6592C17.4268 10.6592 17.4268 10.6592 17.3917 10.6939H17.4268C17.3566 10.7287 17.2512 10.7287 17.1459 10.7287C17.0756 10.7287 17.0405 10.7982 17.0405 10.8676C17.0756 10.9719 17.1459 11.0066 17.2161 10.9719Z" fill="#FFB164"/>
<path d="M17.7428 11.4581C17.8482 11.4581 17.9886 11.4581 18.094 11.4928C18.1291 11.4928 18.1642 11.4928 18.1642 11.4581C18.1993 11.4233 18.1993 11.4233 18.1993 11.3886C18.1993 11.3191 18.1642 11.2496 18.094 11.2496C17.9886 11.2496 17.8482 11.2496 17.7428 11.2148C17.7077 11.2148 17.6726 11.2148 17.6726 11.2496C17.6375 11.2843 17.6375 11.2843 17.6375 11.3191C17.6375 11.3886 17.6726 11.4581 17.7428 11.4581Z" fill="#FFB164"/>
<path d="M17.2863 11.9098C17.3566 11.9446 17.4268 11.9793 17.497 12.014C17.497 12.014 17.5322 12.014 17.5322 12.0488H17.5673C17.6024 12.0488 17.6375 12.014 17.6375 12.014C17.6375 11.9793 17.6726 11.9446 17.6726 11.9446C17.6726 11.9098 17.6375 11.8751 17.6375 11.8751C17.5673 11.8403 17.497 11.8056 17.4268 11.7708C17.4268 11.7708 17.3917 11.7708 17.3917 11.7361H17.3566C17.3215 11.7361 17.2863 11.7708 17.2863 11.7708C17.2863 11.8056 17.2512 11.8403 17.2512 11.8403C17.2512 11.8751 17.2512 11.9098 17.2863 11.9098Z" fill="#FFB164"/>
<path d="M16.5139 12.3963L16.549 12.431C16.5139 12.431 16.5139 12.431 16.5139 12.3963C16.549 12.431 16.549 12.4658 16.549 12.4658V12.431C16.549 12.431 16.549 12.431 16.549 12.4658V12.5005C16.549 12.5005 16.549 12.5353 16.5841 12.5353C16.5841 12.5353 16.6192 12.5353 16.6192 12.57H16.6543C16.6895 12.57 16.7246 12.5353 16.7246 12.5353C16.7246 12.5005 16.7597 12.4658 16.7597 12.4658C16.7597 12.431 16.7597 12.3963 16.7246 12.3616C16.7246 12.3268 16.6895 12.2921 16.6543 12.2921C16.6192 12.2573 16.6192 12.2573 16.5841 12.2573H16.549C16.549 12.2573 16.5139 12.2573 16.5139 12.2921C16.4788 12.3268 16.4788 12.3268 16.4788 12.3616V12.3963C16.4788 12.3616 16.4788 12.3963 16.5139 12.3963Z" fill="#FFB164"/>
<path d="M15.2846 12.7437C15.2846 12.7785 15.3197 12.7785 15.3197 12.8132V12.7785C15.3197 12.8132 15.3197 12.848 15.3197 12.8827V12.9174C15.3197 12.9174 15.3197 12.9522 15.3549 12.9522C15.39 12.9522 15.4251 12.9869 15.4251 12.9869C15.4602 12.9869 15.4953 12.9522 15.4953 12.9522C15.4953 12.9522 15.4953 12.9522 15.4953 12.9174C15.4953 12.8827 15.4953 12.8827 15.4953 12.848C15.4953 12.8132 15.4953 12.7785 15.4953 12.7785C15.4953 12.7437 15.4602 12.709 15.4602 12.6742C15.4602 12.6395 15.4251 12.6395 15.39 12.6047H15.3549H15.3197C15.2846 12.6047 15.2846 12.6395 15.2495 12.6742C15.2846 12.6742 15.2846 12.709 15.2846 12.7437Z" fill="#FFB164"/>
<path d="M14.3715 12.848V12.8827C14.3715 12.8827 14.3715 12.8827 14.3715 12.848C14.3715 12.8827 14.3715 12.8827 14.3715 12.9175C14.3715 12.9175 14.3715 12.9175 14.3715 12.848C14.3715 12.8827 14.3715 12.9175 14.3715 12.9175C14.3715 12.9175 14.3715 12.9175 14.3715 12.8827C14.3715 12.8827 14.3715 12.9175 14.3364 12.9175C14.3364 12.9175 14.3364 12.9522 14.3013 12.9522V12.9869C14.3013 13.0217 14.3364 13.0564 14.3364 13.0564C14.3715 13.0564 14.4066 13.0912 14.4066 13.0912H14.4417C14.4769 13.0912 14.4769 13.0564 14.4769 13.0564C14.512 13.0217 14.512 13.0217 14.512 12.9869C14.512 12.9869 14.512 12.9522 14.5471 12.9522C14.5471 12.9175 14.5471 12.9175 14.5471 12.8827C14.5471 12.848 14.5471 12.8132 14.5471 12.8132C14.5471 12.7785 14.512 12.7437 14.512 12.7437C14.4769 12.7437 14.4417 12.709 14.4417 12.709C14.4066 12.709 14.3715 12.7437 14.3715 12.7437C14.3715 12.8132 14.3715 12.848 14.3715 12.848Z" fill="#FFB164"/>
<path d="M13.3533 12.6396C13.3182 12.6744 13.3182 12.7091 13.283 12.7439C13.283 12.7439 13.283 12.7439 13.3182 12.7091C13.283 12.7439 13.2128 12.7786 13.1777 12.8134C13.1426 12.8134 13.1426 12.8481 13.1426 12.8828C13.1426 12.9176 13.1426 12.9523 13.1777 12.9523C13.2128 12.9871 13.2128 12.9871 13.2479 12.9871H13.283C13.3182 12.9871 13.3182 12.9871 13.3533 12.9523C13.4586 12.8828 13.5289 12.8134 13.5991 12.7091C13.5991 12.6744 13.6342 12.6396 13.6342 12.6396C13.6342 12.6049 13.5991 12.5701 13.5991 12.5701C13.564 12.5701 13.5289 12.5354 13.5289 12.5354C13.4235 12.6049 13.3884 12.6049 13.3533 12.6396Z" fill="#FFB164"/>
<path d="M12.3699 12.8132C12.405 12.7785 12.405 12.7437 12.4401 12.7437C12.4401 12.7437 12.4401 12.709 12.4752 12.709V12.6742V12.6395C12.4752 12.6395 12.4752 12.6047 12.4401 12.6047C12.4401 12.6047 12.4401 12.6047 12.405 12.6047C12.3699 12.6047 12.3699 12.6047 12.3348 12.6047H12.2996C12.2645 12.6047 12.2645 12.6395 12.2645 12.6395C12.2294 12.6742 12.2294 12.709 12.1943 12.709C12.1943 12.709 12.1943 12.7437 12.1592 12.7437V12.7785V12.8132C12.1592 12.8132 12.1592 12.848 12.1943 12.848C12.1943 12.848 12.1943 12.848 12.2294 12.848C12.2645 12.848 12.2645 12.848 12.2996 12.848H12.3348C12.3348 12.848 12.3348 12.848 12.3699 12.8132Z" fill="#FFB164"/>
<path opacity="0.24" d="M12.7562 14.6548C13.0021 14.759 13.283 14.898 13.5639 14.8632C13.6693 14.8632 13.7746 14.7938 13.7746 14.6895C13.7746 14.62 13.6693 14.5505 13.599 14.5158C13.4235 14.4463 13.2479 14.3768 13.1425 14.2378C12.9318 14.0294 12.5104 13.4735 12.089 13.7167C11.7027 13.9946 12.5455 14.5505 12.7562 14.6548Z" fill="white"/>
<path d="M20.2712 10.0333C20.2712 10.0333 22.4134 12.6739 25.7144 9.68582C29.0154 6.69776 26.3114 4.26562 26.3114 4.26562L20.2712 10.0333Z" fill="#E24C24"/>
<path d="M24.4496 8.36422C26.1268 6.79545 26.9788 4.99242 26.3526 4.33702C25.7263 3.68162 23.859 4.42204 22.1818 5.9908C20.5047 7.55957 19.6527 9.36261 20.2789 10.018C20.9051 10.6734 22.7724 9.93298 24.4496 8.36422Z" fill="#FF5A27"/>
<path d="M24.3048 8.21301C25.8411 6.77608 26.6436 5.14773 26.0973 4.576C25.551 4.00427 23.8628 4.70565 22.3266 6.14259C20.7903 7.57952 19.9878 9.20787 20.5341 9.7796C21.0804 10.3513 22.7686 9.64994 24.3048 8.21301Z" fill="#FF8B78"/>
<path d="M21.8515 7.80961C21.7813 7.94859 21.7461 8.15705 21.8866 8.29603C21.9217 8.33078 21.992 8.36552 22.0622 8.43501C22.0973 8.5045 22.0973 8.57399 22.1324 8.60874C22.1675 8.64348 22.2027 8.67823 22.2729 8.67823C22.589 8.71297 22.8348 8.46976 23.0455 8.22654C23.6073 7.63588 24.1341 7.04522 24.696 6.41981C24.8364 6.28083 24.9769 6.07237 24.9418 5.8639C24.9067 5.69017 24.696 5.58594 24.5204 5.58594C24.3448 5.58594 24.1692 5.65543 24.0288 5.75966C23.5722 6.00288 23.1157 6.28083 22.7294 6.66303C22.3783 7.04522 22.0622 7.35792 21.8515 7.80961Z" fill="#FF5A27"/>
<path d="M21.114 9.3038C21.2194 9.19956 21.3247 9.09533 21.395 8.95635C21.395 8.92161 21.4301 8.88686 21.395 8.88686C21.395 8.85212 21.3599 8.81737 21.3247 8.81737C21.2545 8.78263 21.2194 8.81737 21.1491 8.85212C21.114 8.88686 21.0789 8.92161 21.0789 8.95635C21.0789 8.95635 21.0789 8.95635 21.114 8.92161C21.0438 8.99109 21.0087 9.06058 20.9384 9.13007C20.9033 9.16482 20.9033 9.23431 20.9384 9.3038C20.9736 9.33854 21.0789 9.33854 21.114 9.3038Z" fill="#FFB164"/>
<path d="M21.0438 8.74761C21.1491 8.64338 21.0086 8.46965 20.8682 8.57389C20.7628 8.67812 20.9384 8.85185 21.0438 8.74761Z" fill="#FFB164"/>
<path d="M21.0437 8.7476C21.114 8.67811 21.1842 8.64336 21.2545 8.57387C21.2896 8.53913 21.2896 8.50438 21.2896 8.50438C21.2896 8.46964 21.2896 8.43489 21.2545 8.43489C21.2193 8.40015 21.2193 8.40015 21.1842 8.40015C21.1491 8.40015 21.114 8.40015 21.114 8.43489C21.0437 8.50438 20.9735 8.53913 20.9033 8.60862C20.8682 8.64336 20.8682 8.67811 20.8682 8.67811C20.8682 8.71285 20.8682 8.7476 20.9033 8.7476C20.9384 8.78234 20.9384 8.78234 20.9735 8.78234C20.9735 8.78234 21.0086 8.7476 21.0437 8.7476Z" fill="#FFB164"/>
<path d="M21.2194 7.80954C21.2545 7.80954 21.2545 7.84429 21.2896 7.84429C21.3247 7.84429 21.3248 7.84429 21.3599 7.84429C21.395 7.84429 21.4652 7.84429 21.5003 7.80954C21.5003 7.80954 21.5355 7.80954 21.5355 7.7748L21.5706 7.74005V7.70531V7.67056C21.5706 7.67056 21.5706 7.67056 21.5355 7.63582L21.5003 7.60107C21.4652 7.60107 21.4301 7.60107 21.4301 7.60107C21.4301 7.60107 21.4301 7.60107 21.395 7.60107H21.4301H21.395H21.4301H21.395H21.4301H21.395H21.4301H21.395H21.3599C21.3599 7.60107 21.3247 7.60107 21.3247 7.63582L21.2896 7.67056C21.2896 7.70531 21.2545 7.74005 21.2896 7.74005C21.1492 7.7748 21.1843 7.80954 21.2194 7.80954Z" fill="#FFB164"/>
<path d="M21.676 7.18405C21.7111 7.2188 21.7462 7.25354 21.7813 7.25354H21.8164H21.8516C21.8516 7.25354 21.8867 7.25354 21.8867 7.2188L21.9218 7.18405C21.9218 7.14931 21.9569 7.11456 21.9218 7.11456V7.07982C21.9218 7.04508 21.8867 7.04508 21.8867 7.04508C21.8516 7.01033 21.8164 6.97559 21.7813 6.97559H21.7462H21.7111C21.7111 6.97559 21.676 6.97559 21.676 7.01033L21.6409 7.04508C21.6409 7.07982 21.6057 7.11456 21.6409 7.11456V7.14931C21.676 7.14931 21.676 7.18405 21.676 7.18405Z" fill="#FFB164"/>
<path d="M22.9402 6.21131C22.9402 6.14182 22.9402 6.10707 22.9402 6.03758V6.00284C22.9402 6.00284 22.9402 5.96809 22.905 5.96809L22.8699 5.93335H22.8348H22.7997C22.7646 5.93335 22.7646 5.93335 22.7295 5.96809C22.7295 5.96809 22.7295 5.96809 22.6943 6.00284C22.6943 6.03758 22.6943 6.03758 22.6943 6.07233C22.6943 6.14182 22.6943 6.17656 22.6943 6.24605V6.2808C22.6943 6.2808 22.6943 6.31554 22.7295 6.31554L22.7646 6.35029H22.7997H22.8348C22.8699 6.35029 22.8699 6.35029 22.905 6.31554C22.905 6.31554 22.905 6.31554 22.9402 6.2808C22.9402 6.2808 22.9402 6.24605 22.9402 6.21131Z" fill="#FFB164"/>
<path d="M23.8181 5.62046C23.8532 5.55097 23.8883 5.48148 23.9235 5.41199C23.9235 5.37724 23.9586 5.3425 23.9235 5.3425C23.9235 5.30776 23.8883 5.27301 23.8532 5.27301C23.8181 5.27301 23.783 5.23827 23.783 5.27301C23.7479 5.27301 23.7128 5.30776 23.7128 5.3425C23.6776 5.41199 23.6425 5.48148 23.6074 5.55097C23.6074 5.58571 23.5723 5.62046 23.6074 5.62046C23.6074 5.6552 23.6425 5.68995 23.6776 5.68995C23.7128 5.68995 23.7479 5.72469 23.7479 5.68995C23.783 5.6552 23.8181 5.6552 23.8181 5.62046Z" fill="#FFB164"/>
<path d="M24.6258 5.30787C24.7311 5.23838 24.8014 5.13414 24.8716 5.02991C24.8716 4.99516 24.9067 4.96042 24.8716 4.96042C24.8716 4.92568 24.8365 4.89093 24.8014 4.89093C24.7663 4.89093 24.7311 4.85619 24.7311 4.89093C24.696 4.89093 24.6609 4.92568 24.6609 4.96042C24.6609 4.99516 24.6258 4.99516 24.6258 5.02991C24.6258 5.02991 24.6258 5.02991 24.6609 4.99517C24.5907 5.06465 24.5556 5.13414 24.4853 5.16889C24.4502 5.20363 24.4502 5.30787 24.4853 5.34261C24.5204 5.34261 24.5556 5.34261 24.6258 5.30787Z" fill="#FFB164"/>
<path d="M25.3282 5.37746C25.4336 5.30798 25.5389 5.27323 25.6091 5.20374C25.6443 5.20374 25.6443 5.169 25.6794 5.13425C25.6794 5.09951 25.6794 5.06476 25.6794 5.06476C25.6443 5.03002 25.574 4.99527 25.5389 5.03002C25.4336 5.09951 25.3282 5.13425 25.258 5.20374C25.2229 5.20374 25.2229 5.23849 25.1877 5.27323C25.1877 5.30798 25.1877 5.34272 25.1877 5.34272C25.1877 5.37747 25.2931 5.41221 25.3282 5.37746Z" fill="#FFB164"/>
<path d="M25.2228 6.03781C25.293 6.03781 25.3984 6.03781 25.4686 6.03781H25.5037C25.5037 6.03781 25.5388 6.03781 25.5388 6.00307C25.574 5.96832 25.5739 5.96832 25.5739 5.93358C25.5739 5.89884 25.574 5.86409 25.5388 5.86409C25.5037 5.82935 25.5037 5.82935 25.4686 5.82935C25.3984 5.82935 25.293 5.82935 25.2228 5.82935H25.1877C25.1877 5.82935 25.1525 5.82935 25.1525 5.86409C25.1174 5.89884 25.1174 5.89884 25.1174 5.93358C25.1174 5.96832 25.1174 6.00307 25.1525 6.00307C25.1525 6.00307 25.1877 6.03781 25.2228 6.03781Z" fill="#FFB164"/>
<path d="M24.8714 6.87139H24.9065H24.8714C24.9065 6.87139 24.9417 6.90613 24.9417 6.90613C24.9417 6.90613 24.9417 6.90613 24.9065 6.87139L24.9417 6.90613H24.9768H25.0119C25.0119 6.90613 25.047 6.90613 25.047 6.87139C25.0821 6.83664 25.0821 6.83664 25.0821 6.8019C25.0821 6.76715 25.0821 6.73241 25.047 6.73241C25.0119 6.69766 25.0119 6.69766 24.9768 6.66292C24.9417 6.66292 24.9065 6.62817 24.8714 6.62817C24.8363 6.62817 24.8012 6.62817 24.8012 6.62817C24.8012 6.62817 24.7661 6.62817 24.7661 6.66292L24.731 6.69766C24.731 6.73241 24.731 6.76715 24.731 6.76715C24.731 6.76715 24.731 6.76715 24.7661 6.8019C24.8012 6.83664 24.8363 6.87139 24.8714 6.87139Z" fill="#FFB164"/>
<path d="M24.0639 7.84435C24.099 7.84435 24.099 7.87909 24.1341 7.87909C24.1341 7.87909 24.1341 7.87909 24.099 7.84435C24.1341 7.87909 24.1341 7.87909 24.1692 7.91384L24.2043 7.94858H24.2395C24.2746 7.94858 24.3097 7.94858 24.3097 7.91384C24.3448 7.87909 24.3448 7.87909 24.3448 7.84435V7.8096C24.3448 7.77486 24.3448 7.77486 24.3097 7.74012C24.2746 7.70537 24.2746 7.70537 24.2395 7.67063C24.2043 7.63588 24.1692 7.63588 24.1341 7.60114C24.099 7.60114 24.0639 7.56639 24.0639 7.60114C24.0639 7.60114 24.0288 7.60114 24.0288 7.63588L23.9936 7.67063C23.9936 7.70537 23.9585 7.74012 23.9936 7.74012C23.9936 7.8096 24.0288 7.8096 24.0639 7.84435Z" fill="#FFB164"/>
<path d="M23.3616 8.43486C23.3616 8.43486 23.3967 8.46961 23.3616 8.43486C23.3967 8.43486 23.3967 8.46961 23.3616 8.43486C23.3967 8.46961 23.3967 8.46961 23.3967 8.46961C23.3967 8.46961 23.3967 8.46961 23.3616 8.43486C23.3967 8.46961 23.3967 8.50435 23.3967 8.50435V8.46961V8.50435V8.5391C23.3967 8.5391 23.3967 8.57384 23.4318 8.57384C23.4669 8.60859 23.4669 8.60859 23.502 8.60859C23.5371 8.60859 23.5723 8.60859 23.5723 8.57384C23.5723 8.57384 23.5723 8.57384 23.6074 8.5391C23.6074 8.50435 23.6074 8.50435 23.6074 8.46961C23.6074 8.43486 23.6074 8.43486 23.6074 8.40012V8.36537C23.6074 8.33063 23.6074 8.33063 23.5723 8.29588C23.5723 8.26114 23.5371 8.26114 23.5371 8.2264C23.502 8.19165 23.502 8.19165 23.4669 8.19165C23.4318 8.19165 23.3967 8.19165 23.3967 8.2264C23.3616 8.26114 23.3616 8.26114 23.3616 8.29588C23.3264 8.40012 23.3616 8.40012 23.3616 8.43486Z" fill="#FFB164"/>
<path d="M22.4135 8.81712C22.4135 8.85187 22.4135 8.88662 22.4135 8.9561V8.92136C22.4135 8.99085 22.3784 9.02559 22.3784 9.09508C22.3784 9.12983 22.3784 9.16457 22.3784 9.16457C22.3784 9.19932 22.4135 9.19932 22.4487 9.23406C22.4838 9.23406 22.5189 9.23406 22.5189 9.23406C22.5189 9.23406 22.5189 9.23406 22.554 9.19932L22.5891 9.16457C22.6242 9.06034 22.6594 8.9561 22.6594 8.85187C22.6594 8.81713 22.6594 8.78238 22.6242 8.78238C22.5891 8.71289 22.554 8.71289 22.5189 8.71289C22.4838 8.71289 22.4487 8.71289 22.4487 8.74764C22.4135 8.74764 22.4135 8.78238 22.4135 8.81712Z" fill="#FFB164"/>
<path d="M21.676 9.54685C21.676 9.5121 21.676 9.47736 21.676 9.44261V9.40787C21.676 9.40787 21.676 9.37312 21.6409 9.37312L21.6058 9.33838H21.5706H21.5355C21.5004 9.33838 21.5004 9.33838 21.4653 9.37312C21.4653 9.37312 21.4653 9.37312 21.4302 9.40787C21.4302 9.44261 21.4302 9.44261 21.4302 9.47736C21.4302 9.5121 21.4302 9.54685 21.4302 9.58159V9.61634C21.4302 9.61634 21.4302 9.65108 21.4653 9.65108L21.5004 9.68583H21.5355H21.5706C21.6058 9.68583 21.6058 9.68583 21.6409 9.65108C21.6409 9.65108 21.6409 9.65108 21.676 9.61634C21.676 9.58159 21.676 9.54685 21.676 9.54685Z" fill="#FFB164"/>
<path opacity="0.24" d="M23.0453 10.7974C23.3263 10.7626 23.6072 10.6931 23.853 10.5194C23.9233 10.4499 23.9935 10.3457 23.9584 10.2415C23.9233 10.172 23.8179 10.172 23.7126 10.2067C23.537 10.2415 23.3614 10.2762 23.1507 10.2415C22.8346 10.2067 22.1674 9.9635 21.9918 10.4152C21.7811 10.8669 22.8346 10.8321 23.0453 10.7974Z" fill="white"/>
<path d="M24.3098 13.9249C24.3098 13.9249 25.2931 17.1909 29.5071 15.6274C33.7212 14.0639 32.0707 10.7979 32.0707 10.7979L24.3098 13.9249Z" fill="#E24C24"/>
<path d="M28.8105 13.9185C30.959 13.0846 32.4308 11.728 32.0979 10.8884C31.765 10.0488 29.7535 10.0443 27.605 10.8782C25.4565 11.7121 23.9847 13.0688 24.3176 13.9083C24.6505 14.7479 26.6621 14.7525 28.8105 13.9185Z" fill="#FF5A27"/>
<path d="M28.7338 13.7244C30.7017 12.9606 32.0616 11.7476 31.7712 11.0153C31.4808 10.2829 29.6501 10.3084 27.6822 11.0722C25.7142 11.8361 24.3543 13.049 24.6447 13.7814C24.9351 14.5138 26.7659 14.4883 28.7338 13.7244Z" fill="#FF8B78"/>
<path d="M26.6276 12.4309C26.5222 12.5351 26.3818 12.7088 26.452 12.8826C26.4871 12.9521 26.5222 12.9868 26.5574 13.0563C26.5574 13.1258 26.5222 13.1953 26.5574 13.2648C26.5574 13.2995 26.6276 13.3343 26.6627 13.369C26.9437 13.508 27.2597 13.4037 27.5758 13.2648C28.3132 12.9173 29.0507 12.5699 29.7881 12.2224C29.9637 12.1182 30.2095 12.014 30.2095 11.8055C30.2095 11.6318 30.1042 11.458 29.9286 11.4233C29.753 11.3538 29.5774 11.3538 29.4018 11.3885C28.8751 11.458 28.3483 11.5275 27.8567 11.7707C27.4002 11.9097 26.9788 12.0834 26.6276 12.4309Z" fill="#FF5A27"/>
<path d="M25.3632 13.5428C25.5037 13.4733 25.6441 13.4038 25.7495 13.3343C25.7846 13.3343 25.7846 13.2996 25.7846 13.2648C25.7846 13.2301 25.7846 13.1953 25.7495 13.1606C25.7144 13.0911 25.6441 13.0911 25.5739 13.1258C25.5388 13.1606 25.5037 13.1606 25.4685 13.1953H25.5037C25.4334 13.2301 25.3281 13.2996 25.2578 13.3343C25.1876 13.3691 25.1525 13.4386 25.1876 13.4733C25.2578 13.5428 25.3281 13.5775 25.3632 13.5428Z" fill="#FFB164"/>
<path d="M25.5037 12.9869C25.6442 12.9174 25.574 12.7089 25.4335 12.7784C25.293 12.8131 25.3633 13.0563 25.5037 12.9869Z" fill="#FFB164"/>
<path d="M25.5037 12.9865C25.5739 12.9518 25.6793 12.9518 25.7495 12.917C25.7846 12.917 25.8198 12.8823 25.8198 12.8476C25.8198 12.8128 25.8198 12.7781 25.8198 12.7433C25.8198 12.7086 25.7846 12.6738 25.7495 12.6738C25.7144 12.6738 25.6793 12.6738 25.6442 12.6738C25.5739 12.7086 25.4686 12.7086 25.3984 12.7433C25.3632 12.7433 25.3281 12.7781 25.3281 12.8128C25.3281 12.8476 25.3281 12.8823 25.3281 12.917C25.3281 12.9518 25.3632 12.9865 25.3984 12.9865C25.4686 12.9865 25.4686 12.9865 25.5037 12.9865Z" fill="#FFB164"/>
<path d="M26.0307 12.1876C26.0307 12.2224 26.0659 12.2224 26.101 12.2224C26.1361 12.2224 26.1361 12.2571 26.1712 12.2571C26.2063 12.2919 26.2766 12.2919 26.3117 12.2919H26.3468C26.3468 12.2919 26.3819 12.2919 26.3819 12.2571C26.3819 12.2571 26.3819 12.2224 26.417 12.2224V12.1876V12.1529C26.417 12.1182 26.3819 12.1182 26.3819 12.1182C26.3468 12.0834 26.3117 12.0834 26.3117 12.0834C26.3117 12.0834 26.3117 12.0834 26.2766 12.0834H26.3117H26.2766H26.3117C26.3117 12.0834 26.2766 12.0834 26.2766 12.0487C26.2766 12.0487 26.2766 12.0487 26.3117 12.0487L26.2766 12.0139C26.2766 12.0139 26.2766 12.0139 26.3117 12.0487L26.2766 12.0139H26.2414H26.2063C26.2063 12.0139 26.1712 12.0139 26.1712 12.0487C26.1361 12.0834 26.1361 12.0834 26.1361 12.1182C25.9956 12.1529 25.9956 12.1876 26.0307 12.1876Z" fill="#FFB164"/>
<path d="M26.6977 11.8054C26.7328 11.8401 26.7328 11.8749 26.7679 11.9096L26.8031 11.9444H26.8382H26.8733C26.8733 11.9444 26.9084 11.9444 26.9084 11.9096C26.9435 11.8749 26.9435 11.8749 26.9435 11.8401V11.8054C26.9435 11.7706 26.9435 11.7706 26.9084 11.7359C26.8733 11.7012 26.8733 11.6664 26.8382 11.6317L26.8031 11.5969H26.7679H26.7328C26.7328 11.5969 26.6977 11.5969 26.6977 11.6317C26.6626 11.6664 26.6626 11.6664 26.6626 11.7012V11.7359C26.6977 11.7706 26.6977 11.7706 26.6977 11.8054Z" fill="#FFB164"/>
<path d="M28.2429 11.3536C28.278 11.3189 28.278 11.2494 28.3131 11.2147V11.1799V11.1452C28.3131 11.1452 28.3131 11.1104 28.278 11.1104L28.2429 11.0757H28.2078C28.1727 11.0757 28.1727 11.0757 28.1375 11.0757H28.1024L28.0673 11.1104C28.0322 11.1452 28.0322 11.2147 27.9971 11.2494V11.2842V11.3189C27.9971 11.3189 27.9971 11.3536 28.0322 11.3536L28.0673 11.3884H28.1024C28.1375 11.3884 28.1375 11.3884 28.1727 11.3884H28.2078C28.2078 11.3884 28.2078 11.3884 28.2429 11.3536Z" fill="#FFB164"/>
<path d="M29.2612 11.1104C29.3315 11.0756 29.4017 11.0062 29.4368 10.9714C29.4719 10.9367 29.4719 10.9367 29.4719 10.9019C29.4719 10.8672 29.4719 10.8324 29.4368 10.7977C29.4017 10.7629 29.4017 10.7629 29.3666 10.7629C29.3315 10.7629 29.2964 10.7629 29.2612 10.7977C29.191 10.8324 29.1208 10.9019 29.0857 10.9367C29.0505 10.9714 29.0505 10.9714 29.0505 11.0062C29.0505 11.0409 29.0505 11.0756 29.0857 11.1104C29.1208 11.1451 29.1208 11.1451 29.1559 11.1451C29.2261 11.1451 29.2612 11.1451 29.2612 11.1104Z" fill="#FFB164"/>
<path d="M30.1391 11.1453C30.2444 11.1106 30.3849 11.0411 30.4902 11.0063C30.5254 11.0063 30.5254 10.9716 30.5254 10.9368C30.5254 10.9021 30.5254 10.8673 30.4902 10.8326C30.4551 10.7979 30.4551 10.7979 30.42 10.7979C30.3849 10.7979 30.3498 10.7979 30.3147 10.8326C30.2795 10.8326 30.2795 10.8673 30.2444 10.8673H30.2795C30.2093 10.9021 30.104 10.9368 30.0337 10.9716C29.9635 11.0063 29.9284 11.0758 29.9635 11.1106C29.9986 11.1106 30.0688 11.1453 30.1391 11.1453Z" fill="#FFB164"/>
<path d="M30.7713 11.4579C30.8767 11.4231 31.0171 11.4231 31.1225 11.3884C31.1576 11.3884 31.1927 11.3537 31.1927 11.3537C31.1927 11.3189 31.2279 11.2842 31.2279 11.2842C31.2279 11.2147 31.1576 11.1799 31.0874 11.1799C30.982 11.2147 30.8416 11.2147 30.7362 11.2494C30.7011 11.2494 30.666 11.2842 30.666 11.2842C30.666 11.3189 30.6309 11.3537 30.6309 11.3537C30.6309 11.4231 30.7011 11.4926 30.7713 11.4579Z" fill="#FFB164"/>
<path d="M30.4201 12.0137C30.4903 12.0485 30.5606 12.0485 30.6659 12.0832H30.701H30.7361C30.7713 12.0832 30.8064 12.0485 30.8064 12.0137C30.8064 11.979 30.8064 11.9442 30.8064 11.9095C30.8064 11.8747 30.7713 11.84 30.7361 11.84C30.6659 11.8053 30.5957 11.8053 30.4903 11.7705H30.4552H30.4201C30.385 11.7705 30.3499 11.8053 30.3499 11.84C30.3499 11.8747 30.3499 11.9095 30.3499 11.9442C30.385 11.979 30.385 12.0137 30.4201 12.0137Z" fill="#FFB164"/>
<path d="M29.7529 12.674L29.788 12.7088C29.788 12.674 29.788 12.674 29.7529 12.674C29.788 12.7088 29.788 12.7088 29.8232 12.7435V12.7088C29.8232 12.7088 29.8232 12.7088 29.8232 12.7435C29.8232 12.7435 29.8232 12.7783 29.8583 12.7783L29.8934 12.813H29.9285H29.9636C29.9988 12.813 30.0339 12.7783 30.0339 12.7435C30.0339 12.7088 30.0339 12.674 30.0339 12.6393C30.0339 12.6046 29.9988 12.5698 29.9988 12.5698C29.9636 12.5351 29.9636 12.5351 29.9285 12.5003C29.8934 12.4656 29.8583 12.4656 29.8583 12.4656H29.8232C29.8232 12.4656 29.788 12.4656 29.788 12.5003C29.788 12.5351 29.7529 12.5698 29.7529 12.5698V12.6046C29.7529 12.6393 29.7529 12.6393 29.7529 12.674Z" fill="#FFB164"/>
<path d="M28.6644 13.2649C28.6644 13.2996 28.6995 13.2996 28.6995 13.3344V13.2996C28.6995 13.3344 28.7347 13.3691 28.7347 13.3691C28.7347 13.3691 28.7347 13.4038 28.7698 13.4038L28.8049 13.4386C28.84 13.4386 28.8751 13.4386 28.9102 13.4386C28.9454 13.4386 28.9805 13.4038 28.9805 13.3691V13.3344C28.9805 13.2996 28.9805 13.2996 28.9805 13.2649C28.9805 13.2301 28.9454 13.1954 28.9454 13.1954C28.9102 13.1606 28.9102 13.1259 28.8751 13.0911C28.84 13.0564 28.84 13.0564 28.8049 13.0564H28.7698C28.7698 13.0564 28.7347 13.0564 28.7347 13.0911C28.6995 13.1259 28.6995 13.1259 28.6995 13.1606C28.6293 13.1954 28.6293 13.2301 28.6644 13.2649Z" fill="#FFB164"/>
<path d="M27.7866 13.5775V13.6122C27.7866 13.5775 27.7866 13.5775 27.7866 13.5775C27.7866 13.6122 27.7866 13.6122 27.7866 13.6469C27.8217 13.6122 27.8217 13.6122 27.7866 13.5775C27.7866 13.6122 27.7866 13.6469 27.7866 13.6469V13.6122C27.7866 13.6122 27.7866 13.6469 27.7515 13.6469V13.6817V13.7164C27.7515 13.7512 27.7866 13.7859 27.8217 13.7859C27.8568 13.7859 27.8919 13.7859 27.9271 13.7859H27.9622L27.9973 13.7512C27.9973 13.7164 28.0324 13.7164 28.0324 13.6817V13.6469C28.0324 13.6122 28.0324 13.6122 28.0324 13.5775C28.0324 13.5427 28.0324 13.5427 27.9973 13.508C27.9973 13.4732 27.9622 13.4732 27.9271 13.4385C27.8919 13.4385 27.8568 13.4385 27.8217 13.4385C27.7866 13.4385 27.7515 13.4732 27.7515 13.508C27.7866 13.508 27.7866 13.5427 27.7866 13.5775Z" fill="#FFB164"/>
<path d="M26.7681 13.5774C26.7681 13.6121 26.733 13.6469 26.6978 13.6816C26.6978 13.6816 26.6978 13.6816 26.6978 13.6469C26.6627 13.7164 26.6276 13.7511 26.5925 13.7858C26.5574 13.8206 26.5574 13.8553 26.5574 13.8553C26.5574 13.8901 26.5925 13.9248 26.5925 13.9248C26.6276 13.9248 26.6627 13.9596 26.6627 13.9596H26.6978C26.733 13.9596 26.733 13.9248 26.733 13.9248C26.8032 13.8553 26.8734 13.7511 26.9085 13.6469C26.9085 13.6121 26.9085 13.5774 26.9085 13.5426C26.9085 13.5079 26.8734 13.4731 26.8383 13.4731C26.8032 13.4731 26.7681 13.4731 26.733 13.4731C26.8032 13.5079 26.7681 13.5426 26.7681 13.5774Z" fill="#FFB164"/>
<path d="M25.8198 13.9595C25.8198 13.9248 25.8549 13.89 25.8549 13.8553V13.8205V13.7858C25.8549 13.7858 25.8549 13.7511 25.8198 13.7511L25.7847 13.7163H25.7496C25.7144 13.7163 25.7144 13.7163 25.6793 13.7163H25.6442L25.6091 13.7511C25.6091 13.7858 25.574 13.8205 25.574 13.8553V13.89V13.9248C25.574 13.9248 25.574 13.9595 25.6091 13.9595L25.6442 13.9943H25.6793C25.7144 13.9943 25.7144 13.9943 25.7496 13.9943H25.7847C25.7847 13.9943 25.7847 13.9943 25.8198 13.9595Z" fill="#FFB164"/>
<path opacity="0.24" d="M26.5923 15.6621C26.8733 15.7316 27.1542 15.7663 27.4351 15.6968C27.5405 15.6621 27.6458 15.5926 27.6107 15.4883C27.5756 15.4189 27.5054 15.3841 27.4 15.3494C27.2244 15.3146 27.0489 15.2799 26.8733 15.1756C26.5923 15.0019 26.0656 14.5502 25.7144 14.8977C25.3984 15.2451 26.3816 15.5926 26.5923 15.6621Z" fill="white"/>
<path d="M5.20614 8.22632C5.20614 8.22632 1.97537 9.44239 3.83658 13.4728C5.69778 17.4684 8.89343 15.6617 8.89343 15.6617L5.20614 8.22632Z" fill="#E24C24"/>
<path d="M8.81278 15.6757C9.63664 15.2897 9.50373 13.3037 8.51592 11.2399C7.52812 9.17608 6.05948 7.81594 5.23562 8.20195C4.41176 8.58796 4.54467 10.5739 5.53248 12.6378C6.52028 14.7016 7.98893 16.0617 8.81278 15.6757Z" fill="#FF5A27"/>
<path d="M8.66257 15.3618C9.38125 15.025 9.23038 13.2196 8.32558 11.3292C7.42078 9.43879 6.10469 8.1793 5.38601 8.51603C4.66732 8.85276 4.8182 10.6582 5.723 12.5486C6.6278 14.439 7.94389 15.6985 8.66257 15.3618Z" fill="#FF8B78"/>
<path d="M6.89165 10.4154C6.75118 10.3112 6.57559 10.2069 6.43513 10.2764C6.36489 10.3112 6.32978 10.3806 6.25954 10.3806C6.18931 10.3806 6.11907 10.3806 6.04884 10.3806C6.01372 10.4154 5.9786 10.4501 5.94349 10.4849C5.80302 10.7628 5.9786 11.0755 6.11907 11.3535C6.54048 12.0484 6.92676 12.7433 7.34817 13.4382C7.45352 13.6119 7.59399 13.8204 7.80469 13.8204C7.98028 13.8204 8.12074 13.6814 8.19098 13.5077C8.26121 13.334 8.2261 13.1602 8.19098 12.9865C8.08563 12.4653 7.94516 11.9442 7.69934 11.4925C7.45352 11.145 7.24282 10.7281 6.89165 10.4154Z" fill="#FF5A27"/>
<path d="M5.66274 9.23403C5.73297 9.37301 5.80321 9.47724 5.90856 9.61622C5.90856 9.65097 5.94368 9.65097 5.97879 9.65097C6.01391 9.65097 6.04903 9.65097 6.04903 9.61622C6.08414 9.58148 6.08414 9.51199 6.04903 9.4425C6.01391 9.40775 6.01391 9.37301 5.97879 9.33826C5.97879 9.33826 5.97879 9.33826 5.97879 9.37301C5.94368 9.30352 5.87344 9.19928 5.83832 9.12979C5.80321 9.0603 5.73297 9.0603 5.69786 9.0603C5.66274 9.09505 5.62762 9.16454 5.66274 9.23403Z" fill="#FFB164"/>
<path d="M6.22458 9.33832C6.29482 9.4773 6.50552 9.37307 6.43529 9.23409C6.36505 9.09511 6.15435 9.19934 6.22458 9.33832Z" fill="#FFB164"/>
<path d="M6.22461 9.33827C6.25973 9.40776 6.29484 9.512 6.32996 9.58149C6.32996 9.61623 6.36508 9.61623 6.40019 9.65098C6.43531 9.65098 6.47043 9.65098 6.50555 9.65098C6.54066 9.65098 6.54066 9.61623 6.57578 9.58149C6.57578 9.54674 6.57578 9.512 6.57578 9.47725C6.54066 9.40777 6.50555 9.30353 6.47043 9.23404C6.47043 9.1993 6.43531 9.1993 6.40019 9.16455C6.36508 9.16455 6.32996 9.16455 6.29484 9.16455C6.25973 9.16455 6.25973 9.1993 6.22461 9.23404C6.22461 9.26879 6.22461 9.30353 6.22461 9.33827Z" fill="#FFB164"/>
<path d="M7.06729 9.78982C7.06729 9.78982 7.03217 9.82457 7.03217 9.85931C7.03217 9.89406 6.99705 9.89406 6.99705 9.9288C6.99705 9.96355 6.96194 10.033 6.99705 10.0678C6.99705 10.0678 6.99705 10.1025 7.03217 10.1025L7.06729 10.1373H7.1024H7.13752H7.17264C7.20775 10.1373 7.20776 10.1025 7.20776 10.1025C7.20776 10.0678 7.24287 10.033 7.24287 10.033C7.24287 10.033 7.24287 10.033 7.24287 9.99829V10.033V9.99829V10.033V9.99829V10.033C7.24287 10.033 7.24287 9.99829 7.27799 9.99829C7.27799 9.99829 7.27799 9.99829 7.24287 10.033L7.27799 9.99829V9.96355V9.9288C7.27799 9.9288 7.27799 9.89406 7.24287 9.89406C7.20776 9.85931 7.20775 9.85931 7.17264 9.85931C7.13752 9.75508 7.1024 9.75508 7.06729 9.78982Z" fill="#FFB164"/>
<path d="M7.52377 10.45C7.48865 10.4848 7.45353 10.4848 7.41842 10.5195L7.3833 10.5543V10.589V10.6238C7.3833 10.6238 7.3833 10.6585 7.41842 10.6585C7.45353 10.6932 7.45354 10.6932 7.48865 10.6932H7.52377C7.55889 10.6932 7.55889 10.6932 7.594 10.6585C7.62912 10.6238 7.66424 10.6238 7.69935 10.589L7.73447 10.5543V10.5195V10.4848C7.73447 10.4848 7.73447 10.45 7.69935 10.45C7.66424 10.4153 7.66424 10.4153 7.62912 10.4153H7.594C7.55889 10.4153 7.52377 10.4153 7.52377 10.45Z" fill="#FFB164"/>
<path d="M8.0505 11.9092C8.08561 11.944 8.15585 11.944 8.19097 11.9787H8.22608H8.2612C8.2612 11.9787 8.29632 11.9787 8.29632 11.944L8.33143 11.9092V11.8745C8.33143 11.8397 8.33143 11.8397 8.33143 11.805C8.33143 11.805 8.33143 11.805 8.33143 11.7702L8.29632 11.7355C8.2612 11.7008 8.19097 11.7008 8.15585 11.666H8.12073H8.08561C8.08561 11.666 8.0505 11.666 8.0505 11.7008L8.01538 11.7355V11.7702C8.01538 11.805 8.01538 11.805 8.01538 11.8397C8.01538 11.8397 8.01538 11.8397 8.01538 11.8745L8.0505 11.9092Z" fill="#FFB164"/>
<path d="M8.36666 12.9169C8.40178 12.9864 8.47201 13.0211 8.50713 13.0906C8.54224 13.1254 8.54224 13.1254 8.57736 13.1254C8.61248 13.1254 8.6476 13.1254 8.6476 13.0906C8.68271 13.0559 8.68271 13.0559 8.68271 13.0211C8.68271 12.9864 8.68271 12.9516 8.6476 12.9516C8.61248 12.8821 8.54224 12.8474 8.50713 12.7779C8.47201 12.7432 8.47201 12.7432 8.43689 12.7432C8.40178 12.7432 8.36666 12.7432 8.36666 12.7779C8.33154 12.8127 8.33154 12.8127 8.33154 12.8474C8.33154 12.8821 8.36666 12.9169 8.36666 12.9169Z" fill="#FFB164"/>
<path d="M8.43689 13.7855C8.472 13.8898 8.54224 13.994 8.61247 14.0982C8.61247 14.133 8.64759 14.133 8.6827 14.133C8.71782 14.133 8.75294 14.133 8.75294 14.0982C8.78805 14.0635 8.78805 14.0635 8.78805 14.0288C8.78805 13.994 8.78805 13.9593 8.75294 13.9593C8.75294 13.9245 8.71782 13.9245 8.71782 13.8898C8.71782 13.8898 8.71782 13.8898 8.71782 13.9245C8.6827 13.855 8.61247 13.7855 8.61247 13.6813C8.57735 13.6118 8.50712 13.6118 8.472 13.6118C8.40177 13.6466 8.40177 13.7161 8.43689 13.7855Z" fill="#FFB164"/>
<path d="M8.12085 14.411C8.15597 14.5152 8.19108 14.6194 8.19108 14.7584C8.19108 14.7931 8.2262 14.8279 8.2262 14.8279C8.26132 14.8279 8.29643 14.8626 8.29643 14.8626C8.36667 14.8626 8.40178 14.7931 8.40178 14.7237C8.36667 14.6194 8.33155 14.5152 8.33155 14.3762C8.33155 14.3415 8.29643 14.3067 8.29643 14.3067C8.26132 14.3067 8.2262 14.272 8.2262 14.272C8.15597 14.3067 8.12085 14.3415 8.12085 14.411Z" fill="#FFB164"/>
<path d="M7.52385 14.133C7.48873 14.2025 7.48873 14.2719 7.45361 14.3762V14.4109V14.4457C7.45361 14.4804 7.48873 14.4804 7.52385 14.5152C7.55896 14.5152 7.59408 14.5152 7.6292 14.5152C7.66432 14.5152 7.66432 14.4804 7.69943 14.4457C7.73455 14.3762 7.73455 14.3067 7.76967 14.2025V14.1677V14.133C7.76967 14.0982 7.73455 14.0982 7.69943 14.0635C7.66432 14.0635 7.6292 14.0635 7.59408 14.0635C7.55896 14.0635 7.55896 14.0982 7.52385 14.133Z" fill="#FFB164"/>
<path d="M6.85678 13.5074L6.82166 13.5421C6.82166 13.5421 6.82166 13.5421 6.85678 13.5074C6.82166 13.5421 6.82166 13.5421 6.78654 13.5769C6.78654 13.5769 6.78654 13.5769 6.82166 13.5769C6.82166 13.5769 6.82166 13.5769 6.78654 13.5769C6.78654 13.5769 6.75143 13.5769 6.75143 13.6116L6.71631 13.6464V13.6811V13.7159C6.71631 13.7506 6.75143 13.7506 6.78654 13.7854C6.82166 13.7854 6.85678 13.7854 6.89189 13.7854C6.92701 13.7854 6.96213 13.7506 6.96213 13.7159C6.99725 13.6811 6.99724 13.6811 7.03236 13.6464C7.03236 13.6116 7.06748 13.5769 7.06748 13.5769C7.06748 13.5769 7.06748 13.5421 7.03236 13.5421L6.99724 13.5074C6.96213 13.5074 6.92701 13.4727 6.92701 13.4727H6.89189C6.89189 13.4727 6.85678 13.5074 6.85678 13.5074Z" fill="#FFB164"/>
<path d="M6.15435 12.4652C6.11923 12.5 6.11923 12.5 6.08411 12.5C6.11923 12.5 6.11923 12.5 6.15435 12.4652C6.08411 12.5 6.04899 12.5347 6.04899 12.5347C6.04899 12.5347 6.01388 12.5347 6.01388 12.5694L5.97876 12.6042C5.97876 12.6389 5.97876 12.6737 5.97876 12.7084C5.97876 12.7432 6.01388 12.7432 6.04899 12.7779H6.08411C6.11923 12.7779 6.11923 12.7779 6.15435 12.7779C6.18946 12.7779 6.22458 12.7432 6.22458 12.7432C6.2597 12.7084 6.29481 12.7084 6.32993 12.6737C6.36505 12.6389 6.36505 12.6389 6.36505 12.6042V12.5694C6.36505 12.5694 6.36505 12.5347 6.32993 12.5347C6.29481 12.5 6.29481 12.5 6.2597 12.5C6.22458 12.4305 6.18946 12.4305 6.15435 12.4652Z" fill="#FFB164"/>
<path d="M5.80323 11.6313H5.76811H5.80323C5.76811 11.6313 5.76811 11.6313 5.733 11.6313C5.76811 11.6313 5.76811 11.6313 5.80323 11.6313C5.76811 11.6313 5.733 11.6313 5.733 11.6313H5.76811H5.733H5.69788H5.66276C5.62765 11.6313 5.62765 11.666 5.59253 11.7008C5.59253 11.7355 5.59253 11.7703 5.59253 11.805C5.59253 11.805 5.59253 11.805 5.59253 11.8398L5.62765 11.8745C5.66276 11.8745 5.66276 11.8745 5.69788 11.9092H5.733C5.76811 11.9092 5.76811 11.9092 5.80323 11.9092C5.83835 11.9092 5.83835 11.9092 5.87347 11.8745C5.90858 11.8745 5.90858 11.8398 5.9437 11.805C5.9437 11.7703 5.9437 11.7355 5.9437 11.7008C5.9437 11.666 5.90858 11.666 5.87347 11.6313C5.87347 11.5965 5.83835 11.5965 5.80323 11.6313Z" fill="#FFB164"/>
<path d="M5.73293 10.5889C5.69781 10.5889 5.66269 10.5542 5.62758 10.5542H5.66269C5.59246 10.5194 5.55734 10.4847 5.52223 10.45C5.48711 10.45 5.45199 10.45 5.41687 10.45C5.38176 10.45 5.34664 10.4847 5.34664 10.4847C5.34664 10.5194 5.31152 10.5542 5.31152 10.5542V10.5889C5.31152 10.6237 5.34664 10.6237 5.34664 10.6237C5.41687 10.6932 5.52223 10.7627 5.62758 10.7974C5.66269 10.7974 5.69781 10.7974 5.73293 10.7974C5.76805 10.7974 5.76805 10.7627 5.80316 10.7279C5.80316 10.6932 5.80316 10.6584 5.80316 10.6237C5.80316 10.6237 5.76805 10.6237 5.73293 10.5889Z" fill="#FFB164"/>
<path d="M5.27633 9.6856C5.31144 9.6856 5.34656 9.72034 5.38168 9.72034H5.4168H5.45191C5.45191 9.72034 5.48703 9.72034 5.48703 9.6856L5.52215 9.65085V9.61611C5.52215 9.58136 5.52215 9.58136 5.52215 9.54662C5.52215 9.54662 5.52215 9.54662 5.52215 9.51187L5.48703 9.47713C5.45191 9.47713 5.4168 9.44238 5.38168 9.44238H5.34656H5.31144C5.31144 9.44238 5.27633 9.44238 5.27633 9.47713L5.24121 9.51187V9.54662C5.24121 9.58136 5.24121 9.58136 5.24121 9.61611C5.24121 9.61611 5.24121 9.61611 5.24121 9.65085C5.24121 9.6856 5.24121 9.6856 5.27633 9.6856Z" fill="#FFB164"/>
<path opacity="0.24" d="M3.62594 10.589C3.59082 10.8669 3.5557 11.1796 3.66105 11.4228C3.69617 11.5271 3.80152 11.6313 3.87176 11.5966C3.94199 11.5618 3.97711 11.4576 3.97711 11.3881C4.01223 11.2144 4.01223 11.0059 4.11758 10.8669C4.25804 10.589 4.67945 10.033 4.32828 9.72034C3.94199 9.40764 3.66105 10.3805 3.62594 10.589Z" fill="white"/>
<path d="M7.48883 11.8051C7.94535 11.5271 8.64769 11.6314 8.96374 12.0483C9.35003 11.4924 10.228 11.3882 10.7898 11.7356C11.3868 12.0831 11.7029 12.778 11.7029 13.4381C12.651 13.1254 13.6694 13.8203 14.2313 14.6542C14.3367 14.7932 14.4069 14.9321 14.5474 15.0364C14.7229 15.1406 14.9336 15.1753 15.1443 15.1753C16.83 15.3838 18.3049 16.7736 18.6209 18.4414C18.7263 18.9625 18.6912 19.5185 18.4102 19.9354C18.1644 20.2828 17.7781 20.4913 17.427 20.665C17.0055 20.8735 16.5841 21.1167 16.0925 21.1515C14.7229 21.2557 13.8099 19.7617 12.5808 19.2058C11.5624 18.7541 10.3684 18.9278 9.35003 18.4761C8.54234 18.1287 7.76976 17.4338 7.06742 16.9126C6.47043 16.4609 6.08414 16.0092 5.87344 15.3143C5.5925 14.4457 5.73297 12.778 7.10254 13.1949C6.89184 12.7085 7.0323 12.0831 7.48883 11.8051Z" fill="#89E269"/>
<path d="M40.1825 10.9368H39.3397C39.1992 14.0291 32.6323 15.7316 20.6223 15.7316C8.99856 15.7316 2.11562 13.5079 1.90491 10.9368H1.0621C1.0621 10.9368 0.746051 14.8977 2.99354 19.6925C6.36478 26.8847 11.0353 28.205 11.0353 28.205L20.5521 28.3787L30.0688 28.205C30.0688 28.205 34.7042 26.9194 38.0755 19.7272C40.2879 14.8977 40.1825 10.9368 40.1825 10.9368Z" fill="#EDCEB9"/>
<path d="M30.2092 29.7685V28.1008L20.6223 26.9194L11.0353 28.205V29.7685C11.0353 29.7685 10.9651 30.5329 13.8798 31.5057C17.848 32.8608 24.3447 32.4091 27.435 31.5057C30.3497 30.6371 30.2092 29.7685 30.2092 29.7685Z" fill="#EDCEB9"/>
<path d="M27.3999 31.5056C30.3497 30.637 30.2443 29.7683 30.2443 29.7683V28.1006L25.8547 27.5447C25.8547 27.5447 25.8547 27.5447 25.8196 27.5447C25.3279 27.8574 24.8363 28.1006 24.8012 28.726C24.7661 29.3862 25.1172 30.1853 24.8363 30.8107C24.6607 31.1929 24.2042 31.3319 23.7828 31.4361C20.552 32.1657 17.251 31.7141 14.0905 30.9497C13.1072 30.7065 12.0888 30.4285 11.2811 29.8726C11.2109 29.8378 11.1407 29.7683 11.0353 29.7336C11.0353 29.7336 10.9651 30.498 13.8798 31.4708C17.8129 32.8606 24.3096 32.409 27.3999 31.5056Z" fill="#EABFAC"/>
<path opacity="0.38" d="M5.76772 17.0519C5.55702 17.5731 5.73261 18.1637 5.94331 18.7196C6.50518 20.1789 7.27776 21.534 8.15568 22.8543C8.78779 23.7924 9.56036 24.7652 10.6841 24.9737C11.0704 25.0432 11.4918 25.0085 11.843 24.8347C12.1941 24.661 12.44 24.2788 12.4751 23.8966C12.4751 23.4797 12.2644 23.1322 12.0537 22.7848C11.5269 21.9509 11.1055 21.0475 10.8597 20.1094C10.7192 19.484 10.649 18.7891 10.3329 18.2332C9.73595 17.1909 6.39983 15.3494 5.76772 17.0519Z" fill="white"/>
<path opacity="0.38" d="M12.5102 28.8301C12.4049 28.8301 12.3347 28.8301 12.2293 28.8996C12.0537 29.0039 12.0537 29.2471 12.124 29.4208C12.2293 29.5945 12.4049 29.6988 12.5454 29.7682C13.2477 30.1157 14.0203 30.3242 14.828 30.4631C15.144 30.5326 15.4601 30.5674 15.741 30.4284C16.022 30.3242 16.2327 29.9767 16.0922 29.6988C15.9517 29.4555 15.6005 29.3861 15.3196 29.3861C14.4066 29.2818 13.4233 28.7954 12.5102 28.8301Z" fill="white"/>
<path d="M40.1475 10.9368H39.3046C39.2344 12.674 37.1274 13.9596 33.1943 14.7934C32.9836 16.218 32.5271 17.8857 31.614 19.6577C28.8398 24.8347 26.2411 26.294 23.0806 27.3363C19.1475 28.6566 14.5471 28.3439 14.5471 28.3439C14.5471 28.3439 19.1826 29.3863 22.8699 29.3863C26.5572 29.3863 29.9986 28.205 29.9986 28.205C29.9986 28.205 34.6341 26.9194 38.0053 19.7272C40.2528 14.8977 40.1475 10.9368 40.1475 10.9368Z" fill="#EABFAC"/>
<path d="M40.1831 10.6587H39.3403C39.3403 10.7629 39.3403 10.8324 39.3403 10.9366C39.235 14.0637 32.6681 15.7662 20.6229 15.7662C8.96408 15.7662 2.08114 13.5078 1.90555 10.9366C1.90555 10.8324 1.94067 10.7629 1.94067 10.6587H1.09786C1.09786 10.7629 1.06274 10.8672 1.06274 10.9714C1.23833 13.8205 8.43732 16.3568 20.6229 16.3568C33.23 16.3568 40.0778 14.4459 40.1831 10.9366C40.1831 10.8324 40.1831 10.7282 40.1831 10.6587Z" fill="#FFDFCA"/>
<path d="M4.57378 7.46231L4.39819 8.81736C4.39819 8.81736 4.92495 10.8326 7.83966 11.5622C11.1056 12.3613 13.5989 11.6317 13.7744 9.65124C13.8096 9.33853 13.4584 8.43517 13.4584 8.43517L4.53866 7.39282L4.57378 7.46231Z" fill="#59B24F"/>
<path d="M13.499 9.01726C13.7436 7.77409 11.951 6.38282 9.49518 5.90977C7.03931 5.43673 4.85013 6.06104 4.60552 7.30421C4.3609 8.54738 6.15347 9.93866 8.60934 10.4117C11.0652 10.8847 13.2544 10.2604 13.499 9.01726Z" fill="#84D17D"/>
<path d="M13.2126 8.81732C13.1424 9.79018 11.2811 10.4503 8.99854 10.1029C6.71593 9.75543 4.81961 8.43513 4.85473 7.46227C4.92496 6.48942 6.96175 5.75977 9.24436 6.10722C11.4919 6.45467 13.2477 7.84446 13.2126 8.81732Z" fill="#B0EDA9"/>
<path d="M6.50546 7.46241C6.43522 7.39292 6.36499 7.32343 6.36499 7.2192C6.36499 7.04547 6.57569 7.01073 6.71616 7.01073C7.03221 7.04547 7.38339 7.11496 7.66432 7.25394C7.55897 7.11496 7.48874 6.97598 7.45362 6.837C7.45362 6.80226 7.4185 6.76751 7.45362 6.73277C7.48874 6.66328 7.59409 6.69802 7.66432 6.73277C8.01549 6.90649 8.33155 7.1497 8.61248 7.42766C8.50713 7.28868 8.47201 7.11496 8.47201 6.97598C8.47201 6.80226 8.54225 6.66328 8.68272 6.59379C8.8583 6.5243 9.10412 6.62853 9.24459 6.80226C9.38506 6.97598 9.42017 7.18445 9.45529 7.39292C9.73623 7.18445 10.1225 7.11496 10.4737 7.2192C10.5439 7.25394 10.6493 7.28868 10.6844 7.35817C10.7546 7.49715 10.6142 7.60139 10.5088 7.67088C10.9302 7.60139 11.4218 7.77511 11.7379 8.12256C11.773 8.15731 11.8081 8.2268 11.8081 8.26154C11.8081 8.29629 11.773 8.33103 11.773 8.33103C11.5974 8.50475 11.3867 8.57424 11.1409 8.60899C10.8951 8.64373 10.6493 8.57424 10.4035 8.5395C10.6493 8.64373 10.86 8.78271 11.0707 8.95644C11.1058 8.99118 11.1058 8.99118 11.1409 9.02593C11.1409 9.06067 11.1409 9.06067 11.1058 9.09542C10.9302 9.33863 10.579 9.37337 10.2981 9.2344C10.0172 9.13016 9.77134 8.88695 9.56064 8.67848C9.66599 8.8522 9.73623 9.02593 9.70111 9.2344C9.66599 9.40812 9.45529 9.5471 9.27971 9.47761C9.20947 9.44286 9.13924 9.37337 9.069 9.30389C8.89342 9.09542 8.78807 8.8522 8.71783 8.60899C8.68272 8.92169 8.40178 9.16491 8.08573 9.13016C8.01549 9.13016 7.91014 9.09542 7.87502 9.02593C7.80479 8.95644 7.80479 8.81746 7.87502 8.74797C7.91014 8.67848 7.98037 8.60899 8.08573 8.5395C7.83991 8.64373 7.55897 8.74797 7.34827 8.57424C7.27803 8.50475 7.24292 8.43526 7.27803 8.36577C7.31315 8.33103 7.34827 8.29629 7.38338 8.26154C7.48874 8.19205 7.80479 8.15731 7.83991 8.05307C7.27803 7.94884 6.89175 7.77511 6.50546 7.46241Z" fill="#C1FFB8"/>
<path d="M19.9904 12.1872C20.5523 11.9439 21.2546 11.9439 21.7814 12.2219C21.8867 12.2914 22.0623 12.3609 22.1325 12.2566C22.1676 12.2219 22.1676 12.1524 22.1676 12.0829C22.0623 11.4228 21.4653 10.9016 20.763 10.8669C20.2713 10.8321 19.7797 11.0753 19.3232 11.3185C19.0071 11.4923 18.6911 11.7007 18.4101 11.9092C18.0238 12.1872 17.6375 12.4999 17.462 12.9515C17.3215 13.2642 17.2513 13.9591 17.7078 14.0634C18.1643 14.1676 18.375 13.5075 18.6208 13.2295C19.0071 12.7778 19.4636 12.3956 19.9904 12.1872Z" fill="#0A0B0C"/>
<path d="M21.2897 10.7974C20.5523 10.6932 19.8148 10.9017 19.1476 11.2491C18.5155 11.5966 17.9536 12.083 17.3917 12.5694C16.7947 13.0906 16.8299 14.0982 17.181 14.7236C17.4971 15.3143 18.1643 15.6965 18.8315 15.7659C19.4988 15.8354 20.1309 15.5575 20.7278 15.2795C21.36 14.9668 21.9921 14.6194 22.4135 14.0634C22.87 13.5075 23.0807 12.7779 22.87 12.1177C22.6944 11.3881 22.0272 10.9017 21.2897 10.7974ZM21.5355 12.7084C21.36 13.0558 21.0088 13.3338 20.6576 13.5423C20.3064 13.7507 19.9553 13.8897 19.6041 14.0287C19.288 14.1329 18.972 14.2372 18.6559 14.2024C18.3399 14.1677 17.9887 14.0287 17.8482 13.7507C17.181 12.6737 18.9018 11.8398 19.6392 11.5271C20.0606 11.3533 20.5171 11.2839 20.9386 11.3881C21.1141 11.4228 21.2546 11.4923 21.3951 11.5966C21.7111 11.8745 21.7462 12.361 21.5355 12.7084Z" fill="#36383F"/>
<path d="M11.3166 5.16934C11.8784 4.92612 12.5808 4.92612 13.1075 5.20408C13.2129 5.27357 13.3885 5.34306 13.4587 5.23883C13.4938 5.20408 13.4938 5.13459 13.4938 5.0651C13.3885 4.40495 12.7915 3.88378 12.0891 3.84903C11.5975 3.81429 11.1059 4.0575 10.6493 4.30071C10.3333 4.47444 10.0172 4.68291 9.73629 4.89138C9.35 5.16934 8.96372 5.48204 8.78813 5.93372C8.64766 6.24643 8.57743 6.94132 9.03395 7.04556C9.49047 7.14979 9.70117 6.48964 9.94699 6.21168C10.3333 5.76 10.7898 5.37781 11.3166 5.16934Z" fill="#0A0B0C"/>
<path d="M12.6159 3.7447C11.8784 3.64046 11.141 3.84893 10.4738 4.19638C9.84164 4.54383 9.27977 5.03026 8.7179 5.51669C8.12091 6.03786 8.15603 7.04546 8.5072 7.67087C8.82325 8.26153 9.49047 8.64372 10.1577 8.71321C10.8249 8.7827 11.457 8.50474 12.054 8.22678C12.6861 7.91408 13.3182 7.56663 13.7396 7.01071C14.1962 6.4548 14.4069 5.72515 14.1962 5.065C14.0206 4.33536 13.3533 3.84893 12.6159 3.7447ZM12.8617 5.69041C12.6861 6.03786 12.335 6.28107 11.9838 6.48954C11.6326 6.69801 11.2814 6.83699 10.9303 6.97597C10.6142 7.0802 10.2982 7.18444 9.98211 7.14969C9.66606 7.11495 9.31489 6.97597 9.17442 6.69801C8.5072 5.62092 10.2279 4.78704 10.9654 4.47434C11.3868 4.30062 11.8433 4.23113 12.2647 4.33536C12.4403 4.37011 12.5808 4.4396 12.7212 4.54383C13.0373 4.82179 13.0724 5.30822 12.8617 5.69041Z" fill="#36383F"/>
<path d="M36.2847 7.32299C36.7413 7.73992 37.0573 8.33059 37.0573 8.92125C37.0573 9.06023 37.0573 9.23395 37.1978 9.2687C37.268 9.2687 37.3382 9.23395 37.3734 9.19921C37.9352 8.81701 38.1459 8.01788 37.865 7.42722C37.6543 6.97554 37.2329 6.62809 36.8115 6.35013C36.4954 6.14166 36.1794 5.96794 35.8633 5.79421C35.4419 5.58574 34.9854 5.37727 34.4938 5.41202C34.1426 5.44676 33.4754 5.68998 33.5807 6.14166C33.6861 6.59334 34.3884 6.48911 34.7396 6.59334C35.3366 6.69758 35.8633 6.94079 36.2847 7.32299Z" fill="#0A0B0C"/>
<path d="M38.146 7.84437C37.9353 7.14948 37.4085 6.55881 36.8115 6.14188C36.2146 5.72494 35.5122 5.44698 34.845 5.16902C34.1426 4.89106 33.1945 5.34275 32.8082 5.93341C32.4219 6.48932 32.3517 7.21897 32.5975 7.84437C32.8433 8.46978 33.3701 8.92146 33.8968 9.3384C34.4587 9.75534 35.0557 10.1375 35.758 10.3113C36.4253 10.4502 37.233 10.346 37.7246 9.89432C38.2162 9.37315 38.3567 8.57402 38.146 7.84437ZM36.4955 8.92146C36.0741 8.92146 35.6878 8.71299 35.3717 8.50453C35.0557 8.29606 34.7396 8.05284 34.4587 7.77488C34.2129 7.56641 34.0022 7.3232 33.8968 7.0105C33.7915 6.69779 33.7564 6.35035 33.9319 6.07239C34.6343 5.03004 36.1443 6.14188 36.7413 6.69779C37.0925 7.0105 37.3383 7.35795 37.4437 7.80963C37.4788 7.98335 37.4788 8.15708 37.4437 8.29606C37.3383 8.71299 36.9169 8.95621 36.4955 8.92146Z" fill="#36383F"/>
<path d="M22.7646 9.82461C22.7646 9.82461 24.2396 13.4381 28.4887 12.3957C32.7379 11.3534 34.4586 8.74751 34.8449 8.29583C35.6526 7.32298 35.6175 5.89844 35.6175 5.89844L22.7646 9.82461Z" fill="#FFECD7"/>
<path d="M24.6961 9.23404C24.661 9.23404 25.7847 11.7009 27.7864 11.3187C31.7546 10.5543 31.1225 7.28833 31.1225 7.28833L24.6961 9.23404Z" fill="#FFDC31"/>
<path opacity="0.52" d="M33.5808 7.73981C33.335 8.57368 32.4922 9.06011 31.8952 9.65077C31.7898 9.75501 31.6494 9.92873 31.7196 10.0677C31.7547 10.1719 31.8952 10.2414 32.0356 10.2067C32.141 10.2067 32.2463 10.1372 32.3517 10.0677C32.8433 9.72026 33.2647 9.30333 33.651 8.85164C34.0724 8.36521 34.529 7.84404 34.5992 7.18389C34.5992 7.1144 34.5992 7.04491 34.5992 6.97542C34.4938 6.69746 34.1075 6.83644 33.932 6.97542C33.7213 7.18389 33.651 7.46185 33.5808 7.73981Z" fill="white"/>
</svg>
