<svg width="37" height="39" viewBox="0 0 37 39" fill="none" xmlns="http://www.w3.org/2000/svg">
<g clip-path="url(#clip0_114_3098)">
<path d="M36.0992 4.5185C34.6441 2.17627 29.5168 0.708008 17.1834 0.708008C12.9915 0.708008 8.73025 1.19743 4.78082 2.70065C3.49898 3.22503 0.207781 4.58841 0.103849 7.90948C0.0692046 8.60865 0.484935 9.20295 0.623512 9.90212L1.10853 11.8248C1.10853 11.7549 1.10853 11.72 1.10853 11.6501C3.6722 23.6409 19.1235 22.6271 28.0271 19.2361C31.3529 17.9776 33.9166 16.1947 35.5102 12.9086C36.1338 11.6151 36.7228 9.8322 36.9306 8.3989C36.9999 7.94444 36.896 7.55989 36.9653 7.10543C36.896 6.12659 36.5495 5.25263 36.0992 4.5185Z" fill="#688EAD"/>
<path d="M3.84539 7.31519C4.39969 7.17536 4.98864 7.17536 5.50831 7.03553C6.27048 6.82577 6.85943 6.26644 7.48303 5.81197C8.557 5.07784 9.80419 4.58842 11.086 4.44859C12.4371 4.2738 13.8576 4.44859 15.2087 4.23884C16.5944 4.02909 17.9456 3.43479 19.366 3.50471C20.7171 3.57462 21.9643 4.20388 23.3154 4.30875C24.8398 4.44859 26.468 3.88925 27.9231 4.48355C28.616 4.76322 29.2049 5.2876 29.9325 5.49735C30.4175 5.63718 30.9371 5.63718 31.4222 5.67214C32.5308 5.81197 33.5355 6.37131 34.5401 6.89569C35.3023 7.31519 36.0991 7.76966 36.4456 8.5737C36.8613 9.5875 36.3416 10.7761 35.5795 11.5801C34.2283 13.0484 32.2536 13.7126 30.3135 14.202C26.0523 15.2508 21.6179 15.4605 17.218 15.5654C13.8229 15.6703 10.3931 15.7053 7.03265 15.041C5.78546 14.7963 4.50363 14.4118 3.60288 13.5378C2.04389 11.9297 0.796697 8.1542 3.84539 7.31519Z" fill="#F4D09F"/>
<path d="M28.7547 6.23151C28.6854 6.47622 28.4429 6.65102 28.235 6.79085C27.8886 7.03556 27.4728 7.24531 27.0571 7.42011C26.8839 7.49002 26.7107 7.55994 26.5721 7.69978C26.4335 7.83961 26.3989 8.08432 26.5374 8.1892C26.6067 8.25911 26.676 8.25911 26.7453 8.29407C27.265 8.39895 27.7153 8.04936 28.235 7.97944C28.6161 7.90953 28.9972 7.97944 29.3783 8.0144C29.7594 8.0144 30.1751 7.97944 30.4522 7.73473C30.5562 7.66482 30.6255 7.55994 30.6255 7.42011C30.6255 7.28027 30.5562 7.1754 30.4176 7.14044C30.9026 7.35019 31.4569 7.42011 32.0112 7.38515C32.1498 7.38515 32.323 7.31523 32.3923 7.1754C32.427 7.10548 32.3923 7.03556 32.3923 6.96565C32.2884 6.54614 31.8034 6.33639 31.3876 6.26647C30.9719 6.19656 30.5215 6.19656 30.1751 5.95185C30.0019 5.84697 29.8979 5.67218 29.7247 5.5673C29.4129 5.35755 28.7547 5.21772 28.4429 5.46243C28.6507 5.63722 28.8586 5.91689 28.7547 6.23151Z" fill="#F2C194"/>
<path d="M22.2415 8.8535C22.1029 9.13316 21.7911 9.23804 21.4793 9.34292C21.029 9.51771 20.6479 9.72746 20.3014 10.0421C20.2668 10.077 20.2321 10.112 20.1975 10.1819C20.0936 10.3917 20.3707 10.5665 20.6132 10.5315C20.8211 10.4966 21.029 10.3567 21.2368 10.3567C21.514 10.3567 21.7218 10.5315 21.9644 10.6014C22.1376 10.6364 22.3454 10.6364 22.5187 10.6014C23.3848 10.4965 24.2162 10.3917 25.0823 10.2868C25.3941 10.2518 25.7752 10.1819 25.9484 9.90225C25.9831 9.83234 26.0177 9.76242 26.0177 9.6925C25.9831 9.55267 25.8445 9.48275 25.7406 9.44779C25.3595 9.34292 24.9438 9.30796 24.5627 9.34292C24.4934 8.99333 25.1863 8.92341 25.2209 8.53887C24.632 8.39903 24.0084 8.29416 23.4194 8.15432C22.7958 8.01449 22.1722 7.90961 21.5833 7.97953C21.8951 8.11936 22.484 8.36407 22.2415 8.8535Z" fill="#F2C194"/>
<path d="M26.2948 11.3354C26.8145 11.0557 27.2302 10.5663 27.3341 9.97202C28.3042 9.97202 29.3781 9.97202 30.1403 9.34277C30.3135 9.20293 30.4521 9.02814 30.6253 8.92326C30.8332 8.78343 31.1103 8.74847 31.3875 8.71351C32.115 8.60864 32.8079 8.50376 33.5354 8.36393C33.6047 8.36393 33.7087 8.32897 33.7779 8.36393C33.9165 8.43384 33.9512 8.64359 33.9165 8.78343C33.7779 9.30781 33.2583 9.65739 32.7386 9.79723C32.219 9.93706 31.6646 9.97202 31.145 10.1468C30.66 10.3216 30.2442 10.6712 29.8285 10.9509C29.2396 11.3354 28.616 11.65 27.9231 11.8947C26.5027 12.3842 24.9783 12.4191 23.454 12.4541C22.6572 12.489 21.895 12.489 21.1328 12.3492C21.895 11.7549 22.969 12.0346 23.8351 11.9647C24.6319 11.8598 25.5673 11.7549 26.2948 11.3354Z" fill="#F2C194"/>
<path d="M12.4374 7.90944C12.6453 7.94439 12.8878 7.94439 13.0957 7.87448C13.3035 7.80456 13.5114 7.62977 13.5114 7.42002C13.5114 7.24522 13.4421 7.10539 13.3035 6.96555C13.1649 6.86068 13.0264 6.79076 12.8532 6.72084C12.2296 6.51109 10.8091 6.30134 10.4973 7.10539C10.2202 7.97935 12.0217 7.87448 12.4374 7.90944Z" fill="#BF9777"/>
<path d="M11.1901 7.66474C12.032 7.66474 12.7145 6.97607 12.7145 6.12656C12.7145 5.27704 12.032 4.58838 11.1901 4.58838C10.3482 4.58838 9.66577 5.27704 9.66577 6.12656C9.66577 6.97607 10.3482 7.66474 11.1901 7.66474Z" fill="#600C4E"/>
<path d="M11.9869 4.62328L12.0215 4.65824C12.0215 4.65824 12.0562 4.65824 12.0908 4.65824C12.1947 4.62328 12.2987 4.58832 12.368 4.55336C12.368 4.62328 12.3333 4.6932 12.3333 4.76311C12.4372 4.76311 12.5758 4.76311 12.6797 4.76311C12.6451 4.83303 12.5758 4.90295 12.5412 4.97287C12.6105 4.97287 12.7144 4.97287 12.7837 4.97287C12.8183 4.97287 12.853 4.97287 12.853 5.00782C12.853 5.00782 12.853 5.04278 12.8183 5.04278C12.7144 5.14766 12.6105 5.25253 12.5065 5.32245C12.4719 5.35741 12.4026 5.39237 12.3333 5.42733C12.264 5.42733 12.2294 5.39237 12.1601 5.39237C11.9869 5.32245 11.7097 5.14766 11.6404 4.97287C11.5711 4.79807 11.7444 4.58832 11.8483 4.44849C11.9522 4.55336 11.9522 4.58832 11.9869 4.62328Z" fill="#600C4E"/>
<path opacity="0.33" d="M10.7051 5.00778C10.5319 5.11266 10.3933 5.25249 10.3586 5.46224C10.3586 5.4972 10.3586 5.56712 10.3586 5.60208C10.3586 5.67199 10.4279 5.70695 10.4626 5.74191C10.4972 5.77687 10.5319 5.81183 10.5665 5.77687C10.6358 5.77687 10.6704 5.70695 10.7051 5.63703C10.8437 5.42728 11.0862 5.28745 11.3287 5.35737C11.398 5.35737 11.4673 5.39232 11.5019 5.32241C11.5019 5.32241 11.5019 5.28745 11.5019 5.25249C11.5365 4.83299 10.9822 4.9029 10.7051 5.00778Z" fill="white"/>
<path d="M8.59172 11.0208C8.79959 11.0557 9.0421 11.0557 9.24996 10.9858C9.45783 10.9159 9.66569 10.7411 9.66569 10.5313C9.66569 10.3566 9.5964 10.2167 9.45783 10.0769C9.31925 9.97201 9.18067 9.90209 9.00745 9.83217C8.38386 9.62242 6.96344 9.41267 6.65165 10.2167C6.37449 11.0907 8.14135 10.9858 8.59172 11.0208Z" fill="#BF9777"/>
<path d="M8.81374 9.59737C9.00888 8.77097 8.50317 7.9414 7.6842 7.74448C6.86522 7.54757 6.04312 8.05787 5.84797 8.88427C5.65283 9.71068 6.15854 10.5402 6.97751 10.7372C7.79648 10.9341 8.61859 10.4238 8.81374 9.59737Z" fill="#600C4E"/>
<path d="M8.10649 7.73461L8.14114 7.76957C8.14114 7.76957 8.17578 7.76957 8.21043 7.76957C8.31436 7.73461 8.41829 7.69965 8.48758 7.66469C8.48758 7.73461 8.45294 7.80452 8.45294 7.87444C8.55687 7.87444 8.69544 7.87444 8.79938 7.87444C8.76473 7.94436 8.69544 8.01428 8.6608 8.08419C8.73009 8.08419 8.83402 8.08419 8.90331 8.08419C8.93795 8.08419 8.9726 8.08419 8.9726 8.11915C8.9726 8.11915 8.9726 8.15411 8.93795 8.15411C8.83402 8.25899 8.73009 8.36386 8.62616 8.43378C8.59151 8.46874 8.52222 8.5037 8.45294 8.53865C8.38365 8.53865 8.349 8.5037 8.27971 8.5037C8.10649 8.43378 7.82934 8.25899 7.76005 8.08419C7.69076 7.9094 7.86398 7.69965 7.96792 7.55981C8.07185 7.66469 8.10649 7.69965 8.10649 7.73461Z" fill="#600C4E"/>
<path opacity="0.33" d="M6.85938 8.11911C6.68616 8.22398 6.54758 8.36382 6.51294 8.57357C6.51294 8.60853 6.51294 8.67845 6.51294 8.71341C6.51294 8.78332 6.58223 8.81828 6.61687 8.85324C6.65152 8.8882 6.68616 8.92316 6.7208 8.8882C6.79009 8.8882 6.82474 8.81828 6.85938 8.74836C6.99796 8.53861 7.24047 8.39878 7.48298 8.46869C7.55226 8.46869 7.62155 8.50365 7.6562 8.43374C7.6562 8.43374 7.6562 8.39878 7.6562 8.36382C7.69084 7.94431 7.10189 8.01423 6.85938 8.11911Z" fill="white"/>
<path d="M22.4147 11.72C22.6226 11.7549 22.8651 11.7549 23.073 11.685C23.2808 11.6151 23.4887 11.4403 23.4887 11.2306C23.4887 11.0558 23.4194 10.9159 23.2808 10.7761C23.1422 10.6712 23.0037 10.6013 22.8305 10.5314C22.2069 10.3216 20.7864 10.1119 20.4746 10.9159C20.1975 11.7899 21.9643 11.685 22.4147 11.72Z" fill="#BF9777"/>
<path d="M21.641 11.4009C22.4417 11.1386 22.88 10.2709 22.6201 9.46293C22.3601 8.65496 21.5003 8.21263 20.6996 8.47496C19.8989 8.73729 19.4605 9.60494 19.7205 10.4129C19.9804 11.2209 20.8403 11.6632 21.641 11.4009Z" fill="#600C4E"/>
<path d="M21.9644 8.43383L21.9991 8.46878C21.9991 8.46878 22.0337 8.46878 22.0683 8.46878C22.1723 8.43383 22.2762 8.39887 22.3455 8.36391C22.3455 8.43383 22.3109 8.50374 22.3109 8.57366C22.4148 8.57366 22.5534 8.57366 22.6573 8.57366C22.6227 8.64358 22.5534 8.71349 22.5187 8.78341C22.588 8.78341 22.6919 8.78341 22.7612 8.78341C22.7959 8.78341 22.8305 8.78341 22.8305 8.81837C22.8305 8.81837 22.8305 8.85333 22.7959 8.85333C22.6919 8.9582 22.588 9.06308 22.4841 9.133C22.4494 9.16796 22.3801 9.20291 22.3109 9.23787C22.2416 9.23787 22.2069 9.20291 22.1376 9.20291C21.9644 9.133 21.6873 8.95821 21.618 8.78341C21.5487 8.60862 21.7219 8.39887 21.8258 8.25903C21.8951 8.32895 21.9298 8.39887 21.9644 8.43383Z" fill="#600C4E"/>
<path opacity="0.33" d="M20.6826 8.81848C20.5094 8.92335 20.3708 9.06319 20.3362 9.27294C20.3362 9.30789 20.3362 9.37781 20.3362 9.41277C20.3362 9.48269 20.4055 9.51765 20.4401 9.5526C20.4748 9.58756 20.5094 9.62252 20.544 9.58756C20.6133 9.58756 20.648 9.51765 20.6826 9.44773C20.8212 9.23798 21.0637 9.09814 21.3062 9.16806C21.3755 9.16806 21.4448 9.20302 21.4794 9.1331C21.4794 9.1331 21.4794 9.09814 21.4794 9.06319C21.5141 8.64368 20.9251 8.67864 20.6826 8.81848Z" fill="white"/>
<path d="M25.8792 8.50392C26.0871 8.53888 26.3296 8.53888 26.5374 8.46896C26.7453 8.39904 26.9532 8.22425 26.9532 8.0145C26.9532 7.83971 26.8839 7.69987 26.7453 7.56004C26.6067 7.45516 26.4681 7.38524 26.2949 7.31533C25.6713 7.10557 24.2509 6.89582 23.9391 7.69987C23.6273 8.57384 25.4288 8.46896 25.8792 8.50392Z" fill="#BF9777"/>
<path d="M24.632 8.25922C25.4739 8.25922 26.1564 7.57055 26.1564 6.72104C26.1564 5.87153 25.4739 5.18286 24.632 5.18286C23.7901 5.18286 23.1077 5.87153 23.1077 6.72104C23.1077 7.57055 23.7901 8.25922 24.632 8.25922Z" fill="#600C4E"/>
<path d="M25.3943 5.21776L25.429 5.25272C25.429 5.25272 25.4636 5.25272 25.4983 5.25272C25.6022 5.21776 25.7061 5.1828 25.7754 5.14784C25.7754 5.21776 25.7408 5.28768 25.7408 5.3576C25.8447 5.3576 25.9833 5.3576 26.0872 5.3576C26.0526 5.42751 25.9833 5.49743 25.9486 5.56735C26.0179 5.56735 26.1219 5.56735 26.1912 5.56735C26.2258 5.56735 26.2604 5.56735 26.2604 5.60231C26.2604 5.60231 26.2604 5.63726 26.2258 5.63726C26.1219 5.74214 26.0179 5.84702 25.914 5.91693C25.8794 5.95189 25.8101 5.98685 25.7408 6.02181C25.6715 6.02181 25.6368 5.98685 25.5676 5.98685C25.3943 5.91693 25.1172 5.74214 25.0479 5.56735C24.9786 5.39255 25.1518 5.1828 25.2558 5.04297C25.3597 5.14784 25.3943 5.1828 25.3943 5.21776Z" fill="#600C4E"/>
<path opacity="0.33" d="M24.1123 5.60217C23.9391 5.70704 23.8005 5.84688 23.7659 6.05663C23.7659 6.09159 23.7659 6.16151 23.7659 6.19646C23.7659 6.26638 23.8352 6.30134 23.8698 6.3363C23.9044 6.37126 23.9391 6.40622 23.9737 6.37126C24.043 6.37126 24.0777 6.30134 24.1123 6.23142C24.2509 6.02167 24.4934 5.88184 24.7359 5.95175C24.8052 5.95175 24.8745 5.98671 24.9091 5.9168C24.9091 5.9168 24.9091 5.88184 24.9091 5.84688C24.9784 5.42737 24.3895 5.46233 24.1123 5.60217Z" fill="white"/>
<path d="M19.3315 5.46241C19.5393 5.49737 19.7818 5.49737 19.9897 5.42746C20.1976 5.35754 20.4054 5.18275 20.4054 4.97299C20.4054 4.7982 20.3361 4.65837 20.1976 4.51853C20.059 4.41366 19.9204 4.34374 19.7472 4.27382C19.1236 4.06407 17.7032 3.85432 17.3914 4.65837C17.1142 5.53233 18.8811 5.42746 19.3315 5.46241Z" fill="#BF9777"/>
<path d="M19.5661 4.04065C19.7578 3.21348 19.2487 2.38612 18.4289 2.19268C17.6092 1.99925 16.7893 2.513 16.5976 3.34017C16.4059 4.16734 16.915 4.9947 17.7347 5.18813C18.5545 5.38157 19.3744 4.86782 19.5661 4.04065Z" fill="#600C4E"/>
<path d="M18.8812 2.17626L18.9158 2.21122C18.9158 2.21122 18.9504 2.21122 18.9851 2.21122C19.089 2.17626 19.193 2.1413 19.2622 2.10634C19.2622 2.17626 19.2276 2.24617 19.2276 2.31609C19.3315 2.31609 19.4701 2.31609 19.574 2.31609C19.5394 2.38601 19.4701 2.45593 19.4355 2.52584C19.5047 2.52584 19.6087 2.52584 19.678 2.52584C19.7126 2.52584 19.7473 2.52584 19.7473 2.5608C19.7473 2.5608 19.7473 2.59576 19.7126 2.59576C19.6087 2.70064 19.5047 2.80551 19.4008 2.87543C19.3662 2.91039 19.2969 2.94535 19.2276 2.98031C19.1583 2.98031 19.1237 2.94535 19.0544 2.94535C18.8812 2.87543 18.604 2.70064 18.5347 2.52584C18.4654 2.35105 18.6386 2.1413 18.7426 2.00146C18.8119 2.10634 18.8465 2.1413 18.8812 2.17626Z" fill="#600C4E"/>
<path opacity="0.33" d="M17.5994 2.56076C17.4262 2.66563 17.2876 2.80547 17.2529 3.01522C17.2529 3.05018 17.2529 3.1201 17.2529 3.15505C17.2529 3.22497 17.3222 3.25993 17.3569 3.29489C17.3915 3.32985 17.4262 3.36481 17.4608 3.32985C17.5301 3.32985 17.5647 3.25993 17.5994 3.19001C17.7379 2.98026 17.9805 2.84043 18.223 2.91034C18.2923 2.91034 18.3615 2.9453 18.3962 2.87539C18.3962 2.87539 18.3962 2.84043 18.3962 2.80547C18.4308 2.38597 17.8419 2.45588 17.5994 2.56076Z" fill="white"/>
<path d="M32.3229 12.4888C32.5308 12.5237 32.7733 12.5237 32.9812 12.4538C33.189 12.3839 33.3969 12.2091 33.3969 11.9994C33.3969 11.8246 33.3276 11.6847 33.189 11.5449C33.0505 11.44 32.9119 11.3701 32.7387 11.3002C32.1151 11.0904 30.6946 10.8807 30.3828 11.6847C30.1057 12.5587 31.8725 12.4538 32.3229 12.4888Z" fill="#BF9777"/>
<path d="M32.5781 11.0168C32.7551 10.1863 32.2314 9.36822 31.4084 9.18957C30.5854 9.01092 29.7747 9.53933 29.5977 10.3698C29.4206 11.2003 29.9443 12.0184 30.7673 12.197C31.5903 12.3757 32.401 11.8473 32.5781 11.0168Z" fill="#600C4E"/>
<path d="M31.8379 9.20263L31.8726 9.23758C31.8726 9.23758 31.9072 9.23758 31.9419 9.23758C32.0458 9.20263 32.1497 9.16767 32.219 9.13271C32.219 9.20263 32.1844 9.27254 32.1844 9.34246C32.2883 9.34246 32.4269 9.34246 32.5308 9.34246C32.4962 9.41238 32.4269 9.48229 32.3922 9.55221C32.4615 9.55221 32.5655 9.55221 32.6348 9.55221C32.6694 9.55221 32.704 9.55221 32.704 9.58717C32.704 9.58717 32.704 9.62213 32.6694 9.62213C32.5655 9.727 32.4615 9.83188 32.3576 9.9018C32.323 9.93676 32.2537 9.97172 32.1844 10.0067C32.1151 10.0067 32.0804 9.97172 32.0112 9.97172C31.8379 9.9018 31.5608 9.727 31.4915 9.55221C31.4222 9.37742 31.5954 9.16767 31.6994 9.02783C31.8033 9.09775 31.8379 9.16767 31.8379 9.20263Z" fill="#600C4E"/>
<path opacity="0.33" d="M30.5908 9.58703C30.4176 9.69191 30.279 9.83174 30.2444 10.0415C30.2444 10.0765 30.2444 10.1464 30.2444 10.1813C30.2444 10.2512 30.3137 10.2862 30.3483 10.3212C30.383 10.3561 30.4176 10.3911 30.4522 10.3561C30.5215 10.3561 30.5562 10.2862 30.5908 10.2163C30.7294 10.0065 30.9719 9.8667 31.2144 9.93662C31.2837 9.93662 31.353 9.97158 31.3876 9.90166C31.3876 9.90166 31.3876 9.8667 31.3876 9.83174C31.4223 9.41224 30.8333 9.4472 30.5908 9.58703Z" fill="white"/>
<path d="M36.9651 7.0354C36.5841 8.15408 35.7526 8.81829 35.0251 9.51746C34.055 10.4264 33.0503 11.0906 31.8378 11.7199C28.7545 13.293 25.3247 13.0832 21.9642 13.3979C17.3912 13.7824 11.467 13.7824 7.20577 12.3491C4.26102 11.3703 2.45952 9.90201 0.103714 7.90937C-0.000218138 10.6361 0.484801 13.0832 0.761954 14.7613C1.31626 18.362 2.77132 22.4871 5.36963 25.0391C5.95858 25.6334 6.58218 26.1578 7.20577 26.5773C7.65615 33.2194 19.3312 32.7649 23.35 32.6251C26.1908 32.5202 28.8238 31.0869 29.6899 29.7235C30.2788 28.5699 30.3481 27.5211 30.2788 26.5423C32.1842 25.1789 33.7432 23.396 34.7826 21.2635C36.4108 17.9774 36.3069 14.5165 36.7573 10.9857C36.9651 9.76217 37.0344 8.29391 36.9651 7.0354Z" fill="#8FBBEF"/>
<path d="M34.8519 21.2636C36.4802 17.9774 36.3763 14.5165 36.8267 10.9857C36.9652 9.76217 37.0345 8.32887 36.9652 7.0354C36.1338 8.36383 35.6834 8.92316 34.9559 9.58738C33.9166 10.4963 33.0851 11.0556 31.8726 11.6849C31.3875 11.9296 30.9372 12.1044 30.4175 12.2792C30.175 13.258 30.0018 14.3068 29.7593 15.2157C28.6853 19.5855 26.2602 24.0952 22.0336 25.948C21.41 26.2277 17.9109 26.4724 18.2227 27.3463C18.3613 27.7309 19.4699 27.8707 19.7471 28.3951C20.0242 28.9544 19.8857 30.0382 19.7817 30.6674C19.6778 31.2617 19.2967 32.0308 19.5046 32.695C21.0636 32.73 22.4493 32.6601 23.4194 32.6251C26.2602 32.5202 28.8932 31.0869 29.7593 29.7235C30.3482 28.5699 30.4175 27.5211 30.3482 26.5423C32.219 25.1789 33.778 23.396 34.8519 21.2636Z" fill="#80ABD6"/>
<path d="M0.796592 11.6848C1.10839 11.6498 1.45483 11.6498 1.73199 11.7896C1.93985 11.8945 2.11307 12.1043 2.25165 12.314C2.63273 12.9083 2.90989 13.5376 3.49884 13.992C4.6421 14.831 6.1318 13.8872 7.3097 14.5863C7.6215 14.7611 7.9333 15.0408 8.21045 15.2855C8.4876 15.5302 8.76476 15.7749 9.04191 15.9847C9.56157 16.4042 10.1505 16.7887 10.8088 16.9985C11.5709 17.2432 12.3678 17.1733 13.1646 16.9635C13.8575 16.7887 14.5157 16.5091 15.2432 16.4391C15.5897 16.4042 15.9361 16.4391 16.2825 16.579C16.6983 16.7188 17.0794 16.9985 17.4951 17.2082C18.2919 17.5928 19.1234 17.8724 20.0241 17.9074C20.9249 17.9424 21.791 17.6627 22.5878 17.2082C23.246 16.8237 23.9043 16.4741 24.6318 16.3343C25.2207 16.2294 25.8097 16.3692 26.364 16.5091C27.0569 16.6838 27.7844 16.9985 28.5119 16.9286C29.6552 16.7887 30.1749 15.7749 30.9024 15.0058C31.2835 14.5863 31.7685 14.2717 32.3228 14.1668C32.8078 14.0969 33.2582 14.2018 33.7432 14.2018C34.2282 14.2018 34.6786 14.062 34.9904 13.6774C35.2329 13.3977 35.4061 13.0831 35.5447 12.7335C35.6487 12.4539 35.6833 12.1742 35.7872 11.8596C35.8565 11.6149 35.9951 11.51 36.2722 11.5449C36.2722 11.4051 36.2722 11.2303 36.2722 11.0905C36.099 11.1254 35.9604 11.1953 35.8219 11.3002C35.614 11.51 35.9258 11.8246 36.1337 11.6149C36.1683 11.5799 36.203 11.5449 36.2722 11.5449C36.5494 11.51 36.584 11.0905 36.2722 11.0905C35.9604 11.0555 35.6833 11.1604 35.4754 11.4401C35.3022 11.6848 35.2676 11.9644 35.1983 12.2441C35.0597 12.7685 34.7479 13.4327 34.2629 13.6424C33.8818 13.7823 33.4314 13.6774 33.0157 13.6424C32.4614 13.6075 31.9071 13.6774 31.4221 13.9571C30.9024 14.2367 30.5213 14.6562 30.1402 15.1107C29.8284 15.4953 29.5166 15.9148 29.1009 16.1595C28.6159 16.4741 28.0269 16.4741 27.4726 16.2993C26.7797 16.1245 26.0869 15.8798 25.394 15.7749C24.7704 15.705 24.1814 15.8099 23.6271 16.0546C22.7957 16.4042 22.0681 16.9635 21.202 17.2082C20.3706 17.4529 19.5045 17.383 18.673 17.1383C18.2573 16.9985 17.8415 16.8237 17.4258 16.6139C17.0447 16.4042 16.6636 16.1595 16.2133 16.0546C15.5204 15.8448 14.8621 15.9847 14.1693 16.1595C13.4071 16.3692 12.6103 16.6489 11.8134 16.6489C10.3584 16.6489 9.31906 15.5652 8.24509 14.6562C7.96794 14.4115 7.65614 14.1668 7.3097 13.992C6.9979 13.8522 6.65146 13.7823 6.30502 13.7473C5.68142 13.7124 5.02318 13.8872 4.39959 13.7823C3.67206 13.6425 3.25633 13.0831 2.90989 12.4539C2.63273 11.9644 2.32094 11.4401 1.76663 11.2303C1.45483 11.1953 1.10839 11.1953 0.796592 11.2303C0.484795 11.2303 0.484795 11.7197 0.796592 11.6848Z" fill="#E5E5B7"/>
<path d="M1.35097 14.0274C1.66277 13.9225 1.97457 13.9225 2.25172 14.0973C2.49423 14.2721 2.66745 14.5518 2.80603 14.7965C3.11783 15.3209 3.36034 15.9851 3.81071 16.3696C4.08786 16.5794 4.39966 16.6843 4.71146 16.7542C5.09255 16.7891 5.47363 16.7192 5.82007 16.6143C6.20116 16.5095 6.5476 16.4046 6.92869 16.5444C7.24049 16.6493 7.51764 16.8591 7.7255 17.1387C8.17588 17.6631 8.45303 18.2924 9.04198 18.6769C9.38843 18.8867 9.76951 19.0265 10.1506 19.0265C10.497 19.0265 10.8088 18.9216 11.086 18.7818C11.7442 18.4672 12.4025 18.1176 13.1646 18.1525C13.7536 18.1875 14.2733 18.5371 14.7583 18.8167C15.3472 19.1663 16.0055 19.5509 16.6984 19.7257C17.4259 19.9005 18.1534 19.7606 18.8463 19.5159C19.5045 19.2712 20.1974 18.9566 20.8903 18.9566C21.5832 18.9566 22.2414 19.2013 22.8304 19.5159C23.35 19.7606 23.8697 20.0753 24.4587 20.0753C25.2208 20.1102 25.9484 19.6907 26.6066 19.3062C26.953 19.0964 27.2995 18.8517 27.6459 18.7119C28.027 18.572 28.4427 18.5371 28.8931 18.572C29.3088 18.607 29.6899 18.7119 30.1057 18.6769C30.5214 18.6419 30.9025 18.4672 31.2489 18.1875C31.7686 17.733 31.9418 17.0339 32.3575 16.4745C32.5654 16.2298 32.8426 15.9851 33.1197 15.9152C33.3969 15.8453 33.7087 15.8103 33.9858 15.7753C34.4708 15.6705 34.9212 15.3908 35.3023 15.1111C35.5448 14.9713 35.7527 14.7965 35.9605 14.5867C36.0991 14.4469 36.2723 14.3071 36.3416 14.1323C36.4455 13.9575 36.4109 13.7477 36.203 13.6429C35.9605 13.503 35.718 13.8876 35.9605 14.0274C35.9952 14.0624 35.9259 13.9925 35.9259 13.9925C35.8566 13.8876 35.9605 14.0274 35.9259 13.9225V13.8876C35.8912 13.9575 35.9259 13.8876 35.9259 13.8876C35.8912 13.9575 35.8566 13.9925 35.7873 14.0624C35.6141 14.2372 35.4409 14.377 35.233 14.5518C34.8866 14.7965 34.4362 15.1111 34.0551 15.251C33.7779 15.3209 33.4661 15.3558 33.1543 15.3908C32.8772 15.4607 32.6 15.5656 32.3575 15.7404C31.7686 16.1948 31.5954 16.8591 31.1796 17.4534C31.1103 17.8379 30.8332 18.0826 30.4867 18.1875C30.1057 18.2924 29.6899 18.2574 29.2742 18.1875C28.8585 18.1176 28.4427 18.0826 28.027 18.1875C27.6459 18.2574 27.2648 18.4322 26.953 18.6419C26.2948 19.0265 25.6366 19.5509 24.8744 19.6557C24.3201 19.7257 23.8004 19.481 23.3154 19.2362C22.7264 18.9216 22.1028 18.6419 21.4446 18.572C20.7171 18.4672 20.0588 18.6769 19.366 18.9216C18.7077 19.1663 18.0495 19.446 17.3566 19.411C16.6637 19.3761 15.9708 19.0265 15.3819 18.6769C14.8622 18.3623 14.3425 18.0127 13.7882 17.8379C13.13 17.6631 12.4718 17.733 11.8482 18.0127C11.2246 18.2574 10.601 18.7468 9.87345 18.572C9.527 18.4672 9.21521 18.2924 8.9727 18.0127C8.73019 17.768 8.55697 17.4883 8.38374 17.2086C7.96801 16.6493 7.44835 16.1599 6.72082 16.09C5.95865 16.0201 5.30041 16.5444 4.53824 16.3347C3.94929 16.1599 3.70678 15.5306 3.46427 15.0412C3.18711 14.5168 2.84067 13.8876 2.25172 13.6429C1.93992 13.538 1.59348 13.538 1.28168 13.6429C0.935242 13.6778 1.07382 14.1323 1.35097 14.0274Z" fill="#E5E5B7"/>
<path opacity="0.1" d="M10.1159 14.8315C9.42305 14.3421 8.66087 13.9576 7.86406 13.608C7.0326 13.2234 4.74608 11.6853 4.01855 12.6991C0.900574 13.643 3.63746 19.1664 4.9193 21.0192C5.71612 22.1728 8.69552 24.62 9.97735 22.6972C10.4277 21.9981 10.2545 20.8794 10.3238 20.1103C10.3931 19.1664 10.3931 18.2575 10.5317 17.3136C10.7049 16.1949 11.1206 15.5657 10.1159 14.8315Z" fill="white"/>
<path d="M14.3425 5.39245C14.1693 5.53228 14.1 5.74203 14.2039 5.91683C14.2732 6.0217 14.3771 6.09162 14.481 6.12658C14.8275 6.30137 15.2432 6.47616 15.3818 6.82575C15.555 7.21029 15.3125 7.66476 15.0354 8.01434C14.7236 8.36393 14.3425 8.6436 13.9267 8.81839C13.4071 9.02814 12.7835 9.13302 12.3331 9.51756C12.2292 9.62244 12.1252 9.72731 12.1252 9.86715C12.1252 10.0419 12.3331 10.1818 12.5063 10.2517C13.511 10.6362 14.6889 10.4265 15.5204 9.76227C15.7282 9.58748 15.9361 9.41269 16.1786 9.27285C16.4904 9.09806 16.8715 9.09806 17.2179 9.0631C17.9108 8.95823 18.5691 8.74847 19.1927 8.43385C19.4352 8.32897 19.643 8.15418 19.8163 7.97938C19.8509 7.90947 19.9202 7.83955 19.9202 7.76963C19.9548 7.6298 19.8163 7.48996 19.6777 7.42005C19.5391 7.35013 19.3659 7.35013 19.2273 7.35013C18.8116 7.35013 18.4305 7.31517 18.0494 7.17534C17.6683 7.0355 17.3565 6.75583 17.1833 6.40625C17.114 6.23145 17.0794 6.05666 16.9754 5.91683C16.8369 5.67212 16.629 5.53228 16.4211 5.39245C15.8322 5.11278 14.8621 4.97294 14.3425 5.39245Z" fill="#F2DCA5"/>
<path d="M15.174 22.2424C13.9961 22.2424 12.8182 22.3473 11.6403 22.3823C9.28453 22.4871 6.92872 22.4871 4.57292 22.4871C3.70681 22.4871 2.87535 22.4522 2.04389 22.4522C1.62816 22.4522 1.21243 22.4522 0.796701 22.4522C0.588836 22.4522 -0.104048 22.5221 0.0345286 22.5571V22.6619C0.0345286 23.3261 0.103817 24.1302 0.554191 24.6196C0.935278 28.1504 2.11318 36.6803 2.91 37.3445C5.02329 39.0925 11.9521 39.1974 13.7883 37.2746C14.4812 36.5405 15.5551 28.6748 15.9362 24.9342C16.3519 24.6546 16.0748 23.9904 16.1441 23.3961C16.3173 22.2424 16.2134 22.2774 15.174 22.2424Z" fill="#EFE0CB"/>
<path d="M7.93342 19.5506C3.67218 19.6205 -0.104034 20.844 -0.000101105 22.4521C0.103831 24.0602 2.56357 25.8082 8.00271 25.8082C14.1001 25.8082 16.0402 24.8293 16.3173 22.6269C16.6291 20.6693 12.645 19.5156 7.93342 19.5506Z" fill="#EF6A60"/>
<path d="M13.7882 37.2747C14.4118 36.6105 15.3819 30.0383 15.8322 26.053C15.3126 26.2278 14.7929 26.4375 14.4811 26.5074C13.3725 26.7522 12.2292 26.892 11.1206 27.0668C10.0466 27.2416 8.93803 27.2765 7.79477 27.2765C6.75545 27.2765 5.26575 27.2066 4.39964 26.6822L4.43429 26.8221C4.91931 27.1367 5.8547 27.3464 6.47829 27.4863C8.73017 27.9407 11.0167 28.1155 13.2339 28.57C13.3032 29.7586 13.1993 31.0171 13.0953 32.2057C12.9914 33.4992 12.6796 34.8975 12.3678 36.1211C12.0214 37.5194 10.2199 37.7991 9.04197 37.7991C7.44833 37.7991 5.75077 37.834 4.22642 37.3796C3.77605 37.2397 3.11781 36.7853 2.59814 36.8202C2.70208 37.0999 2.80601 37.3097 2.90994 37.3796C5.02324 39.1275 11.9867 39.2324 13.7882 37.2747Z" fill="#E8D2BF"/>
<path d="M16.8717 25.1439C16.4559 24.4448 16.9063 22.9765 15.9016 22.6968C15.382 22.557 14.793 22.6619 14.4119 23.0464C14.2041 23.2562 13.6151 24.7244 14.2387 24.5846L14.3426 24.7594C14.9316 24.7244 15.3127 25.2138 15.4513 25.7033C15.5898 26.2276 15.9363 26.6821 16.4213 26.9967C16.9063 27.3114 17.3913 27.2764 17.4953 26.6472C17.5992 25.9829 17.1488 25.6334 16.8717 25.1439Z" fill="#EF6A60"/>
<path opacity="0.3" d="M2.94472 26.7521C2.59828 26.6472 2.2172 26.5423 1.94004 26.6821C1.87075 26.6821 1.83611 26.7171 1.80147 26.822C1.76682 26.9269 1.73218 27.0317 1.73218 27.2065C1.73218 27.3813 1.76682 27.5911 1.80147 27.7659C1.83611 28.0805 1.87075 28.3602 1.9054 28.4301C2.04398 29.374 2.28648 30.3178 2.42506 31.2268C2.56364 32.1357 2.59828 33.0097 2.70221 33.9186C2.7715 34.5129 2.97937 36.121 3.84547 36.0511C4.8848 35.9462 4.2612 33.7088 4.2612 33.0446C4.2612 31.7861 4.64229 30.7373 4.91944 29.5487C5.16195 28.1854 4.15727 27.1716 2.94472 26.7521Z" fill="white"/>
<path d="M13.7536 30.5278C15.0354 32.5204 14.689 35.0724 12.9567 36.1911C11.2245 37.3098 8.86873 36.3659 7.20581 34.6529C5.40431 32.8001 5.61217 29.7937 7.34438 28.675C9.04195 27.5563 12.4371 28.5002 13.7536 30.5278Z" fill="white"/>
<path d="M13.7536 30.5277C13.615 30.283 13.4418 30.0732 13.2686 29.8984C13.2339 30.6675 13.1993 31.4366 13.13 32.1707C13.0261 33.4642 12.7143 34.8626 12.4025 36.0861C12.3678 36.2609 12.2985 36.4007 12.2292 36.5406C12.4718 36.4707 12.7143 36.3308 12.9568 36.191C14.6543 35.0723 15.0354 32.5203 13.7536 30.5277Z" fill="#DDDDDD"/>
<path d="M9.28455 29.2693C9.31919 29.1994 9.38848 29.1994 9.45777 29.1994C9.52706 29.2343 9.59634 29.3043 9.5617 29.3742C9.5617 29.4091 9.52706 29.4441 9.49241 29.479L9.18061 29.8286L9.14597 30.0384C9.11133 30.1433 9.04204 30.2132 8.93811 30.1782C8.83417 30.1433 8.79953 30.0733 8.83417 29.9685L8.86882 29.7587L8.73024 29.3043C8.73024 29.2693 8.6956 29.2343 8.73024 29.1994C8.73024 29.1295 8.83417 29.0595 8.90346 29.0945C8.97275 29.0945 9.00739 29.1644 9.04204 29.2343L9.11133 29.514L9.28455 29.2693Z" fill="#EF6A60"/>
<path d="M10.2893 29.4442C10.5318 29.5491 10.705 29.7938 10.5665 30.1434C10.4279 30.493 10.1507 30.5279 9.90822 30.458C9.66571 30.3531 9.49248 30.1084 9.63106 29.7588C9.73499 29.4442 10.0121 29.3743 10.2893 29.4442ZM10.1854 29.6889C10.0468 29.654 9.9775 29.7239 9.90822 29.8637C9.83893 30.0035 9.87357 30.1434 9.9775 30.1783C10.1161 30.2133 10.1854 30.1434 10.2547 30.0035C10.3239 29.8637 10.3239 29.7588 10.1854 29.6889Z" fill="#EF6A60"/>
<path d="M11.1552 30.7024C11.1206 30.6674 11.0859 30.6325 11.1206 30.5626C11.1552 30.4926 11.2245 30.4926 11.2591 30.5276L11.4324 30.6325C11.5017 30.6674 11.5363 30.7723 11.467 30.8422L11.3284 31.0869C11.2938 31.1568 11.2245 31.1918 11.1552 31.1568C11.0859 31.1219 11.0859 31.052 11.1206 31.017V30.9821C11.0513 31.017 10.9127 30.9821 10.8088 30.9471C10.6355 30.8422 10.4623 30.5975 10.6702 30.2479C10.8781 29.9333 11.1899 29.9333 11.3631 30.0731C11.6402 30.2479 11.6402 30.4227 11.5709 30.4926C11.5363 30.5626 11.467 30.5975 11.3631 30.5276C11.2591 30.4577 11.3284 30.3528 11.2245 30.2829C11.1206 30.213 11.0166 30.2479 10.9127 30.4227C10.8088 30.5626 10.8088 30.6674 10.9473 30.7723C11.0166 30.8422 11.0859 30.8073 11.1552 30.7723V30.7024Z" fill="#EF6A60"/>
<path d="M12.4719 31.0521C12.5412 30.9822 12.6451 30.9473 12.7144 31.0172C12.7837 31.0871 12.7837 31.157 12.7144 31.2619L12.4026 31.6115C12.1947 31.8562 11.9869 31.7863 11.779 31.6115C11.5711 31.4367 11.5019 31.192 11.6751 30.9822L11.9869 30.6326C12.0562 30.5627 12.1601 30.5278 12.2294 30.5977C12.2987 30.6676 12.2987 30.7375 12.2294 30.8424L11.9176 31.192C11.8483 31.2619 11.8483 31.3668 11.9176 31.4367C11.9869 31.5066 12.0908 31.5066 12.1601 31.4017L12.4719 31.0521Z" fill="#EF6A60"/>
<path d="M12.8875 31.5067C12.9914 31.4368 13.0607 31.4368 13.1647 31.5417L13.4072 31.8214C13.5457 31.9962 13.5457 32.171 13.4072 32.2758C13.3032 32.3457 13.1993 32.3457 13.0954 32.2758C13.1647 32.3457 13.1647 32.4506 13.0954 32.5205L13.0261 32.5905C12.9914 32.6254 12.9568 32.6604 12.9222 32.6953C12.8529 32.7303 12.7836 32.7303 12.7489 32.6604C12.6796 32.5905 12.6796 32.5205 12.7489 32.4506L12.8529 32.3457C12.9222 32.2758 12.8875 32.2409 12.8529 32.1709L12.7836 32.0661L12.5757 32.1709C12.5064 32.2409 12.4025 32.2409 12.3332 32.1709C12.2639 32.101 12.2639 31.9962 12.3678 31.9262L12.8875 31.5067ZM12.9914 32.0311C13.0607 32.101 13.0954 32.101 13.1647 32.0661C13.234 32.0311 13.1993 31.9612 13.1647 31.8913L13.0607 31.7514L12.9222 31.8913L12.9914 32.0311Z" fill="#EF6A60"/>
<path d="M13.5458 32.4853C13.5111 32.4153 13.5111 32.3454 13.5804 32.3105C13.6497 32.2755 13.719 32.2755 13.7536 32.3804L14.1001 32.9747C14.1694 33.0446 14.1347 33.1145 14.0654 33.1495C13.9962 33.1844 13.9269 33.1844 13.8922 33.1145L13.7883 32.9397L13.3033 33.2543C13.1993 33.3243 13.13 33.2893 13.0608 33.2194C13.0261 33.1495 13.0261 33.0446 13.13 32.9747L13.6151 32.66L13.5458 32.4853Z" fill="#EF6A60"/>
<path d="M11.4672 32.2054C11.2593 31.7859 10.6704 31.4013 10.1853 31.6111C9.83891 31.7509 9.56175 32.0306 9.2846 32.2054C9.04209 32.1704 8.69565 32.3452 8.55707 32.485C8.24527 32.7997 8.14134 33.324 8.24527 33.7435C8.48778 34.6525 9.35389 35.2118 10.1853 35.5264C10.4625 35.6313 10.9475 35.7012 11.2593 35.5963C11.779 35.3866 11.779 34.9321 11.8136 34.5476C11.8483 33.7785 11.8483 32.8696 11.4672 32.2054Z" fill="#ED4B48"/>
<path d="M8.59155 33.0096C8.59155 33.1495 8.6262 33.3242 8.66084 33.4641C8.66084 33.499 8.73013 33.6039 8.76477 33.534C8.76477 33.499 8.73013 33.4641 8.69549 33.534C8.73013 33.534 8.73013 33.534 8.73013 33.499V33.4641C8.73013 33.4291 8.69549 33.3942 8.69549 33.3592C8.69549 33.2194 8.66084 33.1145 8.66084 33.0096C8.66084 32.9747 8.59155 32.9747 8.59155 33.0096Z" fill="#EACE49"/>
<path d="M9.04201 32.8697C9.07665 32.9047 9.1113 32.9746 9.14594 33.0096C9.14594 33.0445 9.18059 33.0445 9.18059 33.0795V33.1144V33.0795H9.21523C9.18059 33.0445 9.14594 33.0795 9.18059 33.1144C9.21523 33.1494 9.24987 33.1144 9.24987 33.0795C9.24987 33.0445 9.21523 33.0096 9.21523 33.0096C9.18059 32.9396 9.1113 32.8348 9.04201 32.7998C9.04201 32.7998 9.00736 32.8697 9.04201 32.8697Z" fill="#EACE49"/>
<path d="M9.70037 32.66C9.76966 32.7299 9.83895 32.7649 9.87359 32.7998C9.90824 32.8348 9.94288 32.7649 9.90824 32.7299C9.83895 32.695 9.76966 32.66 9.73502 32.5901C9.73502 32.5901 9.66573 32.625 9.70037 32.66Z" fill="#EACE49"/>
<path d="M10.1853 32.3455C10.2893 32.4154 10.3585 32.4504 10.4625 32.5203C10.4971 32.5203 10.5318 32.4854 10.4625 32.4504C10.3585 32.4154 10.2893 32.3455 10.1853 32.3106C10.1853 32.2756 10.1507 32.3455 10.1853 32.3455Z" fill="#EACE49"/>
<path d="M10.7743 31.9259C10.8089 31.9259 10.8089 31.856 10.7743 31.856C10.7396 31.856 10.7396 31.9259 10.7743 31.9259Z" fill="#EACE49"/>
<path d="M10.7741 31.9259C10.8434 31.9609 10.9127 32.0308 10.982 32.0658C11.0166 32.1007 11.0512 32.0308 11.0166 31.9958C10.982 31.9958 10.9473 31.9609 10.9473 31.9259C10.9127 31.891 10.878 31.856 10.8434 31.821C10.7741 31.856 10.7394 31.9259 10.7741 31.9259Z" fill="#EACE49"/>
<path d="M8.59155 33.9886C8.6262 34.0935 8.66084 34.1984 8.73013 34.2683C8.76477 34.3032 8.79942 34.2683 8.76477 34.2333C8.69548 34.1634 8.66084 34.0585 8.66084 33.9886C8.6262 33.9187 8.59155 33.9537 8.59155 33.9886Z" fill="#EACE49"/>
<path d="M9.146 33.8138C9.18064 33.8838 9.21528 33.9537 9.28457 33.9886C9.31922 34.0236 9.35386 33.9886 9.31922 33.9537C9.28457 33.9187 9.21528 33.8488 9.18064 33.7789C9.18064 33.7439 9.146 33.7789 9.146 33.8138Z" fill="#EACE49"/>
<path d="M9.83881 33.4642C9.9081 33.5342 9.97739 33.6041 10.0467 33.639C10.0813 33.639 10.116 33.5691 10.0467 33.5691C9.97739 33.5342 9.9081 33.4642 9.87346 33.4293C9.83881 33.3943 9.80417 33.4293 9.83881 33.4642Z" fill="#EACE49"/>
<path d="M10.4277 33.1844C10.4623 33.2544 10.497 33.3243 10.5662 33.3592C10.6009 33.3942 10.6355 33.3592 10.6009 33.3243C10.5662 33.2893 10.5316 33.2194 10.4623 33.1495C10.4623 33.1145 10.393 33.1495 10.4277 33.1844Z" fill="#EACE49"/>
<path d="M10.9474 32.9747C10.9821 33.0097 11.0167 33.0447 11.0514 33.1146C11.086 33.1495 11.1207 33.1146 11.1207 33.0796C11.086 33.0447 11.0514 33.0097 11.0167 32.9398C10.9821 32.9048 10.9128 32.9398 10.9474 32.9747Z" fill="#EACE49"/>
<path d="M11.3632 32.73C11.3978 32.7999 11.4325 32.8699 11.4325 32.9398C11.4325 32.9747 11.5018 32.9747 11.5018 32.9398C11.5018 32.8699 11.4671 32.7999 11.4325 32.6951C11.3978 32.6951 11.3286 32.6951 11.3632 32.73Z" fill="#EACE49"/>
<path d="M9.31904 34.6878C9.38833 34.7578 9.49226 34.8277 9.56155 34.8626C9.59619 34.8626 9.63084 34.8277 9.59619 34.7927C9.49226 34.7578 9.42297 34.6878 9.35368 34.6179C9.31904 34.6179 9.28439 34.6529 9.31904 34.6878Z" fill="#EACE49"/>
<path d="M9.90822 34.4776C9.97751 34.5126 10.0122 34.5825 10.0814 34.5825C10.1161 34.5825 10.1507 34.5475 10.0814 34.5126C10.0122 34.4776 9.97751 34.4427 9.90822 34.4077C9.90822 34.4077 9.87358 34.4427 9.90822 34.4776Z" fill="#EACE49"/>
<path d="M10.5319 34.1283C10.5666 34.1982 10.6358 34.2681 10.6705 34.338C10.7051 34.373 10.7398 34.338 10.7051 34.303C10.6705 34.2331 10.6012 34.1982 10.5666 34.1283C10.5666 34.0583 10.4973 34.0933 10.5319 34.1283Z" fill="#EACE49"/>
<path d="M11.1207 33.8836C11.1554 33.8836 11.1554 33.8137 11.1207 33.8137C11.0861 33.8137 11.0861 33.8836 11.1207 33.8836Z" fill="#EACE49"/>
<path d="M11.0861 33.8488C11.1207 33.9187 11.1554 33.9886 11.19 34.0585C11.19 34.0935 11.2593 34.0935 11.2593 34.0585C11.2593 33.9886 11.2247 33.8837 11.1554 33.8138C11.1207 33.7788 11.0515 33.8138 11.0861 33.8488Z" fill="#EACE49"/>
<path d="M11.571 33.6387C11.6056 33.7087 11.6056 33.7786 11.571 33.8485C11.571 33.8835 11.6403 33.9184 11.6403 33.8485C11.6403 33.7786 11.6403 33.6737 11.6403 33.6038C11.6056 33.5688 11.5363 33.5688 11.571 33.6387Z" fill="#EACE49"/>
<path d="M10.1162 35.2822C10.1854 35.3171 10.2894 35.387 10.3933 35.387C10.428 35.387 10.428 35.3171 10.3933 35.3171C10.2894 35.3171 10.2201 35.2822 10.1508 35.2472C10.1162 35.1773 10.0815 35.2472 10.1162 35.2822Z" fill="#EACE49"/>
<path d="M10.5664 34.9672C10.6356 35.0371 10.7049 35.072 10.8089 35.107C10.8435 35.107 10.8781 35.0371 10.8089 35.0371C10.7396 35.0371 10.6703 34.9672 10.601 34.9322C10.5664 34.8972 10.5317 34.9322 10.5664 34.9672Z" fill="#EACE49"/>
<path d="M11.0514 34.7574C11.0861 34.7924 11.0861 34.8623 11.1207 34.8973C11.1554 34.9322 11.19 34.8973 11.19 34.8623C11.1554 34.7924 11.1554 34.7574 11.1207 34.7225C11.0861 34.6875 11.0168 34.7225 11.0514 34.7574Z" fill="#EACE49"/>
<path d="M11.6057 34.4427C11.6057 34.5126 11.6404 34.5475 11.6057 34.6175C11.6057 34.6524 11.675 34.6874 11.675 34.6175C11.675 34.5475 11.675 34.4776 11.675 34.4077C11.6404 34.4077 11.6057 34.4077 11.6057 34.4427Z" fill="#EACE49"/>
<path d="M10.9129 35.4217C10.9822 35.4567 11.0861 35.4916 11.19 35.4916C11.2247 35.4916 11.2247 35.4217 11.19 35.4217C11.1208 35.4217 11.0168 35.3867 10.9475 35.3867C10.8782 35.3518 10.8782 35.4217 10.9129 35.4217Z" fill="#EACE49"/>
<path d="M11.1554 35.2818C11.1901 35.3168 11.2247 35.3517 11.294 35.3517C11.3287 35.3517 11.3287 35.2818 11.294 35.2818L11.2594 35.2469L11.2247 35.2119C11.1554 35.2119 11.1208 35.2469 11.1554 35.2818Z" fill="#EACE49"/>
<path d="M11.5365 35.0374C11.5711 35.0374 11.5711 34.9675 11.5365 34.9675C11.5018 34.9675 11.5018 35.0374 11.5365 35.0374Z" fill="#EACE49"/>
<path d="M11.5017 35.0372C11.5017 35.1071 11.5017 35.142 11.5017 35.212C11.5017 35.2469 11.571 35.2819 11.571 35.212C11.571 35.142 11.571 35.0721 11.571 35.0022C11.5364 34.9673 11.5017 34.9673 11.5017 35.0372Z" fill="#EACE49"/>
<path d="M9.31929 31.7159C9.18071 31.5761 9.11142 31.3314 9.04214 31.1566C8.90356 31.1915 8.59176 31.3314 8.48783 31.4712C8.69569 31.611 8.9382 31.7858 9.11142 31.9956C8.66105 31.9257 8.14139 32.2403 7.82959 32.52C8.0721 32.52 8.27996 32.52 8.52247 32.52C8.69569 32.52 9.07678 32.485 9.21536 32.3452L9.14607 32.3801C9.38858 32.2753 9.63109 32.1354 9.80431 31.9257C9.90824 31.8208 10.0468 31.681 10.1161 31.5411C10.1854 31.4013 10.1854 31.1915 10.324 31.0867C9.8736 31.0867 9.45787 31.2964 9.31929 31.7159Z" fill="#53B748"/>
<g opacity="0.5">
<path opacity="0.5" d="M1.45483 22.8015C1.48948 23.6755 2.5288 24.0251 3.22169 24.2348C4.26101 24.5495 5.36963 24.7242 6.4436 24.8291C7.96794 24.969 9.49229 24.8641 11.0166 24.7242C12.0906 24.6194 13.3031 24.4795 14.2385 23.8852C14.6543 23.6056 15.0354 23.1861 15.1739 22.6617C15.2779 22.2072 15.1046 21.7528 14.7928 21.4381C13.9267 20.5292 12.4717 20.3195 11.3284 20.1796C9.83873 19.9699 8.38367 20.0398 6.89397 20.1097C5.68143 20.1447 4.39959 20.2146 3.29098 20.704C2.66738 20.9837 2.04379 21.4381 1.76663 22.1024C1.83592 22.1024 1.93985 22.1373 2.00914 22.1373C2.00914 22.1024 2.00914 22.0674 2.00914 22.0324C2.00914 21.8576 1.76663 21.8576 1.76663 22.0324C1.76663 22.0674 1.76663 22.1024 1.76663 22.1373C1.76663 22.2771 1.9745 22.3121 2.00914 22.1723C2.25165 21.543 2.90989 21.1235 3.53349 20.8788C4.12244 20.6341 4.78068 20.5292 5.40427 20.4593C6.02787 20.3894 6.65146 20.3544 7.27506 20.3544C8.00259 20.3195 8.73011 20.2845 9.45764 20.3195C10.2545 20.3195 11.0859 20.3894 11.8827 20.5292C12.541 20.6341 13.2339 20.8089 13.8575 21.0886C14.3425 21.3333 14.8621 21.6479 15.0007 22.2072C15.1393 22.8015 14.6196 23.3609 14.1693 23.6755C13.3031 24.2698 12.1252 24.3747 11.0859 24.4795C9.70015 24.6194 8.31438 24.7242 6.89397 24.6194C5.82 24.5495 4.74603 24.3397 3.70671 24.095C3.08311 23.9202 1.83592 23.6405 1.80128 22.8015C1.69734 22.6267 1.45483 22.6267 1.45483 22.8015Z" fill="white"/>
</g>
<path opacity="0.1" d="M10.7395 20.4943C10.1852 20.0399 9.11123 20.1447 8.41835 20.1447C6.51292 20.1447 4.46891 20.2846 2.66741 20.9138C2.11311 21.1236 1.38558 21.4732 1.10843 22.0325C0.935205 22.2423 0.796628 22.5219 0.831272 22.8365C0.865916 23.5008 1.62809 23.7455 2.14775 23.9203C2.80599 24.165 3.53352 24.3048 4.19176 24.13C5.30037 23.8503 4.33034 23.3609 4.43427 22.6268C4.57285 21.7528 6.3397 21.6829 6.96329 21.613C7.93333 21.5081 8.93801 21.4032 9.90805 21.3683C10.3931 21.4032 11.4324 21.0537 10.7395 20.4943Z" fill="white"/>
</g>
<defs>
<clipPath id="clip0_114_3098">
<rect width="37" height="38" fill="white" transform="translate(0 0.708008)"/>
</clipPath>
</defs>
</svg>
