<svg width="42" height="43" viewBox="0 0 42 43" fill="none" xmlns="http://www.w3.org/2000/svg">
<g clip-path="url(#clip0_114_3480)">
<path d="M33.8825 23.9852H14.1856C9.70227 23.9852 6.06787 20.3508 6.06787 15.8675C6.06787 9.94505 10.869 5.14404 16.7913 5.14404H31.2768C37.1991 5.14396 42.0002 9.94497 42.0002 15.8674C42.0002 20.3507 38.3658 23.9852 33.8825 23.9852Z" fill="url(#paint0_linear_114_3480)"/>
<path d="M33.3382 18.7012C33.9371 18.7012 34.4226 18.2157 34.4226 17.6168C34.4226 17.0179 33.9371 16.5325 33.3382 16.5325C32.7394 16.5325 32.2539 17.0179 32.2539 17.6168C32.2539 18.2157 32.7394 18.7012 33.3382 18.7012Z" fill="url(#paint1_linear_114_3480)"/>
<path d="M21.0267 14.6262C20.4279 14.6262 19.9424 15.1117 19.9424 15.7106C19.9424 16.3094 20.4279 16.7949 21.0267 16.7949C21.6256 16.7949 22.1111 16.3094 22.1111 15.7106C22.1111 15.1116 21.6256 14.6262 21.0267 14.6262Z" fill="url(#paint2_linear_114_3480)"/>
<path d="M15.1403 12.4575C14.5414 12.4575 14.0559 12.943 14.0559 13.5419C14.0559 14.1407 14.5414 14.6262 15.1403 14.6262C15.7391 14.6262 16.2246 14.1407 16.2246 13.5419C16.2246 12.943 15.7391 12.4575 15.1403 12.4575Z" fill="url(#paint3_linear_114_3480)"/>
<path d="M13.6511 21.2858C14.791 21.2858 15.715 20.3618 15.715 19.2219C15.715 18.082 14.791 17.158 13.6511 17.158C12.5112 17.158 11.5872 18.082 11.5872 19.2219C11.5872 20.3618 12.5112 21.2858 13.6511 21.2858Z" fill="url(#paint4_linear_114_3480)"/>
<path d="M40.6802 10.7092C38.8577 7.39203 35.3297 5.1438 31.2771 5.1438H16.7912C13.8307 5.1438 11.1492 6.34368 9.20901 8.28474C8.49336 9.00039 7.87901 9.81568 7.38818 10.7092C7.90371 12.5893 10.0276 14.0107 12.2165 12.8809C14.6287 11.6365 17.2442 10.6952 19.6407 10.6952H28.4277C30.8242 10.6952 33.4397 11.6365 35.8518 12.8809C36.1153 13.0167 36.3778 13.1157 36.6367 13.1814C37.8377 13.4862 38.6954 14.5488 38.7043 15.7878C38.7045 15.8142 38.7046 15.8406 38.7046 15.867C38.7046 17.0983 38.4301 18.2653 37.9395 19.3108C37.5431 18.9956 37.0342 18.8156 36.4824 18.8426C35.3897 18.8961 34.4933 19.7806 34.4266 20.8726C34.4134 21.0886 34.4318 21.2984 34.4778 21.4976C34.6678 22.3211 34.249 23.1634 33.4586 23.4626C32.5659 23.8004 31.5981 23.9854 30.5871 23.9854H33.8829C36.1245 23.9854 38.1537 23.0762 39.6229 21.6071C41.092 20.1379 42.0004 18.1087 42.0004 15.8671C42.0003 13.9976 41.5218 12.2393 40.6802 10.7092Z" fill="url(#paint5_linear_114_3480)"/>
<path d="M19.6397 8.63588H28.4271C30.8236 8.63588 33.4392 9.57668 35.8509 10.8213C39.2511 12.576 42.4956 8.17388 39.7966 5.46175C36.8748 2.52545 32.8296 0.708008 28.36 0.708008H19.7069C15.2373 0.708008 11.1921 2.52545 8.27012 5.46167C5.57117 8.1738 8.81571 12.5759 12.2159 10.8212C14.6276 9.57668 17.2432 8.63588 19.6397 8.63588Z" fill="url(#paint6_linear_114_3480)"/>
<path d="M39.7976 5.46174C37.3167 2.96876 34.026 1.28217 30.3533 0.829884C30.3533 0.829884 30.3518 0.829884 30.3497 0.829967C29.6978 0.74959 29.0344 0.708496 28.3612 0.708496H24.4116C22.8757 1.14085 21.6552 1.73791 20.7526 2.28967C18.8041 3.48132 17.867 4.71909 17.8283 4.77097C17.624 5.04438 17.68 5.43144 17.9534 5.63567C18.0646 5.71803 18.1939 5.75838 18.3224 5.75838C18.511 5.75838 18.6963 5.67273 18.8181 5.5105C18.8492 5.46858 21.8585 1.54767 28.4655 1.33553C29.1757 1.31272 29.8854 1.42447 30.5534 1.66618L30.5636 1.66988C25.7616 2.22445 23.4143 4.9892 23.2983 5.12929C23.0813 5.3915 23.118 5.77905 23.3795 5.99687C23.4947 6.09281 23.6347 6.13959 23.774 6.13959C23.9507 6.13959 24.1264 6.06416 24.2488 5.91823C24.2564 5.90917 25.0259 5.00287 26.557 4.17926C28.0099 3.39781 29.6244 2.94907 31.3765 2.83683C32.4651 2.76707 33.549 3.07334 34.4365 3.70771L34.4498 3.71726C29.4147 3.90412 26.8092 6.64779 26.6829 6.78425C26.4518 7.03403 26.4669 7.42298 26.716 7.65497C26.8347 7.76557 26.9857 7.82025 27.1364 7.82025C27.3016 7.82025 27.4665 7.75453 27.5882 7.62466C27.5963 7.6161 28.4148 6.7537 29.9892 6.01623C31.6024 5.26064 33.3821 4.90356 35.2982 4.94663C35.748 4.95676 36.1792 5.1381 36.4968 5.45689C36.4984 5.45853 36.5001 5.46018 36.5017 5.46183C38.2772 7.246 37.4804 9.76131 35.7595 10.7743C35.7902 10.79 35.8211 10.8055 35.8517 10.8214C39.252 12.576 42.4965 8.17387 39.7976 5.46174Z" fill="url(#paint7_linear_114_3480)"/>
<path d="M19.7072 0.708334C19.6968 0.708334 19.6865 0.708334 19.6761 0.708334C17.9959 0.711464 16.3781 1.36304 15.1511 2.51088C13.9068 3.67485 13.3693 4.69726 13.3232 4.78719C13.1692 5.09025 13.2894 5.46084 13.5916 5.61649C13.6814 5.66261 13.7778 5.68484 13.8733 5.68484C14.0965 5.68484 14.313 5.56214 14.4226 5.35049C14.4283 5.33978 14.9826 4.28813 16.2978 3.15084C17.6187 2.00861 19.1966 1.19084 21.0059 0.708252H19.7072V0.708334Z" fill="url(#paint8_linear_114_3480)"/>
<path d="M27.8146 42.7077H8.11769C3.6344 42.7077 0 39.0733 0 34.59C0 28.6676 4.80109 23.8665 10.7234 23.8665H25.2089C31.1313 23.8665 35.9323 28.6676 35.9323 34.5899C35.9323 39.0733 32.2979 42.7077 27.8146 42.7077Z" fill="url(#paint9_linear_114_3480)"/>
<path d="M27.2701 37.4236C27.869 37.4236 28.3545 36.9381 28.3545 36.3392C28.3545 35.7404 27.869 35.2549 27.2701 35.2549C26.6713 35.2549 26.1858 35.7404 26.1858 36.3392C26.1858 36.9381 26.6713 37.4236 27.2701 37.4236Z" fill="url(#paint10_linear_114_3480)"/>
<path d="M14.9586 33.3489C14.3597 33.3489 13.8743 33.8343 13.8743 34.4332C13.8743 35.0321 14.3597 35.5176 14.9586 35.5176C15.5575 35.5176 16.0429 35.0321 16.0429 34.4332C16.0429 33.8343 15.5575 33.3489 14.9586 33.3489Z" fill="url(#paint11_linear_114_3480)"/>
<path d="M9.07238 31.1802C8.47351 31.1802 7.98804 31.6656 7.98804 32.2645C7.98804 32.8634 8.47351 33.3489 9.07238 33.3489C9.67125 33.3489 10.1567 32.8634 10.1567 32.2645C10.1566 31.6656 9.67117 31.1802 9.07238 31.1802Z" fill="url(#paint12_linear_114_3480)"/>
<path d="M7.58321 40.0085C8.72309 40.0085 9.64714 39.0844 9.64714 37.9446C9.64714 36.8047 8.72309 35.8806 7.58321 35.8806C6.44334 35.8806 5.51929 36.8047 5.51929 37.9446C5.51929 39.0844 6.44334 40.0085 7.58321 40.0085Z" fill="url(#paint13_linear_114_3480)"/>
<path d="M34.6123 29.4319C32.7898 26.1147 29.2618 23.8665 25.2093 23.8665H10.7234C7.76278 23.8665 5.08137 25.0663 3.14114 27.0074C2.42549 27.723 1.81114 28.5383 1.32031 29.4319C1.83584 31.312 3.95972 32.7334 6.14867 31.6035C8.56078 30.3592 11.1763 29.4179 13.5728 29.4179H22.3598C24.7563 29.4179 27.3718 30.3592 29.784 31.6035C30.0474 31.7394 30.3099 31.8384 30.5689 31.9041C31.7698 32.2089 32.6275 33.2715 32.6364 34.5105C32.6366 34.5369 32.6367 34.5633 32.6367 34.5896C32.6367 35.821 32.3622 36.9879 31.8716 38.0335C31.4752 37.7182 30.9663 37.5383 30.4145 37.5653C29.3218 37.6188 28.4254 38.5033 28.3587 39.5953C28.3455 39.8113 28.3639 40.0211 28.4099 40.2203C28.5999 41.0438 28.1811 41.886 27.3907 42.1852C26.498 42.5231 25.5302 42.7081 24.5192 42.7081H27.815C30.0566 42.7081 32.0858 41.7989 33.555 40.3297C35.0242 38.8606 35.9325 36.8314 35.9325 34.5897C35.9324 32.7202 35.454 30.962 34.6123 29.4319Z" fill="url(#paint14_linear_114_3480)"/>
<path d="M13.5726 27.3584H22.36C24.7565 27.3584 27.3722 28.2992 29.7838 29.5438C33.184 31.2985 36.4285 26.8964 33.7296 24.1843C30.8076 21.2481 26.7625 19.4307 22.2928 19.4307H13.6398C9.17013 19.4307 5.12495 21.2481 2.20299 24.1843C-0.495967 26.8964 2.74857 31.2985 6.14876 29.5438C8.56047 28.2993 11.1761 27.3584 13.5726 27.3584Z" fill="url(#paint15_linear_114_3480)"/>
<path d="M33.7299 24.1842C31.249 21.6911 27.9584 20.0046 24.2857 19.5523C24.2857 19.5523 24.2842 19.5523 24.2821 19.5524C23.6302 19.472 22.9668 19.4309 22.2936 19.4309H18.3439C16.808 19.8633 15.5876 20.4603 14.685 21.0121C12.7365 22.2037 11.7993 23.4415 11.7606 23.4934C11.5564 23.7668 11.6124 24.1539 11.8858 24.3581C11.997 24.4404 12.1263 24.4808 12.2547 24.4808C12.4433 24.4808 12.6286 24.3952 12.7505 24.2329C12.7816 24.191 15.7909 20.2701 22.3979 20.0579C23.108 20.0351 23.8178 20.1469 24.4858 20.3886L24.496 20.3923C19.694 20.9469 17.3466 23.7116 17.2307 23.8517C17.0137 24.1139 17.0504 24.5015 17.3119 24.7193C17.4271 24.8152 17.5671 24.862 17.7063 24.862C17.8831 24.862 18.0588 24.7866 18.1812 24.6407C18.1888 24.6316 18.9583 23.7253 20.4894 22.9017C21.9423 22.1202 23.5568 21.6715 25.3088 21.5592C26.3975 21.4895 27.4814 21.7958 28.3688 22.4301L28.3822 22.4397C23.3471 22.6265 20.7416 25.3702 20.6153 25.5067C20.3841 25.7565 20.3993 26.1454 20.6483 26.3774C20.7671 26.488 20.918 26.5427 21.0687 26.5427C21.2339 26.5427 21.3989 26.477 21.5205 26.3471C21.5287 26.3385 22.3472 25.4761 23.9216 24.7387C25.5347 23.9831 27.3145 23.626 29.2306 23.669C29.6804 23.6792 30.1116 23.8605 30.4291 24.1793L30.4341 24.1842C32.2096 25.9684 31.4128 28.4837 29.6918 29.4967C29.7226 29.5124 29.7534 29.528 29.7841 29.5438C33.1843 31.2984 36.4288 26.8963 33.7299 24.1842Z" fill="url(#paint16_linear_114_3480)"/>
<path d="M13.6395 19.431C13.6292 19.431 13.6189 19.431 13.6085 19.431C11.9282 19.4341 10.3105 20.0857 9.08344 21.2335C7.83917 22.3975 7.30166 23.4199 7.25554 23.5098C7.10154 23.8129 7.22177 24.1835 7.52401 24.3391C7.61377 24.3852 7.71013 24.4075 7.80566 24.4075C8.02883 24.4075 8.24542 24.2848 8.35495 24.0731C8.36071 24.0624 8.91495 23.0108 10.2301 21.8735C11.5511 20.7313 13.1289 19.9135 14.9382 19.4309H13.6395V19.431Z" fill="url(#paint17_linear_114_3480)"/>
</g>
<defs>
<linearGradient id="paint0_linear_114_3480" x1="7.03428" y1="14.5646" x2="41.1286" y2="14.5646" gradientUnits="userSpaceOnUse">
<stop stop-color="#F8F6F7"/>
<stop offset="0.1788" stop-color="#F8F6F7"/>
<stop offset="1" stop-color="#E7E6F5"/>
</linearGradient>
<linearGradient id="paint1_linear_114_3480" x1="2.10117" y1="17.6168" x2="41.7269" y2="17.6168" gradientUnits="userSpaceOnUse">
<stop stop-color="#F8F6F7"/>
<stop offset="1" stop-color="#D1CEEB"/>
</linearGradient>
<linearGradient id="paint2_linear_114_3480" x1="2.10138" y1="15.7105" x2="41.7271" y2="15.7105" gradientUnits="userSpaceOnUse">
<stop stop-color="#F8F6F7"/>
<stop offset="1" stop-color="#D1CEEB"/>
</linearGradient>
<linearGradient id="paint3_linear_114_3480" x1="2.10056" y1="13.5419" x2="41.7264" y2="13.5419" gradientUnits="userSpaceOnUse">
<stop stop-color="#F8F6F7"/>
<stop offset="1" stop-color="#D1CEEB"/>
</linearGradient>
<linearGradient id="paint4_linear_114_3480" x1="2.10074" y1="19.2219" x2="41.7266" y2="19.2219" gradientUnits="userSpaceOnUse">
<stop stop-color="#F8F6F7"/>
<stop offset="1" stop-color="#D1CEEB"/>
</linearGradient>
<linearGradient id="paint5_linear_114_3480" x1="2.10088" y1="14.5646" x2="41.7267" y2="14.5646" gradientUnits="userSpaceOnUse">
<stop stop-color="#F8F6F7"/>
<stop offset="1" stop-color="#D1CEEB"/>
</linearGradient>
<linearGradient id="paint6_linear_114_3480" x1="7.94697" y1="5.96542" x2="48.2598" y2="5.96542" gradientUnits="userSpaceOnUse">
<stop stop-color="#FE646F"/>
<stop offset="0.593" stop-color="#FB2B3A"/>
<stop offset="1" stop-color="#C41926"/>
</linearGradient>
<linearGradient id="paint7_linear_114_3480" x1="-1.15245" y1="5.96566" x2="38.1685" y2="5.96566" gradientUnits="userSpaceOnUse">
<stop stop-color="#FE646F"/>
<stop offset="0.593" stop-color="#FB2B3A"/>
<stop offset="1" stop-color="#C41926"/>
</linearGradient>
<linearGradient id="paint8_linear_114_3480" x1="-1.15275" y1="3.19663" x2="38.1681" y2="3.19663" gradientUnits="userSpaceOnUse">
<stop stop-color="#FE646F"/>
<stop offset="0.593" stop-color="#FB2B3A"/>
<stop offset="1" stop-color="#C41926"/>
</linearGradient>
<linearGradient id="paint9_linear_114_3480" x1="0.966412" y1="33.2871" x2="35.0609" y2="33.2871" gradientUnits="userSpaceOnUse">
<stop stop-color="#F8F6F7"/>
<stop offset="0.1788" stop-color="#F8F6F7"/>
<stop offset="1" stop-color="#E7E6F5"/>
</linearGradient>
<linearGradient id="paint10_linear_114_3480" x1="-3.96699" y1="36.3392" x2="35.6588" y2="36.3392" gradientUnits="userSpaceOnUse">
<stop stop-color="#F8F6F7"/>
<stop offset="1" stop-color="#D1CEEB"/>
</linearGradient>
<linearGradient id="paint11_linear_114_3480" x1="-3.96675" y1="34.4332" x2="35.659" y2="34.4332" gradientUnits="userSpaceOnUse">
<stop stop-color="#F8F6F7"/>
<stop offset="1" stop-color="#D1CEEB"/>
</linearGradient>
<linearGradient id="paint12_linear_114_3480" x1="-3.96739" y1="32.2645" x2="35.6584" y2="32.2645" gradientUnits="userSpaceOnUse">
<stop stop-color="#F8F6F7"/>
<stop offset="1" stop-color="#D1CEEB"/>
</linearGradient>
<linearGradient id="paint13_linear_114_3480" x1="-3.9671" y1="37.9446" x2="35.6586" y2="37.9446" gradientUnits="userSpaceOnUse">
<stop stop-color="#F8F6F7"/>
<stop offset="1" stop-color="#D1CEEB"/>
</linearGradient>
<linearGradient id="paint14_linear_114_3480" x1="-3.96708" y1="33.2872" x2="35.6587" y2="33.2872" gradientUnits="userSpaceOnUse">
<stop stop-color="#F8F6F7"/>
<stop offset="1" stop-color="#D1CEEB"/>
</linearGradient>
<linearGradient id="paint15_linear_114_3480" x1="1.87983" y1="24.6881" x2="42.1927" y2="24.6881" gradientUnits="userSpaceOnUse">
<stop stop-color="#FBC56D"/>
<stop offset="0.5841" stop-color="#FE9738"/>
<stop offset="0.9984" stop-color="#FB2B3A"/>
</linearGradient>
<linearGradient id="paint16_linear_114_3480" x1="0.31563" y1="24.6881" x2="36.1093" y2="24.6881" gradientUnits="userSpaceOnUse">
<stop stop-color="#FBC56D"/>
<stop offset="0.5841" stop-color="#FE9738"/>
<stop offset="0.9984" stop-color="#FB2B3A"/>
</linearGradient>
<linearGradient id="paint17_linear_114_3480" x1="0.315329" y1="21.9193" x2="36.109" y2="21.9193" gradientUnits="userSpaceOnUse">
<stop stop-color="#FBC56D"/>
<stop offset="0.5841" stop-color="#FE9738"/>
<stop offset="0.9984" stop-color="#FB2B3A"/>
</linearGradient>
<clipPath id="clip0_114_3480">
<rect width="42" height="42" fill="white" transform="translate(0 0.708008)"/>
</clipPath>
</defs>
</svg>
