<?xml version="1.0" encoding="UTF-8"?>
<svg version="1.1" xmlns="http://www.w3.org/2000/svg" width="547" height="685">
<path d="M0 0 C180.51 0 361.02 0 547 0 C547 226.05 547 452.1 547 685 C366.49 685 185.98 685 0 685 C0 458.95 0 232.9 0 0 Z " fill="#DBDBDB" transform="translate(0,0)"/>
<path d="M0 0 C4.02494006 1.17089165 7.60312956 2.88593967 11.3828125 4.68359375 C14.51221682 6.03219894 17.59316344 6.9660021 20.875 7.875 C27.63244996 9.85199975 33.74253284 12.83395195 39.4375 17 C39.4375 17.66 39.4375 18.32 39.4375 19 C39.99308594 19.23332031 40.54867188 19.46664063 41.12109375 19.70703125 C54.81479923 27.35056669 64.4858074 45.09761418 72.4375 58 C73.68398073 59.98138499 74.93396479 61.96057052 76.1875 63.9375 C76.73921875 64.81277344 77.2909375 65.68804687 77.859375 66.58984375 C79.39625487 69.00787888 79.39625487 69.00787888 81.140625 71.19140625 C82.4375 73 82.4375 73 82.4375 75 C83.0975 75 83.7575 75 84.4375 75 C85.85665651 76.7191896 87.19688566 78.5037681 88.5 80.3125 C91.4772437 84.39111357 94.5136838 88.36996397 97.75 92.25 C103.57836398 99.29896377 108.98626898 106.65878456 114.4375 114 C118.68725328 119.71646798 122.93533184 125.41614023 127.4375 130.9375 C130.59650385 134.85441001 133.55552537 138.87761712 136.4375 143 C136.83582031 143.56452881 137.23414063 144.12905762 137.64453125 144.71069336 C140.4375 148.75766067 140.4375 148.75766067 140.4375 151 C141.0975 151 141.7575 151 142.4375 151 C143.70703125 152.51953125 143.70703125 152.51953125 145.25 154.8125 C146.17232422 156.16988281 146.17232422 156.16988281 147.11328125 157.5546875 C147.47115723 158.08674805 147.8290332 158.61880859 148.19775391 159.16699219 C149.63334763 161.28956754 151.08742175 163.39887103 152.54296875 165.5078125 C166.49850147 185.75307703 166.49850147 185.75307703 171.625 194.8125 C173.37072083 198.05092635 173.37072083 198.05092635 175.6875 200.9375 C178.52189627 205.89769348 177.9737087 209.67442068 176.7421875 215.015625 C171.48964372 233.64229286 159.66808416 247.93331793 146.1171875 261.296875 C141.02203265 266.46312504 136.54505406 272.10329662 132.1171875 277.83984375 C128.08986111 283.0191728 123.96629149 287.54513002 118.9609375 291.79296875 C116.27248712 294.14432241 113.67711397 296.57678963 111.08056641 299.02856445 C104.4094819 305.32736746 97.63098462 311.2997084 90.4375 317 C89.50421875 317.76699219 88.5709375 318.53398438 87.609375 319.32421875 C86.25585938 320.43216797 86.25585938 320.43216797 84.875 321.5625 C84.06933594 322.22378906 83.26367188 322.88507813 82.43359375 323.56640625 C80.4375 325 80.4375 325 78.4375 325 C78.4375 325.66 78.4375 326.32 78.4375 327 C76.59653632 328.56267847 74.75226349 330.00606548 72.8125 331.4375 C71.60480184 332.34546778 70.39779243 333.25435227 69.19140625 334.1640625 C68.56637207 334.63360352 67.94133789 335.10314453 67.29736328 335.58691406 C64.97951668 337.34796633 62.7039475 339.15827384 60.42895508 340.97412109 C54.44144728 345.74706246 48.33087921 350.32722795 42.125 354.8125 C41.39643799 355.33948486 40.66787598 355.86646973 39.91723633 356.40942383 C35.50242047 359.5791506 31.02484654 362.60666487 26.43652344 365.52050781 C24.27106443 367.12318021 22.69891471 368.85403544 21 370.9375 C17.13223973 375.60733037 12.63037959 378.90651751 7.4375 382 C6.8434971 382.41037097 6.24949421 382.82074194 5.63749123 383.24354839 C-2.9610923 388.47141953 -11.97529202 387.66723687 -21.68994141 387.56762695 C-23.62242598 387.5662149 -25.55491322 387.56701152 -27.48739624 387.56983948 C-32.71001565 387.57126891 -37.93205613 387.54195569 -43.15454149 387.50696969 C-48.6210944 387.47562725 -54.08766187 387.47276923 -59.55429077 387.46684265 C-69.89554763 387.45132738 -80.23653891 387.4103302 -90.57767904 387.3600952 C-102.35515836 387.30412965 -114.13265064 387.27669709 -125.91022992 387.25161803 C-150.12780028 387.19941237 -174.34513523 387.1115151 -198.5625 387 C-199.21144237 384.93847611 -199.8565264 382.87573742 -200.5 380.8125 C-200.85964844 379.66394531 -201.21929687 378.51539063 -201.58984375 377.33203125 C-203.27982368 371.54266224 -204.631191 365.68034416 -202.90234375 359.7265625 C-202.43967699 356.01459243 -203.62590004 353.25110824 -205 349.875 C-205.27295898 349.17689209 -205.54591797 348.47878418 -205.82714844 347.75952148 C-208.2231984 341.69091453 -210.77050839 335.68311858 -213.3269043 329.68066406 C-216.52389463 322.15920998 -219.55573458 314.57588623 -222.55615234 306.97412109 C-224.85989027 301.16335747 -227.23607344 295.39330149 -229.7265625 289.66015625 C-235.66996106 275.92239638 -240.45323013 262.87209466 -242.5625 248 C-242.91757561 245.71177247 -243.27586007 243.42404141 -243.63671875 241.13671875 C-244.50532542 235.60349821 -245.33901836 230.06607745 -246.14526367 224.5234375 C-246.51494077 222.05633885 -246.51494077 222.05633885 -247.10400391 219.90112305 C-247.90256392 216.58994794 -247.74703605 213.20029818 -247.75 209.8125 C-247.76224609 209.09513672 -247.77449219 208.37777344 -247.78710938 207.63867188 C-247.79950914 203.0218267 -247.2324728 198.86364662 -246.13989258 194.38256836 C-245.52022432 191.8255525 -244.99600404 189.26042833 -244.484375 186.6796875 C-241.84272823 173.54722008 -238.76806776 160.6007749 -235.27685547 147.66943359 C-234.60667535 145.1650763 -233.95669583 142.65667466 -233.31640625 140.14453125 C-229.71803553 126.07015194 -225.66876857 112.09233543 -220.9921875 98.3359375 C-216.57455136 85.21915475 -213.91568996 71.85422955 -211.21777344 58.29248047 C-208.9156848 46.72542853 -206.5810334 36.33582802 -200.5625 26 C-200.10359375 25.15050781 -199.6446875 24.30101562 -199.171875 23.42578125 C-193.61701882 15.05304899 -183.24375444 9.4874266 -173.59375 7.3046875 C-170.2221166 6.79894249 -166.96623256 6.87843812 -163.5625 7 C-164.2054619 9.94687427 -165.15972942 12.45576986 -166.48828125 15.16015625 C-166.87089111 15.94769287 -167.25350098 16.73522949 -167.64770508 17.54663086 C-168.0527124 18.37686768 -168.45771973 19.20710449 -168.875 20.0625 C-173.31874747 29.37092651 -177.07475371 37.9671142 -178.84619141 48.17480469 C-181.86350783 65.2423893 -190.48410424 76.53947444 -200.97265625 89.95556641 C-213.57601439 106.16264888 -222.50364449 120.72689714 -220.5625 142 C-218.74585568 152.02048542 -214.32699464 162.85610219 -206.55981445 169.61157227 C-202.93916301 173.21710417 -202.3963216 176.50611883 -201.8828125 181.4609375 C-201.78032196 182.25150543 -201.67783142 183.04207336 -201.57223511 183.8565979 C-201.25319856 186.36042939 -200.96988355 188.86679797 -200.6875 191.375 C-200.47631138 193.08232396 -200.26279283 194.78936143 -200.046875 196.49609375 C-199.5250772 200.66123305 -199.03524905 204.82902078 -198.5625 209 C-192.29135252 208.2344624 -192.29135252 208.2344624 -186.046875 207.28125 C-184.88091797 207.08982422 -184.88091797 207.08982422 -183.69140625 206.89453125 C-182.12067347 206.63403205 -180.55034858 206.37105981 -178.98046875 206.10546875 C-166.13271353 204.01003586 -153.358647 203.79750471 -140.375 203.8125 C-139.49055206 203.81277191 -138.60610413 203.81304382 -137.69485474 203.81332397 C-123.23297613 203.83372339 -108.94223189 204.36840023 -94.5625 206 C-93.14541748 206.15275391 -93.14541748 206.15275391 -91.69970703 206.30859375 C-74.30244607 208.21772586 -57.26758483 211.63725174 -40.1875 215.3984375 C-39.15818359 215.6248291 -38.12886719 215.8512207 -37.06835938 216.08447266 C-35.130913 216.51344267 -33.19460845 216.94761921 -31.25976562 217.38818359 C-25.6956792 218.63246006 -20.24073018 219.46910856 -14.5625 220 C-14.315 218.7625 -14.0675 217.525 -13.8125 216.25 C-12.72408721 211.34056357 -11.19027537 206.64218685 -9.5546875 201.890625 C-8.97452458 200.20038656 -8.40963067 198.50449253 -7.8828125 196.796875 C-5.159468 187.98803229 -1.1036978 179.64354338 2.67578125 171.25 C4.78619023 166.55658079 6.67844929 161.83738944 8.4375 157 C9.0975 157 9.7575 157 10.4375 157 C10.4375 155.68 10.4375 154.36 10.4375 153 C9.81875 152.855625 9.2 152.71125 8.5625 152.5625 C6.4375 152 6.4375 152 4.4375 151 C4.4375 150.34 4.4375 149.68 4.4375 149 C3.40496094 148.90138672 3.40496094 148.90138672 2.3515625 148.80078125 C-1.48350378 147.74690915 -4.14348152 145.64140317 -7.1875 143.1875 C-7.79851562 142.69975098 -8.40953125 142.21200195 -9.0390625 141.70947266 C-17.9571651 134.41474342 -25.70536808 125.96316254 -31.5625 116 C-32.119375 115.071875 -32.67625 114.14375 -33.25 113.1875 C-41.23044985 93.8064075 -37.2917838 71.7813698 -32.5625 52 C-32.36011719 51.0203125 -32.15773438 50.040625 -31.94921875 49.03125 C-29.04414945 35.77130178 -16.33709246 0 0 0 Z " fill="#ECECEC" transform="translate(325.5625,298)"/>
<path d="M0 0 C1.52030018 0.66364408 3.02093495 1.3739323 4.5 2.125 C5.27472656 2.49238281 6.04945313 2.85976563 6.84765625 3.23828125 C8.7511894 4.16151162 10.62859946 5.13826153 12.5 6.125 C12.5 6.785 12.5 7.445 12.5 8.125 C11.39524769 9.13041491 10.23826757 10.07863828 9.0625 11 C-11.69713705 28.82541274 -18.63299156 59.00024506 -21.125 85.0625 C-22.64351877 106.40612492 -18.84251146 121.08377841 -4.84106445 137.46044922 C1.62561079 144.73587262 10.09438408 152.98979469 19.5 156.125 C19.5 156.785 19.5 157.445 19.5 158.125 C21.81 158.455 24.12 158.785 26.5 159.125 C26.17 160.775 25.84 162.425 25.5 164.125 C24.84 164.125 24.18 164.125 23.5 164.125 C23.32984375 164.74246094 23.1596875 165.35992187 22.984375 165.99609375 C21.55793298 170.98105336 19.91651929 175.66456293 17.7421875 180.3671875 C16.03864027 184.14927664 14.45667189 187.97813151 12.875 191.8125 C12.57368164 192.53767822 12.27236328 193.26285645 11.96191406 194.01000977 C10.31489262 198.00867302 8.8240193 202.00526301 7.5 206.125 C6.92598812 207.85206475 6.3502922 209.57857019 5.7734375 211.3046875 C5.4640625 212.2328125 5.1546875 213.1609375 4.8359375 214.1171875 C2.66796875 220.62109375 2.66796875 220.62109375 0.5 227.125 C-6.89641637 227.45560905 -13.22097262 226.23592563 -20.375 224.4375 C-43.60449055 218.87439163 -66.69260227 215.12551995 -90.5 213.125 C-92.11853882 212.98034302 -92.11853882 212.98034302 -93.76977539 212.83276367 C-103.08650881 212.06967625 -112.37019932 211.93881769 -121.7121582 211.93969727 C-124.29850775 211.93751182 -126.88442849 211.91927929 -129.47070312 211.90039062 C-144.41805124 211.84941495 -158.81251537 213.41817587 -173.4921875 216.24414062 C-177.51755948 216.96914042 -180.53938033 217.05441971 -184.5 216.125 C-184.61480713 215.07111084 -184.72961426 214.01722168 -184.84790039 212.93139648 C-185.28512433 208.99319973 -185.76251641 205.06071271 -186.25170898 201.12866211 C-186.45723014 199.43169992 -186.65207754 197.73340748 -186.83569336 196.03393555 C-187.56022431 185.01833899 -187.56022431 185.01833899 -192.94921875 175.8984375 C-193.56273193 175.42365967 -194.17624512 174.94888184 -194.80834961 174.4597168 C-199.25284418 170.95299839 -201.26707797 164.23706439 -203.5 159.125 C-204.04720703 157.90683594 -204.04720703 157.90683594 -204.60546875 156.6640625 C-208.287052 146.81193831 -208.29224381 133.3699959 -204.4375 123.625 C-203.51004726 121.76497046 -202.53176067 119.9292584 -201.5 118.125 C-201.03851563 117.28710938 -200.57703125 116.44921875 -200.1015625 115.5859375 C-195.96087284 108.62873812 -190.85573183 102.38960956 -185.85058594 96.04736328 C-181.97665577 91.11022459 -178.28872423 86.10020572 -174.8125 80.875 C-174.41506592 80.27977539 -174.01763184 79.68455078 -173.6081543 79.07128906 C-168.88324685 71.84847436 -166.80285774 65.57122719 -165.1875 57.1875 C-161.84202615 40.97844358 -155.70898803 25.93848204 -146.5 12.125 C-144.2578125 11.39453125 -144.2578125 11.39453125 -141.625 10.9375 C-140.76132813 10.77894531 -139.89765625 10.62039063 -139.0078125 10.45703125 C-136.5 10.125 -136.5 10.125 -132.5 10.125 C-134.55178408 16.54612739 -137.04190295 22.79667881 -139.49023438 29.07421875 C-141.78287414 35.02385641 -143.73077833 41.0014223 -145.5 47.125 C-145.88542969 48.34703125 -146.27085937 49.5690625 -146.66796875 50.828125 C-148.96141219 58.80684777 -149.914493 66.31344178 -150 74.625 C-150.02743286 76.00413574 -150.02743286 76.00413574 -150.05541992 77.41113281 C-150.00361759 83.16066801 -149.38196857 88.62317718 -145.5 93.125 C-141.26475553 95.74016651 -138.04108988 96.50806362 -133.09765625 96.5234375 C-131.88464844 96.52964111 -130.67164063 96.53584473 -129.421875 96.54223633 C-128.14828125 96.52829834 -126.8746875 96.51436035 -125.5625 96.5 C-123.60376953 96.4858606 -123.60376953 96.4858606 -121.60546875 96.47143555 C-96.66384629 96.08094483 -74.79158599 87.59146106 -57.078125 69.91015625 C-46.11370142 58.5175259 -38.33064871 45.16716399 -30.54931641 31.50366211 C-26.91345677 25.13239435 -23.15592454 18.95702511 -18.84106445 13.01123047 C-17.45655464 11.16627095 -17.45655464 11.16627095 -16.5 9.125 C-15.84 9.125 -15.18 9.125 -14.5 9.125 C-14.24347656 8.53589844 -13.98695313 7.94679688 -13.72265625 7.33984375 C-10.81222291 2.0675891 -6.11771308 -1.98269038 0 0 Z " fill="#B7B7B7" transform="translate(310.5,290.875)"/>
<path d="M0 0 C4.36726647 3.48963398 6.42903762 6.30849241 7.3203125 11.8046875 C8.2690625 11.1446875 9.2178125 10.4846875 10.1953125 9.8046875 C15.59378976 6.76329186 20.89573391 6.89182665 26.796875 8.46484375 C43.69849746 14.66210532 57.810694 27.41063584 65.48046875 43.671875 C74.25777956 65.96216198 73.23772302 96.67231923 64.3203125 118.8046875 C61.97186276 123.97759897 59.33113007 128.95287124 56.4921875 133.87109375 C53.88694635 138.42618658 52.39592373 142.96642666 51.4453125 148.1171875 C50.36793879 153.04349936 48.64346067 157.33595662 46.3203125 161.8046875 C45.89492188 162.62453125 45.46953125 163.444375 45.03125 164.2890625 C38.49224378 175.62333995 28.12284982 184.83588993 18.1875 193.21484375 C15.9460487 195.12335981 13.79742255 197.12201179 11.6328125 199.1171875 C5.80155532 204.38239044 -0.40566979 209.08713966 -6.6796875 213.8046875 C-7.88238281 214.72507813 -7.88238281 214.72507813 -9.109375 215.6640625 C-11.7333476 217.66422274 -14.29411599 219.57408253 -17.12890625 221.26953125 C-19.52721413 222.71292328 -21.73853019 224.2724688 -23.9921875 225.9296875 C-28.5757757 229.16108251 -33.31388698 232.02594044 -38.1796875 234.8046875 C-38.88649658 235.21477051 -39.59330566 235.62485352 -40.3215332 236.04736328 C-42.07252638 237.0316205 -43.87306561 237.92670303 -45.6796875 238.8046875 C-46.3396875 238.4746875 -46.9996875 238.1446875 -47.6796875 237.8046875 C-46.5599889 236.79875507 -45.4337463 235.8001026 -44.3046875 234.8046875 C-43.67820312 234.2478125 -43.05171875 233.6909375 -42.40625 233.1171875 C-40.6796875 231.8046875 -40.6796875 231.8046875 -38.6796875 231.8046875 C-38.41929687 231.2271875 -38.15890625 230.6496875 -37.890625 230.0546875 C-36.59524564 227.64778907 -35.12492848 225.83954204 -33.3046875 223.8046875 C-32.68464844 223.10988281 -32.06460938 222.41507813 -31.42578125 221.69921875 C-29.56341515 219.6785307 -27.62254199 217.74754199 -25.6796875 215.8046875 C-25.0196875 214.8146875 -24.3596875 213.8246875 -23.6796875 212.8046875 C-23.0196875 212.8046875 -22.3596875 212.8046875 -21.6796875 212.8046875 C-21.34517578 211.82242188 -21.34517578 211.82242188 -21.00390625 210.8203125 C-19.58470342 207.58838157 -17.84885909 204.79469622 -15.94775391 201.83007812 C-0.94645823 178.37954546 5.40282981 153.27037093 5.5703125 125.5546875 C5.57973877 124.3702002 5.58916504 123.18571289 5.59887695 121.96533203 C5.51719243 99.94133626 -1.85918535 80.20443143 -17.06640625 64.29296875 C-22.18010594 59.03711622 -22.18010594 59.03711622 -28.9296875 57.1171875 C-35.01167845 57.47909109 -38.6282123 60.45106839 -42.6796875 64.8046875 C-48.07816687 71.87794265 -52.53298162 79.53199269 -57.04614258 87.18725586 C-76.91324982 120.83497836 -76.91324982 120.83497836 -92.8046875 129.0546875 C-96.0892511 131.06450545 -97.42458666 131.95894777 -98.546875 135.6796875 C-99.04444181 148.32373824 -95.03594194 163.11218392 -88.5 173.89453125 C-87.6796875 175.8046875 -87.6796875 175.8046875 -87.7578125 177.75 C-89.06773003 180.66956196 -91.05144174 182.47873066 -93.3046875 184.7421875 C-102.83813788 194.76453277 -108.19139959 207.11243868 -109.6796875 220.8046875 C-122.09165451 208.39272049 -120.53666261 176.78856695 -121.6796875 160.8046875 C-124.93161857 175.32921933 -123.13045093 191.48165574 -119.6796875 205.8046875 C-119.42832031 206.98675781 -119.17695313 208.16882813 -118.91796875 209.38671875 C-117.87567454 214.2121549 -116.765062 218.84125125 -114.9296875 223.4296875 C-113.6796875 226.8046875 -113.6796875 226.8046875 -114.6796875 229.8046875 C-115.61726027 227.48432584 -116.54827311 225.16159401 -117.47265625 222.8359375 C-118.27877732 220.811504 -119.09392955 218.79064387 -119.91796875 216.7734375 C-122.92167662 209.25951812 -125.18879933 201.71389677 -127.14575195 193.86523438 C-127.54214255 192.33549654 -127.96087509 190.8115117 -128.39135742 189.29101562 C-130.24041526 182.75740665 -131.627685 176.25081908 -132.7421875 169.5546875 C-132.91137695 168.54599609 -133.08056641 167.53730469 -133.25488281 166.49804688 C-133.58705517 164.49733244 -133.91579422 162.49604428 -134.24072266 160.49414062 C-134.60598156 158.25626963 -134.98934704 156.02276825 -135.37890625 153.7890625 C-139.15876804 129.87674534 -138.36420519 100.55614258 -129.6796875 77.8046875 C-129.37160156 76.98871094 -129.06351563 76.17273438 -128.74609375 75.33203125 C-125.0460483 66.38129889 -119.73263953 58.67621606 -113.61328125 51.2265625 C-111.31969526 48.35378813 -109.30940974 45.3630586 -107.3046875 42.28515625 C-95.0119267 23.52096609 -95.0119267 23.52096609 -89.6796875 17.8046875 C-89.0196875 17.8046875 -88.3596875 17.8046875 -87.6796875 17.8046875 C-87.6796875 17.1446875 -87.6796875 16.4846875 -87.6796875 15.8046875 C-85.22956043 13.53709138 -82.41640561 11.70905982 -79.6796875 9.8046875 C-78.87015625 9.23105469 -78.060625 8.65742187 -77.2265625 8.06640625 C-56.66901612 -5.81301503 -22.12019832 -15.74135043 0 0 Z " fill="#A8A8A8" transform="translate(277.6796875,35.1953125)"/>
<path d="M0 0 C3.79192547 2.58013278 6.85557292 5.67738872 10 9 C10.6290625 9.61101562 11.258125 10.22203125 11.90625 10.8515625 C28.83152611 28.31537013 31.42732707 52.80837183 31.2109375 75.82421875 C30.94160837 88.50430086 28.75198484 100.24516376 25.125 112.375 C24.89280762 113.16656494 24.66061523 113.95812988 24.42138672 114.77368164 C21.81763966 122.8414453 16.16727918 126.82212303 9.5625 131.6875 C8.86237793 132.20497803 8.16225586 132.72245605 7.44091797 133.25561523 C5.99829626 134.3197563 4.55428292 135.38201334 3.10888672 136.44238281 C1.12207656 137.90983463 -0.84489661 139.40027424 -2.80859375 140.8984375 C-12.73827816 148.3832929 -21.31477046 152.30009673 -34 151 C-40.33734973 149.96904359 -44.14426602 147.63915557 -48.12109375 142.62890625 C-51.8249185 137.44663171 -55.36086664 132.16580381 -58.81738281 126.81591797 C-59.87710287 125.18870951 -60.96417917 123.5793938 -62.0546875 121.97265625 C-70.37624691 109.52603198 -75.05476121 94.13878268 -74.73828125 79.09765625 C-73.82386685 75.26098631 -72.71673022 74.27122259 -69.5 72.0625 C-67.67289021 71.03056898 -65.83963741 70.00942855 -64 69 C-50.00245463 58.31234352 -41.09960582 43.34142542 -32.26074219 28.43310547 C-13.09050474 -3.80929479 -13.09050474 -3.80929479 0 0 Z " fill="#F4F4F4" transform="translate(253,92)"/>
<path d="M0 0 C1.34788653 0.0069693 2.6957772 0.01317736 4.04367065 0.01864624 C23.80095555 0.10496643 43.28768958 0.70899773 62.875 3.4375 C63.8546875 3.56560059 64.834375 3.69370117 65.84375 3.82568359 C75.25560165 5.06195875 84.56127961 6.67656488 93.85546875 8.61328125 C99.85444699 9.8620988 105.88383025 10.95998761 111.90795898 12.07983398 C113.19875366 12.32262085 113.19875366 12.32262085 114.515625 12.5703125 C115.28422852 12.71355957 116.05283203 12.85680664 116.84472656 13.00439453 C118.875 13.4375 118.875 13.4375 121.875 14.4375 C123.76712737 14.65929785 125.66384472 14.84364015 127.5625 15 C128.55636719 15.08378906 129.55023438 15.16757812 130.57421875 15.25390625 C131.71310547 15.34478516 131.71310547 15.34478516 132.875 15.4375 C132.36094831 20.40666636 131.64115118 24.72776351 129.875 29.4375 C122.47858363 29.76810905 116.15402738 28.54842563 109 26.75 C85.77050945 21.18689163 62.68239773 17.43801995 38.875 15.4375 C37.79597412 15.34106201 36.71694824 15.24462402 35.60522461 15.14526367 C26.28849119 14.38217625 17.00480068 14.25131769 7.6628418 14.25219727 C5.07649225 14.25001182 2.49057151 14.23177929 -0.09570312 14.21289062 C-15.04305124 14.16191495 -29.43751537 15.73067587 -44.1171875 18.55664062 C-48.07548153 19.26955917 -51.23665659 19.57797868 -55.125 18.4375 C-55.97229143 15.15424571 -56.18069585 12.11656532 -56.15625 8.74609375 C-56.15173828 7.93841553 -56.14722656 7.1307373 -56.14257812 6.29858398 C-56.13677734 5.68442627 -56.13097656 5.07026855 -56.125 4.4375 C-37.31257262 0.8868021 -19.11791447 -0.17792902 0 0 Z " fill="#949492" transform="translate(181.125,488.5625)"/>
<path d="M0 0 C-2.86686253 1.91124169 -4.84767693 2.42771415 -8.1418457 3.13964844 C-16.43678045 5.10770313 -21.80361166 8.73626299 -27.8125 14.75 C-28.82509888 15.75087646 -28.82509888 15.75087646 -29.8581543 16.77197266 C-34.33015658 21.50958754 -36.15346133 25.80385423 -38 32 C-48.665949 32.23224053 -59.33129166 32.40965214 -69.999259 32.51812172 C-74.95362414 32.5701976 -79.9062532 32.64076174 -84.85961914 32.75439453 C-89.64491745 32.86347809 -94.42855214 32.92292834 -99.21499825 32.94877243 C-101.03598783 32.96717544 -102.8568916 33.00311619 -104.67716789 33.05730057 C-118.9536262 33.46516207 -118.9536262 33.46516207 -124.07034302 29.80169678 C-126.31638895 27.30882548 -128.15184406 24.79268821 -130 22 C-130.99350655 21.07395314 -132.00998666 20.1708902 -133.0625 19.3125 C-135 17 -135 17 -135.3125 13.1875 C-135.209375 12.135625 -135.10625 11.08375 -135 10 C-130.59694714 9.46629662 -128.26027049 10.81120295 -124.6484375 13.04296875 C-122.80923588 14.11075168 -121.09887488 14.66418002 -119 15 C-119.33 13.35 -119.66 11.7 -120 10 C-118.81374023 9.98018066 -117.62748047 9.96036133 -116.40527344 9.93994141 C-95.31259198 9.57641562 -74.29091381 9.16644844 -53.26171875 7.40234375 C-49.15266539 7.05949982 -45.12164868 6.9128001 -41 7 C-41.33 8.32 -41.66 9.64 -42 11 C-37.94813005 9.21514721 -37.94813005 9.21514721 -34.57495117 6.44946289 C-32.58196539 4.61527337 -31.28060991 4.45740062 -28.61328125 4.12109375 C-27.75669922 4.00443359 -26.90011719 3.88777344 -26.01757812 3.76757812 C-25.12490234 3.65865234 -24.23222656 3.54972656 -23.3125 3.4375 C-15.74656959 2.46035032 -7.54204645 -0.4713779 0 0 Z " fill="#9E9E9E" transform="translate(276,653)"/>
<path d="M0 0 C0.08636719 0.79019531 0.17273438 1.58039063 0.26171875 2.39453125 C1.8968278 15.52040664 4.23716176 29.63675488 11.1796875 41.08984375 C12 43 12 43 11.921875 44.9453125 C10.61195747 47.86487446 8.62824576 49.67404316 6.375 51.9375 C-3.15845038 61.95984527 -8.51171209 74.30775118 -10 88 C-22.18993415 75.81006585 -21.40916895 43.7346638 -21.52124023 27.71362305 C-21.35626739 18.850082 -19.78255601 11.94328805 -14 5 C-11.10295994 2.89041043 -8.4764616 1.790397 -5 1 C-4.27167969 0.81050781 -3.54335937 0.62101563 -2.79296875 0.42578125 C-1 0 -1 0 0 0 Z " fill="#939393" transform="translate(178,168)"/>
<path d="M0 0 C-0.598125 0.474375 -1.19625 0.94875 -1.8125 1.4375 C-3.9916881 3.9902632 -4.65204793 5.52557377 -5.63671875 8.66015625 C-6.02476685 9.87844116 -6.02476685 9.87844116 -6.4206543 11.12133789 C-6.61183838 11.74129639 -6.80302246 12.36125488 -7 13 C-17.68331019 13.20890183 -28.36613149 13.36863093 -39.05107117 13.46630955 C-44.01313621 13.51320139 -48.97380002 13.57675706 -53.93505859 13.67895508 C-58.72680332 13.77703895 -63.5172041 13.83061782 -68.30987549 13.85389519 C-70.1344315 13.87047358 -71.95891719 13.90285035 -73.78289795 13.95157051 C-88.08362421 14.31822236 -88.08362421 14.31822236 -92.94873047 10.97164917 C-98 5.40229894 -98 5.40229894 -98 3 C-97.25007278 2.99413376 -96.50014557 2.98826752 -95.72749329 2.98222351 C-88.51070315 2.92328356 -81.29421963 2.85067796 -74.07771015 2.76428509 C-70.37141059 2.72035501 -66.66520187 2.68095313 -62.95874023 2.65356445 C-46.15566613 2.52601642 -29.61157353 1.98239236 -12.91731262 -0.05574036 C-11.79886459 -0.19098618 -10.68041656 -0.32623199 -9.52807617 -0.46557617 C-8.55247238 -0.59212082 -7.57686859 -0.71866547 -6.57170105 -0.8490448 C-4.10064026 -0.99409256 -2.34007179 -0.75442815 0 0 Z " fill="#B9B9B9" transform="translate(245,672)"/>
<path d="M0 0 C0.33 0 0.66 0 1 0 C1.08564209 0.62044189 1.17128418 1.24088379 1.25952148 1.88012695 C1.6492433 4.69133434 2.0433213 7.50191423 2.4375 10.3125 C2.63956055 11.77719727 2.63956055 11.77719727 2.84570312 13.27148438 C2.97783203 14.20927734 3.10996094 15.14707031 3.24609375 16.11328125 C3.42676392 17.40939331 3.42676392 17.40939331 3.61108398 18.73168945 C3.96777075 21.15558126 3.96777075 21.15558126 5 24 C5.43634584 26.37841264 5.84597106 28.75439314 6.234375 31.140625 C6.47855478 32.60787646 6.72303299 34.07507828 6.96777344 35.54223633 C7.09535034 36.31097076 7.22292725 37.0797052 7.35437012 37.87173462 C9.24592237 49.24249663 11.20730264 60.56550812 13.75 71.8125 C17.13017304 86.88375442 18.54526041 101.58343628 19 117 C19.03504639 118.16668213 19.03504639 118.16668213 19.07080078 119.35693359 C19.38691201 131.41963198 19.38691201 131.41963198 17 135 C16.34 135 15.68 135 15 135 C14.18048836 130.70964207 13.37068427 126.41750488 12.5625 122.125 C12.33240234 120.92101562 12.10230469 119.71703125 11.86523438 118.4765625 C10.03432582 108.71171689 8.97291776 99.32551681 8.81103516 89.39916992 C8.55792333 76.5987987 6.72757949 64.7522346 3.59472656 52.35693359 C3.09744186 50.38616739 2.63435087 48.4068145 2.1796875 46.42578125 C1.05482058 41.58368168 -0.35534552 37.01030587 -2.09179688 32.34912109 C-4.71095108 25.17483895 -5.35213228 20.3476132 -3 13 C-2.44412913 10.6282843 -1.90289687 8.25309854 -1.375 5.875 C-0.91812674 3.91632552 -0.46031396 1.95786872 0 0 Z " fill="#DBDBDB" transform="translate(123,486)"/>
<path d="M0 0 C4.02771628 1.5026138 5.48215259 3.8352731 7.6875 7.4375 C8.28949219 8.40558594 8.89148438 9.37367188 9.51171875 10.37109375 C11 13 11 13 12 16 C0.45 16 -11.1 16 -23 16 C-19.86972395 13.65229297 -17.18723221 11.9980781 -13.75 10.25 C-8.50289584 7.44684905 -4.26158422 4.12726495 0 0 Z " fill="#BBBBBB" transform="translate(346,669)"/>
<path d="M0 0 C-2.44781008 2.03984174 -4.84693751 3.40419445 -7.734375 4.6875 C-12.31267897 6.94133839 -15.28384139 10.08140481 -18.75 13.75 C-22.21412956 17.22594446 -24.71536787 19.69500528 -29.5703125 20.84765625 C-32.49288538 20.81656505 -35.14563745 20.61164912 -38 20 C-34.53589756 15.44680475 -31.17245221 12.17635882 -26.20703125 9.328125 C-23.65254937 7.79091467 -21.32595594 6.03318713 -18.9375 4.25 C-12.73205866 -0.12417195 -7.44953382 -0.1520313 0 0 Z " fill="#BABABA" transform="translate(280,665)"/>
<path d="M0 0 C0.66 0.66 1.32 1.32 2 2 C-7.08924989 9.69543403 -14.6974986 9.83476857 -26 9 C-18.80915752 1.35155845 -10.45317427 -1.57128411 0 0 Z " fill="#BCBCBC" transform="translate(289,676)"/>
<path d="M0 0 C0 4.08163675 -1.80383302 7.01149057 -3.625 10.5625 C-3.99036865 11.27978271 -4.3557373 11.99706543 -4.73217773 12.73608398 C-11.00842192 24.94653148 -16.80620098 34.12713146 -29 41 C-29 40.01 -29 39.02 -29 38 C-28.030625 37.21625 -27.06125 36.4325 -26.0625 35.625 C-17.55573629 28.65560323 -12.01301522 17.60720912 -6.36206055 8.29345703 C-4.46500778 5.1936875 -2.63731702 2.49577943 0 0 Z " fill="#EDEDED" transform="translate(210,121)"/>
<path d="M0 0 C1.5625 1.125 1.5625 1.125 3 3 C2.74956546 7.23991506 1.42813668 10.66305474 -0.3125 14.5 C-3.20378466 21.19029823 -5.13737713 27.96573708 -7 35 C-7.33 35 -7.66 35 -8 35 C-7.58849422 22.61367611 -4.58553634 11.46384084 0 0 Z " fill="#B9B9B9" transform="translate(151,105)"/>
<path d="M0 0 C2.14616141 3.21924212 2.65765409 5.42925954 3.4375 9.1875 C4.29831924 13.14726853 5.21945131 16.87201075 6.75 20.625 C8 24 8 24 7 27 C6.0687653 24.69532418 5.14404043 22.38832122 4.2265625 20.078125 C3.35729465 17.89665028 2.47584235 15.7200128 1.5859375 13.546875 C1.12445313 12.39703125 0.66296875 11.2471875 0.1875 10.0625 C-0.25207031 8.98097656 -0.69164062 7.89945313 -1.14453125 6.78515625 C-2 4 -2 4 -1 1 C-0.67 0.67 -0.34 0.34 0 0 Z " fill="#B4B4B4" transform="translate(156,238)"/>
<path d="M0 0 C-1 3 -1 3 -2.7421875 3.9140625 C-3.79792969 4.26597656 -3.79792969 4.26597656 -4.875 4.625 C-5.57367188 4.86476563 -6.27234375 5.10453125 -6.9921875 5.3515625 C-7.65476563 5.56554687 -8.31734375 5.77953125 -9 6 C-9.99 6.33 -10.98 6.66 -12 7 C-11.1875 5.0625 -11.1875 5.0625 -10 3 C-9.01 2.67 -8.02 2.34 -7 2 C-7 1.34 -7 0.68 -7 0 C-3.86650268 -1.04449911 -3.01031744 -0.93423645 0 0 Z " fill="#989898" transform="translate(251,88)"/>
<path d="M0 0 C0 3 0 3 0 3 Z M-3 3 C-1 4 -1 4 0 6 C-1.28650706 6.69710731 -2.57940665 7.38242876 -3.875 8.0625 C-4.95394531 8.63677734 -4.95394531 8.63677734 -6.0546875 9.22265625 C-6.69664062 9.47917969 -7.33859375 9.73570312 -8 10 C-8.66 9.67 -9.32 9.34 -10 9 C-7.69 7.02 -5.38 5.04 -3 3 Z " fill="#B5B5B5" transform="translate(240,264)"/>
<path d="M0 0 C0 3.23655184 -0.6550847 4.78752639 -2 7.6875 C-2.556875 8.89986328 -2.556875 8.89986328 -3.125 10.13671875 C-3.41375 10.75160156 -3.7025 11.36648437 -4 12 C-4.33 11.34 -4.66 10.68 -5 10 C-5.66 9.67 -6.32 9.34 -7 9 C-4.69 6.03 -2.38 3.06 0 0 Z " fill="#E4E4E4" transform="translate(210,121)"/>
<path d="M0 0 C0.66 0.33 1.32 0.66 2 1 C2 1.66 2 2.32 2 3 C0.25 4.2890625 0.25 4.2890625 -2 5.625 C-2.7425 6.07101563 -3.485 6.51703125 -4.25 6.9765625 C-4.8275 7.31429687 -5.405 7.65203125 -6 8 C-6 5 -6 5 -4.6875 3.61328125 C-3.125 2.40885417 -1.5625 1.20442708 0 0 Z " fill="#E9E9E9" transform="translate(187,154)"/>
<path d="M0 0 C1.39195915 4.17587745 -0.17676781 6.13474776 -2 10 C-3.10348268 6.68955197 -2.99444068 4.34493684 -2 1 C-1.34 0.67 -0.68 0.34 0 0 Z " fill="#ACACAC" transform="translate(149,114)"/>
<path d="M0 0 C4.875 2.75 4.875 2.75 6 5 C4.02 5 2.04 5 0 5 C0 3.35 0 1.7 0 0 Z " fill="#BABABA" transform="translate(140,680)"/>
</svg>
