<svg width="19" height="55" viewBox="0 0 19 55" fill="none" xmlns="http://www.w3.org/2000/svg">
<path d="M12.9857 10.6175C12.9857 10.6175 14.1735 10.6263 14.5646 12.6818C14.9587 14.7373 15.3063 17.473 15.7699 18.5008C16.2334 19.5285 17.062 21.3679 17.4473 23.2307C17.8326 25.0935 17.992 26.2701 18.0818 26.6585C18.1716 27.0468 18.5453 28.676 18.5772 29.1636C18.6062 29.6512 18.4497 30.8045 18.4063 31.0059C18.3599 31.2045 17.9862 32.241 17.9427 32.2848C17.8964 32.3315 17.6878 32.0687 17.7051 31.9081C17.7225 31.7475 17.8587 30.8921 17.8587 30.8921L17.6646 29.6074C17.6646 29.6074 17.5284 30.7052 17.3575 30.784C17.1866 30.8629 17.0243 30.8132 16.9838 30.7899C16.9432 30.7665 17.0127 29.8059 16.8186 29.0351C16.6245 28.2643 17.0272 27.5169 16.8012 26.8307C16.5753 26.1446 14.7385 22.3168 14.3966 21.073C14.0576 19.8263 12.8553 16.5154 12.4932 15.6336C12.131 14.7548 12.2643 10.5737 12.9857 10.6175Z" fill="#DDDADA"/>
<path d="M12.9798 14.8483C12.8726 14.4717 12.6205 14.4863 12.3308 14.6673C12.3627 15.0936 12.4177 15.444 12.4959 15.6337C12.5916 15.8615 12.7422 16.2556 12.9189 16.7345C13.0377 16.3432 13.1942 15.6075 12.9798 14.8483Z" fill="#DDDADA"/>
<path d="M14.5965 19.5666C14.5849 19.5666 14.5733 19.5608 14.5704 19.5491C14.5646 19.5345 14.5733 19.517 14.5878 19.5111L15.344 19.2338C15.3584 19.2279 15.3758 19.2367 15.3816 19.2513C15.3874 19.2659 15.3787 19.2834 15.3642 19.2892L14.6081 19.5666C14.6023 19.5666 14.5994 19.5666 14.5965 19.5666Z" fill="#DDDADA"/>
<path d="M5.81523 10.6732C5.81523 10.6732 4.4188 10.9127 4.019 12.6849C3.55835 14.7258 3.27733 17.4762 2.81378 18.5039C2.35024 19.5317 1.52166 21.3711 1.13634 23.2339C0.751016 25.0967 0.588776 26.2704 0.498965 26.6587C0.409153 27.047 0.0354214 28.6762 0.00355278 29.1638C-0.0254187 29.6514 0.131027 30.8047 0.174484 31.0062C0.220839 31.2047 0.59457 32.2412 0.638028 32.285C0.681485 32.3288 0.892976 32.069 0.875594 31.9084C0.858211 31.7478 0.722045 30.8923 0.722045 30.8923L0.916154 29.6076C0.916154 29.6076 1.05232 30.7054 1.22325 30.7843C1.39418 30.8631 1.55642 30.8135 1.59698 30.7901C1.63754 30.7668 1.56801 29.8062 1.76212 29.0354C1.95623 28.2646 1.55353 27.5171 1.7795 26.831C2.00548 26.1448 3.84227 22.3171 4.18413 21.0733C4.5231 19.8266 5.72542 16.5156 6.08756 15.6339C6.4526 14.755 6.53662 10.6265 5.81523 10.6732Z" fill="#DDDADA"/>
<path d="M5.31393 14.5845C5.47037 14.2254 5.96289 14.4823 6.2526 14.6633C6.22074 15.0896 6.16569 15.44 6.08747 15.6297C5.99186 15.8575 5.84121 16.2516 5.66448 16.7305C5.43851 16.5057 5.13141 15.0049 5.31393 14.5845Z" fill="#DDDADA"/>
<path d="M3.99276 19.5667C3.98697 19.5667 3.98407 19.5667 3.97828 19.5638L3.35539 19.2251C3.34091 19.2164 3.33511 19.2018 3.34381 19.1872C3.3525 19.1726 3.36698 19.1667 3.38147 19.1755L4.00435 19.5142C4.01884 19.523 4.02463 19.5376 4.01594 19.5522C4.01304 19.5609 4.00146 19.5667 3.99276 19.5667Z" fill="#DDDADA"/>
<path d="M13.8517 54.9995H17.4036C17.4905 54.9995 17.5601 54.9294 17.5601 54.8419C17.5601 54.7338 17.5543 54.582 17.5398 54.4331H13.788C13.7677 54.5849 13.7474 54.7251 13.7271 54.8535C13.7155 54.9294 13.7764 54.9995 13.8517 54.9995Z" fill="#DDDADA"/>
<path d="M17.3774 53.8812C17.1862 53.7585 16.5807 53.2388 16.3837 51.8958C16.3837 51.8958 16.3837 51.8958 16.3837 51.8928C16.3837 51.8899 16.3837 51.8841 16.3808 51.8812C16.3663 51.7965 16.262 51.3907 15.5001 51.3936C14.6512 51.3994 14.5295 52.36 14.4803 52.3483C14.431 52.3366 14.3094 51.7585 14.095 51.7527C14.0052 52.6491 13.8922 53.671 13.7908 54.433H17.5426C17.5165 54.1877 17.473 53.9396 17.3774 53.8812Z" fill="#DDDADA"/>
<path d="M14.4776 52.3489C14.5297 52.3605 14.6485 51.4 15.4974 51.3941C16.2593 51.3883 16.3636 51.7941 16.3781 51.8817C16.3665 51.8029 16.3549 51.7211 16.3462 51.6335C16.2796 50.9562 16.2999 49.6978 16.2999 49.6978L14.2806 49.7503C14.2806 49.7503 14.1994 50.6554 14.0894 51.7503C14.3095 51.7562 14.4283 52.3372 14.4776 52.3489Z" fill="#DDDADA"/>
<path d="M17.3776 53.8814C17.3776 53.8902 17.3747 53.896 17.3747 53.896C17.3747 53.896 16.6186 53.896 15.6393 53.896C14.6601 53.896 14.4747 52.3485 14.4747 52.3485C14.4225 52.3369 14.3037 51.7588 14.0894 51.7529C13.9995 52.6493 13.8866 53.6712 13.7852 54.4332H17.537C17.5167 54.188 17.4732 53.9456 17.3776 53.8814Z" fill="#DDDADA"/>
<path d="M15.6421 53.8967C16.6214 53.8967 17.3775 53.8967 17.3775 53.8967C17.3775 53.8967 17.3775 53.8909 17.3804 53.8821C17.3804 53.8821 17.3804 53.8821 17.3775 53.8792C17.1863 53.7566 16.5808 53.2369 16.3838 51.8938C16.3838 51.8938 16.3838 51.8938 16.3838 51.8909C16.3838 51.888 16.3838 51.8821 16.3809 51.8792C16.3664 51.7945 16.2621 51.3887 15.5002 51.3916C14.6513 51.3975 14.5296 52.358 14.4804 52.3464C14.4775 52.3493 14.6629 53.8967 15.6421 53.8967Z" fill="#DDDADA"/>
<path d="M5.22995 54.9995H1.67805C1.59114 54.9995 1.52161 54.9294 1.52161 54.8419C1.52161 54.7338 1.5274 54.582 1.54189 54.4331H5.29369C5.31397 54.5849 5.33425 54.7251 5.35453 54.8535C5.36612 54.9294 5.30818 54.9995 5.22995 54.9995Z" fill="#DDDADA"/>
<path d="M1.70399 53.8812C1.8952 53.7585 2.5007 53.2388 2.69771 51.8958C2.69771 51.8958 2.69771 51.8958 2.69771 51.8928C2.69771 51.8899 2.69771 51.8841 2.70061 51.8812C2.71509 51.7965 2.81939 51.3907 3.58134 51.3936C4.4302 51.3994 4.55188 52.36 4.60113 52.3483C4.65038 52.3366 4.77206 51.7585 4.98645 51.7527C5.07627 52.6491 5.18925 53.671 5.29065 54.433H1.54175C1.56493 54.1877 1.61128 53.9396 1.70399 53.8812Z" fill="#DDDADA"/>
<path d="M4.60414 52.3489C4.55199 52.3605 4.43321 51.4 3.58435 51.3941C2.8224 51.3883 2.7181 51.7941 2.70361 51.8817C2.7152 51.8029 2.72679 51.7211 2.73548 51.6335C2.80212 50.9562 2.78184 49.6978 2.78184 49.6978L4.80115 49.7503C4.80115 49.7503 4.88227 50.6554 4.99236 51.7503C4.77218 51.7562 4.65339 52.3372 4.60414 52.3489Z" fill="#DDDADA"/>
<path d="M1.70399 53.8814C1.70399 53.8902 1.70689 53.896 1.70689 53.896C1.70689 53.896 2.46304 53.896 3.44228 53.896C4.42151 53.896 4.60693 52.3485 4.60693 52.3485C4.65908 52.3369 4.77786 51.7588 4.99225 51.7529C5.08206 52.6493 5.19505 53.6712 5.29645 54.4332H1.54175C1.56493 54.188 1.60838 53.9456 1.70399 53.8814Z" fill="#DDDADA"/>
<path d="M3.43958 53.8967C2.46035 53.8967 1.70419 53.8967 1.70419 53.8967C1.70419 53.8967 1.70419 53.8909 1.70129 53.8821C1.70129 53.8821 1.70129 53.8821 1.70419 53.8792C1.8954 53.7566 2.50091 53.2369 2.69791 51.8938C2.69791 51.8938 2.69791 51.8938 2.69791 51.8909C2.69791 51.888 2.69791 51.8821 2.70081 51.8792C2.71529 51.7945 2.81959 51.3887 3.58154 51.3916C4.43041 51.3975 4.55209 52.358 4.60134 52.3464C4.60423 52.3493 4.41882 53.8967 3.43958 53.8967Z" fill="#DDDADA"/>
<path d="M15.738 39.7079C15.4888 38.5663 15.512 35.3196 15.2628 30.8407C15.0919 27.7809 14.2662 25.4247 13.7592 24.2393C9.1151 25.7809 6.11077 24.8378 5.04462 24.3648C3.02531 28.9021 3.50044 34.1897 3.56417 36.1167C3.63081 38.1722 3.15568 40.1371 2.66896 42.8817C2.18224 45.6233 2.66896 49.8043 2.66896 49.8043C3.61053 50.1459 4.83312 49.7576 4.83312 49.7576C4.78677 47.6321 5.35461 45.6204 5.8761 43.1298C6.39758 40.6364 6.0789 38.9955 6.75973 37.1444C7.44055 35.2933 9.12669 29.1006 9.12669 29.1006H9.85098C10.1233 31.7517 11.3633 34.6773 12.302 37.2962C13.2406 39.9152 12.8148 41.4247 13.5246 44.5634C14.2344 47.7021 14.159 49.7547 14.159 49.7547C14.9992 50.1197 16.4014 49.6963 16.4014 49.6963C16.4014 49.6963 16.4391 47.4072 16.4623 44.8466C16.4854 42.289 15.9871 40.8495 15.738 39.7079Z" fill="#DDDADA"/>
<path d="M13.7564 24.2412C13.5217 23.6923 13.3566 23.3916 13.3566 23.3916L5.48211 23.4675C5.32277 23.7624 5.17791 24.0631 5.04175 24.3668C6.1108 24.8398 9.11224 25.7829 13.7564 24.2412Z" fill="#DDDADA"/>
<path d="M10.7665 8.14111L10.8882 9.90754C10.9085 10.1849 11.12 10.4068 11.3923 10.436L12.9887 10.617C12.9887 10.617 13.571 14.8594 12.5889 16.6112C11.6067 18.3631 12.1311 20.4886 13.3566 23.3908C13.3566 23.3908 8.32425 24.5324 5.48215 23.4667C5.48215 23.4667 6.73662 20.5587 6.41793 18.4565C6.09924 16.3543 5.26776 16.0477 5.31412 14.5879C5.36047 13.128 5.81243 10.6725 5.81243 10.6725L7.44642 10.3601C7.61156 10.328 7.73613 10.1966 7.75931 10.0302L7.99108 8.40097L10.7665 8.14111Z" fill="#DDDADA"/>
<path d="M7.99414 8.40097C7.99414 8.40097 8.79665 10.617 10.8449 9.29148L10.7667 8.14111L7.99414 8.40097Z" fill="#DDDADA"/>
<path d="M12.586 16.6112C12.7511 16.3163 12.8699 15.9543 12.9568 15.5514C12.9916 15.347 13.0379 14.8419 12.8467 14.0156C12.5918 12.9236 12.6584 10.5791 12.6584 10.5791L11.656 10.4652C11.656 10.4652 11.5054 13.9455 9.25427 13.9455C7.00319 13.9455 7.05823 10.4331 7.05823 10.4331L6.19199 10.5995C6.19199 10.5995 6.34553 14.1791 5.31705 14.5849C5.27069 16.0477 6.10217 16.3514 6.42086 18.4536C6.44114 18.5908 6.45563 18.7309 6.46432 18.874C6.46432 18.874 8.54157 19.7791 12.079 18.8069C12.0558 18.0069 12.2094 17.2828 12.586 16.6112Z" fill="#DDDADA"/>
<path d="M6.46144 18.8772C6.46144 18.8772 8.5387 19.7823 12.0761 18.81C12.0703 18.6115 12.0761 18.4159 12.0935 18.2261C9.58167 18.9122 7.22339 18.518 6.39771 18.337C6.4035 18.375 6.40929 18.4159 6.41799 18.4567C6.43827 18.594 6.45275 18.7341 6.46144 18.8772Z" fill="#DDDADA"/>
<path d="M8.01138 17.4417C7.51886 17.4417 7.21466 17.3074 7.20018 17.3016C7.18569 17.2958 7.1799 17.2782 7.18569 17.2636C7.19149 17.249 7.20887 17.2432 7.22336 17.249C7.22625 17.252 7.61737 17.4213 8.21418 17.3775C8.43436 17.36 8.6024 17.325 8.76753 17.2899C9.05435 17.2286 9.32379 17.1702 9.76995 17.249C10.3291 17.3483 11.0244 17.4447 11.4503 17.2987C11.4648 17.2928 11.4822 17.3016 11.4851 17.3162C11.4908 17.3308 11.4822 17.3483 11.4677 17.3512C11.0331 17.5001 10.3262 17.4038 9.76125 17.3016C9.32668 17.2257 9.07463 17.2782 8.78202 17.3425C8.61398 17.3775 8.44305 17.4155 8.21997 17.433C8.14754 17.4388 8.07801 17.4417 8.01138 17.4417Z" fill="#DDDADA"/>
<path d="M9.29762 23.5872C9.35683 23.5872 9.40482 23.5074 9.40482 23.4091C9.40482 23.3107 9.35683 23.231 9.29762 23.231C9.23842 23.231 9.19043 23.3107 9.19043 23.4091C9.19043 23.5074 9.23842 23.5872 9.29762 23.5872Z" fill="#DDDADA"/>
<path d="M12.026 6.77695C12.172 6.3689 12.1147 5.97425 11.898 5.89546C11.6812 5.81668 11.3871 6.08359 11.2411 6.49164C11.0951 6.89968 11.1524 7.29434 11.3691 7.37312C11.5859 7.45191 11.88 7.18499 12.026 6.77695Z" fill="#DDDADA"/>
<path d="M7.27091 7.37309C7.48765 7.29431 7.54497 6.89965 7.39893 6.49161C7.25289 6.08356 6.9588 5.81664 6.74206 5.89543C6.52531 5.97422 6.468 6.36887 6.61404 6.77692C6.76007 7.18496 7.05417 7.45188 7.27091 7.37309Z" fill="#DDDADA"/>
<path d="M7.13905 6.91075C7.13036 6.91075 7.12167 6.90783 7.11588 6.89908L6.83196 6.49323C6.82327 6.48156 6.82616 6.46112 6.83775 6.45236C6.84934 6.4436 6.86672 6.44652 6.87831 6.4582L7.16223 6.86404C7.17092 6.87572 7.16802 6.89616 7.15644 6.90491C7.15064 6.91075 7.14485 6.91075 7.13905 6.91075Z" fill="#DDDADA"/>
<path d="M11.5284 6.85401C11.5226 6.85401 11.5139 6.85109 11.511 6.84817C11.4995 6.83649 11.4995 6.81897 11.5081 6.80729L11.8095 6.45985C11.821 6.44817 11.8384 6.44817 11.85 6.45693C11.8616 6.46861 11.8616 6.48612 11.8529 6.4978L11.5516 6.84525C11.5429 6.85109 11.5342 6.85401 11.5284 6.85401Z" fill="#DDDADA"/>
<path d="M11.5281 5.73063C11.5281 7.72772 10.6271 9.43283 9.3292 9.43283C8.03128 9.43283 6.97961 7.59049 6.97961 5.5934C6.97961 3.59631 8.02838 2.20068 9.3292 2.20068C10.63 2.20068 11.5281 3.73354 11.5281 5.73063Z" fill="#DDDADA"/>
<path d="M9.43712 3.13904C10.4589 3.03241 11.2195 2.28673 11.1359 1.47352C11.0524 0.660308 10.1563 0.0875082 9.13453 0.194138C8.11275 0.300767 7.35216 1.04645 7.43572 1.85966C7.51927 2.67287 8.41533 3.24567 9.43712 3.13904Z" fill="#DDDADA"/>
<g opacity="0.5">
<g opacity="0.5">
<path opacity="0.5" d="M9.43647 3.13722C10.4186 3.03502 11.1574 2.34305 11.14 1.56932C10.8416 0.999979 10.097 0.640854 9.27133 0.728445C8.2892 0.830635 7.55042 1.52261 7.56781 2.29634C7.86911 2.86568 8.61078 3.22481 9.43647 3.13722Z" fill="#DDDADA"/>
</g>
</g>
<path d="M11.5198 6.03065C11.5198 6.03065 10.642 5.02043 10.755 3.86714C10.755 3.86714 9.99012 5.25401 6.97999 5.95766L6.71925 5.9051C6.71925 5.9051 5.76319 1.42041 9.32957 1.40873C11.4764 1.39997 11.6328 2.781 11.6328 2.781C11.6328 2.781 12.8177 3.13721 11.8964 5.89634L11.5198 6.03065Z" fill="#DDDADA"/>
<path d="M9.26277 7.50281C9.11502 7.50281 8.9267 7.3831 8.90063 7.33347C8.87165 7.27507 8.95277 6.94515 9.08894 6.5831C9.2338 6.1977 9.15268 5.97288 9.15268 5.96996C9.14688 5.95536 9.15558 5.93784 9.17006 5.932C9.18455 5.92617 9.20193 5.93492 9.20772 5.94952C9.21062 5.95828 9.29754 6.19186 9.14399 6.60062C8.98464 7.0269 8.94408 7.27507 8.95277 7.30427C8.96726 7.33347 9.14978 7.45318 9.28015 7.4415C9.41342 7.42982 9.61333 7.31595 9.61333 7.31303C9.62781 7.30427 9.6452 7.31011 9.65099 7.32471C9.65968 7.33931 9.65389 7.35683 9.6394 7.36266C9.63071 7.3685 9.42791 7.48529 9.28305 7.49697C9.27726 7.50281 9.26857 7.50281 9.26277 7.50281Z" fill="#DDDADA"/>
<path d="M9.29734 8.17123C8.90043 8.17123 8.631 7.89969 8.61941 7.88801C8.60782 7.87634 8.60782 7.85882 8.61941 7.84714C8.631 7.83546 8.64838 7.83546 8.65997 7.84714C8.66287 7.85006 8.92651 8.11284 9.29734 8.11284C9.66818 8.11284 9.93182 7.85006 9.93471 7.84714C9.9463 7.83546 9.96368 7.83546 9.97527 7.84714C9.98686 7.85882 9.98686 7.87634 9.97527 7.88801C9.96368 7.89969 9.69425 8.17123 9.29734 8.17123Z" fill="#DDDADA"/>
<path d="M10.3694 6.35242C10.2709 6.3495 10.1955 6.26483 10.1984 6.16556L10.2042 6.03709C10.2071 5.93782 10.2912 5.86191 10.3897 5.86483C10.4882 5.86775 10.5635 5.95242 10.5606 6.05169L10.5548 6.18016C10.5519 6.27943 10.4679 6.35826 10.3694 6.35242Z" fill="#DDDADA"/>
<path d="M8.30663 6.35069C8.20812 6.35653 8.12411 6.2777 8.12121 6.17843L8.11541 6.04996C8.10962 5.95069 8.18784 5.86602 8.28635 5.8631C8.38485 5.85726 8.46887 5.93609 8.47176 6.03536L8.47756 6.16383C8.48046 6.2631 8.40513 6.34777 8.30663 6.35069Z" fill="#DDDADA"/>
<path d="M10.9198 5.41484C10.9198 5.41484 10.6967 5.21338 10.3577 5.27469C10.0188 5.33601 9.94344 5.35353 9.92026 5.32725C9.89709 5.30389 9.86812 5.11119 10.2592 5.04988C10.6503 4.98856 10.8995 5.26009 10.9198 5.41484Z" fill="#DDDADA"/>
</svg>
