<svg width="40" height="40" viewBox="0 0 40 40" fill="none" xmlns="http://www.w3.org/2000/svg">
<circle opacity="0.2" cx="20" cy="20" r="20" fill="url(#paint0_linear_79_3480)"/>
<g clip-path="url(#clip0_79_3480)">
<path fill-rule="evenodd" clip-rule="evenodd" d="M33.5 24.3904C33.5 26.936 27.4591 28.9999 20.0007 28.9999C12.5423 28.9999 6.5 26.936 6.5 24.3904C6.5 21.8447 12.5409 19.7809 20.0007 19.7809C27.4605 19.7809 33.5 21.8447 33.5 24.3904Z" fill="#E2CAB3"/>
<path fill-rule="evenodd" clip-rule="evenodd" d="M33.5 23.882C33.5 26.4276 27.4591 28.4915 20.0007 28.4915C12.5423 28.4915 6.5 26.4276 6.5 23.882C6.5 21.3363 12.5409 19.2725 20.0007 19.2725C27.4605 19.2725 33.5 21.3363 33.5 23.882Z" fill="white"/>
<path fill-rule="evenodd" clip-rule="evenodd" d="M33.5 23.809C33.5 26.275 27.4591 28.2738 20.0007 28.2738C12.5423 28.2738 6.5 26.275 6.5 23.809C6.5 21.343 12.5409 19.3455 20.0007 19.3455C27.4605 19.3455 33.5 21.3443 33.5 23.809Z" fill="#E7D8C8"/>
<path fill-rule="evenodd" clip-rule="evenodd" d="M32.9016 23.8092C32.9016 25.5691 27.7317 26.9945 21.355 26.9945C14.9784 26.9945 9.80707 25.5691 9.80707 23.8092C9.80707 22.0492 14.977 20.6238 21.355 20.6238C27.7331 20.6238 32.9016 22.0506 32.9016 23.8092Z" fill="#E2CAB3"/>
<path d="M31.9281 23.9232C31.6822 22.8349 30.4853 22.3743 29.5398 22.3013C28.9568 22.2575 28.3738 22.3743 27.7921 22.4048C27.469 22.4223 27.1448 22.4099 26.8242 22.3677C26.4702 22.3212 26.1316 22.2004 25.7748 22.1726C25.1552 22.1248 24.5413 22.3279 23.9639 22.5402C23.2854 22.7911 22.6068 23.0194 21.9114 23.2131C20.5397 23.6079 19.1265 23.8603 17.6968 23.9657C17.1153 24.0157 16.5301 24.0126 15.9492 23.9564C15.5418 23.9086 15.14 23.8237 14.7326 23.7785C14.0189 23.7029 13.228 23.7918 12.94 24.5842C12.7241 24.5835 12.5111 24.6317 12.319 24.7249C12.0282 24.843 11.6391 25.0527 11.4888 25.3566C11.1755 25.9924 12.1912 26.2419 12.5677 26.3096C12.9259 26.3733 13.287 26.3958 13.6466 26.4317C14.1467 26.4821 14.5485 26.7064 14.9714 26.9798C16.0377 27.6687 17.4608 27.7138 18.6746 27.6342C19.3441 27.5867 20.0061 27.4696 20.6484 27.2851C21.327 27.094 22.0252 27.2094 22.7108 27.3196C23.2997 27.4371 23.9112 27.4023 24.4809 27.2187C25.0541 27.0263 25.5514 26.6746 26.0417 26.3215C26.6135 25.9101 27.2639 25.8849 27.9368 25.8331C28.6002 25.7942 29.2585 25.6987 29.9036 25.5477C30.4452 25.4184 30.9726 25.2406 31.4785 25.0168C31.9084 24.8032 32.0292 24.405 31.9281 23.9232Z" fill="#EEBE30"/>
<path d="M28.0954 22.9769C28.0954 24.6916 24.2418 26.2857 19.6016 26.2857C14.9613 26.2857 11.0769 24.5735 11.0769 22.8587C11.0769 21.1439 14.9613 20.0715 19.6016 20.0715C24.2418 20.0715 28.0954 21.2621 28.0954 22.9769Z" fill="#E3AC8A"/>
<path d="M28.0027 22.6463C28.0027 24.3611 24.2419 25.7507 19.6017 25.7507C14.9614 25.7507 11.1992 24.3611 11.1992 22.6463C11.1992 20.9315 14.9614 19.5405 19.6017 19.5405C24.2419 19.5405 28.0027 20.9315 28.0027 22.6463Z" fill="#DA840D"/>
<path d="M25.7129 22.3517C25.7129 23.6245 22.9228 24.6545 19.4795 24.6545C16.0362 24.6545 13.2433 23.6245 13.2433 22.3517C13.2433 21.0789 16.0376 20.049 19.4795 20.049C22.9214 20.049 25.7129 21.0868 25.7129 22.3517Z" fill="#F0A508"/>
<path d="M15.2845 23.2011C15.2845 23.3338 15.1258 23.4493 14.9291 23.4493C14.7324 23.4493 14.5751 23.3378 14.5751 23.2011C14.5751 23.0644 14.7338 22.9529 14.9291 22.9529C15.1244 22.9529 15.2845 23.0644 15.2845 23.2011Z" fill="#DA840D"/>
<path d="M14.5752 22.1566C14.5733 22.1932 14.56 22.2284 14.5371 22.258C14.5142 22.2875 14.4827 22.31 14.4463 22.3228C14.41 22.3355 14.3705 22.3379 14.3328 22.3297C14.295 22.3215 14.2607 22.3029 14.2339 22.2764C14.2072 22.2499 14.1893 22.2166 14.1824 22.1806C14.1755 22.1445 14.18 22.1074 14.1952 22.0737C14.2105 22.0401 14.2358 22.0114 14.2681 21.9912C14.3005 21.971 14.3384 21.9603 14.3771 21.9602C14.4038 21.9607 14.4301 21.9662 14.4545 21.9764C14.479 21.9866 14.501 22.0012 14.5194 22.0195C14.5378 22.0377 14.5523 22.0592 14.5618 22.0828C14.5714 22.1063 14.5759 22.1314 14.5752 22.1566Z" fill="#DA840D"/>
<path d="M17.0366 23.5023C17.0411 23.5668 17.025 23.6311 16.9903 23.6869C16.9556 23.7426 16.904 23.7872 16.8422 23.8149C16.7803 23.8426 16.7111 23.8521 16.6434 23.8422C16.5758 23.8322 16.5129 23.8033 16.4629 23.7592C16.4129 23.715 16.3781 23.6577 16.363 23.5947C16.3479 23.5316 16.3532 23.4657 16.3782 23.4055C16.4033 23.3453 16.4469 23.2936 16.5034 23.2572C16.5599 23.2207 16.6267 23.2011 16.6952 23.201C16.7386 23.1996 16.7818 23.2062 16.8224 23.2206C16.863 23.235 16.9003 23.2568 16.932 23.2848C16.9637 23.3128 16.9892 23.3464 17.0072 23.3837C17.0251 23.421 17.0351 23.4613 17.0366 23.5023Z" fill="#DA840D"/>
<path d="M16.2946 22.3067C16.2946 22.389 16.1976 22.4567 16.0796 22.4567C15.9616 22.4567 15.8633 22.389 15.8633 22.3067C15.8633 22.2244 15.9602 22.1567 16.0796 22.1567C16.199 22.1567 16.2946 22.2231 16.2946 22.3067Z" fill="#DA840D"/>
<path d="M18.4667 23.0181C18.4718 23.0598 18.4634 23.102 18.4426 23.1391C18.4218 23.1761 18.3895 23.2063 18.3501 23.2257C18.3107 23.2451 18.266 23.2527 18.2219 23.2475C18.1778 23.2423 18.1365 23.2246 18.1033 23.1967C18.0701 23.1687 18.0467 23.132 18.0361 23.0912C18.0256 23.0504 18.0284 23.0076 18.0442 22.9684C18.06 22.9292 18.088 22.8954 18.1246 22.8716C18.1612 22.8477 18.2045 22.835 18.2489 22.835C18.3034 22.8324 18.3568 22.8502 18.3975 22.8844C18.4382 22.9187 18.4631 22.9667 18.4667 23.0181Z" fill="#DA840D"/>
<path d="M18.5494 24.1238C18.5494 24.2088 18.4454 24.2778 18.3162 24.2778C18.1869 24.2778 18.0829 24.2088 18.0829 24.1238C18.0829 24.0389 18.1883 23.9698 18.3162 23.9698C18.444 23.9698 18.5494 24.0389 18.5494 24.1238Z" fill="#DA840D"/>
<path d="M17.6196 22.4765C17.6172 22.5073 17.6051 22.5368 17.5851 22.5612C17.565 22.5857 17.5378 22.604 17.5068 22.614C17.4758 22.6239 17.4424 22.6251 17.4107 22.6173C17.379 22.6095 17.3505 22.593 17.3286 22.57C17.3067 22.547 17.2925 22.5184 17.2876 22.4878C17.2828 22.4572 17.2875 22.426 17.3013 22.3979C17.3151 22.3699 17.3373 22.3463 17.3652 22.33C17.3931 22.3138 17.4254 22.3056 17.4581 22.3066C17.503 22.3097 17.545 22.3291 17.5751 22.3608C17.6053 22.3924 17.6212 22.4339 17.6196 22.4765Z" fill="#DA840D"/>
<path d="M20.0387 22.7991C20.0387 22.8841 19.9376 22.9531 19.8125 22.9531C19.6875 22.9531 19.5864 22.8841 19.5864 22.7991C19.5864 22.7142 19.6875 22.6465 19.8125 22.6465C19.9376 22.6465 20.0387 22.7142 20.0387 22.7991Z" fill="#DA840D"/>
<path d="M20.0387 23.5938C20.0387 23.6442 19.9376 23.6854 19.8125 23.6854C19.6875 23.6854 19.5864 23.6442 19.5864 23.5938C19.5864 23.5433 19.6875 23.5022 19.8125 23.5022C19.9376 23.5022 20.0387 23.5433 20.0387 23.5938Z" fill="#DA840D"/>
<path d="M21.5684 23.0776C21.5684 23.1453 21.4771 23.2011 21.3633 23.2011C21.2495 23.2011 21.1595 23.1453 21.1595 23.0776C21.1595 23.01 21.2509 22.9529 21.3633 22.9529C21.4756 22.9529 21.5684 23.0086 21.5684 23.0776Z" fill="#DA840D"/>
<path d="M21.3241 23.9645C21.3337 24.0059 21.3295 24.049 21.312 24.088C21.2945 24.127 21.2647 24.1599 21.2266 24.1821C21.1885 24.2044 21.144 24.2149 21.0993 24.2123C21.0546 24.2097 21.0118 24.194 20.9769 24.1674C20.9421 24.1408 20.9168 24.1047 20.9046 24.0639C20.8924 24.0232 20.8939 23.9799 20.9089 23.94C20.9238 23.9001 20.9516 23.8656 20.9882 23.8412C21.0248 23.8168 21.0686 23.8038 21.1134 23.8039C21.1637 23.7994 21.2139 23.8137 21.2533 23.8437C21.2927 23.8737 21.3181 23.9171 21.3241 23.9645Z" fill="#DA840D"/>
<path d="M23.0268 23.707C23.018 23.7465 22.9975 23.7829 22.9678 23.8119C22.938 23.8409 22.9001 23.8614 22.8585 23.8709C22.8169 23.8804 22.7733 23.8785 22.7328 23.8655C22.6923 23.8526 22.6565 23.829 22.6296 23.7976C22.6027 23.7662 22.5857 23.7282 22.5808 23.688C22.5758 23.6479 22.583 23.6072 22.6014 23.5708C22.6199 23.5343 22.649 23.5036 22.6852 23.4821C22.7215 23.4606 22.7634 23.4493 22.8062 23.4495C22.8714 23.4565 22.931 23.4874 22.9723 23.5356C23.0135 23.5837 23.0331 23.6453 23.0268 23.707Z" fill="#DA840D"/>
<path d="M22.9046 22.547C22.9046 22.6001 22.833 22.6425 22.7445 22.6425C22.656 22.6425 22.5858 22.6001 22.5858 22.547C22.5858 22.4939 22.6574 22.4528 22.7445 22.4528C22.8316 22.4528 22.9046 22.4992 22.9046 22.547Z" fill="#DA840D"/>
<path d="M24.2534 22.8295C24.2534 23.0352 24.1564 23.2011 24.0384 23.2011C23.9204 23.2011 23.8221 23.0352 23.8221 22.8295C23.8221 22.6238 23.919 22.4565 24.0384 22.4565C24.1578 22.4565 24.2534 22.6238 24.2534 22.8295Z" fill="#DA840D"/>
<path d="M24.794 22.4512C24.794 22.4776 24.7829 22.5029 24.7632 22.5216C24.7434 22.5403 24.7166 22.5508 24.6887 22.5508C24.6607 22.5508 24.6339 22.5403 24.6142 22.5216C24.5944 22.5029 24.5833 22.4776 24.5833 22.4512C24.5833 22.4248 24.5944 22.3995 24.6142 22.3808C24.6339 22.3622 24.6607 22.3517 24.6887 22.3517C24.7165 22.352 24.7431 22.3626 24.7628 22.3812C24.7825 22.3998 24.7937 22.4249 24.794 22.4512Z" fill="#DA840D"/>
<path d="M21.2511 22.1341C21.2511 22.2283 21.1191 22.3066 20.9575 22.3066C20.7959 22.3066 20.6639 22.2283 20.6639 22.1341C20.6639 22.0398 20.7945 21.9602 20.9575 21.9602C21.1205 21.9602 21.2511 22.0385 21.2511 22.1341Z" fill="#DA840D"/>
<path d="M15.7427 21.2394C15.7427 21.2978 15.6402 21.3455 15.5137 21.3455C15.3873 21.3455 15.2847 21.2978 15.2847 21.2394C15.2847 21.181 15.3873 21.1332 15.5137 21.1332C15.6402 21.1332 15.7427 21.181 15.7427 21.2394Z" fill="#DA840D"/>
<path d="M17.0913 21.0259C17.0913 21.0856 16.9747 21.1334 16.8314 21.1334C16.6881 21.1334 16.5701 21.0856 16.5701 21.0259C16.5701 20.9661 16.6867 20.9197 16.8314 20.9197C16.9761 20.9197 17.0913 20.9675 17.0913 21.0259Z" fill="#DA840D"/>
<path d="M18.7882 21.2871C18.7882 21.3708 18.6308 21.4398 18.4356 21.4398C18.2403 21.4398 18.0829 21.3708 18.0829 21.2871C18.0829 21.2035 18.2417 21.1332 18.4356 21.1332C18.6294 21.1332 18.7882 21.2022 18.7882 21.2871Z" fill="#DA840D"/>
<path d="M20.0386 21.0259C20.0388 21.0472 20.0324 21.0682 20.02 21.0861C20.0076 21.104 19.9898 21.118 19.969 21.1263C19.9481 21.1346 19.9251 21.1368 19.9029 21.1327C19.8807 21.1286 19.8603 21.1183 19.8443 21.1032C19.8283 21.0881 19.8174 21.0688 19.8131 21.0478C19.8087 21.0269 19.8111 21.0051 19.8199 20.9854C19.8287 20.9657 19.8435 20.949 19.8624 20.9373C19.8813 20.9255 19.9035 20.9194 19.9262 20.9197C19.956 20.9197 19.9846 20.9309 20.0056 20.9508C20.0267 20.9707 20.0386 20.9977 20.0386 21.0259Z" fill="#DA840D"/>
<path d="M19.8124 21.8658C19.8124 21.9176 19.7057 21.9601 19.5722 21.9601C19.4387 21.9601 19.3334 21.9176 19.3334 21.8658C19.3334 21.8141 19.4401 21.7716 19.5722 21.7716C19.7043 21.7716 19.8124 21.8141 19.8124 21.8658Z" fill="#DA840D"/>
<path d="M21.6906 20.9792C21.6901 21.01 21.6798 21.04 21.6611 21.0653C21.6425 21.0905 21.6163 21.11 21.5859 21.1212C21.5555 21.1324 21.5222 21.1347 21.4904 21.128C21.4586 21.1213 21.4296 21.1057 21.4071 21.0834C21.3847 21.061 21.3697 21.0329 21.3643 21.0025C21.3588 20.9721 21.363 20.9409 21.3764 20.9128C21.3898 20.8847 21.4117 20.8609 21.4394 20.8446C21.4671 20.8283 21.4993 20.8202 21.5319 20.8213C21.5533 20.8218 21.5744 20.8263 21.594 20.8345C21.6135 20.8427 21.6312 20.8545 21.6459 20.8692C21.6607 20.8838 21.6722 20.9011 21.6799 20.92C21.6875 20.9389 21.6912 20.959 21.6906 20.9792Z" fill="#DA840D"/>
<path d="M22.5855 21.6059C22.5855 21.6324 22.5026 21.6537 22.3986 21.6537C22.2947 21.6537 22.2132 21.6324 22.2132 21.6059C22.2132 21.5793 22.2961 21.5581 22.3986 21.5581C22.5012 21.5581 22.5855 21.5793 22.5855 21.6059Z" fill="#DA840D"/>
<path d="M23.1687 21.2926C23.1722 21.3066 23.171 21.3213 23.1653 21.3346C23.1596 21.3479 23.1496 21.3592 23.1367 21.3669C23.1239 21.3745 23.1088 21.3783 23.0936 21.3775C23.0784 21.3767 23.0639 21.3714 23.052 21.3624C23.0401 21.3535 23.0315 21.3412 23.0274 21.3274C23.0232 21.3136 23.0237 21.2989 23.0289 21.2853C23.034 21.2718 23.0434 21.2601 23.0559 21.2519C23.0684 21.2437 23.0833 21.2394 23.0985 21.2395C23.1152 21.238 23.1319 21.2427 23.145 21.2526C23.1581 21.2625 23.1666 21.2769 23.1687 21.2926Z" fill="#DA840D"/>
<path d="M22.5855 21.6057C22.5823 21.6345 22.5703 21.6618 22.551 21.6843C22.5317 21.7068 22.5059 21.7235 22.4767 21.7324C22.4476 21.7414 22.4164 21.7422 22.3867 21.7347C22.3571 21.7272 22.3305 21.7118 22.3099 21.6904C22.2894 21.6689 22.2758 21.6423 22.2709 21.6137C22.2661 21.5851 22.27 21.5558 22.2824 21.5293C22.2948 21.5028 22.315 21.4803 22.3406 21.4644C22.3662 21.4485 22.3961 21.44 22.4268 21.4398C22.4487 21.4408 22.4703 21.4459 22.4901 21.4548C22.51 21.4637 22.5278 21.4762 22.5426 21.4917C22.5573 21.5071 22.5687 21.5251 22.5761 21.5446C22.5834 21.5642 22.5867 21.585 22.5855 21.6057Z" fill="#DA840D"/>
<path d="M23.4875 21.3401C23.4875 21.3946 23.4004 21.4397 23.2922 21.4397C23.184 21.4397 23.0983 21.3946 23.0983 21.3401C23.0983 21.2857 23.1854 21.2393 23.2922 21.2393C23.399 21.2393 23.4875 21.2844 23.4875 21.3401Z" fill="#DA840D"/>
<path d="M28.0954 21.7028C28.0954 23.4163 24.2418 25.0116 19.6016 25.0116C14.9613 25.0116 11.0769 23.2981 11.0769 21.5847C11.0769 19.8712 14.9613 18.7975 19.6016 18.7975C24.2418 18.7975 28.0954 19.988 28.0954 21.7028Z" fill="#E3AC8A"/>
<path d="M28.0027 21.371C28.0027 23.0858 24.2419 24.4754 19.6017 24.4754C14.9614 24.4754 11.1992 23.0858 11.1992 21.371C11.1992 19.6562 14.9614 18.2666 19.6017 18.2666C24.2419 18.2666 28.0027 19.6562 28.0027 21.371Z" fill="#DA840D"/>
<path d="M19.4795 23.3804C22.9221 23.3804 25.7129 22.3494 25.7129 21.0777C25.7129 19.8059 22.9221 18.7749 19.4795 18.7749C16.0369 18.7749 13.2462 19.8059 13.2462 21.0777C13.2462 22.3494 16.0369 23.3804 19.4795 23.3804Z" fill="#F0A508"/>
<path d="M15.2845 21.9271C15.2845 22.0599 15.1258 22.1753 14.9291 22.1753C14.7324 22.1753 14.5751 22.0639 14.5751 21.9271C14.5751 21.7904 14.7338 21.679 14.9291 21.679C15.1244 21.679 15.2845 21.7891 15.2845 21.9271Z" fill="#DA840D"/>
<path d="M14.5753 20.8812C14.5742 20.9179 14.5616 20.9536 14.5392 20.9837C14.5168 21.0137 14.4855 21.0369 14.4492 21.0502C14.4129 21.0636 14.3733 21.0665 14.3352 21.0587C14.2972 21.0509 14.2624 21.0327 14.2353 21.0063C14.2081 20.98 14.1898 20.9466 14.1826 20.9105C14.1754 20.8743 14.1797 20.837 14.1948 20.8031C14.2099 20.7692 14.2353 20.7403 14.2678 20.7199C14.3002 20.6996 14.3383 20.6887 14.3772 20.6887C14.4304 20.6898 14.481 20.7105 14.518 20.7466C14.5551 20.7826 14.5757 20.8309 14.5753 20.8812Z" fill="#DA840D"/>
<path d="M17.0366 22.2282C17.0411 22.2927 17.025 22.357 16.9903 22.4128C16.9556 22.4685 16.904 22.5132 16.8422 22.5409C16.7803 22.5685 16.7111 22.578 16.6434 22.5681C16.5758 22.5582 16.5129 22.5292 16.4629 22.4851C16.4129 22.441 16.3781 22.3836 16.363 22.3206C16.3479 22.2575 16.3532 22.1916 16.3782 22.1314C16.4033 22.0712 16.4469 22.0196 16.5034 21.9831C16.5599 21.9466 16.6267 21.927 16.6952 21.9269C16.7827 21.9244 16.8676 21.9547 16.9316 22.0111C16.9955 22.0675 17.0333 22.1456 17.0366 22.2282Z" fill="#DA840D"/>
<path d="M16.2946 21.0324C16.2946 21.1147 16.1976 21.1824 16.0796 21.1824C15.9616 21.1824 15.8633 21.1147 15.8633 21.0324C15.8633 20.9501 15.9602 20.8811 16.0796 20.8811C16.199 20.8811 16.2946 20.9541 16.2946 21.0324Z" fill="#DA840D"/>
<path d="M18.4667 21.7507C18.4718 21.7924 18.4634 21.8345 18.4426 21.8716C18.4218 21.9087 18.3895 21.9389 18.3501 21.9583C18.3107 21.9776 18.266 21.9852 18.2219 21.98C18.1778 21.9748 18.1365 21.9571 18.1033 21.9292C18.0701 21.9013 18.0467 21.8645 18.0361 21.8237C18.0256 21.783 18.0284 21.7401 18.0442 21.7009C18.06 21.6617 18.088 21.6279 18.1246 21.6041C18.1612 21.5803 18.2045 21.5675 18.2489 21.5675C18.3034 21.565 18.3568 21.5827 18.3975 21.617C18.4382 21.6512 18.4631 21.6993 18.4667 21.7507Z" fill="#DA840D"/>
<path d="M18.5494 22.8481C18.5494 22.933 18.4454 23.002 18.3162 23.002C18.1869 23.002 18.0829 22.933 18.0829 22.8481C18.0829 22.7631 18.1883 22.6954 18.3162 22.6954C18.444 22.6954 18.5494 22.7631 18.5494 22.8481Z" fill="#DA840D"/>
<path d="M17.6194 21.2007C17.6172 21.2317 17.6053 21.2613 17.5854 21.2859C17.5655 21.3105 17.5384 21.3291 17.5074 21.3393C17.4764 21.3494 17.4429 21.3507 17.4111 21.3431C17.3794 21.3354 17.3507 21.319 17.3287 21.2961C17.3066 21.2731 17.2923 21.2445 17.2873 21.2139C17.2824 21.1832 17.2871 21.1519 17.3008 21.1238C17.3146 21.0956 17.3368 21.0719 17.3647 21.0557C17.3927 21.0394 17.425 21.0312 17.4578 21.0322C17.5027 21.0349 17.5446 21.054 17.5748 21.0855C17.6049 21.117 17.6209 21.1583 17.6194 21.2007Z" fill="#DA840D"/>
<path d="M20.0387 21.5248C20.0387 21.6098 19.9376 21.6788 19.8125 21.6788C19.6875 21.6788 19.5864 21.6098 19.5864 21.5248C19.5864 21.4399 19.6875 21.3708 19.8125 21.3708C19.9376 21.3708 20.0387 21.4399 20.0387 21.5248Z" fill="#DA840D"/>
<path d="M20.0387 22.3198C20.0387 22.3703 19.9376 22.4114 19.8125 22.4114C19.6875 22.4114 19.5864 22.3703 19.5864 22.3198C19.5864 22.2694 19.6875 22.2283 19.8125 22.2283C19.9376 22.2283 20.0387 22.2694 20.0387 22.3198Z" fill="#DA840D"/>
<path d="M21.5684 21.8024C21.5684 21.8714 21.4771 21.9271 21.3633 21.9271C21.2495 21.9271 21.1595 21.8714 21.1595 21.8024C21.1595 21.7334 21.2509 21.679 21.3633 21.679C21.4756 21.679 21.5684 21.7347 21.5684 21.8024Z" fill="#DA840D"/>
<path d="M21.324 22.6887C21.3339 22.73 21.33 22.7732 21.3128 22.8123C21.2955 22.8515 21.2658 22.8846 21.2278 22.907C21.1898 22.9295 21.1453 22.9403 21.1005 22.9378C21.0558 22.9354 21.0129 22.9199 20.9779 22.8934C20.9428 22.8669 20.9174 22.8308 20.905 22.7901C20.8927 22.7493 20.894 22.706 20.9089 22.666C20.9238 22.626 20.9514 22.5914 20.9881 22.5669C21.0247 22.5425 21.0684 22.5293 21.1133 22.5294C21.1635 22.5245 21.2137 22.5385 21.2532 22.5683C21.2926 22.5981 21.318 22.6413 21.324 22.6887Z" fill="#DA840D"/>
<path d="M23.0268 22.4312C23.0181 22.4704 22.9977 22.5065 22.9682 22.5353C22.9386 22.5641 22.901 22.5844 22.8598 22.5938C22.8185 22.6032 22.7753 22.6014 22.7351 22.5886C22.6948 22.5758 22.6593 22.5525 22.6325 22.5214C22.6057 22.4903 22.5888 22.4527 22.5837 22.4129C22.5786 22.3731 22.5856 22.3327 22.6037 22.2965C22.6219 22.2602 22.6506 22.2296 22.6864 22.2081C22.7223 22.1866 22.7638 22.1752 22.8063 22.175C22.8712 22.1821 22.9306 22.2128 22.9718 22.2607C23.013 22.3085 23.0328 22.3698 23.0268 22.4312Z" fill="#DA840D"/>
<path d="M22.9046 21.2767C22.9046 21.3285 22.833 21.371 22.7445 21.371C22.656 21.371 22.5858 21.3285 22.5858 21.2767C22.5858 21.225 22.6574 21.1825 22.7445 21.1825C22.8316 21.1825 22.9046 21.2197 22.9046 21.2767Z" fill="#DA840D"/>
<path d="M24.2534 21.5541C24.2534 21.7598 24.1564 21.9271 24.0384 21.9271C23.9204 21.9271 23.8221 21.7598 23.8221 21.5541C23.8221 21.3484 23.919 21.1825 24.0384 21.1825C24.1578 21.1825 24.2534 21.3524 24.2534 21.5541Z" fill="#DA840D"/>
<path d="M24.7941 21.1769C24.7937 21.2032 24.7825 21.2283 24.7628 21.2469C24.7431 21.2655 24.7165 21.2761 24.6887 21.2765C24.6678 21.2765 24.6475 21.2706 24.6301 21.2597C24.6128 21.2488 24.5993 21.2332 24.5913 21.215C24.5834 21.1968 24.5813 21.1768 24.5853 21.1575C24.5894 21.1382 24.5994 21.1205 24.6142 21.1065C24.6289 21.0926 24.6477 21.0831 24.6681 21.0793C24.6886 21.0755 24.7098 21.0774 24.729 21.085C24.7483 21.0925 24.7647 21.1053 24.7763 21.1216C24.7879 21.138 24.7941 21.1572 24.7941 21.1769Z" fill="#DA840D"/>
<path d="M21.2511 20.8587C21.2511 20.9543 21.1191 21.0326 20.9575 21.0326C20.7959 21.0326 20.6639 20.9543 20.6639 20.8587C20.6639 20.7631 20.7945 20.6862 20.9575 20.6862C21.1205 20.6862 21.2511 20.7631 21.2511 20.8587Z" fill="#DA840D"/>
<path d="M15.7427 19.9641C15.7427 20.0238 15.6402 20.0716 15.5137 20.0716C15.3873 20.0716 15.2847 20.0238 15.2847 19.9641C15.2847 19.9044 15.3873 19.8579 15.5137 19.8579C15.6402 19.8579 15.7427 19.9057 15.7427 19.9641Z" fill="#DA840D"/>
<path d="M17.0913 19.7516C17.0913 19.81 16.9747 19.8577 16.8314 19.8577C16.6881 19.8577 16.5701 19.81 16.5701 19.7516C16.5701 19.6932 16.6867 19.6454 16.8314 19.6454C16.9761 19.6454 17.0913 19.6932 17.0913 19.7516Z" fill="#DA840D"/>
<path d="M18.7882 20.0119C18.7882 20.0968 18.6308 20.1658 18.4356 20.1658C18.2403 20.1658 18.0829 20.0968 18.0829 20.0119C18.0829 19.9269 18.2417 19.8579 18.4356 19.8579C18.6294 19.8579 18.7882 19.9269 18.7882 20.0119Z" fill="#DA840D"/>
<path d="M20.0386 19.7516C20.0388 19.7729 20.0324 19.7939 20.02 19.8118C20.0076 19.8297 19.9898 19.8437 19.969 19.852C19.9481 19.8603 19.9251 19.8625 19.9029 19.8584C19.8807 19.8543 19.8603 19.844 19.8443 19.8289C19.8283 19.8138 19.8174 19.7945 19.8131 19.7735C19.8087 19.7526 19.8111 19.7308 19.8199 19.7111C19.8287 19.6914 19.8435 19.6747 19.8624 19.663C19.8813 19.6512 19.9035 19.6451 19.9262 19.6454C19.956 19.6454 19.9846 19.6566 20.0056 19.6765C20.0267 19.6964 20.0386 19.7234 20.0386 19.7516Z" fill="#DA840D"/>
<path d="M19.8124 20.5919C19.8124 20.6437 19.7057 20.6861 19.5722 20.6861C19.4387 20.6861 19.3334 20.6437 19.3334 20.5919C19.3334 20.5401 19.4401 20.4963 19.5722 20.4963C19.7043 20.4963 19.8124 20.5388 19.8124 20.5919Z" fill="#DA840D"/>
<path d="M21.6906 19.7052C21.6909 19.7362 21.6813 19.7665 21.6632 19.7924C21.645 19.8182 21.6191 19.8383 21.5888 19.8501C21.5584 19.8618 21.525 19.8648 21.4929 19.8585C21.4608 19.8522 21.4314 19.837 21.4085 19.8148C21.3856 19.7926 21.3703 19.7644 21.3645 19.7339C21.3587 19.7034 21.3627 19.672 21.3759 19.6436C21.3892 19.6153 21.4111 19.5913 21.4389 19.5749C21.4667 19.5584 21.4991 19.5502 21.5319 19.5512C21.5745 19.5519 21.615 19.5685 21.6448 19.5973C21.6745 19.6262 21.691 19.6649 21.6906 19.7052Z" fill="#DA840D"/>
<path d="M22.5855 20.3316C22.5855 20.3568 22.5026 20.378 22.3986 20.378C22.2947 20.378 22.2132 20.3568 22.2132 20.3316C22.2132 20.3064 22.2961 20.2838 22.3986 20.2838C22.5012 20.2838 22.5855 20.305 22.5855 20.3316Z" fill="#DA840D"/>
<path d="M23.1689 20.0251C23.1721 20.0391 23.1706 20.0537 23.1646 20.0669C23.1586 20.0801 23.1485 20.0912 23.1356 20.0986C23.1226 20.1061 23.1075 20.1096 23.0924 20.1086C23.0773 20.1076 23.0629 20.1022 23.0511 20.0931C23.0394 20.084 23.031 20.0717 23.027 20.0579C23.023 20.0441 23.0237 20.0294 23.0289 20.016C23.0341 20.0025 23.0436 19.9909 23.0561 19.9828C23.0686 19.9747 23.0835 19.9705 23.0986 19.9707C23.1156 19.9692 23.1324 19.9741 23.1456 19.9843C23.1587 19.9945 23.1671 20.0092 23.1689 20.0251Z" fill="#DA840D"/>
<path d="M22.5855 20.3317C22.5823 20.3605 22.5703 20.3877 22.551 20.4102C22.5317 20.4327 22.5059 20.4494 22.4767 20.4584C22.4476 20.4673 22.4164 20.4681 22.3867 20.4607C22.3571 20.4532 22.3305 20.4378 22.3099 20.4163C22.2894 20.3948 22.2758 20.3682 22.2709 20.3396C22.2661 20.3111 22.27 20.2818 22.2824 20.2553C22.2948 20.2288 22.315 20.2062 22.3406 20.1904C22.3662 20.1745 22.3961 20.1659 22.4268 20.1658C22.4487 20.1668 22.4703 20.1719 22.4901 20.1808C22.51 20.1897 22.5278 20.2022 22.5426 20.2176C22.5573 20.233 22.5687 20.251 22.5761 20.2706C22.5834 20.2902 22.5867 20.3109 22.5855 20.3317Z" fill="#DA840D"/>
<path d="M23.4875 20.0649C23.4875 20.1206 23.4004 20.1657 23.2922 20.1657C23.184 20.1657 23.0983 20.1206 23.0983 20.0649C23.0983 20.0091 23.1854 19.964 23.2922 19.964C23.399 19.964 23.4875 20.0091 23.4875 20.0649Z" fill="#DA840D"/>
<path d="M28.2289 19.4252C28.2289 21.1386 24.3739 22.734 19.7337 22.734C15.0934 22.734 11.2104 21.0205 11.2104 19.3057C11.2104 17.5909 15.0934 16.5251 19.7337 16.5251C24.3739 16.5251 28.2289 17.7104 28.2289 19.4252Z" fill="#E3AC8A"/>
<path d="M28.1348 19.0961C28.1348 20.8109 24.3726 22.2005 19.7324 22.2005C15.0921 22.2005 11.3327 20.8082 11.3327 19.0961C11.3327 17.3839 15.0935 15.989 19.7338 15.989C24.374 15.989 28.1348 17.3786 28.1348 19.0961Z" fill="#DA840D"/>
<path d="M25.8463 18.8001C25.8463 20.0715 23.0548 21.1028 19.6129 21.1028C16.171 21.1028 13.3838 20.0715 13.3838 18.8001C13.3838 17.5286 16.171 16.496 19.6129 16.496C23.0548 16.496 25.8463 17.5272 25.8463 18.8001Z" fill="#F0A508"/>
<path d="M15.4166 19.6496C15.4166 19.7823 15.2593 19.8978 15.0626 19.8978C14.8659 19.8978 14.7086 19.7863 14.7086 19.6496C14.7086 19.5129 14.8673 19.4014 15.0696 19.4014C15.2719 19.4014 15.4166 19.5115 15.4166 19.6496Z" fill="#DA840D"/>
<path d="M14.7084 18.6037C14.7068 18.6402 14.6938 18.6755 14.6712 18.7051C14.6486 18.7348 14.6173 18.7575 14.5811 18.7705C14.545 18.7836 14.5056 18.7863 14.4678 18.7784C14.43 18.7705 14.3955 18.7524 14.3685 18.7262C14.3416 18.7 14.3233 18.6669 14.316 18.631C14.3087 18.5951 14.3127 18.558 14.3275 18.5242C14.3423 18.4904 14.3672 18.4615 14.3992 18.4409C14.4312 18.4204 14.4688 18.4091 14.5075 18.4086C14.5343 18.4087 14.5608 18.4139 14.5855 18.4239C14.6102 18.4338 14.6325 18.4483 14.6512 18.4664C14.6699 18.4846 14.6846 18.5061 14.6944 18.5296C14.7042 18.5532 14.709 18.5784 14.7084 18.6037Z" fill="#DA840D"/>
<path d="M17.177 19.9508C17.1813 20.0151 17.165 20.079 17.1303 20.1344C17.0956 20.1898 17.0441 20.234 16.9824 20.2614C16.9208 20.2888 16.8519 20.2981 16.7846 20.288C16.7173 20.2779 16.6548 20.249 16.6051 20.205C16.5554 20.161 16.5209 20.1039 16.506 20.0411C16.4911 19.9783 16.4965 19.9127 16.5215 19.8529C16.5465 19.793 16.5899 19.7416 16.6462 19.7054C16.7024 19.6691 16.769 19.6497 16.8371 19.6496C16.9244 19.6471 17.0092 19.6774 17.0729 19.7338C17.1367 19.7903 17.1741 19.8683 17.177 19.9508Z" fill="#DA840D"/>
<path d="M16.4282 18.7535C16.4282 18.8371 16.3312 18.9048 16.2118 18.9048C16.0924 18.9048 15.9969 18.8371 15.9969 18.7535C15.9969 18.6699 16.0938 18.6035 16.2118 18.6035C16.3298 18.6035 16.4282 18.6712 16.4282 18.7535Z" fill="#DA840D"/>
<path d="M18.5999 19.4665C18.6051 19.5082 18.5967 19.5503 18.5758 19.5874C18.555 19.6245 18.5228 19.6547 18.4833 19.6741C18.4439 19.6934 18.3992 19.701 18.3551 19.6958C18.3111 19.6906 18.2697 19.6729 18.2365 19.645C18.2033 19.6171 18.1799 19.5803 18.1694 19.5396C18.1588 19.4988 18.1616 19.456 18.1774 19.4167C18.1932 19.3775 18.2213 19.3438 18.2578 19.3199C18.2944 19.2961 18.3378 19.2833 18.3822 19.2833C18.4367 19.2808 18.49 19.2985 18.5307 19.3328C18.5715 19.3671 18.5963 19.4151 18.5999 19.4665Z" fill="#DA840D"/>
<path d="M18.6829 20.5708C18.6829 20.6557 18.5789 20.7247 18.4497 20.7247C18.3205 20.7247 18.2165 20.6557 18.2165 20.5708C18.2165 20.4858 18.3205 20.4235 18.4497 20.4235C18.5789 20.4235 18.6829 20.4872 18.6829 20.5708Z" fill="#DA840D"/>
<path d="M17.7531 18.9234C17.7531 18.9653 17.7354 19.0055 17.7041 19.0351C17.6727 19.0647 17.6302 19.0814 17.5859 19.0814C17.5415 19.0814 17.499 19.0647 17.4677 19.0351C17.4363 19.0055 17.4187 18.9653 17.4187 18.9234C17.4187 18.8816 17.4363 18.8414 17.4677 18.8118C17.499 18.7821 17.5415 18.7655 17.5859 18.7655C17.6302 18.7655 17.6727 18.7821 17.7041 18.8118C17.7354 18.8414 17.7531 18.8816 17.7531 18.9234Z" fill="#DA840D"/>
<path d="M20.172 19.2474C20.172 19.3323 20.0708 19.4013 19.9458 19.4013C19.8208 19.4013 19.7196 19.3323 19.7196 19.2474C19.7196 19.1624 19.8208 19.0961 19.9458 19.0961C20.0708 19.0961 20.172 19.1624 20.172 19.2474Z" fill="#DA840D"/>
<path d="M20.172 20.0423C20.172 20.0927 20.0708 20.1338 19.9458 20.1338C19.8208 20.1338 19.7196 20.0927 19.7196 20.0423C19.7196 19.9918 19.8208 19.9507 19.9458 19.9507C20.0708 19.9507 20.172 19.9918 20.172 20.0423Z" fill="#DA840D"/>
<path d="M21.702 19.5248C21.702 19.5938 21.6107 19.6496 21.4969 19.6496C21.3831 19.6496 21.2918 19.5938 21.2918 19.5248C21.2918 19.4558 21.3845 19.4014 21.4969 19.4014C21.6093 19.4014 21.702 19.4571 21.702 19.5248Z" fill="#DA840D"/>
<path d="M21.4574 20.4112C21.4676 20.4528 21.4639 20.4963 21.4467 20.5358C21.4295 20.5753 21.3998 20.6088 21.3616 20.6316C21.3234 20.6544 21.2786 20.6654 21.2335 20.6631C21.1884 20.6608 21.1452 20.6453 21.1098 20.6187C21.0744 20.5922 21.0487 20.5559 21.0361 20.5149C21.0236 20.4739 21.0248 20.4302 21.0397 20.3899C21.0546 20.3496 21.0824 20.3147 21.1192 20.2899C21.156 20.2652 21.2001 20.2519 21.2453 20.2519C21.2957 20.2467 21.3463 20.2605 21.386 20.2903C21.4258 20.3202 21.4514 20.3636 21.4574 20.4112Z" fill="#DA840D"/>
<path d="M23.1603 20.1578C23.1501 20.1965 23.1286 20.2317 23.0983 20.2594C23.068 20.2872 23.0301 20.3064 22.9888 20.3148C22.9476 20.3233 22.9046 20.3206 22.8649 20.3072C22.8251 20.2938 22.7901 20.2702 22.7639 20.239C22.7376 20.2077 22.7211 20.1702 22.7162 20.1306C22.7114 20.091 22.7183 20.0509 22.7363 20.0148C22.7544 19.9787 22.7827 19.9482 22.8182 19.9265C22.8536 19.9049 22.8948 19.893 22.937 19.8923C22.9703 19.8954 23.0026 19.9048 23.032 19.92C23.0614 19.9351 23.0873 19.9557 23.1081 19.9804C23.1289 20.0052 23.1443 20.0336 23.1533 20.0641C23.1622 20.0946 23.1646 20.1264 23.1603 20.1578Z" fill="#DA840D"/>
<path d="M23.0378 18.9991C23.0378 19.0509 22.9662 19.0934 22.8777 19.0934C22.7892 19.0934 22.7189 19.0509 22.7189 18.9991C22.7189 18.9474 22.7892 18.9049 22.8777 18.9049C22.9662 18.9049 23.0378 18.9474 23.0378 18.9991Z" fill="#DA840D"/>
<path d="M24.3865 19.2765C24.3865 19.4823 24.2896 19.6495 24.1702 19.6495C24.0508 19.6495 23.9553 19.4823 23.9553 19.2765C23.9553 19.0708 24.0522 18.9049 24.1702 18.9049C24.2882 18.9049 24.3865 19.0708 24.3865 19.2765Z" fill="#DA840D"/>
<path d="M24.926 18.8996C24.9257 18.919 24.9194 18.9378 24.9078 18.9538C24.8962 18.9698 24.8799 18.9821 24.8609 18.9894C24.8418 18.9966 24.821 18.9984 24.8009 18.9944C24.7808 18.9905 24.7624 18.981 24.748 18.9672C24.7336 18.9535 24.7239 18.936 24.72 18.9169C24.7161 18.8979 24.7182 18.8782 24.7261 18.8604C24.734 18.8425 24.7474 18.8272 24.7644 18.8165C24.7815 18.8058 24.8015 18.8001 24.822 18.8C24.8497 18.8004 24.8762 18.811 24.8956 18.8297C24.9151 18.8483 24.926 18.8734 24.926 18.8996Z" fill="#DA840D"/>
<path d="M21.3832 18.5811C21.3832 18.6767 21.2525 18.7537 21.091 18.7537C20.9294 18.7537 20.7974 18.6767 20.7974 18.5811C20.7974 18.4855 20.928 18.4086 21.091 18.4086C21.2539 18.4086 21.3832 18.4855 21.3832 18.5811Z" fill="#DA840D"/>
<path d="M15.8761 17.6877C15.8761 17.7461 15.7736 17.7939 15.6471 17.7939C15.5207 17.7939 15.4167 17.7461 15.4167 17.6877C15.4167 17.6293 15.5193 17.5802 15.6471 17.5802C15.775 17.5802 15.8761 17.628 15.8761 17.6877Z" fill="#DA840D"/>
<path d="M17.2246 17.4742C17.2246 17.5339 17.108 17.5804 16.9633 17.5804C16.8186 17.5804 16.7034 17.5339 16.7034 17.4742C16.7034 17.4145 16.82 17.368 16.9633 17.368C17.1066 17.368 17.2246 17.4158 17.2246 17.4742Z" fill="#DA840D"/>
<path d="M18.9217 17.7342C18.9217 17.8191 18.7644 17.8881 18.5691 17.8881C18.3738 17.8881 18.2165 17.8191 18.2165 17.7342C18.2165 17.6492 18.3752 17.5802 18.5691 17.5802C18.763 17.5802 18.9217 17.6492 18.9217 17.7342Z" fill="#DA840D"/>
<path d="M20.1723 17.474C20.1692 17.5003 20.1559 17.5246 20.1351 17.5422C20.1142 17.5598 20.0872 17.5696 20.0592 17.5696C20.0312 17.5696 20.0042 17.5598 19.9833 17.5422C19.9625 17.5246 19.9492 17.5003 19.9461 17.474C19.9492 17.4477 19.9625 17.4234 19.9833 17.4058C20.0042 17.3882 20.0312 17.3784 20.0592 17.3784C20.0872 17.3784 20.1142 17.3882 20.1351 17.4058C20.1559 17.4234 20.1692 17.4477 20.1723 17.474Z" fill="#DA840D"/>
<path d="M19.9457 18.3129C19.9457 18.366 19.839 18.4084 19.7055 18.4084C19.572 18.4084 19.4653 18.366 19.4653 18.3129C19.4653 18.2598 19.5734 18.2186 19.7055 18.2186C19.8376 18.2186 19.9457 18.2611 19.9457 18.3129Z" fill="#DA840D"/>
<path d="M21.8242 17.4275C21.8245 17.4583 21.8151 17.4885 21.7972 17.5142C21.7793 17.5399 21.7537 17.56 21.7237 17.5719C21.6937 17.5839 21.6606 17.5872 21.6286 17.5813C21.5967 17.5755 21.5673 17.5608 21.5441 17.5391C21.521 17.5175 21.5052 17.4898 21.4987 17.4597C21.4923 17.4295 21.4955 17.3982 21.5079 17.3698C21.5203 17.3413 21.5413 17.317 21.5684 17.2998C21.5954 17.2827 21.6273 17.2736 21.6598 17.2736C21.6814 17.2732 21.7028 17.277 21.7229 17.2846C21.7429 17.2921 21.7611 17.3035 21.7764 17.3178C21.7917 17.3322 21.8038 17.3493 21.8121 17.3681C21.8203 17.387 21.8244 17.4072 21.8242 17.4275Z" fill="#DA840D"/>
<path d="M22.719 18.0543C22.719 18.0795 22.6347 18.1007 22.5322 18.1007C22.4296 18.1007 22.3467 18.0795 22.3467 18.0543C22.3467 18.029 22.4296 18.0065 22.5322 18.0065C22.6347 18.0065 22.719 18.0343 22.719 18.0543Z" fill="#DA840D"/>
<path d="M23.302 17.741C23.2976 17.7554 23.2884 17.7681 23.2758 17.7771C23.2631 17.7862 23.2476 17.791 23.2318 17.791C23.2159 17.791 23.2004 17.7862 23.1878 17.7771C23.1751 17.7681 23.1659 17.7554 23.1615 17.741C23.1659 17.7266 23.1751 17.7139 23.1878 17.7048C23.2004 17.6958 23.2159 17.6909 23.2318 17.6909C23.2476 17.6909 23.2631 17.6958 23.2758 17.7048C23.2884 17.7139 23.2976 17.7266 23.302 17.741Z" fill="#DA840D"/>
<path d="M22.719 18.0541C22.7158 18.0829 22.7038 18.1102 22.6845 18.1326C22.6652 18.1551 22.6394 18.1718 22.6102 18.1808C22.5811 18.1897 22.5498 18.1905 22.5202 18.1831C22.4906 18.1756 22.4639 18.1602 22.4434 18.1387C22.4228 18.1173 22.4093 18.0906 22.4044 18.0621C22.3996 18.0335 22.4035 18.0042 22.4159 17.9777C22.4282 17.9512 22.4484 17.9286 22.4741 17.9128C22.4997 17.8969 22.5296 17.8883 22.5603 17.8882C22.5822 17.8892 22.6038 17.8943 22.6236 17.9032C22.6435 17.9121 22.6613 17.9246 22.6761 17.94C22.6908 17.9554 22.7022 17.9734 22.7096 17.993C22.7169 18.0126 22.7201 18.0333 22.719 18.0541Z" fill="#DA840D"/>
<path d="M23.6208 17.7874C23.6208 17.8432 23.5337 17.8883 23.4256 17.8883C23.3174 17.8883 23.2303 17.8432 23.2303 17.7874C23.2303 17.7317 23.3174 17.6879 23.4256 17.6879C23.5337 17.6879 23.6208 17.7317 23.6208 17.7874Z" fill="#DA840D"/>
<path d="M28.2289 17.9612C28.2289 19.676 24.3739 21.27 19.7337 21.27C15.0934 21.27 11.2104 19.5579 11.2104 17.8431C11.2104 16.1283 15.0934 15.0559 19.7337 15.0559C24.3739 15.0559 28.2289 16.2464 28.2289 17.9612Z" fill="#E3AC8A"/>
<path d="M28.1348 17.6361C28.1348 19.3496 24.3726 20.7405 19.7324 20.7405C15.0921 20.7405 11.3327 19.3443 11.3327 17.6361C11.3327 15.928 15.0935 14.5304 19.7338 14.5304C24.374 14.5304 28.1348 15.9107 28.1348 17.6361Z" fill="#DA840D"/>
<path d="M25.8463 17.3361C25.8463 18.6076 23.0548 19.6388 19.6129 19.6388C16.171 19.6388 13.3838 18.6076 13.3838 17.3361C13.3838 16.0646 16.171 15.032 19.6129 15.032C23.0548 15.032 25.8463 16.0632 25.8463 17.3361Z" fill="#F0A508"/>
<path d="M15.4166 18.1856C15.4166 18.3183 15.2593 18.4338 15.0626 18.4338C14.8659 18.4338 14.7086 18.3223 14.7086 18.1856C14.7086 18.0489 14.8673 17.9374 15.0626 17.9374C15.2579 17.9374 15.4166 18.0489 15.4166 18.1856Z" fill="#DA840D"/>
<path d="M14.7084 17.1397C14.7068 17.1762 14.6938 17.2115 14.6712 17.2411C14.6486 17.2708 14.6173 17.2935 14.5811 17.3065C14.545 17.3196 14.5056 17.3223 14.4678 17.3144C14.43 17.3066 14.3955 17.2884 14.3685 17.2622C14.3416 17.236 14.3233 17.2029 14.316 17.167C14.3087 17.1311 14.3127 17.094 14.3275 17.0602C14.3423 17.0264 14.3672 16.9975 14.3992 16.9769C14.4312 16.9564 14.4688 16.9451 14.5075 16.9446C14.5343 16.9448 14.5608 16.95 14.5855 16.9599C14.6102 16.9698 14.6325 16.9843 14.6512 17.0024C14.6699 17.0206 14.6846 17.0421 14.6944 17.0656C14.7042 17.0892 14.709 17.1144 14.7084 17.1397Z" fill="#DA840D"/>
<path d="M16.8329 18.788C17.0207 18.788 17.1729 18.6531 17.1729 18.4867C17.1729 18.3203 17.0207 18.1854 16.8329 18.1854C16.6451 18.1854 16.4929 18.3203 16.4929 18.4867C16.4929 18.6531 16.6451 18.788 16.8329 18.788Z" fill="#DA840D"/>
<path d="M16.4282 17.2911C16.4282 17.3734 16.3312 17.4411 16.2118 17.4411C16.0924 17.4411 15.9969 17.3707 15.9969 17.2911C15.9969 17.2114 16.0938 17.1398 16.2118 17.1398C16.3298 17.1398 16.4282 17.2075 16.4282 17.2911Z" fill="#DA840D"/>
<path d="M18.5999 18.0025C18.6051 18.0442 18.5967 18.0864 18.5758 18.1234C18.555 18.1605 18.5228 18.1907 18.4833 18.2101C18.4439 18.2294 18.3992 18.237 18.3551 18.2318C18.3111 18.2267 18.2697 18.2089 18.2365 18.181C18.2033 18.1531 18.1799 18.1163 18.1694 18.0756C18.1588 18.0348 18.1616 17.992 18.1774 17.9527C18.1932 17.9135 18.2213 17.8798 18.2578 17.8559C18.2944 17.8321 18.3378 17.8193 18.3822 17.8193C18.4367 17.8168 18.49 17.8346 18.5307 17.8688C18.5715 17.9031 18.5963 17.9511 18.5999 18.0025Z" fill="#DA840D"/>
<path d="M18.6829 19.1065C18.6829 19.1914 18.5789 19.2604 18.4497 19.2604C18.3205 19.2604 18.2165 19.1914 18.2165 19.1065C18.2165 19.0215 18.3205 18.9539 18.4497 18.9539C18.5789 18.9539 18.6829 19.0229 18.6829 19.1065Z" fill="#DA840D"/>
<path d="M17.7528 17.4607C17.7504 17.4913 17.7385 17.5206 17.7187 17.5449C17.6989 17.5693 17.672 17.5876 17.6413 17.5978C17.6107 17.6079 17.5775 17.6094 17.546 17.602C17.5144 17.5946 17.4858 17.5787 17.4637 17.5563C17.4416 17.5338 17.4268 17.5057 17.4213 17.4754C17.4159 17.4451 17.4198 17.414 17.4328 17.3858C17.4457 17.3577 17.4671 17.3337 17.4942 17.3168C17.5214 17.2999 17.5531 17.2909 17.5856 17.2908C17.6316 17.2925 17.675 17.3113 17.7063 17.3432C17.7376 17.375 17.7543 17.4172 17.7528 17.4607Z" fill="#DA840D"/>
<path d="M20.172 17.7834C20.172 17.8684 20.0708 17.9374 19.9458 17.9374C19.8208 17.9374 19.7196 17.8684 19.7196 17.7834C19.7196 17.6985 19.8208 17.6361 19.9458 17.6361C20.0708 17.6361 20.172 17.6985 20.172 17.7834Z" fill="#DA840D"/>
<path d="M20.172 18.5783C20.172 18.6287 20.0708 18.6699 19.9458 18.6699C19.8208 18.6699 19.7196 18.6287 19.7196 18.5783C19.7196 18.5278 19.8208 18.4867 19.9458 18.4867C20.0708 18.4867 20.172 18.5278 20.172 18.5783Z" fill="#DA840D"/>
<path d="M21.702 18.0608C21.702 18.1298 21.6107 18.1856 21.4969 18.1856C21.3831 18.1856 21.2918 18.1298 21.2918 18.0608C21.2918 17.9918 21.3845 17.9374 21.4969 17.9374C21.6093 17.9374 21.702 17.9931 21.702 18.0608Z" fill="#DA840D"/>
<path d="M21.4574 18.9475C21.4676 18.989 21.4639 19.0326 21.4467 19.0721C21.4295 19.1116 21.3998 19.145 21.3616 19.1678C21.3234 19.1906 21.2786 19.2016 21.2335 19.1993C21.1884 19.197 21.1452 19.1815 21.1098 19.155C21.0744 19.1284 21.0487 19.0921 21.0361 19.0511C21.0236 19.0101 21.0248 18.9664 21.0397 18.9261C21.0546 18.8858 21.0824 18.8509 21.1192 18.8262C21.156 18.8015 21.2001 18.7882 21.2453 18.7882C21.2957 18.783 21.3463 18.7968 21.386 18.8266C21.4258 18.8564 21.4514 18.8999 21.4574 18.9475Z" fill="#DA840D"/>
<path d="M23.1603 18.6979C23.1501 18.7366 23.1286 18.7719 23.0983 18.7996C23.068 18.8274 23.0301 18.8465 22.9888 18.855C22.9476 18.8634 22.9046 18.8608 22.8649 18.8474C22.8251 18.834 22.7901 18.8103 22.7639 18.7791C22.7376 18.7479 22.7211 18.7104 22.7162 18.6708C22.7114 18.6311 22.7183 18.591 22.7363 18.555C22.7544 18.5189 22.7827 18.4883 22.8182 18.4667C22.8536 18.445 22.8948 18.4332 22.937 18.4325C22.9704 18.4354 23.0028 18.4447 23.0323 18.4598C23.0617 18.4749 23.0877 18.4954 23.1086 18.5202C23.1294 18.545 23.1448 18.5735 23.1537 18.6041C23.1626 18.6346 23.1648 18.6666 23.1603 18.6979Z" fill="#DA840D"/>
<path d="M23.0378 17.5354C23.0378 17.5885 22.9662 17.631 22.8777 17.631C22.7892 17.631 22.7189 17.5885 22.7189 17.5354C22.7189 17.4823 22.7892 17.4412 22.8777 17.4412C22.9662 17.4412 23.0378 17.4836 23.0378 17.5354Z" fill="#DA840D"/>
<path d="M24.3865 17.8128C24.3865 18.0185 24.2896 18.1857 24.1702 18.1857C24.0508 18.1857 23.9553 18.0185 23.9553 17.8128C23.9553 17.6071 24.0522 17.4412 24.1702 17.4412C24.2882 17.4412 24.3865 17.6084 24.3865 17.8128Z" fill="#DA840D"/>
<path d="M24.926 17.4359C24.9257 17.4552 24.9194 17.4741 24.9078 17.4901C24.8962 17.506 24.8799 17.5184 24.8609 17.5256C24.8418 17.5329 24.821 17.5346 24.8009 17.5307C24.7808 17.5268 24.7624 17.5173 24.748 17.5035C24.7336 17.4897 24.7239 17.4722 24.72 17.4532C24.7161 17.4342 24.7182 17.4145 24.7261 17.3966C24.734 17.3788 24.7474 17.3635 24.7644 17.3528C24.7815 17.342 24.8015 17.3363 24.822 17.3363C24.8358 17.3363 24.8494 17.3389 24.8621 17.3439C24.8749 17.3489 24.8864 17.3563 24.8961 17.3655C24.9057 17.3748 24.9134 17.3858 24.9185 17.3979C24.9236 17.4099 24.9262 17.4228 24.926 17.4359Z" fill="#DA840D"/>
<path d="M21.3832 17.1171C21.3832 17.2127 21.2525 17.291 21.091 17.291C20.9294 17.291 20.7974 17.2127 20.7974 17.1171C20.7974 17.0216 20.928 16.9446 21.091 16.9446C21.2539 16.9446 21.3832 17.0216 21.3832 17.1171Z" fill="#DA840D"/>
<path d="M15.8761 16.2239C15.8761 16.2823 15.7736 16.33 15.6471 16.33C15.5207 16.33 15.4167 16.2823 15.4167 16.2239C15.4167 16.1655 15.5193 16.1177 15.6471 16.1177C15.775 16.1177 15.8761 16.1655 15.8761 16.2239Z" fill="#DA840D"/>
<path d="M17.2246 16.0101C17.2246 16.0698 17.108 16.1176 16.9633 16.1176C16.8186 16.1176 16.7034 16.0698 16.7034 16.0101C16.7034 15.9504 16.82 15.9039 16.9633 15.9039C17.1066 15.9039 17.2246 15.9517 17.2246 16.0101Z" fill="#DA840D"/>
<path d="M18.9217 16.2703C18.9217 16.3553 18.7644 16.4243 18.5691 16.4243C18.3738 16.4243 18.2165 16.3553 18.2165 16.2703C18.2165 16.1854 18.3752 16.1177 18.5691 16.1177C18.763 16.1177 18.9217 16.1854 18.9217 16.2703Z" fill="#DA840D"/>
<path d="M20.1721 16.0102C20.1724 16.0316 20.1659 16.0526 20.1535 16.0705C20.1411 16.0883 20.1234 16.1023 20.1025 16.1106C20.0817 16.1189 20.0587 16.1212 20.0365 16.1171C20.0143 16.113 19.9938 16.1027 19.9778 16.0876C19.9618 16.0725 19.951 16.0532 19.9466 16.0322C19.9423 16.0112 19.9447 15.9895 19.9535 15.9698C19.9622 15.9501 19.977 15.9333 19.996 15.9216C20.0149 15.9099 20.0371 15.9038 20.0597 15.9041C20.0895 15.9041 20.1181 15.9152 20.1392 15.9352C20.1603 15.9551 20.1721 15.9821 20.1721 16.0102Z" fill="#DA840D"/>
<path d="M19.9457 16.8502C19.9457 16.902 19.839 16.9444 19.7055 16.9444C19.572 16.9444 19.4653 16.902 19.4653 16.8502C19.4653 16.7984 19.5734 16.7546 19.7055 16.7546C19.8376 16.7546 19.9457 16.7971 19.9457 16.8502Z" fill="#DA840D"/>
<path d="M21.8242 15.9638C21.8245 15.9945 21.8151 16.0247 21.7972 16.0504C21.7793 16.0761 21.7537 16.0962 21.7237 16.1082C21.6937 16.1201 21.6606 16.1234 21.6286 16.1176C21.5967 16.1117 21.5673 16.097 21.5441 16.0754C21.521 16.0537 21.5052 16.0261 21.4987 15.9959C21.4923 15.9657 21.4955 15.9344 21.5079 15.906C21.5203 15.8775 21.5413 15.8532 21.5684 15.8361C21.5954 15.819 21.6273 15.8098 21.6598 15.8098C21.6814 15.8096 21.7027 15.8135 21.7226 15.8212C21.7426 15.8288 21.7607 15.8401 21.776 15.8544C21.7913 15.8688 21.8034 15.8858 21.8117 15.9046C21.8199 15.9233 21.8242 15.9435 21.8242 15.9638Z" fill="#DA840D"/>
<path d="M22.719 16.5903C22.719 16.6155 22.6347 16.6367 22.5322 16.6367C22.4296 16.6367 22.3467 16.6155 22.3467 16.5903C22.3467 16.565 22.4296 16.5425 22.5322 16.5425C22.6347 16.5425 22.719 16.5637 22.719 16.5903Z" fill="#DA840D"/>
<path d="M23.3023 16.277C23.3058 16.2909 23.3047 16.3055 23.299 16.3188C23.2933 16.3321 23.2834 16.3434 23.2706 16.3511C23.2579 16.3588 23.2429 16.3626 23.2278 16.3619C23.2126 16.3612 23.1981 16.3561 23.1862 16.3472C23.1743 16.3384 23.1655 16.3263 23.1612 16.3126C23.1569 16.2989 23.1572 16.2842 23.1621 16.2707C23.167 16.2571 23.1762 16.2453 23.1885 16.237C23.2008 16.2286 23.2155 16.224 23.2307 16.2239C23.2476 16.2224 23.2644 16.227 23.2778 16.2369C23.2911 16.2468 23.2999 16.2612 23.3023 16.277Z" fill="#DA840D"/>
<path d="M22.719 16.5901C22.7158 16.6189 22.7038 16.6462 22.6845 16.6686C22.6652 16.6911 22.6394 16.7078 22.6102 16.7168C22.5811 16.7257 22.5498 16.7265 22.5202 16.7191C22.4906 16.7116 22.4639 16.6962 22.4434 16.6747C22.4228 16.6533 22.4093 16.6266 22.4044 16.5981C22.3996 16.5695 22.4035 16.5402 22.4159 16.5137C22.4282 16.4872 22.4484 16.4647 22.4741 16.4488C22.4997 16.4329 22.5296 16.4244 22.5603 16.4242C22.5822 16.4252 22.6038 16.4303 22.6236 16.4392C22.6435 16.4481 22.6613 16.4606 22.6761 16.476C22.6908 16.4914 22.7022 16.5094 22.7096 16.529C22.7169 16.5486 22.7201 16.5693 22.719 16.5901Z" fill="#DA840D"/>
<path d="M23.6208 16.3234C23.6208 16.3792 23.5337 16.4243 23.4256 16.4243C23.3174 16.4243 23.2303 16.3792 23.2303 16.3234C23.2303 16.2677 23.3174 16.2239 23.4256 16.2239C23.5337 16.2239 23.6208 16.269 23.6208 16.3234Z" fill="#DA840D"/>
<path d="M27.9045 16.4536C27.7078 14.8052 24.1844 13.4939 19.8659 13.4939C15.8255 13.4939 12.4819 14.642 11.9059 16.1378C11.7729 16.3399 11.701 16.5726 11.698 16.8107C11.698 18.5255 15.4209 20.2389 19.8659 20.2389C24.3108 20.2389 28.0028 18.6462 28.0028 16.9288C28.0025 16.7659 27.9691 16.6046 27.9045 16.4536Z" fill="#C66720"/>
<path d="M28.4003 16.1562C28.4003 17.871 24.5454 19.4664 19.9051 19.4664C15.2649 19.4664 11.3818 17.7529 11.3818 16.0434C11.3818 14.3339 15.2649 13.2562 19.9051 13.2562C24.5454 13.2562 28.4003 14.4414 28.4003 16.1562Z" fill="#E3AC8A"/>
<path d="M28.3258 15.8258C28.3258 17.5406 24.6731 18.836 20.0371 18.836C15.4011 18.836 11.636 17.4464 11.636 15.7316C11.636 14.0168 15.3969 12.6272 20.0371 12.6272C24.6774 12.6272 28.3258 14.111 28.3258 15.8258Z" fill="#DA840D"/>
<path d="M19.7845 17.8339C23.2271 17.8339 26.0179 16.8029 26.0179 15.5312C26.0179 14.2594 23.2271 13.2284 19.7845 13.2284C16.3419 13.2284 13.5511 14.2594 13.5511 15.5312C13.5511 16.8029 16.3419 17.8339 19.7845 17.8339Z" fill="#F0A508"/>
<path d="M15.588 16.3804C15.588 16.5131 15.4293 16.6299 15.234 16.6299C15.0388 16.6299 14.88 16.5184 14.88 16.3804C14.88 16.2424 15.0388 16.1322 15.234 16.1322C15.4293 16.1322 15.588 16.2437 15.588 16.3804Z" fill="#DA840D"/>
<path d="M14.8798 15.3358C14.8778 15.3724 14.8646 15.4076 14.8417 15.4372C14.8188 15.4667 14.7872 15.4892 14.7509 15.502C14.7146 15.5147 14.6751 15.5171 14.6373 15.5089C14.5996 15.5007 14.5652 15.4821 14.5385 15.4556C14.5118 15.4291 14.4939 15.3958 14.487 15.3598C14.4801 15.3237 14.4845 15.2866 14.4998 15.2529C14.515 15.2193 14.5404 15.1906 14.5727 15.1704C14.605 15.1502 14.6429 15.1394 14.6817 15.1394C14.7084 15.1399 14.7347 15.1454 14.7591 15.1556C14.7835 15.1658 14.8056 15.1804 14.824 15.1987C14.8424 15.2169 14.8568 15.2384 14.8664 15.262C14.876 15.2855 14.8805 15.3106 14.8798 15.3358Z" fill="#DA840D"/>
<path d="M17.3441 16.683C17.3481 16.7472 17.3315 16.811 17.2966 16.8662C17.2617 16.9214 17.2101 16.9655 17.1484 16.9927C17.0868 17.0198 17.0179 17.0289 16.9507 17.0187C16.8835 17.0085 16.8211 16.9795 16.7716 16.9354C16.722 16.8913 16.6877 16.8342 16.6729 16.7714C16.6581 16.7086 16.6636 16.6431 16.6886 16.5834C16.7137 16.5236 16.7571 16.4723 16.8134 16.4361C16.8696 16.3999 16.9361 16.3805 17.0041 16.3804C17.0475 16.3792 17.0907 16.386 17.1312 16.4005C17.1718 16.4151 17.2089 16.437 17.2405 16.4651C17.2721 16.4932 17.2975 16.5269 17.3153 16.5643C17.333 16.6017 17.3428 16.642 17.3441 16.683Z" fill="#DA840D"/>
<path d="M16.5996 15.4858C16.5996 15.5694 16.5026 15.6358 16.3832 15.6358C16.2638 15.6358 16.1683 15.5694 16.1683 15.4858C16.1683 15.4022 16.2652 15.3358 16.3832 15.3358C16.5012 15.3358 16.5996 15.4035 16.5996 15.4858Z" fill="#DA840D"/>
<path d="M18.7716 16.1973C18.7767 16.239 18.7683 16.2811 18.7475 16.3182C18.7266 16.3553 18.6944 16.3855 18.655 16.4049C18.6156 16.4242 18.5709 16.4318 18.5268 16.4266C18.4827 16.4214 18.4413 16.4037 18.4081 16.3758C18.375 16.3479 18.3515 16.3111 18.341 16.2703C18.3304 16.2296 18.3332 16.1867 18.349 16.1475C18.3648 16.1083 18.3929 16.0745 18.4295 16.0507C18.466 16.0269 18.5094 16.0141 18.5538 16.0141C18.6084 16.0112 18.6619 16.0288 18.7027 16.0632C18.7436 16.0975 18.7683 16.1457 18.7716 16.1973Z" fill="#DA840D"/>
<path d="M18.8543 17.3029C18.8543 17.3878 18.7503 17.4568 18.6211 17.4568C18.4918 17.4568 18.3879 17.3878 18.3879 17.3029C18.3879 17.2179 18.4918 17.1489 18.6211 17.1489C18.7503 17.1489 18.8543 17.2179 18.8543 17.3029Z" fill="#DA840D"/>
<path d="M17.9243 15.6558C17.9218 15.6865 17.91 15.7158 17.8902 15.7401C17.8704 15.7645 17.8435 15.7828 17.8128 15.793C17.7821 15.8031 17.749 15.8046 17.7174 15.7972C17.6859 15.7898 17.6573 15.7739 17.6351 15.7514C17.613 15.729 17.5983 15.7009 17.5928 15.6706C17.5873 15.6403 17.5913 15.6092 17.6042 15.581C17.6172 15.5529 17.6385 15.5289 17.6657 15.512C17.6928 15.4951 17.7246 15.486 17.7571 15.486C17.7799 15.4866 17.8024 15.4916 17.8231 15.5005C17.8439 15.5094 17.8626 15.5222 17.8782 15.538C17.8937 15.5538 17.9058 15.5723 17.9137 15.5926C17.9216 15.6128 17.9252 15.6343 17.9243 15.6558Z" fill="#DA840D"/>
<path d="M20.3437 15.9795C20.3437 16.0645 20.2426 16.1322 20.1175 16.1322C19.9925 16.1322 19.8914 16.0645 19.8914 15.9795C19.8914 15.8946 19.9925 15.8256 20.1175 15.8256C20.2426 15.8256 20.3437 15.8946 20.3437 15.9795Z" fill="#DA840D"/>
<path d="M20.3437 16.7747C20.3437 16.8251 20.2426 16.8663 20.1175 16.8663C19.9925 16.8663 19.8914 16.8251 19.8914 16.7747C19.8914 16.7242 19.9925 16.6831 20.1175 16.6831C20.2426 16.6831 20.3437 16.7242 20.3437 16.7747Z" fill="#DA840D"/>
<path d="M21.8734 16.257C21.8734 16.326 21.7807 16.3804 21.6683 16.3804C21.5559 16.3804 21.4632 16.326 21.4632 16.257C21.4632 16.1879 21.5559 16.1322 21.6683 16.1322C21.7807 16.1322 21.8734 16.1879 21.8734 16.257Z" fill="#DA840D"/>
<path d="M21.6289 17.1437C21.6391 17.1853 21.6353 17.2289 21.6182 17.2684C21.601 17.3079 21.5712 17.3413 21.533 17.3641C21.4949 17.3869 21.4501 17.3979 21.405 17.3956C21.3599 17.3933 21.3166 17.3778 21.2813 17.3513C21.2459 17.3247 21.2201 17.2884 21.2076 17.2474C21.195 17.2064 21.1962 17.1627 21.2111 17.1224C21.226 17.0821 21.2538 17.0472 21.2906 17.0225C21.3275 16.9978 21.3715 16.9845 21.4167 16.9845C21.4671 16.9796 21.5175 16.9935 21.5571 17.0233C21.5968 17.0531 21.6225 17.0963 21.6289 17.1437Z" fill="#DA840D"/>
<path d="M23.3317 16.8862C23.323 16.9254 23.3027 16.9615 23.2731 16.9903C23.2435 17.019 23.2059 17.0393 23.1647 17.0488C23.1234 17.0582 23.0802 17.0564 23.04 17.0436C22.9998 17.0308 22.9642 17.0075 22.9374 16.9764C22.9106 16.9453 22.8937 16.9076 22.8886 16.8678C22.8836 16.828 22.8905 16.7877 22.9087 16.7514C22.9269 16.7152 22.9555 16.6845 22.9914 16.6631C23.0272 16.6416 23.0687 16.6301 23.1112 16.63C23.1761 16.637 23.2355 16.6678 23.2767 16.7156C23.3179 16.7635 23.3377 16.8247 23.3317 16.8862Z" fill="#DA840D"/>
<path d="M23.2081 15.7314C23.2081 15.7832 23.1379 15.8257 23.0494 15.8257C22.9609 15.8257 22.8906 15.7832 22.8906 15.7314C22.8906 15.6797 22.9609 15.6359 23.0494 15.6359C23.1379 15.6359 23.2081 15.6783 23.2081 15.7314Z" fill="#DA840D"/>
<path d="M24.558 16.0088C24.558 16.2145 24.4611 16.3804 24.3416 16.3804C24.2222 16.3804 24.1267 16.2145 24.1267 16.0088C24.1267 15.8031 24.2236 15.6359 24.3416 15.6359C24.4597 15.6359 24.558 15.8031 24.558 16.0088Z" fill="#DA840D"/>
<path d="M25.0973 15.6319C25.0968 15.6512 25.0902 15.6699 25.0785 15.6857C25.0667 15.7015 25.0503 15.7137 25.0313 15.7207C25.0122 15.7277 24.9914 15.7293 24.9714 15.7252C24.9515 15.7211 24.9332 15.7116 24.9189 15.6977C24.9047 15.6839 24.8951 15.6664 24.8913 15.6474C24.8875 15.6285 24.8897 15.6088 24.8976 15.591C24.9056 15.5733 24.9189 15.5581 24.9359 15.5474C24.953 15.5367 24.9729 15.531 24.9934 15.531C25.0072 15.5312 25.0209 15.5339 25.0336 15.5391C25.0463 15.5443 25.0578 15.5517 25.0675 15.5611C25.0771 15.5705 25.0847 15.5815 25.0899 15.5937C25.095 15.6058 25.0975 15.6188 25.0973 15.6319Z" fill="#DA840D"/>
<path d="M21.5544 15.3133C21.5544 15.4088 21.4238 15.4858 21.2622 15.4858C21.1007 15.4858 20.97 15.4088 20.97 15.3133C20.97 15.2177 21.1007 15.1394 21.2636 15.1394C21.4266 15.1394 21.5544 15.2177 21.5544 15.3133Z" fill="#DA840D"/>
<path d="M16.0531 14.419C16.0531 14.4774 15.9506 14.5252 15.8241 14.5252C15.6977 14.5252 15.5938 14.4774 15.5938 14.419C15.5938 14.3606 15.6963 14.3129 15.8241 14.3129C15.952 14.3129 16.0531 14.3606 16.0531 14.419Z" fill="#DA840D"/>
<path d="M17.3963 14.2065C17.3963 14.2649 17.2797 14.3127 17.135 14.3127C16.9903 14.3127 16.8751 14.2649 16.8751 14.2065C16.8751 14.1481 16.9917 14.1003 17.135 14.1003C17.2783 14.1003 17.3963 14.1481 17.3963 14.2065Z" fill="#DA840D"/>
<path d="M19.0931 14.4665C19.0931 14.5515 18.9358 14.6205 18.7405 14.6205C18.5452 14.6205 18.3879 14.5515 18.3879 14.4665C18.3879 14.3816 18.5452 14.3179 18.7405 14.3179C18.9358 14.3179 19.0931 14.3816 19.0931 14.4665Z" fill="#DA840D"/>
<path d="M20.3435 14.2063C20.3438 14.2276 20.3373 14.2485 20.325 14.2664C20.3127 14.2842 20.295 14.2982 20.2742 14.3065C20.2535 14.3149 20.2305 14.3172 20.2084 14.3132C20.1862 14.3092 20.1658 14.2991 20.1497 14.2841C20.1337 14.2691 20.1227 14.25 20.1182 14.2291C20.1137 14.2082 20.1159 14.1865 20.1244 14.1668C20.133 14.1471 20.1476 14.1302 20.1663 14.1183C20.1851 14.1064 20.2071 14.1001 20.2297 14.1001C20.2446 14.0999 20.2593 14.1025 20.2731 14.1078C20.2869 14.1131 20.2995 14.1209 20.3101 14.1307C20.3207 14.1406 20.3291 14.1524 20.3348 14.1653C20.3405 14.1783 20.3435 14.1922 20.3435 14.2063Z" fill="#DA840D"/>
<path d="M20.1172 15.0453C20.1172 15.0984 20.0104 15.1395 19.8769 15.1395C19.7435 15.1395 19.6367 15.0984 19.6367 15.0453C19.6367 14.9922 19.7449 14.951 19.8769 14.951C20.009 14.951 20.1172 14.9935 20.1172 15.0453Z" fill="#DA840D"/>
<path d="M21.9955 14.1585C21.9961 14.1893 21.9869 14.2196 21.9692 14.2455C21.9515 14.2714 21.926 14.2917 21.896 14.3038C21.866 14.316 21.8329 14.3195 21.8008 14.3138C21.7688 14.3081 21.7392 14.2935 21.716 14.2719C21.6927 14.2503 21.6768 14.2226 21.6702 14.1924C21.6636 14.1622 21.6667 14.1309 21.679 14.1024C21.6914 14.0738 21.7125 14.0494 21.7395 14.0322C21.7666 14.015 21.7985 14.0059 21.8311 14.0059C21.8525 14.0057 21.8738 14.0095 21.8936 14.0171C21.9135 14.0247 21.9315 14.0358 21.9468 14.05C21.9621 14.0642 21.9742 14.0811 21.9826 14.0997C21.9909 14.1183 21.9953 14.1383 21.9955 14.1585Z" fill="#DA840D"/>
<path d="M22.8904 14.785C22.8904 14.8115 22.8061 14.8328 22.7036 14.8328C22.601 14.8328 22.5181 14.8115 22.5181 14.785C22.5181 14.7584 22.601 14.7385 22.7036 14.7385C22.8061 14.7385 22.8904 14.7598 22.8904 14.785Z" fill="#DA840D"/>
<path d="M23.4734 14.4721C23.4768 14.486 23.4757 14.5006 23.47 14.5139C23.4643 14.5271 23.4544 14.5384 23.4416 14.5461C23.4289 14.5539 23.4139 14.5576 23.3988 14.5569C23.3836 14.5563 23.3691 14.5511 23.3572 14.5423C23.3453 14.5335 23.3366 14.5214 23.3322 14.5076C23.3279 14.4939 23.3282 14.4793 23.3331 14.4657C23.338 14.4522 23.3472 14.4404 23.3595 14.432C23.3718 14.4237 23.3866 14.4191 23.4017 14.419C23.4186 14.4175 23.4354 14.4221 23.4488 14.432C23.4621 14.4419 23.4709 14.4562 23.4734 14.4721Z" fill="#DA840D"/>
<path d="M22.8905 14.7852C22.8925 14.806 22.89 14.8269 22.883 14.8467C22.876 14.8665 22.8647 14.8848 22.8498 14.9002C22.835 14.9156 22.8168 14.928 22.7966 14.9364C22.7764 14.9449 22.7545 14.9492 22.7324 14.9492C22.7103 14.9492 22.6885 14.9449 22.6682 14.9364C22.648 14.928 22.6299 14.9156 22.615 14.9002C22.6001 14.8848 22.5888 14.8665 22.5818 14.8467C22.5748 14.8269 22.5723 14.806 22.5744 14.7852C22.5723 14.7644 22.5748 14.7434 22.5818 14.7236C22.5888 14.7038 22.6001 14.6856 22.615 14.6701C22.6299 14.6547 22.648 14.6423 22.6682 14.6339C22.6885 14.6255 22.7103 14.6211 22.7324 14.6211C22.7545 14.6211 22.7764 14.6255 22.7966 14.6339C22.8168 14.6423 22.835 14.6547 22.8498 14.6701C22.8647 14.6856 22.876 14.7038 22.883 14.7236C22.89 14.7434 22.8925 14.7644 22.8905 14.7852Z" fill="#DA840D"/>
<path d="M23.7912 14.5198C23.7912 14.5756 23.7055 14.6207 23.5973 14.6207C23.4891 14.6207 23.402 14.5756 23.402 14.5198C23.402 14.4641 23.4891 14.4189 23.5973 14.4189C23.7055 14.4189 23.7912 14.4641 23.7912 14.5198Z" fill="#DA840D"/>
<path d="M28.3637 14.5026C28.3637 15.5485 26.9307 16.5492 24.7602 17.1704C23.171 17.606 21.5233 17.822 19.8685 17.8114C18.1447 17.8114 16.7286 17.3827 15.2985 17.2805C12.913 17.1053 11.3452 15.4622 11.3452 14.3845C11.3452 12.6697 15.2297 11.5973 19.8685 11.5973C24.5073 11.5973 28.3637 12.7878 28.3637 14.5026Z" fill="#E3AC8A"/>
<path d="M28.257 14.2756C28.257 15.9903 24.4947 17.38 19.8545 17.38C15.2142 17.38 11.4534 15.9903 11.4534 14.2756C11.4534 12.5608 15.21 11.1711 19.8545 11.1711C24.499 11.1711 28.257 12.5608 28.257 14.2756Z" fill="#DA840D"/>
<path d="M25.9672 13.9821C25.9672 15.2536 23.1758 16.2848 19.7339 16.2848C16.2919 16.2848 13.5005 15.2536 13.5005 13.9821C13.5005 12.7106 16.2905 11.678 19.7339 11.678C23.1772 11.678 25.9672 12.7092 25.9672 13.9821Z" fill="#F0A508"/>
<path d="M15.5373 14.8317C15.5373 14.9644 15.3786 15.0799 15.1833 15.0799C14.988 15.0799 14.8293 14.9684 14.8293 14.8317C14.8293 14.695 14.988 14.5835 15.1833 14.5835C15.3786 14.5835 15.5373 14.6937 15.5373 14.8317Z" fill="#DA840D"/>
<path d="M14.8295 13.7873C14.8278 13.8239 14.8148 13.8593 14.7921 13.889C14.7693 13.9187 14.7378 13.9414 14.7015 13.9544C14.6652 13.9673 14.6257 13.9699 14.5878 13.9618C14.55 13.9537 14.5155 13.9353 14.4886 13.9088C14.4617 13.8824 14.4437 13.849 14.4367 13.813C14.4297 13.7769 14.4341 13.7397 14.4493 13.706C14.4645 13.6722 14.4899 13.6435 14.5223 13.6232C14.5546 13.603 14.5926 13.5922 14.6314 13.5922C14.658 13.5927 14.6842 13.5981 14.7085 13.6082C14.7328 13.6183 14.7548 13.6328 14.7732 13.6509C14.7916 13.6691 14.806 13.6904 14.8157 13.7138C14.8253 13.7372 14.83 13.7622 14.8295 13.7873Z" fill="#DA840D"/>
<path d="M17.2937 15.1328C17.2979 15.1971 17.2816 15.261 17.2469 15.3164C17.2122 15.3718 17.1607 15.416 17.0991 15.4434C17.0374 15.4708 16.9685 15.4801 16.9012 15.47C16.834 15.46 16.7714 15.431 16.7218 15.387C16.6721 15.343 16.6376 15.2859 16.6226 15.2231C16.6077 15.1603 16.6131 15.0947 16.6381 15.0349C16.6631 14.975 16.7065 14.9236 16.7628 14.8874C16.8191 14.8511 16.8856 14.8317 16.9537 14.8316C17.041 14.8291 17.1259 14.8594 17.1896 14.9158C17.2533 14.9723 17.2907 15.0503 17.2937 15.1328Z" fill="#DA840D"/>
<path d="M16.5489 13.9371C16.5489 14.0194 16.452 14.0871 16.3326 14.0871C16.2131 14.0871 16.1176 14.0194 16.1176 13.9371C16.1176 13.8548 16.2146 13.7871 16.334 13.7871C16.4534 13.7871 16.5489 13.8535 16.5489 13.9371Z" fill="#DA840D"/>
<path d="M18.7223 14.6482C18.7271 14.6896 18.7185 14.7315 18.6977 14.7682C18.6768 14.8049 18.6446 14.8347 18.6054 14.8537C18.5662 14.8728 18.5218 14.8802 18.4781 14.8748C18.4344 14.8695 18.3934 14.8518 18.3605 14.824C18.3277 14.7962 18.3046 14.7597 18.2942 14.7192C18.2838 14.6787 18.2867 14.6362 18.3025 14.5973C18.3182 14.5584 18.3461 14.5249 18.3825 14.5013C18.4188 14.4777 18.4618 14.4651 18.5059 14.4651C18.5603 14.4625 18.6134 14.4804 18.654 14.5146C18.6945 14.5489 18.719 14.5969 18.7223 14.6482Z" fill="#DA840D"/>
<path d="M18.8036 15.7525C18.8036 15.8374 18.6997 15.9064 18.5704 15.9064C18.4412 15.9064 18.3372 15.8374 18.3372 15.7525C18.3372 15.6675 18.4412 15.5999 18.5704 15.5999C18.6997 15.5999 18.8036 15.6689 18.8036 15.7525Z" fill="#DA840D"/>
<path d="M17.8793 14.1057C17.8771 14.1364 17.8654 14.1658 17.8458 14.1904C17.8261 14.2149 17.7993 14.2335 17.7687 14.2438C17.738 14.2542 17.7048 14.2558 17.6731 14.2486C17.6415 14.2413 17.6127 14.2255 17.5905 14.2031C17.5682 14.1806 17.5534 14.1525 17.5478 14.1222C17.5422 14.0919 17.5461 14.0607 17.559 14.0324C17.5719 14.0042 17.5933 13.9801 17.6205 13.9632C17.6477 13.9463 17.6795 13.9372 17.7121 13.9371C17.7348 13.9378 17.7571 13.9427 17.7778 13.9516C17.7985 13.9604 17.8171 13.973 17.8327 13.9887C17.8482 14.0043 17.8603 14.0227 17.8683 14.0428C17.8763 14.0629 17.88 14.0843 17.8793 14.1057Z" fill="#DA840D"/>
<path d="M20.293 14.4295C20.293 14.5144 20.1918 14.5834 20.0668 14.5834C19.9418 14.5834 19.8463 14.5144 19.8463 14.4295C19.8463 14.3445 19.9474 14.2755 20.0724 14.2755C20.1975 14.2755 20.293 14.3445 20.293 14.4295Z" fill="#DA840D"/>
<path d="M20.293 15.2244C20.293 15.2748 20.1918 15.316 20.0668 15.316C19.9418 15.316 19.8463 15.2748 19.8463 15.2244C19.8463 15.174 19.9474 15.1328 20.0724 15.1328C20.1975 15.1328 20.293 15.174 20.293 15.2244Z" fill="#DA840D"/>
<path d="M21.8228 14.7069C21.8228 14.7759 21.73 14.8317 21.6176 14.8317C21.5053 14.8317 21.4125 14.7759 21.4125 14.7069C21.4125 14.6379 21.5053 14.5835 21.6176 14.5835C21.73 14.5835 21.8228 14.6392 21.8228 14.7069Z" fill="#DA840D"/>
<path d="M21.5786 15.5933C21.5664 15.6374 21.5391 15.6764 21.501 15.7043C21.4629 15.7321 21.416 15.7472 21.3678 15.7472C21.3196 15.7472 21.2728 15.7321 21.2347 15.7043C21.1965 15.6764 21.1692 15.6374 21.1571 15.5933C21.1692 15.5493 21.1965 15.5103 21.2347 15.4824C21.2728 15.4546 21.3196 15.4395 21.3678 15.4395C21.416 15.4395 21.4629 15.4546 21.501 15.4824C21.5391 15.5103 21.5664 15.5493 21.5786 15.5933Z" fill="#DA840D"/>
<path d="M23.2811 15.3373C23.2875 15.3681 23.2866 15.3998 23.2785 15.4302C23.2704 15.4606 23.2552 15.4889 23.2341 15.5132C23.213 15.5374 23.1865 15.5569 23.1565 15.5703C23.1265 15.5837 23.0937 15.5906 23.0605 15.5906C23.0273 15.5906 22.9946 15.5837 22.9645 15.5703C22.9345 15.5569 22.908 15.5374 22.8869 15.5132C22.8659 15.4889 22.8507 15.4606 22.8426 15.4302C22.8345 15.3998 22.8336 15.3681 22.84 15.3373C22.8324 15.306 22.8325 15.2735 22.8401 15.2423C22.8476 15.211 22.8626 15.1817 22.8838 15.1567C22.905 15.1316 22.9318 15.1113 22.9624 15.0974C22.993 15.0835 23.0266 15.0763 23.0605 15.0763C23.0945 15.0763 23.128 15.0835 23.1586 15.0974C23.1892 15.1113 23.2161 15.1316 23.2373 15.1567C23.2585 15.1817 23.2734 15.211 23.281 15.2423C23.2886 15.2735 23.2886 15.306 23.2811 15.3373Z" fill="#DA840D"/>
<path d="M23.1575 14.1852C23.1575 14.2369 23.0872 14.2794 22.9987 14.2794C22.9102 14.2794 22.84 14.2369 22.84 14.1852C22.84 14.1334 22.9102 14.0909 22.9987 14.0909C23.0872 14.0909 23.1575 14.1294 23.1575 14.1852Z" fill="#DA840D"/>
<path d="M24.5076 14.4588C24.5076 14.6645 24.4107 14.8317 24.2913 14.8317C24.1719 14.8317 24.0764 14.6645 24.0764 14.4588C24.0764 14.2531 24.1719 14.0872 24.2913 14.0872C24.4107 14.0872 24.5076 14.2531 24.5076 14.4588Z" fill="#DA840D"/>
<path d="M25.0442 14.0818C25.0439 14.1012 25.0376 14.1201 25.026 14.136C25.0144 14.152 24.9981 14.1644 24.9791 14.1716C24.9601 14.1789 24.9392 14.1806 24.9191 14.1767C24.8991 14.1727 24.8807 14.1633 24.8663 14.1495C24.8519 14.1357 24.8421 14.1182 24.8382 14.0992C24.8343 14.0802 24.8364 14.0605 24.8443 14.0426C24.8523 14.0248 24.8656 14.0095 24.8826 13.9988C24.8997 13.988 24.9198 13.9823 24.9403 13.9823C24.968 13.9826 24.9944 13.9933 25.0139 14.0119C25.0333 14.0306 25.0442 14.0557 25.0442 14.0818Z" fill="#DA840D"/>
<path d="M21.5039 13.7631C21.5039 13.8587 21.3733 13.937 21.2103 13.937C21.0473 13.937 20.9181 13.8587 20.9181 13.7631C20.9181 13.6676 21.0487 13.5906 21.2103 13.5906C21.3719 13.5906 21.5039 13.6676 21.5039 13.7631Z" fill="#DA840D"/>
<path d="M15.9969 12.87C15.9969 12.9284 15.8943 12.9761 15.7665 12.9761C15.6386 12.9761 15.5375 12.9284 15.5375 12.87C15.5375 12.8116 15.64 12.7625 15.7665 12.7625C15.8929 12.7625 15.9969 12.8102 15.9969 12.87Z" fill="#DA840D"/>
<path d="M17.3455 12.6562C17.3455 12.716 17.2289 12.7624 17.0842 12.7624C16.9395 12.7624 16.8229 12.716 16.8229 12.6562C16.8229 12.5965 16.9409 12.55 17.0842 12.55C17.2275 12.55 17.3455 12.5925 17.3455 12.6562Z" fill="#DA840D"/>
<path d="M19.0425 12.9164C19.0425 13.0014 18.8851 13.0704 18.6898 13.0704C18.4946 13.0704 18.3372 13.0014 18.3372 12.9164C18.3372 12.8315 18.4946 12.7625 18.6898 12.7625C18.8851 12.7625 19.0425 12.8315 19.0425 12.9164Z" fill="#DA840D"/>
<path d="M20.2928 12.6562C20.293 12.6776 20.2866 12.6985 20.2743 12.7163C20.2619 12.7342 20.2443 12.7482 20.2235 12.7565C20.2027 12.7648 20.1798 12.7672 20.1576 12.7632C20.1355 12.7592 20.1151 12.749 20.099 12.7341C20.083 12.7191 20.072 12.6999 20.0675 12.679C20.063 12.6581 20.0651 12.6365 20.0737 12.6167C20.0823 12.597 20.0969 12.5801 20.1156 12.5683C20.1343 12.5564 20.1564 12.5501 20.179 12.5501C20.1938 12.5499 20.2086 12.5525 20.2224 12.5578C20.2362 12.563 20.2488 12.5708 20.2594 12.5807C20.2699 12.5906 20.2783 12.6023 20.2841 12.6153C20.2898 12.6283 20.2928 12.6422 20.2928 12.6562Z" fill="#DA840D"/>
<path d="M20.0668 13.4963C20.0668 13.5481 19.9587 13.5906 19.8266 13.5906C19.6945 13.5906 19.5864 13.5481 19.5864 13.4963C19.5864 13.4446 19.6945 13.4008 19.8266 13.4008C19.9587 13.4008 20.0668 13.4432 20.0668 13.4963Z" fill="#DA840D"/>
<path d="M21.9437 12.6099C21.9445 12.6406 21.9357 12.6707 21.9183 12.6965C21.9009 12.7224 21.8757 12.7427 21.846 12.755C21.8164 12.7673 21.7835 12.7709 21.7516 12.7654C21.7197 12.7599 21.6903 12.7456 21.667 12.7242C21.6438 12.7028 21.6279 12.6754 21.6213 12.6455C21.6146 12.6155 21.6176 12.5843 21.6298 12.556C21.642 12.5276 21.6629 12.5033 21.6897 12.4862C21.7166 12.4691 21.7483 12.46 21.7807 12.46C21.8233 12.4596 21.8643 12.4752 21.8949 12.5033C21.9254 12.5314 21.9429 12.5697 21.9437 12.6099Z" fill="#DA840D"/>
<path d="M22.8399 13.2363C22.8399 13.2615 22.7556 13.2827 22.6531 13.2827C22.5505 13.2827 22.4662 13.2615 22.4662 13.2363C22.4662 13.211 22.5505 13.1885 22.6531 13.1885C22.7556 13.1885 22.8399 13.2097 22.8399 13.2363Z" fill="#DA840D"/>
<path d="M23.423 12.923C23.4265 12.9369 23.4253 12.9515 23.4196 12.9648C23.414 12.9781 23.4041 12.9893 23.3913 12.9971C23.3785 13.0048 23.3636 13.0086 23.3484 13.0079C23.3333 13.0072 23.3188 13.0021 23.3068 12.9932C23.2949 12.9844 23.2862 12.9723 23.2819 12.9586C23.2776 12.9448 23.2779 12.9302 23.2828 12.9167C23.2877 12.9031 23.2969 12.8913 23.3092 12.883C23.3215 12.8746 23.3362 12.87 23.3514 12.8699C23.3682 12.8684 23.3851 12.873 23.3984 12.8829C23.4117 12.8928 23.4205 12.9072 23.423 12.923Z" fill="#DA840D"/>
<path d="M22.8401 13.2363C22.8368 13.2651 22.8248 13.2924 22.8055 13.3149C22.7862 13.3374 22.7605 13.3541 22.7313 13.363C22.7022 13.372 22.6709 13.3728 22.6413 13.3653C22.6117 13.3579 22.585 13.3425 22.5645 13.321C22.5439 13.2995 22.5304 13.2729 22.5255 13.2443C22.5206 13.2157 22.5246 13.1864 22.537 13.1599C22.5493 13.1334 22.5695 13.1109 22.5952 13.095C22.6208 13.0791 22.6507 13.0706 22.6813 13.0704C22.7033 13.0715 22.7248 13.0766 22.7447 13.0855C22.7646 13.0943 22.7824 13.1069 22.7972 13.1223C22.8119 13.1377 22.8233 13.1557 22.8307 13.1753C22.838 13.1948 22.8412 13.2156 22.8401 13.2363Z" fill="#DA840D"/>
<path d="M23.7405 12.9694C23.7405 13.0252 23.6534 13.0703 23.5466 13.0703C23.4398 13.0703 23.3513 13.0252 23.3513 12.9694C23.3513 12.9137 23.4384 12.8699 23.5466 12.8699C23.6548 12.8699 23.7405 12.9137 23.7405 12.9694Z" fill="#DA840D"/>
<path d="M21.13 21.2635C21.0982 21.1489 21.0241 21.0487 20.9211 20.9811C20.8181 20.9135 20.6929 20.8828 20.5681 20.8946C19.7252 20.9516 19.6549 22.2855 19.9514 22.8682C20.0396 22.9326 20.1506 22.9628 20.2616 22.9524C20.3726 22.942 20.4752 22.892 20.5484 22.8124C20.8182 22.5271 20.9038 22.1143 20.9994 21.7506C21.0462 21.5896 21.0898 21.4272 21.13 21.2635Z" fill="#EEBE30"/>
<path d="M27.3873 14.3326C27.0942 14.2255 26.8239 14.0695 26.5893 13.872C26.309 13.6152 26.0507 13.3378 25.8167 13.0425C25.4669 12.6363 24.9583 12.4771 24.4245 12.4173C23.8302 12.3497 23.2163 12.4744 22.6178 12.4452C22.2969 12.437 21.9823 12.3584 21.699 12.2156C21.4181 12.0643 21.1975 11.8174 20.9573 11.6038C20.4866 11.2056 19.8896 11.2056 19.2953 11.1153C18.9017 11.0497 18.5035 11.0111 18.104 10.9999C17.6952 10.9906 16.9801 10.9853 16.7062 11.3529C16.4027 11.4856 16.2959 11.8387 16.2271 12.136C16.1883 12.3813 16.1267 12.6229 16.0431 12.858C15.9182 13.1254 15.7252 13.3593 15.4811 13.5389C14.9459 13.9596 14.2842 14.1852 13.6787 14.4785C13.187 14.7161 12.5843 15.0532 12.3202 15.5297C12.1614 15.8151 12.1797 16.3035 12.4607 16.5145C12.8077 16.7667 13.0718 16.2916 13.1462 16.0513C13.2151 15.8337 13.2404 15.612 13.4272 15.4488C13.6789 15.2423 13.9781 15.0942 14.301 15.0161C14.5722 14.9444 14.863 14.9444 15.1299 14.8661C15.4503 14.7522 15.7517 14.5953 16.0248 14.4002C16.3451 14.1985 16.657 14.0021 17.0377 13.9145C17.3538 13.8455 17.8427 13.8561 18.0913 14.0844C18.2277 14.2404 18.3451 14.4105 18.4412 14.5914C18.5693 14.7601 18.739 14.8967 18.9357 14.9895C19.3318 15.2032 19.7856 15.2975 20.2 15.4912C20.3386 15.5593 20.4581 15.6576 20.5484 15.7779C20.5625 15.7978 20.5751 15.8177 20.5878 15.839C20.598 15.854 20.6073 15.8695 20.6159 15.8854C21.0682 16.6738 20.4993 17.5086 20.5147 18.3408C20.5147 18.7894 20.8589 19.5234 21.4405 19.1637C21.4799 19.1398 21.5164 19.1133 21.5529 19.0867C21.6189 18.5054 21.6723 17.9095 21.8859 17.3613C22.0868 16.8517 22.3607 16.3805 22.3312 15.8191C22.3144 15.5098 22.1584 15.2258 22.1205 14.9205C22.0671 14.4958 22.4717 14.3034 22.8356 14.2197C23.3547 14.0892 23.905 14.1247 24.4006 14.3206C25.3334 14.6829 26.0864 15.4302 27.1232 15.5536C27.5334 15.6027 28.1277 15.5417 28.2906 15.1183C28.4536 14.6949 27.6795 14.4507 27.3873 14.3326Z" fill="#EEBE30"/>
<path opacity="0.5" d="M21.6794 14.8862C21.6368 14.7431 21.5582 14.6119 21.4503 14.5038C21.3425 14.3956 21.2085 14.3137 21.0598 14.2651C20.8463 14.212 20.5091 14.346 20.5358 14.5902C20.5362 14.5951 20.5376 14.5999 20.5401 14.6042C20.5425 14.6086 20.5458 14.6124 20.5499 14.6155C20.4094 14.8982 20.8168 15.3853 20.9573 15.5923C21.0602 15.7249 21.125 15.8803 21.1455 16.0436C21.1694 16.2546 21.0977 16.463 21.1188 16.6713C21.1273 16.7643 21.2017 17.1611 21.3998 17.0018C21.626 16.8213 21.6499 16.4125 21.6962 16.1551C21.7897 15.7361 21.7839 15.3028 21.6794 14.8862Z" fill="white"/>
<path opacity="0.5" d="M25.765 13.5123C25.5353 13.1523 25.1691 12.8884 24.7408 12.7744C24.3081 12.6562 23.2699 12.5288 23.1604 13.1274C23.1595 13.1395 23.1626 13.1515 23.1695 13.1618C23.1763 13.1721 23.1864 13.18 23.1983 13.1845C23.226 13.2036 23.2506 13.2264 23.2714 13.2522C23.2772 13.263 23.2866 13.2718 23.298 13.2774C23.3094 13.2812 23.3218 13.2812 23.3332 13.2774C23.4134 13.3468 23.5096 13.3977 23.6141 13.426C23.8717 13.4799 24.1343 13.5093 24.3981 13.5136C24.7633 13.5468 24.967 13.6955 25.2213 13.9264C25.3618 14.0591 25.7467 14.3379 25.9448 14.1268C26.0965 13.9782 25.8479 13.6344 25.765 13.5123Z" fill="white"/>
<path opacity="0.5" d="M13.2798 15.1794C13.2182 15.1722 13.1559 15.1722 13.0944 15.1794C13.0946 15.1768 13.0942 15.1742 13.0932 15.1717C13.0922 15.1693 13.0907 15.1671 13.0886 15.1653C13.0866 15.1635 13.0842 15.1622 13.0815 15.1614C13.0788 15.1606 13.076 15.1604 13.0733 15.1609C12.9706 15.1763 12.8731 15.2141 12.7885 15.2712C12.7039 15.3283 12.6345 15.4032 12.5858 15.49C12.5521 15.5564 12.486 15.7886 12.6307 15.8006C12.7754 15.8125 12.8892 15.6679 12.9707 15.5922C13.0888 15.4771 13.2004 15.3561 13.3051 15.2299C13.3082 15.2252 13.31 15.2198 13.3103 15.2142C13.3107 15.2087 13.3095 15.2032 13.307 15.1981C13.3045 15.1931 13.3007 15.1888 13.2959 15.1855C13.2912 15.1822 13.2856 15.1802 13.2798 15.1794Z" fill="white"/>
<path opacity="0.5" d="M30.2253 22.8322C30.1008 22.8072 29.9722 22.806 29.8473 22.8287C29.7223 22.8515 29.6034 22.8977 29.4977 22.9647C29.392 23.0317 29.3015 23.118 29.2318 23.2186C29.162 23.3191 29.1143 23.4319 29.0916 23.5502C29.0907 23.5545 29.0909 23.5588 29.0921 23.563C29.0932 23.5672 29.0954 23.5711 29.0983 23.5744C29.1013 23.5777 29.105 23.5803 29.1092 23.5821C29.1133 23.5839 29.1179 23.5848 29.1225 23.5847C29.1231 23.5936 29.1231 23.6024 29.1225 23.6113C29.0733 23.8183 28.8134 23.9139 28.649 24.0015C28.5268 24.0652 28.4004 24.1223 28.2739 24.1807C27.8525 24.3824 27.1894 24.6425 27.0587 25.1774C27.0566 25.1832 27.0564 25.1895 27.0582 25.1954C27.06 25.2014 27.0636 25.2066 27.0686 25.2106C27.3214 25.3752 27.6122 25.1296 27.8103 24.9757C28.2101 24.6764 28.6789 24.4704 29.1787 24.3744C29.7322 24.2603 30.7647 24.2948 30.9642 23.5781C31.085 23.1335 30.5498 22.8866 30.2253 22.8322Z" fill="white"/>
<path d="M21.1709 12.5381C21.1217 12.4731 20.9967 12.3337 20.9124 12.3244C20.8646 12.3244 20.8464 12.2342 20.8014 12.2474C20.7565 12.2607 20.6876 12.2939 20.6258 12.2474C20.6051 12.2292 20.583 12.2123 20.5598 12.197C20.5469 12.1884 20.5321 12.1827 20.5166 12.1802C20.501 12.1776 20.4851 12.1784 20.4699 12.1824C20.4305 12.197 20.4151 12.2527 20.3673 12.2169C20.3196 12.1811 20.2058 12.2355 20.1777 12.2886C20.1682 12.3031 20.1606 12.3187 20.1552 12.335C19.988 12.3576 19.8194 12.6005 19.7562 12.7133C19.6971 12.8219 19.6695 12.9433 19.6761 13.0652C19.6828 13.1871 19.7235 13.3052 19.7941 13.4074C19.9473 13.6543 20.2591 13.6875 20.5345 13.6955C20.643 13.7073 20.7529 13.6983 20.8576 13.6689C20.9545 13.6288 21.0383 13.5651 21.1007 13.4844C21.3788 13.1606 21.4322 12.8792 21.1709 12.5381Z" fill="#48264C"/>
<path d="M21.1711 12.5382C21.1231 12.4743 21.0664 12.4167 21.0025 12.3669C21.0083 12.5863 20.9334 12.8007 20.7904 12.9736C20.6474 13.1464 20.4452 13.267 20.2186 13.3146C20.0587 13.3478 19.8926 13.3428 19.7353 13.3C19.7521 13.3384 19.7718 13.3757 19.7943 13.4115C19.9474 13.6583 20.2593 13.6915 20.5347 13.6995C20.6432 13.7114 20.7531 13.7023 20.8578 13.6729C20.9546 13.6328 21.0385 13.5692 21.1008 13.4885C21.379 13.1606 21.4324 12.8793 21.1711 12.5382Z" fill="#300D33"/>
<path d="M21.418 25.7493C21.3729 25.6397 21.3 25.5422 21.2059 25.4652C21.1904 25.3829 21.1708 25.302 21.1525 25.2197C21.1511 25.2117 21.1477 25.204 21.1427 25.1974C21.1377 25.1907 21.1312 25.1852 21.1236 25.1813C21.1161 25.1773 21.1077 25.175 21.0991 25.1746C21.0904 25.1741 21.0818 25.1755 21.0738 25.1786C20.9474 25.2343 20.9193 25.1626 20.8322 25.0976C20.8183 25.0895 20.8022 25.0852 20.7858 25.0852C20.7695 25.0852 20.7534 25.0895 20.7395 25.0976C20.599 25.1878 20.4501 24.9742 20.3405 25.0976C20.2764 25.1906 20.2055 25.2793 20.1284 25.363C20.0372 25.4175 19.9532 25.4821 19.8783 25.5555C19.8245 25.6007 19.7772 25.6525 19.7378 25.7095C19.7219 25.7335 19.7074 25.7583 19.6943 25.7838C19.683 25.8077 19.6732 25.8329 19.6648 25.8568C19.6642 25.8594 19.6642 25.8621 19.6648 25.8647C19.6079 26.0381 19.6114 26.2242 19.6746 26.3956C19.7814 26.7022 20.1185 26.8111 20.4206 26.8814C20.5374 26.9194 20.6612 26.9347 20.7844 26.9265C20.9024 26.9037 21.0118 26.852 21.1019 26.7766C21.4897 26.4846 21.6189 26.1859 21.418 25.7493Z" fill="#48264C"/>
<path d="M21.4183 25.7493C21.3823 25.6681 21.3351 25.5917 21.2778 25.5223C21.2282 25.7662 21.0903 25.9863 20.8878 26.1446C20.6853 26.303 20.4308 26.3899 20.1679 26.3904C19.982 26.3907 19.7989 26.3469 19.6355 26.2629C19.6444 26.3079 19.6566 26.3523 19.672 26.3957C19.7788 26.7023 20.116 26.8111 20.418 26.8814C20.5348 26.9194 20.6586 26.9347 20.7819 26.9266C20.8998 26.9037 21.0093 26.852 21.0994 26.7766C21.4899 26.4846 21.6191 26.186 21.4183 25.7493Z" fill="#300D33"/>
<path d="M18.8781 12.3072C18.8346 12.2262 18.7222 12.0497 18.6295 12.0244C18.5817 12.0125 18.5817 11.9289 18.5353 11.9209C18.5213 11.8015 18.4637 11.6767 18.3162 11.7019C18.2825 11.7019 18.1926 11.7909 18.1574 11.7404C18.1402 11.7106 18.1123 11.6876 18.0788 11.6754C18.0099 11.6502 17.9495 11.7072 17.9102 11.751C17.8441 11.824 17.7599 11.7165 17.6742 11.751C17.6331 11.7739 17.5997 11.8072 17.5776 11.847C17.5555 11.8869 17.5457 11.9318 17.5491 11.9767C17.5491 11.9846 17.5491 11.9899 17.5491 11.9979C17.4431 12.0739 17.3486 12.1632 17.2682 12.2634C17.1812 12.3739 17.1268 12.5042 17.1105 12.6411C17.0942 12.7779 17.1166 12.9164 17.1754 13.0424C17.2991 13.3437 17.6419 13.4406 17.9467 13.4924C18.0617 13.523 18.1818 13.5329 18.3007 13.5216C18.4166 13.4927 18.5226 13.436 18.6084 13.357C18.9891 13.0371 19.1015 12.7332 18.8781 12.3072Z" fill="#48264C"/>
<path d="M18.8782 12.3071C18.836 12.2279 18.7836 12.1539 18.7223 12.0868C18.6871 12.3339 18.5621 12.5618 18.3686 12.7313C18.175 12.9008 17.9251 13.0014 17.6616 13.0159C17.4766 13.0249 17.2922 12.9902 17.1249 12.915C17.1361 12.9602 17.1506 13.0045 17.1685 13.0477C17.2921 13.349 17.6349 13.4459 17.9398 13.4976C18.0574 13.5273 18.1799 13.5354 18.3008 13.5215C18.4167 13.4927 18.5227 13.436 18.6085 13.357C18.9892 13.0371 19.1016 12.7332 18.8782 12.3071Z" fill="#300D33"/>
<path d="M24.3417 13.3797C24.2982 13.2775 24.1788 13.0532 24.072 13.016C24.0116 12.9961 24.0144 12.8753 23.9526 12.8833C23.8683 12.8912 23.7882 12.9125 23.7222 12.8368C23.7013 12.8067 23.6783 12.7778 23.6533 12.7505C23.6397 12.735 23.6225 12.7227 23.603 12.7144C23.5835 12.7061 23.5623 12.7021 23.5409 12.7028C23.4848 12.7121 23.4468 12.7837 23.4005 12.72C23.3344 12.6351 23.1841 12.6988 23.1307 12.7625C23.1142 12.7796 23.0996 12.7983 23.0872 12.8182C22.8624 12.801 22.566 13.0837 22.4494 13.2164C22.3382 13.348 22.2644 13.5042 22.2349 13.6702C22.2054 13.8363 22.2212 14.0067 22.2808 14.1654C22.4016 14.5436 22.7992 14.6803 23.1532 14.7719C23.2882 14.8176 23.4315 14.837 23.5747 14.829C23.7148 14.8022 23.8444 14.7398 23.9498 14.6485C24.4218 14.2822 24.5791 13.9198 24.3417 13.3797Z" fill="#48264C"/>
<path d="M24.3416 13.3797C24.2991 13.2801 24.2434 13.186 24.1758 13.0996C24.121 13.393 23.9593 13.659 23.7186 13.8515C23.4779 14.044 23.1734 14.1508 22.8581 14.1534C22.6395 14.1521 22.4251 14.0972 22.2357 13.9942C22.2451 14.0503 22.2587 14.1058 22.2765 14.1601C22.3973 14.5383 22.7949 14.675 23.1489 14.7666C23.2839 14.8123 23.4272 14.8317 23.5703 14.8237C23.7104 14.7969 23.8401 14.7345 23.9454 14.6432C24.4217 14.2822 24.579 13.9198 24.3416 13.3797Z" fill="#300D33"/>
<path d="M24.1353 24.6145C24.0805 24.4964 23.9358 24.2389 23.8079 24.1978C23.7349 24.1752 23.7349 24.0345 23.6675 24.0425C23.5677 24.0531 23.4722 24.0783 23.3865 23.9921C23.3612 23.9569 23.333 23.9236 23.3022 23.8925C23.2845 23.8743 23.2627 23.86 23.2384 23.8508C23.214 23.8416 23.1878 23.8377 23.1617 23.8394C23.0943 23.85 23.0493 23.9323 22.9889 23.8607C22.9074 23.7624 22.729 23.8381 22.6644 23.9111C22.6451 23.9318 22.6277 23.954 22.6124 23.9775C22.3427 23.9589 21.9901 24.2907 21.851 24.4393C21.7197 24.59 21.6329 24.7707 21.5993 24.9632C21.5658 25.1557 21.5867 25.3532 21.6599 25.5356C21.8102 25.971 22.2893 26.1236 22.715 26.2245C22.8811 26.278 23.0569 26.2993 23.2319 26.2869C23.3985 26.2552 23.5531 26.1824 23.6801 26.0758C24.2364 25.6538 24.4191 25.2317 24.1353 24.6145Z" fill="#48264C"/>
<path d="M24.1353 24.6148C24.0833 24.4993 24.0152 24.3908 23.933 24.2922C23.8624 24.6374 23.6673 24.9487 23.3809 25.1731C23.0944 25.3974 22.7345 25.521 22.3624 25.5226C22.1004 25.523 21.8425 25.4614 21.6122 25.3434C21.6234 25.4088 21.6403 25.4731 21.6628 25.5359C21.8131 25.9712 22.2921 26.1238 22.7178 26.2247C22.8839 26.2783 23.0598 26.2995 23.2348 26.2871C23.4013 26.2554 23.556 26.1826 23.6829 26.076C24.2365 25.654 24.4191 25.2319 24.1353 24.6148Z" fill="#300D33"/>
<path d="M17.7823 23.659C17.7823 23.659 18.1574 23.5263 18.3752 23.9948C18.5929 24.4633 18.6716 24.9239 18.8894 25.1429C18.9492 25.1921 18.9964 25.2535 19.0273 25.3225C19.0582 25.3915 19.0721 25.4662 19.0678 25.5411C19.0678 25.5411 18.4539 25.2239 18.2965 25.0553C18.063 24.8263 17.8632 24.5687 17.7023 24.2895C17.5252 23.9524 17.4002 23.6365 17.4002 23.6365L17.7823 23.659Z" fill="#5F825C"/>
<path d="M17.635 23.5767C17.635 23.5767 17.7291 23.2091 17.2136 23.0591C16.698 22.9091 16.2021 22.8865 15.9492 22.7074C15.89 22.6563 15.8191 22.6189 15.7422 22.598C15.6652 22.577 15.5841 22.5731 15.5052 22.5866C15.5052 22.5866 15.9084 23.1268 16.1037 23.2502C16.3717 23.4423 16.6656 23.5998 16.9775 23.7187C17.3512 23.8514 17.6982 23.9284 17.6982 23.9284L17.635 23.5767Z" fill="#5F825C"/>
<path d="M17.5618 23.7561C17.5618 23.7561 18.2544 24.2233 18.2348 24.8591C18.2151 25.4948 18.2151 25.812 17.8133 26.1664C17.4115 26.5208 16.6473 26.5407 16.2511 26.7079C15.8549 26.8752 15.3815 27.0265 15.2677 27.1194C15.1539 27.2123 14.9123 27.3065 14.5568 27.1194C14.2014 26.9322 13.9949 26.9521 14.0623 26.4279C14.1631 25.7532 14.3354 25.0898 14.5765 24.4476C14.7732 23.9619 14.9474 23.5876 15.5037 23.4389C16.037 23.3094 16.6005 23.3486 17.1081 23.5504C17.4579 23.719 17.5618 23.7561 17.5618 23.7561Z" fill="#ED6366"/>
<path d="M14.1451 25.9222C14.4595 26.0338 14.7927 26.0909 15.1285 26.0908C16.5053 26.0908 17.6208 25.1763 17.6208 24.0495C17.6211 23.9566 17.6136 23.8638 17.5983 23.7721C17.7472 23.8849 18.2459 24.303 18.2291 24.8445C18.2094 25.4789 18.2094 25.7975 17.8076 26.1518C17.4058 26.5062 16.6416 26.5261 16.2454 26.6933C15.8492 26.8606 15.3758 27.0119 15.262 27.1048C15.1482 27.1977 14.9066 27.2919 14.5511 27.1048C14.1957 26.9177 13.9892 26.9362 14.0566 26.4133C14.0777 26.2753 14.1072 26.1067 14.1451 25.9222Z" fill="#C73A54"/>
<path d="M17.8696 25.1496C17.9638 25.1615 17.9862 25.0089 17.9933 24.8974C18.0004 24.8695 18.0004 24.8404 17.9933 24.8125V24.8032C17.9933 24.7926 17.9778 24.7899 17.9764 24.8032C17.9732 24.8034 17.9702 24.8044 17.9675 24.806C17.9648 24.8076 17.9625 24.8098 17.961 24.8125C17.9441 24.8483 17.739 25.1337 17.8696 25.1496Z" fill="#E7D8C8"/>
<path d="M17.6731 24.5735C17.6744 24.5752 17.6761 24.5765 17.678 24.5774C17.68 24.5784 17.6821 24.5788 17.6843 24.5788C17.6865 24.5788 17.6886 24.5784 17.6906 24.5774C17.6925 24.5765 17.6942 24.5752 17.6955 24.5735C17.7231 24.5523 17.7455 24.5256 17.761 24.4953C17.7765 24.4651 17.7849 24.432 17.7854 24.3983C17.793 24.3801 17.7973 24.3608 17.7981 24.3413C17.7984 24.3385 17.7979 24.3357 17.7966 24.3331C17.7954 24.3306 17.7935 24.3284 17.791 24.3268C17.7886 24.3252 17.7858 24.3242 17.7828 24.3239C17.7799 24.3237 17.7769 24.3242 17.7742 24.3253C17.7742 24.3253 17.7574 24.3253 17.7588 24.3253C17.7185 24.3528 17.6885 24.3916 17.6731 24.4362C17.6577 24.4809 17.6577 24.5289 17.6731 24.5735Z" fill="#E7D8C8"/>
<path d="M17.267 24.272C17.3484 24.333 17.3864 24.1937 17.4074 24.1021C17.4195 24.0744 17.428 24.0454 17.4327 24.0158C17.4331 24.0125 17.4323 24.0091 17.4304 24.0062C17.4286 24.0033 17.4259 24.001 17.4226 23.9997C17.4193 23.9984 17.4157 23.9981 17.4122 23.9988C17.4087 23.9996 17.4056 24.0013 17.4032 24.0039C17.3639 24.0477 17.1869 24.2162 17.267 24.272Z" fill="#E7D8C8"/>
<path d="M17.2148 24.8642C17.216 24.8656 17.2175 24.8667 17.2192 24.8675C17.2209 24.8682 17.2227 24.8686 17.2246 24.8686C17.2265 24.8686 17.2284 24.8682 17.2301 24.8675C17.2318 24.8667 17.2333 24.8656 17.2345 24.8642C17.2613 24.8395 17.2849 24.8119 17.3047 24.7819C17.3536 24.7301 17.3841 24.6651 17.3918 24.5961C17.3918 24.5855 17.3806 24.5722 17.3679 24.5775L17.3426 24.5934C17.2527 24.6558 17.146 24.7766 17.2148 24.8642Z" fill="#E7D8C8"/>
<path d="M17.3555 25.4577C17.4074 25.4882 17.4383 25.4178 17.4552 25.3448C17.4782 25.3076 17.4917 25.2658 17.4945 25.2227C17.4948 25.2199 17.4943 25.2171 17.4931 25.2146C17.4918 25.212 17.4899 25.2099 17.4875 25.2082C17.4851 25.2066 17.4822 25.2056 17.4793 25.2054C17.4763 25.2051 17.4733 25.2056 17.4707 25.2068H17.4538C17.4538 25.2068 17.4538 25.2068 17.4538 25.2161C17.4168 25.252 17.3877 25.2944 17.3681 25.3409C17.3541 25.3714 17.3175 25.4377 17.3555 25.4577Z" fill="#E7D8C8"/>
<path d="M17.6209 25.7866C17.6771 25.8211 17.7361 25.772 17.7614 25.7242C17.7752 25.6917 17.7856 25.6579 17.7923 25.6233C17.809 25.5966 17.8191 25.5667 17.8218 25.5357C17.8251 25.5323 17.827 25.5278 17.827 25.5231C17.827 25.5185 17.8251 25.5139 17.8218 25.5105V25.5012C17.8218 25.4906 17.8035 25.48 17.7923 25.4893C17.7459 25.5211 17.5352 25.7322 17.6209 25.7866Z" fill="#E7D8C8"/>
<path d="M17.0758 25.9697C17.1236 26.032 17.1699 25.9697 17.2022 25.9086C17.2221 25.892 17.2378 25.8715 17.2485 25.8486C17.2592 25.8257 17.2645 25.8009 17.2641 25.7759C17.264 25.7735 17.2634 25.7712 17.2622 25.7692C17.261 25.7671 17.2593 25.7654 17.2572 25.764C17.2551 25.7627 17.2527 25.7619 17.2503 25.7617C17.2478 25.7614 17.2453 25.7617 17.243 25.7626C17.177 25.7865 17.0168 25.8927 17.0758 25.9697Z" fill="#E7D8C8"/>
<path d="M16.8117 25.2013C16.8524 25.1548 16.8997 25.1137 16.9522 25.0792C16.955 25.0771 16.9585 25.0758 16.9622 25.0755C16.9658 25.0752 16.9695 25.076 16.9727 25.0777C16.9758 25.0794 16.9784 25.082 16.98 25.0851C16.9816 25.0882 16.9822 25.0917 16.9817 25.0952C16.9802 25.1149 16.975 25.1342 16.9662 25.1522V25.1721C16.9591 25.2276 16.9346 25.2798 16.896 25.3221C16.8665 25.354 16.7976 25.3699 16.7695 25.3221C16.7415 25.2743 16.7864 25.2239 16.8117 25.2013Z" fill="#E7D8C8"/>
<path d="M16.7331 24.733C16.7444 24.7741 16.8006 24.7701 16.8287 24.7489C16.8474 24.7328 16.8627 24.7134 16.8736 24.6918C16.8997 24.6616 16.9154 24.6245 16.9186 24.5856C16.9187 24.5827 16.9181 24.5797 16.9168 24.5771C16.9154 24.5744 16.9135 24.572 16.911 24.5702C16.9085 24.5684 16.9056 24.5671 16.9025 24.5666C16.8995 24.5661 16.8963 24.5662 16.8933 24.5671C16.8533 24.5819 16.8177 24.6056 16.7893 24.6361C16.764 24.6586 16.7219 24.6958 16.7331 24.733Z" fill="#E7D8C8"/>
<path d="M16.9748 23.7415C16.9795 23.7402 16.9845 23.7405 16.9889 23.7425C16.9934 23.7445 16.9968 23.7479 16.9987 23.7521C17.0093 23.7917 17.0075 23.8334 16.9935 23.872C16.9796 23.9106 16.954 23.9446 16.9201 23.9698C16.9174 23.9717 16.9144 23.9729 16.9111 23.9734C16.9079 23.9739 16.9046 23.9737 16.9014 23.9728C16.8983 23.9719 16.8954 23.9703 16.893 23.9682C16.8907 23.9661 16.8889 23.9634 16.8877 23.9605C16.8835 23.9512 16.8806 23.9414 16.8793 23.9313C16.8665 23.8941 16.8692 23.8537 16.887 23.8184C16.9048 23.7831 16.9362 23.7556 16.9748 23.7415Z" fill="#E7D8C8"/>
<path d="M16.4899 24.4714C16.5321 24.5045 16.5672 24.4714 16.5925 24.4183C16.6246 24.388 16.6482 24.3507 16.6612 24.3097C16.6742 24.2687 16.6762 24.2253 16.667 24.1833C16.6651 24.1796 16.662 24.1765 16.6583 24.1744C16.6546 24.1723 16.6502 24.1712 16.6459 24.1714C16.5827 24.1794 16.5293 24.263 16.5054 24.3041C16.4815 24.3453 16.4366 24.4315 16.4899 24.4714Z" fill="#E7D8C8"/>
<path d="M16.4745 23.7093C16.4827 23.6998 16.4916 23.691 16.5012 23.6828C16.5044 23.6807 16.5081 23.6794 16.5119 23.6791C16.5157 23.6787 16.5196 23.6793 16.5231 23.6808C16.5267 23.6822 16.5297 23.6845 16.532 23.6874C16.5344 23.6903 16.5358 23.6938 16.5364 23.6974C16.5403 23.7281 16.5368 23.7592 16.5261 23.7884C16.5154 23.8176 16.4977 23.8441 16.4745 23.8659C16.4748 23.8695 16.4748 23.873 16.4745 23.8765C16.4703 23.8847 16.4638 23.8917 16.4559 23.8968C16.4479 23.9019 16.4387 23.905 16.4291 23.9058C16.4195 23.9066 16.4099 23.9051 16.4011 23.9014C16.3923 23.8976 16.3847 23.8918 16.379 23.8845C16.3186 23.8261 16.4043 23.7412 16.4745 23.7093Z" fill="#E7D8C8"/>
<path d="M15.997 24.1953C16.025 24.1402 16.0695 24.0941 16.1248 24.0625C16.128 24.0603 16.1318 24.0591 16.1358 24.059C16.1397 24.0588 16.1436 24.0599 16.147 24.0619C16.1503 24.0639 16.1529 24.0668 16.1545 24.0702C16.156 24.0737 16.1565 24.0775 16.1557 24.0811C16.154 24.1058 16.1478 24.1301 16.1375 24.1528C16.1375 24.1608 16.1375 24.1687 16.1375 24.1754C16.1344 24.2047 16.1278 24.2337 16.1178 24.2616C16.1088 24.2887 16.0892 24.3115 16.063 24.3253C16.0611 24.3287 16.0582 24.3314 16.0547 24.3333C16.0513 24.3353 16.0473 24.3363 16.0433 24.3363C16.0393 24.3363 16.0354 24.3353 16.0319 24.3333C16.0285 24.3314 16.0256 24.3287 16.0237 24.3253C15.9689 24.2975 15.9857 24.2284 15.997 24.1953Z" fill="#E7D8C8"/>
<path d="M15.8971 23.8741C15.8994 23.8756 15.9021 23.8763 15.9048 23.8763C15.9075 23.8763 15.9102 23.8756 15.9125 23.8741C15.9313 23.8572 15.9486 23.839 15.9645 23.8197C16 23.7917 16.0299 23.758 16.053 23.7202C16.0626 23.7036 16.0665 23.6846 16.0643 23.6658V23.6565C16.0643 23.6472 16.0643 23.6405 16.0502 23.6445C16.045 23.6385 16.0383 23.6338 16.0307 23.6308C16.0231 23.6278 16.0149 23.6266 16.0067 23.6273C15.9125 23.6286 15.8142 23.8091 15.8971 23.8741Z" fill="#E7D8C8"/>
<path d="M15.3295 24.0402C15.3576 24.0906 15.4236 24.0402 15.4475 24.0123C15.4858 23.9705 15.5123 23.9203 15.5248 23.8663C15.5346 23.8482 15.5399 23.8282 15.5402 23.8079C15.5406 23.805 15.5404 23.802 15.5394 23.7991C15.5384 23.7963 15.5368 23.7937 15.5347 23.7915C15.5325 23.7894 15.5299 23.7877 15.5269 23.7866C15.524 23.7856 15.5209 23.7851 15.5177 23.7853C15.4849 23.7897 15.4538 23.8017 15.427 23.8202C15.4003 23.8388 15.3789 23.8633 15.3646 23.8915C15.3407 23.93 15.3042 23.995 15.3295 24.0402Z" fill="#E7D8C8"/>
<path d="M15.4687 24.5737C15.4855 24.6148 15.5305 24.5949 15.5474 24.5737C15.5642 24.5524 15.5628 24.5458 15.5698 24.5325C15.5976 24.5038 15.6174 24.469 15.6272 24.4311C15.637 24.3933 15.6366 24.3538 15.626 24.3162C15.6251 24.3137 15.6235 24.3114 15.6214 24.3095C15.6193 24.3077 15.6168 24.3063 15.6141 24.3055C15.6114 24.3048 15.6085 24.3046 15.6057 24.3051C15.6029 24.3055 15.6002 24.3066 15.5979 24.3082C15.5586 24.342 15.5278 24.3837 15.508 24.4303C15.4912 24.4649 15.449 24.5259 15.4687 24.5737Z" fill="#E7D8C8"/>
<path d="M16.0402 24.8032C16.0552 24.7365 16.0945 24.6769 16.1512 24.6347C16.1537 24.6322 16.1568 24.6304 16.1603 24.6294C16.1639 24.6285 16.1676 24.6286 16.1711 24.6295C16.1746 24.6305 16.1777 24.6324 16.1801 24.6349C16.1826 24.6375 16.1842 24.6406 16.1849 24.644C16.1873 24.6687 16.1839 24.6936 16.1751 24.717C16.1716 24.7463 16.1596 24.7742 16.1406 24.7976C16.1215 24.821 16.096 24.839 16.0669 24.8497H16.0528C16.0494 24.8501 16.0459 24.8498 16.0426 24.8488C16.0394 24.8477 16.0364 24.846 16.0339 24.8437C16.0315 24.8414 16.0296 24.8385 16.0285 24.8355C16.0274 24.8324 16.0271 24.8291 16.0275 24.8258L16.0402 24.8032Z" fill="#E7D8C8"/>
<path d="M16.4505 24.9597C16.4535 24.9579 16.4568 24.9568 16.4603 24.9565C16.4638 24.9562 16.4673 24.9568 16.4705 24.9581C16.4737 24.9594 16.4765 24.9614 16.4787 24.964C16.4808 24.9666 16.4823 24.9697 16.4828 24.9729C16.4828 24.9729 16.4828 24.9729 16.4828 24.9822C16.4828 25.0566 16.4281 25.176 16.3424 25.1827C16.34 25.183 16.3377 25.1829 16.3354 25.1824C16.3331 25.1818 16.3309 25.1809 16.3291 25.1795C16.3272 25.1781 16.3257 25.1764 16.3246 25.1744C16.3235 25.1724 16.3229 25.1703 16.3227 25.1681C16.3251 25.1263 16.3379 25.0856 16.3602 25.0494C16.3824 25.0132 16.4133 24.9824 16.4505 24.9597Z" fill="#E7D8C8"/>
<path d="M15.9686 25.201C15.9862 25.1845 16.0061 25.1702 16.0276 25.1586C16.0389 25.1586 16.0585 25.1586 16.0585 25.1705C16.0557 25.2236 16.0328 25.274 15.9939 25.3125C15.9778 25.337 15.9543 25.3565 15.9265 25.3683C15.9227 25.3696 15.9186 25.3695 15.9149 25.368C15.9113 25.3665 15.9084 25.3638 15.9068 25.3603C15.9068 25.3603 15.9068 25.351 15.9068 25.3457C15.906 25.3422 15.906 25.3386 15.9068 25.3351C15.9021 25.3095 15.9054 25.2831 15.9164 25.2593C15.9274 25.2355 15.9456 25.2152 15.9686 25.201Z" fill="#E7D8C8"/>
<path d="M15.5994 24.8284C15.6052 24.828 15.6108 24.8298 15.6153 24.8332C15.6197 24.8367 15.6226 24.8416 15.6233 24.847C15.6254 24.8584 15.6254 24.8701 15.6233 24.8815C15.626 24.9009 15.6241 24.9205 15.6178 24.9391C15.6114 24.9577 15.6009 24.9747 15.5868 24.989C15.568 25.0214 15.5391 25.0473 15.5039 25.0633C15.4955 25.0633 15.4856 25.0633 15.4814 25.054C15.4505 24.985 15.4983 24.8271 15.5994 24.8284Z" fill="#E7D8C8"/>
<path d="M14.9659 24.7449C14.9668 24.7476 14.9683 24.7502 14.9704 24.7523C14.9724 24.7545 14.9748 24.7563 14.9776 24.7575C14.9804 24.7588 14.9834 24.7595 14.9864 24.7596C14.9895 24.7597 14.9925 24.7592 14.9954 24.7581C15.0389 24.7389 15.0741 24.7061 15.0951 24.6653C15.1161 24.6245 15.1215 24.578 15.1106 24.5338C15.1093 24.5311 15.1073 24.5286 15.1049 24.5266C15.1025 24.5246 15.0997 24.5232 15.0966 24.5223C15.0936 24.5214 15.0904 24.5212 15.0872 24.5215C15.084 24.5219 15.081 24.523 15.0783 24.5245C15.0465 24.5457 15.0197 24.5728 14.9996 24.6042C14.9827 24.6235 14.9709 24.6463 14.9651 24.6707C14.9592 24.6952 14.9595 24.7206 14.9659 24.7449Z" fill="#E7D8C8"/>
<path d="M15.0273 25.2572C15.0271 25.2299 15.0349 25.2031 15.0498 25.1797C15.0646 25.1562 15.086 25.1372 15.1116 25.1245C15.1148 25.1232 15.1182 25.1226 15.1216 25.1229C15.125 25.1231 15.1283 25.1241 15.1312 25.1258C15.1341 25.1275 15.1365 25.1298 15.1382 25.1326C15.14 25.1354 15.141 25.1385 15.1411 25.1417C15.145 25.1681 15.1421 25.195 15.1328 25.2201C15.1236 25.2453 15.1081 25.268 15.0878 25.2864C15.0817 25.2943 15.0741 25.3011 15.0653 25.3063C15.0626 25.3077 15.0597 25.3085 15.0567 25.3088C15.0537 25.3091 15.0506 25.3087 15.0477 25.3079C15.0448 25.307 15.0422 25.3056 15.0399 25.3037C15.0376 25.3019 15.0357 25.2996 15.0344 25.297C15.0337 25.2955 15.0334 25.294 15.0334 25.2924C15.0334 25.2908 15.0337 25.2892 15.0344 25.2877C15.0306 25.2779 15.0282 25.2676 15.0273 25.2572Z" fill="#E7D8C8"/>
<path d="M16.3144 25.4496C16.3169 25.4495 16.3194 25.4498 16.3218 25.4505C16.3242 25.4513 16.3264 25.4526 16.3282 25.4542C16.3301 25.4558 16.3315 25.4578 16.3325 25.46C16.3335 25.4622 16.3341 25.4645 16.3341 25.4669C16.3339 25.5023 16.3231 25.5369 16.303 25.5667C16.2828 25.5966 16.2542 25.6204 16.2203 25.6354C16.2157 25.6368 16.2108 25.6368 16.2062 25.6354H16.1865C16.1843 25.6358 16.182 25.6358 16.1798 25.6352C16.1775 25.6346 16.1755 25.6336 16.1737 25.6322C16.172 25.6308 16.1706 25.6291 16.1697 25.6271C16.1687 25.6252 16.1682 25.623 16.1683 25.6209C16.176 25.5832 16.1933 25.5479 16.2188 25.5181C16.2443 25.4882 16.2771 25.4647 16.3144 25.4496Z" fill="#E7D8C8"/>
<path d="M16.4632 25.8197C16.4628 25.8233 16.4633 25.8269 16.4647 25.8302C16.4662 25.8335 16.4685 25.8364 16.4714 25.8387C16.4744 25.8409 16.4778 25.8424 16.4816 25.8431C16.4853 25.8437 16.4891 25.8434 16.4927 25.8423H16.5026C16.5046 25.8436 16.5071 25.8443 16.5096 25.8443C16.5121 25.8443 16.5145 25.8436 16.5166 25.8423L16.5264 25.833C16.5537 25.815 16.5769 25.7919 16.5945 25.7652C16.6121 25.7386 16.6238 25.7088 16.629 25.6777C16.6295 25.6747 16.6292 25.6715 16.628 25.6687C16.6268 25.6658 16.6248 25.6632 16.6222 25.6613C16.6196 25.6594 16.6165 25.6582 16.6133 25.6579C16.61 25.6575 16.6067 25.6579 16.6037 25.6591C16.5588 25.6789 16.5215 25.7114 16.4969 25.752C16.481 25.7722 16.4695 25.7952 16.4632 25.8197Z" fill="#E7D8C8"/>
<path d="M16.3803 26.2872C16.3981 26.2517 16.424 26.2205 16.4562 26.1956C16.4698 26.1814 16.4849 26.1686 16.5011 26.1571C16.5057 26.1557 16.5106 26.1557 16.5152 26.1571C16.518 26.1549 16.5215 26.1536 16.5252 26.1534C16.5288 26.1531 16.5325 26.1539 16.5357 26.1556C16.5389 26.1573 16.5414 26.1599 16.543 26.163C16.5446 26.1661 16.5452 26.1696 16.5447 26.173C16.5393 26.2045 16.5243 26.2338 16.5016 26.2573C16.4789 26.2809 16.4495 26.2977 16.4168 26.3058H16.4056C16.4027 26.3076 16.3992 26.3086 16.3956 26.3085C16.3921 26.3084 16.3886 26.3072 16.3858 26.3051C16.383 26.3031 16.381 26.3002 16.38 26.297C16.379 26.2938 16.3791 26.2903 16.3803 26.2872Z" fill="#E7D8C8"/>
<path d="M15.9251 26.0586C15.9264 26.0394 15.9321 26.0206 15.9418 26.0037C15.9515 25.9867 15.965 25.9719 15.9813 25.9604C16.003 25.9393 16.0301 25.9237 16.06 25.9153C16.0726 25.9153 16.0895 25.9153 16.0895 25.9312C16.0873 25.9689 16.0725 26.0051 16.0473 26.0344C16.022 26.0637 15.9877 26.0847 15.949 26.0945C15.9461 26.0948 15.943 26.0947 15.9402 26.0939C15.9373 26.0932 15.9346 26.0919 15.9322 26.0902C15.9299 26.0885 15.9279 26.0863 15.9265 26.0838C15.925 26.0814 15.9241 26.0787 15.9237 26.0759C15.9223 26.0748 15.9213 26.0734 15.9206 26.0719C15.9199 26.0703 15.9196 26.0686 15.9197 26.0669C15.9198 26.0652 15.9204 26.0636 15.9214 26.0622C15.9223 26.0607 15.9236 26.0595 15.9251 26.0586Z" fill="#E7D8C8"/>
<path d="M15.6008 25.5147H15.612C15.6165 25.513 15.6214 25.5124 15.6262 25.5128C15.6311 25.5133 15.6357 25.5148 15.6398 25.5172C15.6439 25.5197 15.6474 25.523 15.6499 25.527C15.6523 25.5309 15.6538 25.5354 15.6541 25.5399C15.6457 25.6076 15.5853 25.6952 15.5137 25.6992C15.5024 25.6992 15.487 25.6912 15.4884 25.6793C15.4878 25.6444 15.4982 25.6102 15.5182 25.5809C15.5382 25.5516 15.5669 25.5286 15.6008 25.5147Z" fill="#E7D8C8"/>
<path d="M15.3731 26.1304C15.4016 26.0909 15.4423 26.0608 15.4897 26.0441C15.4933 26.0427 15.4973 26.0422 15.5013 26.0427C15.5052 26.0432 15.5089 26.0446 15.5121 26.0469C15.5152 26.0492 15.5177 26.0522 15.5191 26.0557C15.5206 26.0592 15.5211 26.063 15.5206 26.0667C15.4946 26.144 15.4383 26.209 15.3632 26.2485C15.3601 26.2509 15.3563 26.2525 15.3522 26.253C15.3482 26.2536 15.3441 26.2531 15.3403 26.2516C15.3366 26.2501 15.3333 26.2476 15.3309 26.2445C15.3285 26.2414 15.3271 26.2377 15.3267 26.2339C15.3253 26.2144 15.3288 26.1949 15.3369 26.1769C15.3449 26.159 15.3573 26.143 15.3731 26.1304Z" fill="#E7D8C8"/>
<path d="M15.0021 25.7056C15.0031 25.6789 15.0111 25.6528 15.0253 25.6296C15.0395 25.6065 15.0595 25.587 15.0835 25.5729C15.0948 25.5729 15.1159 25.5729 15.1201 25.5822C15.1252 25.6173 15.1196 25.6531 15.1039 25.6853C15.0883 25.7175 15.0631 25.7448 15.0316 25.764C15.0276 25.767 15.0227 25.7688 15.0176 25.7692C15.0125 25.7695 15.0074 25.7684 15.003 25.766C14.9986 25.7635 14.995 25.7599 14.9929 25.7555C14.9907 25.7511 14.99 25.7462 14.9908 25.7414C14.9938 25.7293 14.9975 25.7173 15.0021 25.7056Z" fill="#E7D8C8"/>
<path d="M14.6483 25.293C14.6528 25.2772 14.6627 25.2633 14.6764 25.2532L14.6848 25.2439C14.6946 25.232 14.7213 25.236 14.7213 25.2532C14.7203 25.2822 14.7106 25.3103 14.6932 25.3342C14.6923 25.3517 14.6874 25.3687 14.6789 25.3843C14.6704 25.3999 14.6585 25.4135 14.644 25.4244C14.6414 25.426 14.6383 25.427 14.6352 25.4271C14.632 25.4273 14.6288 25.4267 14.626 25.4253C14.6232 25.424 14.6207 25.422 14.619 25.4195C14.6172 25.417 14.6162 25.4141 14.616 25.4112C14.6123 25.3695 14.6237 25.3278 14.6483 25.293Z" fill="#E7D8C8"/>
<path d="M14.9981 24.1463L15.0164 24.1237C15.0262 24.1144 15.0487 24.1237 15.0487 24.133C15.0513 24.1595 15.0475 24.1862 15.0375 24.211C15.0275 24.2359 15.0116 24.2582 14.9911 24.2764V24.2843C14.9889 24.2863 14.9863 24.2876 14.9834 24.2883C14.9805 24.289 14.9774 24.2889 14.9746 24.2881C14.9717 24.2873 14.9691 24.2858 14.9671 24.2837C14.9651 24.2816 14.9637 24.2791 14.963 24.2764C14.9616 24.268 14.9616 24.2595 14.963 24.2511C14.9573 24.2323 14.9576 24.2124 14.9638 24.1937C14.9701 24.1751 14.982 24.1586 14.9981 24.1463Z" fill="#E7D8C8"/>
<path d="M14.8294 26.3336C14.8308 26.3361 14.8329 26.3382 14.8355 26.3396C14.8381 26.3411 14.8411 26.3418 14.8441 26.3418C14.8471 26.3418 14.8501 26.3411 14.8527 26.3396C14.8553 26.3382 14.8574 26.3361 14.8589 26.3336L14.8701 26.3217C14.8986 26.3007 14.9219 26.2742 14.9386 26.244C14.9554 26.2138 14.965 26.1805 14.967 26.1465C14.9674 26.1428 14.9666 26.139 14.9649 26.1357C14.9631 26.1324 14.9604 26.1296 14.957 26.1277C14.9536 26.1257 14.9498 26.1247 14.9458 26.1248C14.9419 26.1248 14.938 26.1259 14.9347 26.1279C14.8743 26.169 14.8027 26.2633 14.8294 26.3336Z" fill="#E7D8C8"/>
<path d="M14.4937 26.0548C14.4972 26.0374 14.5065 26.0216 14.5204 26.0097C14.5258 26.0009 14.5324 25.9929 14.5401 25.9858C14.5422 25.983 14.5449 25.9808 14.5481 25.9793C14.5512 25.9777 14.5548 25.9769 14.5583 25.9769C14.5619 25.9769 14.5654 25.9777 14.5686 25.9793C14.5718 25.9808 14.5745 25.983 14.5766 25.9858C14.5878 26.0149 14.5878 26.0469 14.5766 26.076C14.5692 26.106 14.5526 26.1332 14.5288 26.1543C14.5266 26.156 14.5239 26.157 14.5211 26.1575C14.5183 26.158 14.5154 26.1578 14.5127 26.157C14.5099 26.1563 14.5074 26.1549 14.5054 26.153C14.5033 26.1512 14.5017 26.1489 14.5007 26.1464C14.4926 26.1325 14.4877 26.1171 14.4865 26.1013C14.4853 26.0855 14.4878 26.0696 14.4937 26.0548Z" fill="#E7D8C8"/>
<path d="M14.5513 26.5073C14.5543 26.5051 14.5579 26.5038 14.5617 26.5034C14.5655 26.503 14.5693 26.5036 14.5728 26.5051C14.5762 26.5066 14.5792 26.509 14.5813 26.5119C14.5835 26.5149 14.5848 26.5183 14.585 26.5219C14.5886 26.5539 14.5848 26.5862 14.5739 26.6167C14.563 26.6472 14.5452 26.6751 14.5218 26.6984C14.5218 26.6984 14.5218 26.7064 14.5218 26.709C14.5204 26.7122 14.5181 26.7149 14.5151 26.7168C14.5121 26.7187 14.5085 26.7197 14.5049 26.7197C14.5013 26.7197 14.4978 26.7187 14.4948 26.7168C14.4918 26.7149 14.4895 26.7122 14.4881 26.709C14.4787 26.6731 14.4797 26.6355 14.4908 26.6001C14.5019 26.5646 14.5228 26.5326 14.5513 26.5073Z" fill="#E7D8C8"/>
<path d="M15.0696 26.7025C15.0743 26.7012 15.0793 26.7014 15.0839 26.7031C15.0885 26.7048 15.0923 26.7078 15.0949 26.7118C15.0964 26.7139 15.0972 26.7165 15.0972 26.7191C15.0972 26.7217 15.0964 26.7242 15.0949 26.7264C15.0953 26.7294 15.0953 26.7326 15.0949 26.7357C15.0947 26.7615 15.0882 26.787 15.0757 26.81C15.0633 26.8331 15.0453 26.8531 15.0232 26.8684C15.0207 26.8702 15.0177 26.8715 15.0146 26.8721C15.0114 26.8728 15.0081 26.8727 15.005 26.8719C15.0019 26.8711 14.999 26.8697 14.9966 26.8677C14.9941 26.8657 14.9922 26.8632 14.9909 26.8604C14.9903 26.8578 14.9903 26.8551 14.9909 26.8524C14.9883 26.8527 14.9857 26.8524 14.9833 26.8515C14.9809 26.8506 14.9787 26.8492 14.9769 26.8474C14.9751 26.8456 14.9738 26.8435 14.9731 26.8411C14.9724 26.8388 14.9722 26.8363 14.9727 26.8339C14.9763 26.8062 14.987 26.7797 15.0039 26.7568C15.0208 26.7339 15.0433 26.7152 15.0696 26.7025Z" fill="#E7D8C8"/>
<path d="M15.7384 26.3825C15.7413 26.3807 15.7447 26.3796 15.7482 26.3793C15.7516 26.3791 15.7551 26.3796 15.7583 26.3809C15.7616 26.3822 15.7644 26.3843 15.7665 26.3869C15.7687 26.3895 15.7701 26.3925 15.7707 26.3958C15.7721 26.4361 15.761 26.4759 15.7388 26.5103C15.7166 26.5447 15.6842 26.5723 15.6457 26.5896C15.6389 26.592 15.6314 26.592 15.6246 26.5896L15.6077 26.6002C15.6052 26.601 15.6026 26.6013 15.5999 26.601C15.5973 26.6006 15.5948 26.5997 15.5926 26.5983C15.5904 26.5969 15.5886 26.595 15.5873 26.5928C15.586 26.5906 15.5853 26.5881 15.5853 26.5856C15.5912 26.5425 15.6083 26.5014 15.635 26.466C15.6617 26.4306 15.6972 26.4019 15.7384 26.3825Z" fill="#E7D8C8"/>
<path d="M16.879 26.2909C16.8819 26.2847 16.8856 26.2789 16.8902 26.2737C16.8879 26.2641 16.8879 26.2541 16.8902 26.2445C16.906 26.2156 16.9318 26.1927 16.9632 26.1794C16.9745 26.1794 16.9899 26.1794 16.9942 26.1874C16.9997 26.2061 16.9997 26.2258 16.9942 26.2445C16.9897 26.2661 16.9768 26.2853 16.9581 26.2983C16.9394 26.3113 16.9161 26.3172 16.893 26.3148C16.8881 26.313 16.8839 26.3097 16.8814 26.3053C16.8788 26.3009 16.8779 26.2958 16.879 26.2909Z" fill="#E7D8C8"/>
</g>
<defs>
<linearGradient id="paint0_linear_79_3480" x1="40" y1="40" x2="-13.3117" y2="35.8747" gradientUnits="userSpaceOnUse">
<stop stop-color="#92A3FD"/>
<stop offset="1" stop-color="#9DCEFF"/>
</linearGradient>
<clipPath id="clip0_79_3480">
<rect width="27" height="18" fill="white" transform="translate(6.5 11)"/>
</clipPath>
</defs>
</svg>
