<?xml version="1.0" encoding="UTF-8"?>
<svg version="1.1" xmlns="http://www.w3.org/2000/svg" width="575" height="697">
<path d="M0 0 C189.75 0 379.5 0 575 0 C575 230.01 575 460.02 575 697 C385.25 697 195.5 697 0 697 C0 466.99 0 236.98 0 0 Z " fill="#DBDBDB" transform="translate(0,0)"/>
<path d="M0 0 C1.27037109 0.01353516 1.27037109 0.01353516 2.56640625 0.02734375 C3.18386719 0.03894531 3.80132812 0.05054688 4.4375 0.0625 C1.27640664 2.82313139 -2.13156643 4.23472869 -5.96020508 5.81542969 C-13.48398856 8.92200453 -19.34102341 11.64754304 -24.5625 18.0625 C-25.3875 18.701875 -26.2125 19.34125 -27.0625 20 C-29.9401971 22.37410011 -32.22384308 24.99548148 -34.63671875 27.83203125 C-35.89955565 29.29466791 -37.19341857 30.73119813 -38.51953125 32.13671875 C-49.78790709 44.11590123 -59.32606991 57.85867804 -67.5625 72.0625 C-68.25539552 73.21291182 -68.94944322 74.36263033 -69.64453125 75.51171875 C-74.16134192 83.07203667 -77.68056806 90.72469689 -80.5625 99.0625 C-80.85898438 99.87460937 -81.15546875 100.68671875 -81.4609375 101.5234375 C-87.33850773 118.10866042 -88.76239697 138.72875316 -81.5625 155.0625 C-81.15386719 155.99707031 -80.74523437 156.93164062 -80.32421875 157.89453125 C-79.49871134 159.72189286 -78.65557444 161.54141765 -77.79296875 163.3515625 C-76.105053 167.0703356 -74.77629973 170.88763101 -73.45703125 174.75 C-72.57493075 177.27911246 -72.57493075 177.27911246 -70.5625 180.0625 C-67.92359344 187.41702122 -67.201532 194.50662142 -66.875 202.25 C-66.22014233 212.31365751 -63.95067391 219.8790058 -58.59863281 228.39794922 C-57.62679513 229.95920966 -56.74327787 231.57447449 -55.8671875 233.19140625 C-53.66342794 236.93353902 -52.11010984 239.50994597 -47.92578125 241.00390625 C-45.07380054 241.53334778 -45.07380054 241.53334778 -42.2109375 241.78515625 C-36.33831641 242.40013575 -31.96206125 245.1962189 -27.5625 249.0625 C-28.5525 246.4225 -29.5425 243.7825 -30.5625 241.0625 C-24.41118421 237.08223684 -24.41118421 237.08223684 -20.875 237 C-17.76185454 238.43036413 -16.40027508 240.20373877 -14.5625 243.0625 C-14.5625 244.0525 -14.5625 245.0425 -14.5625 246.0625 C-11.9225 245.7325 -9.2825 245.4025 -6.5625 245.0625 C-6.541875 244.32 -6.52125 243.5775 -6.5 242.8125 C-5.27749259 239.22647826 -3.69468909 238.38848752 -0.40234375 236.71875 C3.12527958 235.46048945 5.50631262 236.63465715 8.75 238.125 C9.306875 238.434375 9.86375 238.74375 10.4375 239.0625 C10.4375 241.0425 10.4375 243.0225 10.4375 245.0625 C11.4275 245.0625 12.4175 245.0625 13.4375 245.0625 C13.31375 244.32 13.19 243.5775 13.0625 242.8125 C13.4375 240.0625 13.4375 240.0625 16.125 237.6875 C19.4375 236.0625 19.4375 236.0625 22 236.1875 C24.4375 237.0625 24.4375 237.0625 26.9375 238.1875 C29.96384185 239.24671965 31.39303344 238.97583997 34.4375 238.0625 C35.241875 237.629375 36.04625 237.19625 36.875 236.75 C38.1434375 236.4096875 38.1434375 236.4096875 39.4375 236.0625 C40.79875 236.990625 40.79875 236.990625 42.1875 237.9375 C49.03630846 242.41556707 57.85261899 239.66398552 65.47265625 238.19921875 C66.50958115 238.00656937 67.54650604 237.81391998 68.61485291 237.61543274 C71.91136725 237.00116935 75.20565873 236.37580157 78.5 235.75 C80.68410648 235.34105747 82.86835037 234.93284811 85.05273438 234.52539062 C92.86846842 233.06474234 100.68108053 231.58784385 108.49169922 230.10009766 C109.24124374 229.95796341 109.99078827 229.81582916 110.76304626 229.66938782 C112.71528311 229.29908557 114.66710819 228.92661429 116.61889648 228.55395508 C119.4375 228.0625 119.4375 228.0625 121.4375 228.0625 C121.1429895 227.23226318 121.1429895 227.23226318 120.8425293 226.38525391 C119.93421815 223.82020244 119.02959758 221.25386335 118.125 218.6875 C117.81626953 217.81738281 117.50753906 216.94726562 117.18945312 216.05078125 C111.62388934 200.23286313 111.62388934 200.23286313 110.75 192.9375 C109.99618702 188.8731917 108.82320208 187.11133185 105.75 184.375 C96.52973488 176.0767614 92.05086613 161.48270055 91.17016602 149.39257812 C91.0712692 145.40449467 91.06985208 141.42567073 91.125 137.4375 C91.13500997 136.01350969 91.1449377 134.58951879 91.15478516 133.16552734 C91.25921594 123.03095483 91.85264557 113.07743116 93.4375 103.0625 C93.54707031 102.17175781 93.65664063 101.28101563 93.76953125 100.36328125 C95.70935209 87.46667018 102.58093009 74.92776428 109.4375 64.0625 C109.95699219 63.19882812 110.47648437 62.33515625 111.01171875 61.4453125 C120.85936145 45.37434112 132.93491769 26.98910647 150.31640625 18.6875 C156.29446204 15.8144419 161.02853961 13.12429048 165.62109375 8.28515625 C167.4375 7.0625 167.4375 7.0625 169.890625 7.203125 C172.53371886 8.09496649 174.44417634 9.18957582 176.75 10.75 C181.13487508 13.50116603 185.45701186 15.2550129 190.3125 16.9375 C203.2132327 21.53058881 212.73500443 29.68436112 222.4375 39.0625 C223.118125 39.70316406 223.79875 40.34382813 224.5 41.00390625 C228.98380367 45.31756558 232.72965053 50.07635552 236.4375 55.0625 C237.11167969 55.95453125 237.78585937 56.8465625 238.48046875 57.765625 C250.17826641 73.47973968 254.13478481 87.33424806 253.5625 106.6875 C253.50697721 108.97745319 253.45771128 111.26714483 253.4201355 113.5574646 C253.38484552 115.60840942 253.32998286 117.65899036 253.27392578 119.70947266 C253.43015211 122.91187932 253.80579834 124.39192421 255.4375 127.0625 C256.00478115 128.98691308 256.52223814 130.92643201 257 132.875 C257.24878906 133.87144531 257.49757813 134.86789062 257.75390625 135.89453125 C260.7693896 149.86914267 259.95254282 163.14243729 257.1875 177.0625 C256.88078369 178.61880127 256.88078369 178.61880127 256.56787109 180.20654297 C255.33590872 186.01064082 253.71026649 191.37188439 251.35620117 196.82080078 C250.39547742 199.16503822 249.68657669 201.49970754 249 203.9375 C247.94452183 207.58651946 246.67306883 211.03508231 245.1875 214.53125 C242.36403651 221.22895896 239.6143472 227.95501286 236.875 234.6875 C236.17213867 236.41226563 236.17213867 236.41226563 235.45507812 238.171875 C234.1131249 241.46763704 232.77455171 244.76474684 231.4375 248.0625 C231.05480957 249.00319336 230.67211914 249.94388672 230.27783203 250.91308594 C227.59568389 257.54833071 225.38372695 264.11739951 223.625 271.0625 C216.20519521 299.29480479 216.20519521 299.29480479 207.4375 308.0625 C183.98829187 315.18100961 155.6948895 312.16173097 131.4375 312.1875 C130.31184631 312.1900882 129.18619263 312.19267639 128.02642822 312.19534302 C93.4660742 312.25799228 93.4660742 312.25799228 82.75 308.9375 C82.02014893 308.72375732 81.29029785 308.51001465 80.53833008 308.28979492 C70.42857392 305.26295379 60.29354369 301.89916498 50.5390625 297.86328125 C48.06547959 296.92074501 46.06232556 296.91250997 43.4375 297.0625 C43.1075 298.0525 42.7775 299.0425 42.4375 300.0625 C41.77430756 300.05583817 41.11111511 300.04917633 40.42782593 300.04231262 C33.51720026 299.97587496 26.60666552 299.93066418 19.69580078 299.89770508 C17.11763829 299.88263095 14.53950138 299.86216833 11.96142578 299.83618164 C8.25286539 299.79973914 4.54464446 299.78275948 0.8359375 299.76953125 C-0.88938705 299.74630547 -0.88938705 299.74630547 -2.64956665 299.72261047 C-8.48547729 299.72138681 -12.44875019 299.95323628 -17.5625 303.0625 C-20.4375 302.75 -20.4375 302.75 -22.5625 302.0625 C-22.5625 301.4025 -22.5625 300.7425 -22.5625 300.0625 C-26.5225 300.0625 -30.4825 300.0625 -34.5625 300.0625 C-34.2325 298.4125 -33.9025 296.7625 -33.5625 295.0625 C-36.35228311 295.39606102 -37.3610389 295.82410437 -39.203125 298.00390625 C-42.59573359 303.52924694 -45.68180796 309.13373237 -48.5625 314.9375 C-48.90297363 315.61756104 -49.24344727 316.29762207 -49.59423828 316.99829102 C-51.18952037 320.20522682 -52.71082423 323.40563813 -54.1328125 326.6953125 C-58.12821333 335.34866806 -63.06549302 338.84936796 -71.37597656 342.92724609 C-75.7560054 345.20137898 -79.92022028 347.85803304 -84.125 350.4375 C-85.81131442 351.47021893 -87.49999188 352.49909275 -89.19140625 353.5234375 C-89.91400635 353.96478027 -90.63660645 354.40612305 -91.38110352 354.86083984 C-93.71284191 356.14531846 -96.07422758 357.12240717 -98.5625 358.0625 C-103.84902617 342.49372384 -108.92155347 326.61198657 -107.5625 310.0625 C-107.48376215 308.28936448 -107.41276002 306.51587595 -107.34765625 304.7421875 C-106.76042307 289.47150317 -106.76042307 289.47150317 -105.5625 282.0625 C-104.2425 281.7325 -102.9225 281.4025 -101.5625 281.0625 C-97.76381285 285.74754748 -96.81495643 289.82819895 -95.95703125 295.76953125 C-95.79673193 298.02058901 -95.79673193 298.02058901 -94.5625 299.0625 C-94.10790142 301.71713121 -93.86006762 304.38439138 -93.5625 307.0625 C-89.44334561 303.04400164 -85.60160891 298.82980198 -81.8125 294.5 C-81.22339844 293.84064453 -80.63429688 293.18128906 -80.02734375 292.50195312 C-79.46660156 291.86064453 -78.90585938 291.21933594 -78.328125 290.55859375 C-77.82055664 289.98294678 -77.31298828 289.4072998 -76.79003906 288.81420898 C-75.45016649 286.90219909 -74.98135721 285.34339632 -74.5625 283.0625 C-75.27792969 282.90394531 -75.99335938 282.74539063 -76.73046875 282.58203125 C-84.65117155 280.72737768 -92.02875964 278.10662889 -99.5625 275.0625 C-100.38105469 274.75570313 -101.19960937 274.44890625 -102.04296875 274.1328125 C-112.64594495 270.11895551 -122.7719491 264.7514323 -132.5625 259.0625 C-132.5625 258.4025 -132.5625 257.7425 -132.5625 257.0625 C-133.41521484 256.91361328 -133.41521484 256.91361328 -134.28515625 256.76171875 C-141.80204545 254.45378879 -148.18260641 247.21423744 -151.984375 240.58203125 C-162.83297012 219.86345139 -174.33447622 187.65356776 -168.0390625 164.10449219 C-166.55861642 160.32577297 -164.6902851 157.6215969 -161.5625 155.0625 C-160.5415625 154.629375 -160.5415625 154.629375 -159.5 154.1875 C-157.30032644 153.15715627 -157.30032644 153.15715627 -156.33203125 150.421875 C-154.18728054 146.35016283 -151.49404622 143.47097218 -148.3125 140.1875 C-147.20188487 139.02462063 -146.09251718 137.86054866 -144.984375 136.6953125 C-144.41726807 136.10121582 -143.85016113 135.50711914 -143.26586914 134.89501953 C-141.5744787 133.07538693 -139.96439462 131.2051551 -138.35546875 129.3125 C-135.43629494 125.94559517 -132.33409281 122.83773881 -129.12890625 119.7421875 C-128.64314117 119.27136749 -128.1573761 118.80054749 -127.65689087 118.31546021 C-123.64079171 114.42431838 -123.64079171 114.42431838 -121.6081543 112.50585938 C-111.11232621 102.57227746 -104.54205286 91.75352682 -99.4375 78.1875 C-99.1075 77.3423584 -98.7775 76.4972168 -98.4375 75.62646484 C-96.9037778 71.67698155 -95.42647873 67.7109395 -94.0078125 63.71875 C-89.88703926 52.17727951 -84.38809005 42.27923945 -77.5625 32.0625 C-77.088125 31.19625 -76.61375 30.33 -76.125 29.4375 C-74.3042686 26.66998826 -72.18122787 25.06100285 -69.5625 23.0625 C-69.2325 22.4025 -68.9025 21.7425 -68.5625 21.0625 C-66.24939405 19.65706854 -63.94504318 18.33940334 -61.5625 17.0625 C-60.94729492 16.72992188 -60.33208984 16.39734375 -59.69824219 16.0546875 C-41.71496664 6.47366603 -20.61103071 -0.29029621 0 0 Z " fill="#F2F2F2" transform="translate(221.5625,278.9375)"/>
<path d="M0 0 C0.495 1.485 0.495 1.485 1 3 C-0.051875 3.91265625 -0.051875 3.91265625 -1.125 4.84375 C-9.23219238 12.33409078 -13.63133026 19.95006072 -18 30 C-18.33628418 30.74846191 -18.67256836 31.49692383 -19.01904297 32.26806641 C-26.57242598 49.08135062 -34.39171643 67.55492314 -34.3125 86.25 C-34.32861328 87.02601563 -34.34472656 87.80203125 -34.36132812 88.6015625 C-34.36527004 93.22148834 -33.98897111 96.24742313 -31 100 C-27.43437481 101.78281259 -23.88342005 101.58069482 -20 101 C-13.11648309 97.30436684 -7.78522581 90.86456769 -2.4375 85.3125 C9.36587256 73.31719386 21.60022542 64.61935271 36.125 56.26953125 C40.96802692 53.46659443 45.50424636 50.32744924 50 47 C50.928125 46.33742188 51.85625 45.67484375 52.8125 44.9921875 C61.59573224 38.61062033 69.74593583 31.50034843 77.25 23.64453125 C79 22 79 22 81 22 C81 21.34 81 20.68 81 20 C86.01944383 15.17317591 91.91438774 11.21551736 97.75 7.4375 C99.32007813 6.41462891 99.32007813 6.41462891 100.921875 5.37109375 C104.67070094 3.70124869 106.05930576 4.02276052 110 5 C113.15966797 6.49047852 113.15966797 6.49047852 116.4921875 8.37890625 C117.08299103 8.71043198 117.67379456 9.0419577 118.28250122 9.38352966 C120.1515253 10.43484216 122.01323599 11.49839394 123.875 12.5625 C125.14797301 13.28142204 126.42140641 13.99952952 127.6953125 14.71679688 C130.80225521 16.46847607 133.9027677 18.23119545 137 20 C137 23 137 23 135.84765625 24.5078125 C131.15169367 28.76192302 126.17285895 31.59427697 120.5625 34.4375 C107.9407456 40.90342396 100.33431195 49.78254621 92 61 C91.54915039 61.60215332 91.09830078 62.20430664 90.63378906 62.82470703 C85.11146704 70.23392268 80.16620753 77.73251286 76 86 C75.32216117 87.30757516 74.64373456 88.61484572 73.96484375 89.921875 C63.99825971 109.26890655 61.83108611 128.05584462 61.70483398 149.75317383 C61.69332232 151.12079216 61.67288276 152.48836585 61.64331055 153.85571289 C61.31465851 169.17383528 64.27702666 183.07978007 73 196 C74.81969652 197.76391972 74.81969652 197.76391972 76.6875 199.25 C80.79589066 202.97579108 81.40111361 207.66506376 82.43334961 212.87451172 C83.86923012 220.0025507 86.19859718 226.67498513 88.71484375 233.48706055 C89.15763672 234.69616089 89.15763672 234.69616089 89.609375 235.9296875 C89.87717773 236.64366699 90.14498047 237.35764648 90.42089844 238.09326172 C91 240 91 240 91 243 C85.57240014 244.40595602 80.16139613 245.5935163 74.64453125 246.5859375 C73.86850555 246.72786026 73.09247986 246.86978302 72.29293823 247.01600647 C69.79990691 247.47150452 67.30624938 247.92345111 64.8125 248.375 C61.38779915 248.99748451 57.96336052 249.62139724 54.5390625 250.24609375 C53.28826149 250.47399345 53.28826149 250.47399345 52.01219177 250.70649719 C47.3838079 251.55296381 42.76287153 252.4274696 38.1484375 253.34765625 C37.1999292 253.53602051 36.2514209 253.72438477 35.27416992 253.91845703 C33.6244382 254.24949333 31.97598943 254.58703582 30.3293457 254.93310547 C17.33741415 257.52830925 17.33741415 257.52830925 11.75 253.875 C10.38875 252.946875 10.38875 252.946875 9 252 C6.38119246 252.59742124 6.38119246 252.59742124 4 254 C-0.85564893 255.66114305 -3.42592897 253.96031616 -8 252 C-11.43745931 252.23982274 -14.00435433 253.33575241 -17 255 C-17 256.65 -17 258.3 -17 260 C-17.99 260 -18.98 260 -20 260 C-20 258.02 -20 256.04 -20 254 C-23.80920686 252.14981381 -25.94632514 251.71468846 -30 253 C-33.25071961 254.20833582 -33.25071961 254.20833582 -36 256 C-36.80528889 258.05000871 -36.80528889 258.05000871 -37 260 C-39.70879335 261.35439668 -42.00933268 261.06501451 -45 261 C-45.45375 260.05125 -45.9075 259.1025 -46.375 258.125 C-47.80238254 254.99686321 -47.80238254 254.99686321 -50 253 C-54.24465971 253.27682563 -56.81617671 254.18354094 -60 257 C-59.34 259.31 -58.68 261.62 -58 264 C-60.21462674 262.93369824 -62.29416167 261.81421368 -64.375 260.5 C-68.59487008 258.08864567 -71.9172796 256.94675146 -76.8125 257.1875 C-80.09311651 256.82437833 -80.98227182 256.01925648 -83.265625 253.5390625 C-85.29417806 250.68942845 -87.15365832 247.83442039 -88.92285156 244.82177734 C-89.92229893 243.13141555 -90.98612281 241.4795711 -92.0546875 239.83203125 C-96.98868901 231.42785025 -97.79244739 224.00385766 -98.36938477 214.41430664 C-98.98018052 204.46976256 -101.17888346 196.0343652 -105.93359375 187.21484375 C-107.90726792 183.11567431 -109.27342308 178.77675831 -110.765625 174.484375 C-112.13008302 170.63280362 -113.63279096 166.85731351 -115.203125 163.0859375 C-119.98159695 150.57758445 -118.16387743 132.40143999 -114 120 C-113.79552246 119.3385498 -113.59104492 118.67709961 -113.38037109 117.99560547 C-107.16957044 98.05426056 -96.45129523 80.07196726 -83.44970703 63.82324219 C-81.98108749 61.97621444 -80.54793224 60.10600291 -79.12109375 58.2265625 C-74.39328752 52.03457197 -69.55382387 46.28924343 -63.91796875 40.8828125 C-62.28293832 39.27775208 -60.85245867 37.67072828 -59.4375 35.875 C-53.03547153 28.32388949 -45.84431726 24.10571833 -36.96337891 19.93115234 C-33.51368278 18.295099 -30.10165505 16.58368154 -26.6875 14.875 C-26.00671387 14.5349292 -25.32592773 14.1948584 -24.62451172 13.84448242 C-16.18022447 9.609942 -8.07230231 4.90405005 0 0 Z " fill="#B2B2B2" transform="translate(252,264)"/>
<path d="M0 0 C1.32 0 2.64 0 4 0 C3.67 1.65 3.34 3.3 3 5 C6.96 5 10.92 5 15 5 C15 5.66 15 6.32 15 7 C18.17213193 7.27989399 19.72374396 7.16478241 22.5 5.50878906 C27.35214983 3.41711175 31.64811494 3.60734945 36.875 3.671875 C38.43903564 3.67468475 38.43903564 3.67468475 40.03466797 3.67755127 C42.2334311 3.68425682 44.4321826 3.69814143 46.63085938 3.71875 C49.98839471 3.74989236 53.34545952 3.75972401 56.703125 3.765625 C58.8437557 3.77479661 60.98438164 3.78517289 63.125 3.796875 C64.62522705 3.80324982 64.62522705 3.80324982 66.15576172 3.80975342 C70.87709804 3.85794888 75.35753893 4.02500502 80 5 C80.33 3.68 80.66 2.36 81 1 C86.13119072 1.55773812 90.30143766 2.73656873 95.125 4.6875 C104.86488982 8.5118736 114.8994668 11.29872156 125 14 C125.56454391 14.16554382 126.12908783 14.33108765 126.71073914 14.50164795 C137.35546978 16.81891263 149.05833275 16.18441994 159.90234375 16.31640625 C161.36064636 16.33705517 162.81894407 16.35805318 164.27723694 16.37937927 C168.05980374 16.43378276 171.84241689 16.48354155 175.62506104 16.53222656 C179.50724259 16.58305038 183.38935936 16.63841396 187.27148438 16.69335938 C194.84760093 16.79993646 202.42377247 16.9015912 210 17 C210.00607773 18.00060455 210.01215546 19.00120911 210.01841736 20.03213501 C210.19214072 46.26068051 212.29453448 72.14193614 214.91650391 98.21899414 C214.98474774 98.89789074 215.05299158 99.57678734 215.12330341 100.27625656 C215.44785966 103.49734063 215.77650985 106.71793146 216.11082458 109.9380188 C216.22773148 111.07439789 216.34463837 112.21077698 216.46508789 113.3815918 C216.62044762 114.87060249 216.62044762 114.87060249 216.77894592 116.38969421 C217 119 217 119 217 123 C139.12 123 61.24 123 -19 123 C-19.33 105.84 -19.66 88.68 -20 71 C-20.226875 64.565 -20.45375 58.13 -20.6875 51.5 C-20.6499039 38.24110858 -18.78555269 29.09692606 -11.40332031 18.10498047 C-9.96608153 15.9491223 -8.65872036 13.74968957 -7.3671875 11.50390625 C-1.72156086 1.72156086 -1.72156086 1.72156086 0 0 Z " fill="#ACACAC" transform="translate(184,574)"/>
<path d="M0 0 C1.62513849 0.00036426 3.25027907 -0.00164918 4.87541199 -0.00592041 C8.27593751 -0.00721224 11.67516671 0.01566612 15.07543945 0.05664062 C19.40979004 0.10759358 23.74209261 0.10554378 28.07663441 0.08603287 C31.43219942 0.07567573 34.78730346 0.09024064 38.14279747 0.11241913 C39.7393863 0.12072035 41.33602595 0.12231333 42.93262672 0.11676788 C53.36444688 0.10131118 62.72625106 0.79742077 70.5625 8.546875 C73.17738274 13.0630065 73.17719546 16.72794078 73.16796875 21.859375 C73.21424769 23.73839754 73.26503994 25.61731426 73.3203125 27.49609375 C73.34335449 28.41052246 73.36639648 29.32495117 73.39013672 30.26708984 C73.67733662 38.50895069 74.13774833 46.40418823 79.359375 53.11328125 C84.97808881 61.86437906 81.12559236 77.02893713 79.35546875 86.484375 C79.13028564 87.69552979 78.90510254 88.90668457 78.6730957 90.15454102 C77.26543075 97.43897791 75.725016 104.6662524 73.66796875 111.796875 C73.46864746 112.55242676 73.26932617 113.30797852 73.06396484 114.08642578 C71.45561229 119.19232563 69.16824296 121.30406558 64.49780273 123.85571289 C63.83208252 124.18692139 63.1663623 124.51812988 62.48046875 124.859375 C61.50980469 125.36984375 60.53914063 125.8803125 59.5390625 126.40625 C54.46019323 128.73753425 50.07672561 130.48629121 44.48046875 130.859375 C44.238125 130.18390625 43.99578125 129.5084375 43.74609375 128.8125 C40.8253662 120.73571193 40.8253662 120.73571193 34.14453125 115.77734375 C23.85509108 111.50767869 13.20340626 109.61268181 2.41796875 113.671875 C-2.93880541 116.38965012 -4.65865352 120.00301068 -6.6171875 125.53125 C-7.51953125 127.859375 -7.51953125 127.859375 -9.51953125 128.859375 C-15.44744102 129.41378383 -20.50613442 129.40543617 -25.51953125 125.859375 C-35.84730064 111.26349684 -34.77840071 87.06253947 -34.53417969 70.09790039 C-34.52032227 69.07172607 -34.50646484 68.04555176 -34.4921875 66.98828125 C-34.47422119 66.07119385 -34.45625488 65.15410645 -34.43774414 64.20922852 C-34.41394095 61.70441711 -34.41394095 61.70441711 -35.51953125 58.859375 C-35.74777731 54.6783221 -35.74786276 50.49689305 -35.75976562 46.31005859 C-35.76940001 44.26227068 -35.80040123 42.21551819 -35.83203125 40.16796875 C-35.87359725 29.59981437 -34.86045382 22.19195746 -28.26953125 13.734375 C-27.5425 12.78304687 -26.81546875 11.83171875 -26.06640625 10.8515625 C-25.2259375 9.86414063 -24.38546875 8.87671875 -23.51953125 7.859375 C-22.92592552 6.97171951 -22.92592552 6.97171951 -22.32032776 6.06613159 C-16.61980237 -1.28185678 -8.4498174 -0.1191268 0 0 Z " fill="#F4F4F4" transform="translate(264.51953125,79.140625)"/>
<path d="M0 0 C1.24523437 -0.01611328 2.49046875 -0.03222656 3.7734375 -0.04882812 C13.63996263 -0.05403199 21.67861922 1.48468669 30.375 6.25 C31.73625 6.97509766 31.73625 6.97509766 33.125 7.71484375 C35.556439 9.44133429 36.41308991 10.51968151 37.375 13.3125 C37.375 14.3025 37.375 15.2925 37.375 16.3125 C38.09945312 16.48265625 38.82390625 16.6528125 39.5703125 16.828125 C45.23722403 18.24863082 49.72159986 19.63306733 54.375 23.3125 C55.32375 23.993125 56.2725 24.67375 57.25 25.375 C63.96827031 31.10580801 70.07758279 40.11561854 73.375 48.3125 C73.625 52 73.625 52 73.375 55.3125 C73.53613281 56.24578125 73.69726562 57.1790625 73.86328125 58.140625 C76.19151489 72.57211904 71.12685821 88.07830162 68.0234375 102.09375 C67.30556869 105.38912272 67.30556869 105.38912272 66.98828125 109.09375 C66.78589844 110.1559375 66.58351563 111.218125 66.375 112.3125 C64.68257776 113.374412 62.98922138 114.43489421 61.2890625 115.484375 C54.34166879 122.11984491 51.88522193 135.59801435 51.0625 144.8125 C51.43736046 149.0109372 52.24338539 155.18088539 55.375 158.3125 C56.32968927 168.58123095 50.33916556 179.25428158 44.1953125 187.09375 C34.74123866 196.91791213 22.51032332 204.63184898 9.375 208.3125 C8.69050781 208.51875 8.00601563 208.725 7.30078125 208.9375 C-4.18275097 211.99411486 -15.73851113 210.94187112 -26.625 206.3125 C-29.2036761 204.81401799 -31.29393988 203.20648634 -33.625 201.3125 C-34.924375 200.57 -34.924375 200.57 -36.25 199.8125 C-39.16131641 197.97377384 -41.24640915 195.80435708 -43.625 193.3125 C-44.17285156 192.80847656 -44.72070312 192.30445313 -45.28515625 191.78515625 C-58.33418229 179.59650555 -61.16548977 163.94894146 -62.95703125 146.9453125 C-63.1977746 144.75043694 -63.43900334 142.55561458 -63.68066406 140.36083984 C-63.80413208 139.22845886 -63.9276001 138.09607788 -64.05480957 136.92938232 C-66.21380683 117.22947929 -68.61913048 97.73301393 -72.625 78.3125 C-72.99524566 76.51077664 -73.36379242 74.70870316 -73.73046875 72.90625 C-73.88926514 72.13732422 -74.04806152 71.36839844 -74.21166992 70.57617188 C-77.04043325 55.08397248 -69.49636228 39.11871989 -61.6171875 26.04296875 C-58.98739788 22.43861003 -56.42424363 20.59204618 -52.625 18.3125 C-52.1609375 17.33410156 -52.1609375 17.33410156 -51.6875 16.3359375 C-50.34392654 13.77722041 -49.10191479 13.23755829 -46.5 12.0625 C-45.77554688 11.72734375 -45.05109375 11.3921875 -44.3046875 11.046875 C-43.75039062 10.80453125 -43.19609375 10.5621875 -42.625 10.3125 C-42.955 9.6525 -43.285 8.9925 -43.625 8.3125 C-42.90054688 8.21453125 -42.17609375 8.1165625 -41.4296875 8.015625 C-35.21436742 7.10908237 -35.21436742 7.10908237 -29.6875 4.3125 C-21.42773405 -1.08163287 -9.51408325 -0.02477626 0 0 Z M-53.625 52.3125 C-54.08297974 52.88655579 -54.54095947 53.46061157 -55.01281738 54.05206299 C-56.10011306 55.46205569 -57.08657531 56.94825109 -58.0625 58.4375 C-58.70058594 59.38882813 -59.33867187 60.34015625 -59.99609375 61.3203125 C-62.99914636 66.83671129 -63.87736335 72.0468281 -63.85546875 78.27734375 C-63.85353516 79.57220703 -63.85160156 80.86707031 -63.84960938 82.20117188 C-63.84340576 82.86689209 -63.83720215 83.5326123 -63.83081055 84.21850586 C-63.81257659 86.24150273 -63.81030127 88.26403886 -63.81054688 90.28710938 C-63.80914325 98.00893429 -63.80914325 98.00893429 -63.10546875 105.6875 C-62.64048661 109.19565796 -62.60208795 112.43455908 -62.69042969 115.95849609 C-63.08279483 131.87501341 -62.58778315 151.67335655 -55.625 166.3125 C-51.47968968 170.21279996 -48.24949569 171.46206258 -42.625 171.5625 C-41.75875 171.58828125 -40.8925 171.6140625 -40 171.640625 C-37.59874923 171.49819439 -37.59874923 171.49819439 -35.90625 170.0703125 C-34.45047926 168.07306606 -33.86368011 166.29003557 -33.125 163.9375 C-31.38551692 159.92884163 -29.64041175 158.24084121 -25.75 156.25 C-15.77685314 152.40188326 -5.41012906 153.47803168 4.375 157.3125 C5.468125 157.663125 6.56125 158.01375 7.6875 158.375 C12.56267977 161.88966448 14.51632406 167.73647217 16.375 173.3125 C22.2320973 172.78567114 26.83325439 171.07446301 32.125 168.5625 C33.25615234 168.05976563 33.25615234 168.05976563 34.41015625 167.546875 C38.82049026 165.47879653 41.44086269 163.98289176 43.375 159.3125 C44.48155718 156.2192902 45.42193757 153.0992601 46.3125 149.9375 C46.57047363 149.02355469 46.82844727 148.10960937 47.09423828 147.16796875 C54.87345685 120.14956158 54.87345685 120.14956158 50.375 93.3125 C49.86839844 92.69375 49.36179687 92.075 48.83984375 91.4375 C44.89507454 85.7149548 45.37606372 76.73205572 45.20703125 69.93359375 C45.1807666 69.00474365 45.15450195 68.07589355 45.12744141 67.11889648 C45.08486413 65.27894989 45.06422962 63.43833594 45.06787109 61.59790039 C44.96389799 56.78756231 44.67756426 53.19680338 41.05487061 49.61282349 C32.20097457 42.75936172 23.24891397 42.51212602 12.52734375 42.5078125 C10.90409112 42.49425561 9.28084558 42.47982526 7.65760803 42.46456909 C4.27114422 42.43927801 0.88532284 42.43383933 -2.5012207 42.44091797 C-6.82180088 42.44702839 -11.13889505 42.38899534 -15.45873356 42.31425667 C-18.80567191 42.26597501 -22.1517765 42.25921694 -25.49902153 42.2639122 C-27.09097923 42.25988486 -28.68297273 42.24156494 -30.27458382 42.20810318 C-40.82926131 42.00879566 -47.06910048 43.26912705 -53.625 52.3125 Z " fill="#A8A8A8" transform="translate(292.625,36.6875)"/>
<path d="M0 0 C0.33 0 0.66 0 1 0 C1.19335938 0.97582031 1.38671875 1.95164063 1.5859375 2.95703125 C1.97652344 4.86548828 1.97652344 4.86548828 2.375 6.8125 C2.63023437 8.07707031 2.88546875 9.34164062 3.1484375 10.64453125 C3.82777181 14.10239018 3.82777181 14.10239018 6 17 C7.23236834 26.16807354 1.7616054 35.53651673 -3 43 C-11.99622092 54.47904892 -26.03157142 63.08590443 -40 67 C-41.02673828 67.309375 -41.02673828 67.309375 -42.07421875 67.625 C-53.55775097 70.68161486 -65.11351113 69.62937112 -76 65 C-78.5786761 63.50151799 -80.66893988 61.89398634 -83 60 C-83.86625 59.505 -84.7325 59.01 -85.625 58.5 C-88.53631641 56.66127384 -90.62140915 54.49185708 -93 52 C-93.54785156 51.49597656 -94.09570312 50.99195313 -94.66015625 50.47265625 C-100.8892166 44.65430317 -107.73167652 36.03727837 -108.125 27.1875 C-108.08375 26.465625 -108.0425 25.74375 -108 25 C-103.6149161 25 -103.19442551 25.42385039 -100 28 C-96.71480525 29.09506492 -94.26336585 29.09960608 -90.8125 29.0625 C-89.72582031 29.05347656 -88.63914063 29.04445312 -87.51953125 29.03515625 C-86.68808594 29.02355469 -85.85664063 29.01195312 -85 29 C-84.82984375 28.39671875 -84.6596875 27.7934375 -84.484375 27.171875 C-82.45378872 20.47526068 -80.38444601 17.09996277 -74.125 13.75 C-64.8308646 9.87616762 -54.11451722 11.2594544 -45 15 C-44.01386719 15.36544922 -44.01386719 15.36544922 -43.0078125 15.73828125 C-37.93737813 18.03412171 -36.14821577 21.74095341 -33.84765625 26.66015625 C-33 29 -33 29 -33 32 C-29.57697096 31.22679815 -26.30995701 30.16394093 -23 29 C-22.38979004 28.79503906 -21.77958008 28.59007812 -21.15087891 28.37890625 C-15.50152019 26.36948853 -9.80464434 24.20638482 -6.74462891 18.76953125 C-4.50802068 13.33852021 -3.16399118 7.74467291 -2 2 C-1.34 2 -0.68 2 0 2 C0 1.34 0 0.68 0 0 Z " fill="#A9A9A9" transform="translate(342,178)"/>
<path d="M0 0 C2.91012191 2.55237643 3.74885206 4.305154 4.27734375 8.13671875 C3.61177571 12.62930304 2.71567475 14.45965066 -0.28515625 17.82421875 C-4.47333659 20.23019469 -7.64039093 19.66934367 -12.22265625 18.51171875 C-15.78515625 16.94921875 -15.78515625 16.94921875 -18.22265625 15.51171875 C-17.09813898 12.53978025 -15.99971834 10.17731188 -14.22265625 7.51171875 C-19.17265625 7.51171875 -24.12265625 7.51171875 -29.22265625 7.51171875 C-28.56265625 8.62546875 -27.90265625 9.73921875 -27.22265625 10.88671875 C-25.22265625 14.26171875 -25.22265625 14.26171875 -25.22265625 16.51171875 C-26.63443455 17.04566054 -28.05235869 17.56336979 -29.47265625 18.07421875 C-30.2615625 18.36425781 -31.05046875 18.65429688 -31.86328125 18.953125 C-35.16223717 19.7341692 -37.05399872 19.21398543 -39.92578125 17.48828125 C-42.60430884 15.14795159 -44.01326035 13.38832024 -44.8515625 9.87890625 C-45.09877854 6.0181281 -45.10746573 2.90494257 -42.9921875 -0.42578125 C-30.76057051 -12.04727008 -12.73922708 -8.53013272 0 0 Z " fill="#F3F3F3" transform="translate(303.22265625,205.48828125)"/>
<path d="M0 0 C2.98767438 5.03124365 2.59097337 10.32523165 2 16 C0.80782513 19.97587383 -0.79530241 23.48649261 -3.38671875 26.7421875 C-6.16142312 30.62542993 -8.01074788 35.023769 -10.0390625 39.33203125 C-10.37679688 40.02941406 -10.71453125 40.72679687 -11.0625 41.4453125 C-11.36285156 42.07969238 -11.66320312 42.71407227 -11.97265625 43.36767578 C-13 45 -13 45 -16 47 C-18.078125 46.8828125 -18.078125 46.8828125 -20 46 C-21.046875 44.1796875 -21.046875 44.1796875 -21.75 41.875 C-21.99234375 41.12992188 -22.2346875 40.38484375 -22.484375 39.6171875 C-24.58206236 28.96983497 -20.56734486 16.4224059 -15.48046875 7.03125 C-11.62645148 1.74341628 -6.55790606 -0.81973826 0 0 Z " fill="#F3F3F3" transform="translate(366,148)"/>
<path d="M0 0 C1.98 0 3.96 0 6 0 C8.29944175 4.59888351 8.1682108 10.49679264 8.78442383 15.59082031 C9.05732003 17.83245053 9.34173796 20.07240866 9.62695312 22.3125 C10.65126956 30.58086231 11.28113858 38.65048642 11 47 C7.58898407 43.91528091 6.46347391 40.31953219 5 36.0625 C3.43471275 31.53376527 2.06420699 27.75473251 -1 24 C-4.23205614 15.15437268 -3.30830846 8.5070789 0 0 Z " fill="#F1F1F1" transform="translate(219,141)"/>
<path d="M0 0 C-0.90523213 4.2002771 -2.90282094 7.57966461 -5.0625 11.25 C-5.43955078 11.8996875 -5.81660156 12.549375 -6.20507812 13.21875 C-7.13234115 14.81505091 -8.06558456 16.40787529 -9 18 C-9.99 18 -10.98 18 -12 18 C-13.38529821 12.54538831 -14.2396943 7.63281599 -14 2 C-12.4176994 1.66179834 -10.83410625 1.32964061 -9.25 1 C-8.36828125 0.814375 -7.4865625 0.62875 -6.578125 0.4375 C-4 0 -4 0 0 0 Z " fill="#DCDCDC" transform="translate(143,589)"/>
<path d="M0 0 C3 2 3 2 3.56835938 4.13208008 C3.65923828 5.00243896 3.75011719 5.87279785 3.84375 6.76953125 C3.95420654 7.73560303 4.06466309 8.7016748 4.1784668 9.69702148 C4.28457275 10.72512939 4.39067871 11.7532373 4.5 12.8125 C5.48963248 21.39664543 6.73929638 29.64661996 9 38 C7.68 38.99 6.36 39.98 5 41 C3.35062716 33.45819504 2.27030118 25.91487437 1.375 18.25 C1.2409375 17.15300781 1.106875 16.05601562 0.96875 14.92578125 C0.37283629 9.90916076 -0.07007701 5.05862605 0 0 Z " fill="#AFAFAF" transform="translate(228,164)"/>
<path d="M0 0 C0.33 0 0.66 0 1 0 C2.05268874 6.81402575 1.93833398 12.36801431 0 19 C-0.66 19 -1.32 19 -2 19 C-2.33 19.66 -2.66 20.32 -3 21 C-2.41523944 13.90593106 -1.36766005 6.98436101 0 0 Z " fill="#AFAFAF" transform="translate(344,159)"/>
<path d="M0 0 C1.32 0 2.64 0 4 0 C3.67 1.65 3.34 3.3 3 5 C6.96 5 10.92 5 15 5 C15 5.33 15 5.66 15 6 C10.05 6.33 5.1 6.66 0 7 C0 6.34 0 5.68 0 5 C-0.99 5.33 -1.98 5.66 -3 6 C-1.125 1.125 -1.125 1.125 0 0 Z " fill="#C0C0C0" transform="translate(184,574)"/>
<path d="M0 0 C0.33 5.28 0.66 10.56 1 16 C-0.90389849 13.14415227 -1.69462177 11.0688238 -2.625 7.8125 C-3.01558594 6.46091797 -3.01558594 6.46091797 -3.4140625 5.08203125 C-3.70410156 4.05142578 -3.70410156 4.05142578 -4 3 C-1.125 0 -1.125 0 0 0 Z " fill="#DADADA" transform="translate(154,475)"/>
<path d="M0 0 C0.33 0 0.66 0 1 0 C1.33 3.3 1.66 6.6 2 10 C1.01 10 0.02 10 -1 10 C-0.67 6.7 -0.34 3.4 0 0 Z " fill="#B6B6B6" transform="translate(344,159)"/>
</svg>
