<svg width="67" height="37" viewBox="0 0 67 37" fill="none" xmlns="http://www.w3.org/2000/svg">
<path fill-rule="evenodd" clip-rule="evenodd" d="M61.8031 30.8197C61.8031 33.307 48.6672 36.0338 34.7341 36.0338C20.801 36.0338 9.40894 31.7115 9.40894 29.2242C9.40894 26.7369 22.648 26.3184 36.5776 26.3184C50.5071 26.3184 61.8031 28.3324 61.8031 30.8197Z" fill="#E2CAB3"/>
<path fill-rule="evenodd" clip-rule="evenodd" d="M63.9596 33.3586C63.9988 34.6872 60.6427 35.8398 56.461 35.9308C52.2793 36.0218 48.8556 35.0209 48.8165 33.6893C48.7774 32.3577 52.1334 31.2081 56.3151 31.1171C60.4968 31.0261 63.9205 32.027 63.9596 33.3586Z" fill="#E2CAB3"/>
<path fill-rule="evenodd" clip-rule="evenodd" d="M3.07395 23.904C0.846078 28.4054 3.55796 30.7622 7.17024 31.1505C8.5938 31.3021 10.7291 30.4619 12.3093 29.9372C13.595 29.4505 14.8156 28.8475 15.95 28.1385C16.4874 27.6683 17.1209 27.0283 17.249 26.3185C17.2663 26.0442 17.1975 25.771 17.0497 25.5268C17.0899 25.4246 17.1488 25.3283 17.2241 25.2417C17.4163 24.9384 16.8967 24.7048 17.1565 24.3651C17.5693 23.8222 17.0248 23.2367 16.7579 22.7544C16.6689 22.5998 14.3735 20.8617 14.2667 20.6949C12.352 18.969 11.836 18.156 9.20237 17.8012C5.89616 17.3522 2.68959 18.3805 3.07395 23.904Z" fill="#5F825C"/>
<g style="mix-blend-mode:multiply" opacity="0.4">
<path fill-rule="evenodd" clip-rule="evenodd" d="M4.26996 22.2418C4.64721 22.2813 4.83227 23.1518 4.67568 24.1953C4.51908 25.2387 4.09202 26.0395 3.71121 26C3.33041 25.9606 3.15247 25.0901 3.3055 24.0466C3.45853 23.0032 3.87137 22.1994 4.26996 22.2418Z" fill="#5F825C"/>
</g>
<path fill-rule="evenodd" clip-rule="evenodd" d="M4.62593 27.1224C3.81806 27.4257 3.8928 28.3145 4.22022 28.8908C4.22826 28.8999 4.23429 28.9102 4.23801 28.9211C4.3149 29.0539 4.41051 29.1782 4.52273 29.2912C4.91933 29.7215 5.46663 30.0329 6.08508 30.1799C6.86092 30.3468 7.75065 30.2345 8.19907 29.7098C8.21004 29.6936 8.22788 29.6817 8.24889 29.6764V29.6097C8.14924 29.27 7.53711 29.2032 7.20969 29.1608C6.49791 29.0667 6.28794 28.5329 6.07085 28.0385C5.85375 27.544 5.33771 26.8434 4.62593 27.1224Z" fill="#8DB54F"/>
<g style="mix-blend-mode:multiply" opacity="0.4">
<path fill-rule="evenodd" clip-rule="evenodd" d="M11.9357 20.4371C11.2773 20.7404 11.8894 21.426 12.2062 21.7505C12.9179 22.5028 13.8931 23.0427 14.4874 23.8981C15.0817 24.7534 14.3059 26.079 15.2561 26.8009C15.3019 26.8357 15.3554 26.8625 15.4135 26.8796C15.4715 26.8966 15.533 26.9037 15.5943 26.9003C15.6556 26.8969 15.7154 26.8831 15.7704 26.8598C15.8254 26.8365 15.8744 26.8041 15.9145 26.7645C15.9562 26.7071 15.9874 26.6448 16.0071 26.5794C16.1227 26.4535 16.2129 26.3121 16.274 26.1609C16.4341 25.6863 16.4129 25.1806 16.2135 24.717C16.064 24.3015 16.3985 23.8981 16.2526 23.4825C16.1858 23.3276 16.0787 23.1877 15.9394 23.073C15.7934 22.9287 15.6259 22.8012 15.4412 22.6939C15.0967 22.4497 14.7787 22.1797 14.491 21.887C14.1463 21.5389 13.7677 21.2162 13.3592 20.9224C12.9286 20.5736 12.3699 20.2339 11.9357 20.4371Z" fill="#5F825C"/>
</g>
<path fill-rule="evenodd" clip-rule="evenodd" d="M3.67915 24.183C3.32326 24.1315 3.09905 24.0101 1.94953 23.7675C0.800004 23.5248 0.216344 23.4702 0.0383995 23.3792C-0.139545 23.2882 0.3587 22.812 0.3587 22.812C0.3587 22.812 1.21995 23.0941 1.92817 23.3186C2.6364 23.543 3.93183 23.8403 3.93183 23.8403C3.93183 23.8403 4.13469 23.9374 4.05284 24.0951C3.97098 24.2528 3.67915 24.183 3.67915 24.183Z" fill="#300D33"/>
<path fill-rule="evenodd" clip-rule="evenodd" d="M64.0594 15.4139C63.0949 15.6049 62.28 16.1024 61.2763 16.1449C60.2087 16.1904 59.141 15.8112 58.0983 15.6383C55.8312 15.2622 53.5108 15.0529 51.2189 14.8375C46.5923 14.4007 41.9053 14.2127 37.2609 13.7577C32.6165 13.3027 28.0078 12.784 23.3598 12.8022C21.1207 12.807 18.886 12.9734 16.6798 13.2997C14.8612 13.5696 13.0106 13.8851 11.4874 14.8163C10.315 15.5513 9.43155 16.5718 8.95343 17.7434C8.33418 19.169 11.6048 27.8987 12.0995 28.472C16.3986 33.3252 23.6161 34.3868 35.4921 34.1836C48.1832 33.9652 53.0873 32.761 56.6818 30.0553C58.6143 28.6024 60.2407 24.8655 60.5325 24.1344C61.0272 22.8453 61.5753 21.5744 62.0878 20.2913C62.4116 19.4784 62.7497 18.6746 63.1555 17.889C63.5847 17.1509 63.9418 16.384 64.2231 15.5958C64.2312 15.5744 64.2331 15.5516 64.2285 15.5294C64.224 15.5072 64.2132 15.4862 64.1972 15.4683C64.1811 15.4504 64.1601 15.4361 64.1361 15.4267C64.1122 15.4172 64.0858 15.4128 64.0594 15.4139Z" fill="#DA840D"/>
<path fill-rule="evenodd" clip-rule="evenodd" d="M62.1376 16.0116C60.5183 16.9822 58.1872 17.0216 56.2903 17.3401C51.6068 18.1288 46.9375 18.6717 42.1579 18.5746C37.4815 18.4837 32.8016 18.0135 28.143 17.6859C23.3812 17.3522 18.6087 17.1126 13.8326 17.2977C12.7775 17.3305 11.7309 17.4711 10.715 17.7162C10.1954 17.8436 9.41959 18.0196 9.15979 18.4746C9.09571 18.5926 9.06059 18.7206 9.05659 18.8507V18.8719C8.8217 19.5453 9.09573 20.1095 9.36621 20.707C9.43027 20.9588 9.50145 21.2105 9.56907 21.4623C9.44807 21.4623 9.43027 21.62 9.56907 21.6231H9.60822C9.62291 21.6373 9.64098 21.6486 9.66123 21.6564C9.68148 21.6642 9.70344 21.6683 9.72566 21.6683C9.74788 21.6683 9.76984 21.6642 9.79009 21.6564C9.81034 21.6486 9.82841 21.6373 9.8431 21.6231C10.683 21.6231 11.5158 21.4896 12.3592 21.4714C13.6262 21.4411 14.701 21.9931 15.8078 22.4481C17.7937 23.255 19.6692 24.1983 21.68 24.9141C22.5771 25.2341 23.5001 25.4986 24.4417 25.7058C25.3806 25.8779 26.3316 25.9975 27.2888 26.0637C28.3067 26.176 29.3138 26.3671 30.3281 26.4854C31.4641 26.6001 32.6095 26.6315 33.7518 26.5794C38.2883 26.5112 42.8109 26.1308 47.2756 25.4419C51.3327 24.7928 55.3899 23.8161 58.9239 21.9507C60.3212 21.2266 61.5047 20.2386 62.3831 19.063C62.7888 18.52 63.134 17.9346 63.5113 17.3765C63.7889 16.961 64.1234 16.4665 64.0736 15.9843C63.9917 14.9347 62.6358 15.7173 62.1376 16.0116Z" fill="#C66720"/>
<path opacity="0.4" fill-rule="evenodd" clip-rule="evenodd" d="M34.848 32.1454C17.2314 34.2687 11.9571 28.2234 12.1173 28.4024C16.4164 33.2556 23.6374 34.3172 35.5099 34.114C48.201 33.8986 53.3578 32.6216 56.9559 29.916C58.778 28.5419 60.7959 23.4734 61.1981 22.4875C52.3827 28.6693 49.8665 30.3255 34.848 32.1454Z" fill="#C66720"/>
<path fill-rule="evenodd" clip-rule="evenodd" d="M66.9848 10.4698C66.782 9.40509 64.8495 9.25646 63.8957 8.95313C63.0522 8.68621 62.4721 8.04316 61.7853 7.56087C61.0441 7.03862 60.2197 6.60867 59.3368 6.28387C57.326 5.54376 55.3116 4.95228 53.4788 3.9058C51.7919 2.9382 49.7206 2.81383 47.7846 2.54387C46.5877 2.38462 45.4163 2.10881 44.2933 1.72186C43.2957 1.32228 42.2419 1.03377 41.1579 0.863454C40.0404 0.736057 38.8909 0.954451 37.7734 0.993884C36.5349 1.03635 35.396 0.690559 34.2323 0.387234C33.2823 0.0939891 32.2733 -0.034908 31.2642 0.00807729C30.3246 0.0748088 29.4847 0.499464 28.6946 0.918052C28.6748 0.927439 28.6582 0.941027 28.6463 0.9575C28.6345 0.973974 28.6278 0.992775 28.627 1.01208C27.7337 1.40944 26.876 1.85229 25.9792 2.25268C25.2308 2.60448 24.4282 2.86485 23.5947 3.02616C22.5733 3.20816 21.6124 3.06256 20.5981 2.95033C18.8187 2.75317 17.1353 2.71677 15.4484 3.27185C13.4412 3.9331 11.8432 5.27987 9.85382 6.00178C8.14199 6.60843 6.65081 7.32731 5.58314 8.67104C5.13874 9.235 4.83584 9.87112 4.69341 10.5395C4.56173 11.2584 4.76459 11.9106 4.94253 12.6143C5.17742 13.5242 4.96745 14.2522 4.66138 15.1288C4.40057 15.7068 4.41977 16.3495 4.71477 16.9154C4.99236 17.3765 5.58314 17.6737 6.09918 17.9103C6.61522 18.1469 7.93201 18.4017 8.04234 18.9538C8.51211 21.2954 11.6012 20.1974 13.4198 20.7737C14.3131 21.0619 15.1388 21.4987 16.0463 21.7807C17.0891 22.1053 18.1816 22.348 19.2493 22.5937C21.3846 23.085 23.4417 23.7402 25.5165 24.4136C26.4312 24.7169 27.296 25.0931 28.2747 25.2447C29.2534 25.3964 30.2641 25.2599 31.2321 25.1871C33.2429 25.0324 39.6027 25.4904 40.4461 25.1234C41.5387 24.6654 42.553 24.7078 43.7345 24.7928C44.6563 24.8595 45.4535 24.2771 46.3788 24.2134C47.4424 24.1241 48.4914 23.9359 49.5071 23.6523C50.4129 23.354 51.3358 23.0948 52.2723 22.8758C53.34 22.6725 54.2724 22.0143 55.3508 21.8899C57.447 21.6443 58.9844 20.6433 60.6073 19.4815C62.0807 18.429 65.5648 14.8012 65.8673 14.0824C66.1698 13.3635 66.394 12.5657 66.6396 11.8226C66.7748 11.407 67.0702 10.9126 66.9848 10.4698Z" fill="#F0A508"/>
<g opacity="0.5">
<path opacity="0.5" fill-rule="evenodd" clip-rule="evenodd" d="M34.1041 5.12206C33.8087 5.45269 33.4528 5.54368 33.4848 7.60023C33.5168 9.65677 33.7482 10.4333 32.8193 11.9924C31.8904 13.5515 30.0896 15.0651 29.4526 16.7242C28.8155 18.3834 28.0112 21.1073 28.8262 22.1659C29.6412 23.2245 32.6093 23.7462 36.6558 23.8402C40.7023 23.9343 45.1402 23.3701 47.635 22.7088C50.1298 22.0476 51.5711 21.7746 52.137 21.1922C52.7029 20.6098 49.8807 15.6353 47.9055 13.694C45.9303 11.7527 44.9836 11.1097 42.7557 9.50207C40.5279 7.89445 39.5527 7.25444 38.453 5.95621C37.3533 4.65797 37.0686 4.58821 35.912 4.60338C35.2588 4.60178 34.6232 4.78412 34.1041 5.12206Z" fill="#E2CAB3"/>
<path opacity="0.5" fill-rule="evenodd" clip-rule="evenodd" d="M11.6262 18.1925C13.1957 15.1077 15.267 13.7033 15.8471 13.0056C17.445 11.0856 18.3917 10.2454 20.5092 9.97237C22.6268 9.69938 21.4666 9.70848 23.8724 9.42032C26.2782 9.13216 28.2961 8.68627 29.9225 7.60037C31.5489 6.51447 32.3888 5.66819 33.2537 5.4043C34.1185 5.14041 35.453 4.55196 34.5064 5.38307C33.5597 6.21418 34.8231 6.52963 33.0437 8.78334C31.2642 11.037 30.4172 12.2018 29.7837 13.9399C29.1502 15.6779 28.4954 21.1014 27.0469 21.5291C25.5985 21.9567 22.1428 22.0326 18.9326 21.0164C16.4417 20.183 14.003 19.2405 11.6262 18.1925Z" fill="#E2CAB3"/>
<path opacity="0.5" fill-rule="evenodd" clip-rule="evenodd" d="M55.009 19.5787C55.009 19.5787 57.9843 18.787 59.6926 17.5222C61.4008 16.2573 63.1091 15.0774 63.6501 13.3393C64.191 11.6013 64.8031 11.1675 64.1412 10.6519C63.4792 10.1362 59.9381 7.39719 57.0234 6.0474C54.1086 4.6976 50.4038 3.84526 47.1083 3.25378C43.8127 2.66229 42.0653 3.00808 40.3464 2.95045C38.6274 2.89282 35.9049 4.58234 35.944 4.60054C36.8957 5.38062 37.9545 6.05992 39.0972 6.62372C40.6418 7.3153 44.2434 8.48613 46.0015 9.35364C47.7596 10.2212 49.1547 12.1382 49.5604 13.036C49.9661 13.9338 50.5355 14.2129 51.1156 15.9328C51.6957 17.6526 53.3043 20.422 53.3043 20.422L55.009 19.5787Z" fill="#E2CAB3"/>
<path opacity="0.5" fill-rule="evenodd" clip-rule="evenodd" d="M6.77893 9.12899C6.77893 9.12899 5.40519 12.2745 6.11697 13.7881C6.61059 14.7809 7.28301 15.7019 8.10995 16.518C8.10995 16.518 9.8894 17.9679 11.103 16.4664C12.3166 14.965 14.9466 11.4585 17.0357 10.1057C19.1247 8.75287 21.7263 8.46168 23.6552 8.26452C25.5841 8.06736 30.1146 7.40307 31.3674 6.53253C32.6201 5.66199 35.9441 4.60035 35.9441 4.60035C34.5061 4.03765 33.008 3.59378 31.4706 3.27482C29.143 2.81983 25.4204 4.03617 22.3989 3.42952C19.3774 2.82287 16.4307 4.19086 13.0853 5.64682C10.8638 6.64241 8.75301 7.80792 6.77893 9.12899Z" fill="#E2CAB3"/>
<path opacity="0.5" fill-rule="evenodd" clip-rule="evenodd" d="M26.709 2.6894C26.709 2.6894 29.8373 0.174838 31.9619 0.220337C34.6489 0.281002 35.5208 0.784521 36.8056 1.13031C38.2683 1.51857 38.8519 1.67326 38.4747 2.17375C38.0975 2.67424 36.318 4.90368 36.318 4.90368C36.318 4.90368 32.0473 3.11709 30.4814 2.91083C29.2324 2.75552 27.9712 2.6815 26.709 2.6894Z" fill="#E2CAB3"/>
</g>
<path opacity="0.4" fill-rule="evenodd" clip-rule="evenodd" d="M57.4754 5.47399C56.6319 5.17066 55.7849 4.9189 54.9557 4.58221C53.9846 4.15723 52.9866 3.77851 51.9662 3.44778C51.0456 3.20704 50.1008 3.0395 49.144 2.94729C46.9802 2.64397 44.9943 1.88262 42.9195 1.33663C41.7299 1.0247 40.4868 0.887257 39.2431 0.930179C38.1612 0.990843 37.0758 0.990843 35.9939 0.930179C34.9262 0.833115 33.9867 0.411493 32.9475 0.177933C31.684 -0.107192 30.6342 0.177933 29.5131 0.690552C27.8582 1.42157 26.2069 2.31334 24.4132 2.78046C23.4552 3.04676 22.4527 3.1779 21.4451 3.16872C20.3774 3.13839 19.3596 2.95639 18.3097 2.89573C17.1531 2.79048 15.9855 2.97161 14.9466 3.41744C14.1581 3.77362 13.415 4.19852 12.7294 4.68534C12.7258 4.73889 12.7258 4.79256 12.7294 4.84611C12.5224 5.36143 12.4483 5.90875 12.5123 6.4507C12.5436 7.0037 12.7135 7.54458 13.0106 8.03692C13.3077 8.52927 13.7252 8.96165 14.2348 9.30498C14.975 9.83884 15.7509 10.2483 16.3701 10.8883C16.9894 11.5284 17.4378 12.1957 18.1496 12.7083C19.3098 13.5515 20.8508 13.6183 22.3099 13.6183C23.0786 13.6183 23.8438 13.5849 24.609 13.6183C25.6592 13.7125 26.6919 13.9163 27.6838 14.2249C29.7338 14.7709 31.7446 15.5262 33.8621 15.8811C35.9796 16.236 38.0794 15.8083 40.1364 15.3381C42.1935 14.868 44.222 14.5525 46.2364 14.0975C48.0576 13.7159 49.7861 13.0651 51.3434 12.1744C53.0054 11.1454 54.5084 9.94182 55.8169 8.59217C56.3187 8.09472 56.7956 7.57906 57.2903 7.07554C57.7303 6.6961 58.0245 6.21159 58.1338 5.68632C57.9103 5.62502 57.6905 5.55415 57.4754 5.47399Z" fill="#E2CAB3"/>
<path fill-rule="evenodd" clip-rule="evenodd" d="M29.0789 7.55762C28.9152 7.58795 28.7515 7.61222 28.5984 7.63042H28.5486C27.4311 7.81544 26.3243 8.04597 25.1748 7.97014C24.3989 7.92161 21.3668 7.99137 22.0785 9.18344C22.0869 9.20407 22.0869 9.22651 22.0785 9.24714C22.7049 9.58686 24.0964 9.44733 24.5698 9.417C24.9711 9.39363 25.3697 9.34394 25.762 9.26837C26.8782 8.89107 27.9398 8.40559 28.9259 7.82151C28.9896 7.73933 29.041 7.65068 29.0789 7.55762Z" fill="#C66720"/>
<path fill-rule="evenodd" clip-rule="evenodd" d="M33.4919 10.0025C33.5655 9.36744 33.5392 8.72681 33.4136 8.09766C32.9382 9.06024 32.3288 9.97067 31.5986 10.8094C31.1715 11.2674 30.6057 11.6648 30.2605 12.1743C30.0754 12.4473 29.8192 12.8538 29.9544 13.1874C30.1679 13.7122 30.5452 13.7092 30.9473 13.6394C31.6377 13.2754 32.2712 12.4261 32.6129 11.9893C32.9289 11.5847 33.1859 11.1487 33.378 10.6911C33.4172 10.4636 33.4528 10.2361 33.4919 10.0025Z" fill="#C66720"/>
<path fill-rule="evenodd" clip-rule="evenodd" d="M44.8698 8.18274C44.0354 7.8931 43.1836 7.64099 42.3181 7.42747C41.7897 7.31035 41.2732 7.15718 40.7736 6.96944C40.3901 6.7732 39.9566 6.65874 39.5101 6.63579C39.4832 6.63427 39.4562 6.63874 39.4318 6.64874C39.4075 6.65875 39.3866 6.67397 39.3712 6.6929C39.3558 6.71184 39.3464 6.73385 39.3439 6.7568C39.3414 6.77974 39.346 6.80284 39.3571 6.82385C39.3925 6.92037 39.4621 7.00516 39.5564 7.06651C40.0871 7.69908 40.675 8.29541 41.3145 8.85006C41.8875 9.40211 42.3822 9.99663 43.0228 10.5092C43.8911 11.2221 45.4606 11.6558 46.3503 10.673C47.3326 9.57804 45.9945 8.58617 44.8698 8.18274Z" fill="#C66720"/>
<path fill-rule="evenodd" clip-rule="evenodd" d="M41.2825 2.80767C40.98 2.25258 39.9977 2.26775 39.3464 2.39818C39.2935 2.40406 39.2412 2.41319 39.1899 2.42548C38.2885 2.82067 37.5893 3.48465 37.2253 4.29093C38.293 4.02097 39.0795 3.38095 40.2077 3.26872C40.3892 3.25052 41.4889 3.18076 41.2825 2.80767Z" fill="#C66720"/>
<path fill-rule="evenodd" clip-rule="evenodd" d="M26.2209 3.81487C26.3639 3.85371 26.5123 3.87615 26.6622 3.8816C27.0147 3.83018 27.3725 3.80985 27.7299 3.82094C27.8686 3.81498 28.0076 3.81498 28.1463 3.82094C28.6123 3.83686 29.0769 3.87534 29.5378 3.9362L29.7193 3.97867C29.9728 4.00153 30.227 3.94194 30.4311 3.81184C29.3884 3.42055 26.5163 2.49237 26.1248 3.69051C26.1194 3.71775 26.1263 3.74573 26.1442 3.76881C26.162 3.79189 26.1894 3.80835 26.2209 3.81487Z" fill="#C66720"/>
<path fill-rule="evenodd" clip-rule="evenodd" d="M6.70065 16.9427C6.6173 17.1006 6.55752 17.2667 6.52271 17.4372C6.46944 17.564 6.43827 17.6969 6.43018 17.8315C6.43185 17.84 6.43586 17.848 6.44185 17.8549C6.44785 17.8618 6.45568 17.8674 6.46469 17.8712C6.47371 17.8751 6.48366 17.877 6.49374 17.877C6.50382 17.8769 6.51375 17.8749 6.52271 17.8709C6.62947 17.8194 6.63303 17.6647 6.65083 17.5676C6.6831 17.3615 6.7379 17.1584 6.81454 16.9609C6.84301 16.9154 6.73268 16.8851 6.70065 16.9427Z" fill="#C66720"/>
<path fill-rule="evenodd" clip-rule="evenodd" d="M7.36948 17.4127C7.27861 17.5629 7.21273 17.7232 7.17374 17.8889C7.14527 17.9769 7.06342 18.1164 7.09545 18.1922C7.09747 18.2021 7.10299 18.2111 7.11127 18.2182C7.11955 18.2252 7.13018 18.23 7.14171 18.2317C7.27695 18.2317 7.29119 18.08 7.31254 17.9981C7.36237 17.8192 7.40507 17.6341 7.47625 17.4582C7.50116 17.4066 7.40507 17.3581 7.36948 17.4127Z" fill="#C66720"/>
<path fill-rule="evenodd" clip-rule="evenodd" d="M10.587 19.4813C10.555 19.7846 10.4411 20.0879 10.4447 20.4094C10.4447 20.5004 10.6119 20.5156 10.6155 20.4094C10.6693 20.0968 10.7037 19.7819 10.7187 19.4661C10.7151 19.4054 10.5941 19.4206 10.587 19.4813Z" fill="#C66720"/>
<path fill-rule="evenodd" clip-rule="evenodd" d="M11.4697 19.6391C11.3534 19.8783 11.2976 20.1356 11.306 20.3944C11.306 20.4915 11.4875 20.5097 11.4911 20.3944C11.5016 20.144 11.5337 19.8946 11.5872 19.6482C11.6014 19.5997 11.4946 19.5845 11.4697 19.6391Z" fill="#C66720"/>
<path fill-rule="evenodd" clip-rule="evenodd" d="M25.8512 23.7798C25.7976 23.894 25.7594 24.013 25.7373 24.1346C25.7038 24.2435 25.6894 24.3559 25.6946 24.4683C25.6993 24.4804 25.7084 24.491 25.7205 24.4985C25.7327 24.506 25.7473 24.51 25.7623 24.51C25.7772 24.51 25.7919 24.506 25.804 24.4985C25.8161 24.491 25.8252 24.4804 25.8299 24.4683C25.86 24.3692 25.8755 24.2673 25.8761 24.165C25.8975 24.0376 25.9046 23.9102 25.9331 23.7828C25.9402 23.7555 25.869 23.7464 25.8512 23.7798Z" fill="#C66720"/>
<path fill-rule="evenodd" clip-rule="evenodd" d="M26.8619 23.8861C26.8063 24.0394 26.7681 24.1968 26.748 24.3563C26.7081 24.49 26.696 24.6286 26.7124 24.7658C26.718 24.7776 26.7275 24.7877 26.7399 24.7949C26.7523 24.802 26.7669 24.8058 26.7818 24.8058C26.7968 24.8058 26.8114 24.802 26.8237 24.7949C26.8361 24.7877 26.8457 24.7776 26.8512 24.7658C26.8892 24.6462 26.906 24.5225 26.901 24.3988C26.901 24.2289 26.9331 24.059 26.9509 23.8922C26.949 23.8837 26.9439 23.876 26.9363 23.8702C26.9288 23.8644 26.9192 23.8609 26.9091 23.8602C26.899 23.8595 26.8889 23.8617 26.8804 23.8664C26.8718 23.8711 26.8653 23.878 26.8619 23.8861Z" fill="#C66720"/>
<path fill-rule="evenodd" clip-rule="evenodd" d="M30.8799 24.4045C30.8799 24.356 30.8123 24.3135 30.7838 24.359C30.6922 24.509 30.6434 24.6753 30.6414 24.8443C30.6414 24.9293 30.6165 25.1477 30.7411 25.1689C30.749 25.1713 30.7575 25.1723 30.7659 25.172C30.7743 25.1716 30.7825 25.1698 30.7901 25.1667C30.7977 25.1636 30.8046 25.1592 30.8102 25.1539C30.8158 25.1485 30.8201 25.1423 30.8229 25.1355C30.8287 25.041 30.8203 24.9462 30.798 24.8534C30.7965 24.701 30.8242 24.5494 30.8799 24.4045Z" fill="#C66720"/>
<path fill-rule="evenodd" clip-rule="evenodd" d="M31.8799 24.374C31.8775 24.3672 31.8725 24.3613 31.8658 24.3571C31.859 24.3529 31.8509 24.3506 31.8426 24.3506C31.8342 24.3506 31.8261 24.3529 31.8194 24.3571C31.8127 24.3613 31.8077 24.3672 31.8052 24.374C31.7265 24.6333 31.6953 24.9013 31.7127 25.1687C31.7127 25.2506 31.8657 25.2597 31.8621 25.1687C31.8454 24.9038 31.8514 24.6382 31.8799 24.374Z" fill="#C66720"/>
<path fill-rule="evenodd" clip-rule="evenodd" d="M32.976 24.4681C32.976 24.4577 32.9711 24.4477 32.9625 24.4403C32.9538 24.4329 32.942 24.4287 32.9298 24.4287C32.9175 24.4287 32.9057 24.4329 32.897 24.4403C32.8884 24.4477 32.8835 24.4577 32.8835 24.4681C32.8693 24.5895 32.8586 24.7108 32.8515 24.8321C32.8515 24.9201 32.7803 25.0354 32.8515 25.1112C32.8571 25.1149 32.864 25.1169 32.871 25.1169C32.8781 25.1169 32.885 25.1149 32.8906 25.1112C33.0116 25.1112 33.0045 24.9444 33.0116 24.8655C33.0181 24.7323 33.0061 24.5989 32.976 24.4681Z" fill="#C66720"/>
<path fill-rule="evenodd" clip-rule="evenodd" d="M52.4717 22.5724C52.4717 22.5906 52.4717 22.5421 52.4717 22.536C52.4502 22.4927 52.4324 22.4481 52.4183 22.4025C52.3827 22.2842 52.3756 22.1569 52.3329 22.0386C52.3329 22.0052 52.2546 21.987 52.2439 22.0386C52.2333 22.0901 52.2439 22.7574 52.4646 22.6452C52.4724 22.642 52.479 22.6371 52.4839 22.631C52.4888 22.6249 52.4917 22.6179 52.4925 22.6105C52.4932 22.6032 52.4916 22.5958 52.488 22.5891C52.4844 22.5824 52.4787 22.5767 52.4717 22.5724Z" fill="#C66720"/>
<path fill-rule="evenodd" clip-rule="evenodd" d="M53.7385 22.2996C53.6679 22.1138 53.5823 21.9324 53.4823 21.7566C53.4775 21.7442 53.4672 21.7338 53.4535 21.7278C53.4398 21.7219 53.4239 21.7208 53.4093 21.7248C53.3947 21.7288 53.3825 21.7376 53.3755 21.7493C53.3685 21.761 53.3672 21.7745 53.3719 21.787C53.425 21.9829 53.494 22.1755 53.5784 22.3633C53.6175 22.4543 53.7812 22.3906 53.7385 22.2996Z" fill="#C66720"/>
<path fill-rule="evenodd" clip-rule="evenodd" d="M54.9558 21.7625C54.8321 21.6107 54.7483 21.4379 54.7102 21.2559C54.707 21.2448 54.6994 21.2348 54.6888 21.2277C54.6781 21.2207 54.665 21.2168 54.6515 21.2168C54.638 21.2168 54.6248 21.2207 54.6142 21.2277C54.6036 21.2348 54.596 21.2448 54.5928 21.2559C54.5764 21.4734 54.6522 21.6887 54.8063 21.8626C54.8739 21.9597 55.0269 21.8505 54.9558 21.7625Z" fill="#C66720"/>
<path fill-rule="evenodd" clip-rule="evenodd" d="M56.4718 21.6141C56.3522 21.5285 56.2542 21.423 56.1838 21.3042C56.1135 21.1853 56.0722 21.0554 56.0625 20.9226C56.0633 20.9153 56.0615 20.9079 56.0573 20.9015C56.0531 20.8951 56.0468 20.8899 56.0391 20.8867C56.0314 20.8834 56.0227 20.8822 56.0142 20.8831C56.0057 20.8841 55.9977 20.8873 55.9913 20.8922C55.6782 21.0803 56.1479 21.5656 56.3223 21.7082C56.4113 21.7931 56.5608 21.69 56.4718 21.6141Z" fill="#C66720"/>
<path fill-rule="evenodd" clip-rule="evenodd" d="M58.1874 20.9224C57.9992 20.6507 57.7912 20.3893 57.5646 20.1398C57.5397 20.1034 57.4579 20.1156 57.4757 20.1641C57.586 20.4674 57.8992 20.6828 58.0522 20.977C58.0913 21.0589 58.2266 21.0043 58.1874 20.9224Z" fill="#C66720"/>
<path fill-rule="evenodd" clip-rule="evenodd" d="M59.6036 19.9848C59.5716 19.9272 59.4862 19.8938 59.4293 19.8574L59.1481 19.6815C59.0769 19.636 59.0022 19.5936 58.9274 19.5511C58.8527 19.5086 58.8492 19.5329 58.8171 19.5177C58.7851 19.5026 58.7887 19.5177 58.7993 19.5177C58.81 19.5177 58.8171 19.5663 58.842 19.5875C58.905 19.6432 58.9715 19.6958 59.0413 19.7452C59.1303 19.8119 59.2228 19.8726 59.3154 19.9333C59.4079 19.9939 59.4577 20.0455 59.5396 20.0455C59.5486 20.0456 59.5576 20.044 59.5659 20.0409C59.5741 20.0377 59.5815 20.0332 59.5876 20.0274C59.5936 20.0217 59.5982 20.0149 59.601 20.0076C59.6037 20.0003 59.6046 19.9925 59.6036 19.9848Z" fill="#C66720"/>
<path fill-rule="evenodd" clip-rule="evenodd" d="M60.8101 19.2269C60.8034 19.2093 60.7913 19.1935 60.775 19.1812C60.7588 19.1689 60.7389 19.1606 60.7175 19.1571C60.6512 19.1309 60.59 19.0961 60.536 19.054C60.4105 18.9603 60.3025 18.8509 60.2157 18.7295C60.1766 18.6779 60.0841 18.7295 60.1125 18.7871C60.1884 18.9321 60.2987 19.0623 60.4364 19.1693C60.5218 19.236 60.682 19.3482 60.7923 19.2845C60.8019 19.2777 60.8087 19.2685 60.8119 19.2581C60.8151 19.2478 60.8145 19.2369 60.8101 19.2269Z" fill="#C66720"/>
<path fill-rule="evenodd" clip-rule="evenodd" d="M64.8284 15.3261C64.8121 15.3097 64.792 15.2963 64.7693 15.2869C64.7466 15.2775 64.7219 15.2723 64.6967 15.2715C64.6177 15.2598 64.5425 15.234 64.4761 15.1956C64.3344 15.1122 64.2283 14.992 64.1735 14.8529C64.1735 14.8074 64.081 14.8347 64.0846 14.8771C64.1067 15.0408 64.2023 15.1909 64.3515 15.2957C64.4547 15.3685 64.7074 15.4868 64.8248 15.3807C64.8329 15.3734 64.8376 15.3639 64.8383 15.3539C64.8389 15.3439 64.8354 15.3341 64.8284 15.3261Z" fill="#C66720"/>
<path fill-rule="evenodd" clip-rule="evenodd" d="M65.6145 14.5524C65.3139 14.4198 65.0607 14.2207 64.8814 13.976C64.8494 13.9305 64.7568 13.976 64.7889 14.0155C64.9526 14.2955 65.2204 14.5216 65.5505 14.6585C65.6217 14.6828 65.6857 14.5797 65.6145 14.5524Z" fill="#C66720"/>
<path fill-rule="evenodd" clip-rule="evenodd" d="M66.1022 13.4819C65.9657 13.4061 65.8349 13.323 65.7108 13.2331C65.5898 13.1391 65.4759 13.0451 65.3549 12.9602C65.3086 12.9298 65.2481 12.9875 65.2872 13.0269C65.4726 13.2724 65.7303 13.4722 66.0346 13.6062C66.0531 13.6102 66.0726 13.6085 66.0898 13.6015C66.107 13.5945 66.1208 13.5826 66.1288 13.5679C66.1368 13.5532 66.1385 13.5365 66.1337 13.5208C66.1288 13.5051 66.1177 13.4913 66.1022 13.4819Z" fill="#C66720"/>
<path fill-rule="evenodd" clip-rule="evenodd" d="M5.81804 16.1419C5.50992 16.5018 5.30182 16.9167 5.20947 17.3552C5.20947 17.3916 5.26997 17.3946 5.28065 17.3552C5.40282 16.9387 5.62054 16.547 5.92125 16.2026C5.96396 16.1449 5.86075 16.0843 5.81804 16.1419Z" fill="#C66720"/>
<path fill-rule="evenodd" clip-rule="evenodd" d="M5.26298 15.8415C5.18468 15.8718 5.15265 15.9294 5.09927 15.9901C5.04588 16.0508 4.95335 16.166 4.88929 16.2601C4.79851 16.3679 4.74994 16.4974 4.75049 16.6301C4.75049 16.6756 4.83235 16.6665 4.83591 16.6301C4.87728 16.4928 4.9525 16.3646 5.05656 16.254C5.14197 16.1418 5.30924 16.0144 5.32704 15.8809C5.32766 15.8742 5.32623 15.8674 5.3229 15.8612C5.31956 15.8551 5.31443 15.8498 5.308 15.8458C5.30157 15.8419 5.29404 15.8394 5.28616 15.8386C5.27827 15.8379 5.27029 15.8388 5.26298 15.8415Z" fill="#C66720"/>
<path fill-rule="evenodd" clip-rule="evenodd" d="M6.29149 16.8275C6.19137 16.9647 6.11017 17.1112 6.04949 17.2643C5.9703 17.4071 5.91289 17.558 5.87866 17.7132C5.87866 17.7526 5.94628 17.7648 5.95696 17.7132C6.00258 17.5637 6.06826 17.4192 6.1527 17.2825C6.25663 17.1446 6.32907 16.9913 6.36623 16.8305C6.3667 16.8221 6.36322 16.8138 6.35654 16.8076C6.34987 16.8013 6.34055 16.7976 6.33064 16.7972C6.32073 16.7968 6.31104 16.7997 6.3037 16.8054C6.29636 16.8111 6.29197 16.819 6.29149 16.8275Z" fill="#C66720"/>
<path fill-rule="evenodd" clip-rule="evenodd" d="M8.22017 17.8894C7.95325 17.9592 7.82869 18.2595 7.75751 18.4688C7.75483 18.4795 7.75682 18.4908 7.76312 18.5004C7.76942 18.51 7.7796 18.5173 7.79178 18.5211C7.80395 18.5248 7.81729 18.5246 7.82931 18.5205C7.84133 18.5165 7.85123 18.5089 7.85716 18.4991C7.89981 18.3931 7.9559 18.2914 8.02443 18.1958C8.09205 18.1048 8.18814 18.0289 8.25932 17.9379C8.27355 17.9197 8.2522 17.8894 8.22017 17.8894Z" fill="#C66720"/>
<path fill-rule="evenodd" clip-rule="evenodd" d="M8.81111 18.7993C8.67232 18.8417 8.59758 18.9903 8.53352 19.1026C8.46083 19.233 8.42778 19.377 8.43743 19.5212C8.43743 19.5697 8.52284 19.5788 8.5264 19.5212C8.53833 19.4005 8.57444 19.2826 8.63317 19.1723C8.69011 19.054 8.82891 18.963 8.86806 18.8448C8.87077 18.8381 8.87117 18.8309 8.86919 18.8241C8.86722 18.8172 8.86296 18.811 8.85693 18.8062C8.85091 18.8014 8.84337 18.7982 8.83524 18.797C8.8271 18.7957 8.81873 18.7965 8.81111 18.7993Z" fill="#C66720"/>
<path fill-rule="evenodd" clip-rule="evenodd" d="M9.3841 19.1174C9.27002 19.2725 9.18366 19.4411 9.12785 19.6179C9.05165 19.7826 8.99444 19.9533 8.95703 20.1275C8.9542 20.1379 8.95635 20.1489 8.96303 20.158C8.9697 20.1671 8.98035 20.1736 8.99262 20.176C9.00489 20.1784 9.01778 20.1766 9.02846 20.1709C9.03914 20.1652 9.04673 20.1561 9.04956 20.1457C9.10253 19.9768 9.17034 19.8115 9.25242 19.6513C9.35288 19.4903 9.42484 19.3175 9.46595 19.1386C9.46759 19.1341 9.46815 19.1292 9.4676 19.1245C9.46706 19.1197 9.46541 19.1151 9.46277 19.1109C9.46013 19.1066 9.45653 19.1029 9.45219 19.0999C9.44785 19.0968 9.44285 19.0945 9.43748 19.0931C9.4321 19.0917 9.42646 19.0913 9.42087 19.0917C9.41528 19.0922 9.40985 19.0936 9.40489 19.0958C9.39993 19.0981 9.39555 19.1012 9.39198 19.1049C9.38841 19.1086 9.38573 19.1128 9.3841 19.1174Z" fill="#C66720"/>
<path fill-rule="evenodd" clip-rule="evenodd" d="M9.90728 19.606C9.78321 19.8429 9.73178 20.1028 9.7578 20.3613C9.7578 20.4128 9.85033 20.4189 9.85033 20.3613C9.85033 20.1095 9.98201 19.8608 9.96422 19.612C9.96225 19.6072 9.95875 19.603 9.95411 19.5998C9.94947 19.5966 9.94387 19.5946 9.93795 19.594C9.93203 19.5933 9.92603 19.5941 9.92061 19.5962C9.91519 19.5984 9.91057 19.6017 9.90728 19.606Z" fill="#C66720"/>
<path fill-rule="evenodd" clip-rule="evenodd" d="M27.8976 24.1192C27.7717 24.4003 27.7242 24.7024 27.7588 25.0019C27.7588 25.0413 27.8406 25.0383 27.8442 25.0019C27.8442 24.8563 27.8691 24.6985 27.8905 24.5681C27.9316 24.4241 27.9519 24.2764 27.951 24.1283C27.951 24.098 27.9083 24.101 27.8976 24.1192Z" fill="#C66720"/>
<path fill-rule="evenodd" clip-rule="evenodd" d="M28.8263 24.7017C28.8263 24.5622 28.9046 24.4378 28.9188 24.2983C28.9168 24.2936 28.9131 24.2896 28.9084 24.2868C28.9036 24.284 28.8979 24.2825 28.8921 24.2825C28.8863 24.2825 28.8806 24.284 28.8758 24.2868C28.8711 24.2896 28.8674 24.2936 28.8654 24.2983C28.762 24.4403 28.7017 24.6019 28.6899 24.7687C28.6781 24.9355 28.7152 25.1022 28.7978 25.2538C28.8227 25.2993 28.8939 25.2538 28.8761 25.2234C28.8125 25.0551 28.7954 24.8766 28.8263 24.7017Z" fill="#C66720"/>
<path fill-rule="evenodd" clip-rule="evenodd" d="M29.6805 24.8049C29.6915 24.6663 29.6771 24.5272 29.6378 24.3924C29.6338 24.386 29.6279 24.3807 29.6207 24.377C29.6135 24.3733 29.6053 24.3713 29.5968 24.3713C29.5884 24.3713 29.5801 24.3733 29.5729 24.377C29.5657 24.3807 29.5598 24.386 29.5559 24.3924C29.5256 24.5297 29.5256 24.6706 29.5559 24.8079C29.5662 24.9663 29.5985 25.1231 29.652 25.2751C29.652 25.3266 29.7623 25.3145 29.7481 25.2751C29.7105 25.1202 29.6879 24.9629 29.6805 24.8049Z" fill="#C66720"/>
<path fill-rule="evenodd" clip-rule="evenodd" d="M61.7071 17.8893C61.7071 17.856 61.6537 17.8378 61.6359 17.8651C61.6065 17.9045 61.5908 17.9503 61.5908 17.997C61.5908 18.0438 61.6065 18.0895 61.6359 18.129C61.6929 18.223 61.8317 18.3625 61.9669 18.3474C61.9776 18.3452 61.987 18.3395 61.993 18.3316C61.9989 18.3237 62.0011 18.3141 61.9989 18.3049C61.9633 18.1411 61.6608 18.0744 61.7071 17.8893Z" fill="#C66720"/>
<path fill-rule="evenodd" clip-rule="evenodd" d="M62.9919 17.401C62.9563 17.3524 62.9243 17.3464 62.8602 17.3282C62.7728 17.3048 62.695 17.2606 62.636 17.2008C62.5223 17.0863 62.4429 16.9499 62.4047 16.8034C62.4033 16.7974 62.4005 16.7918 62.3965 16.7867C62.3926 16.7816 62.3875 16.7773 62.3815 16.7739C62.3756 16.7705 62.3689 16.7682 62.3619 16.767C62.3549 16.7658 62.3476 16.7658 62.3406 16.767C62.3336 16.7682 62.327 16.7706 62.321 16.774C62.3151 16.7774 62.31 16.7817 62.306 16.7868C62.3021 16.7918 62.2993 16.7975 62.2979 16.8035C62.2965 16.8095 62.2965 16.8156 62.2979 16.8216C62.3301 16.989 62.4094 17.1472 62.5293 17.2827C62.6182 17.3767 62.8531 17.5314 62.9955 17.4465C63.0005 17.4395 63.0028 17.4314 63.0022 17.4232C63.0016 17.4151 62.998 17.4073 62.9919 17.401Z" fill="#C66720"/>
<path fill-rule="evenodd" clip-rule="evenodd" d="M63.5966 16.3727C63.4863 16.2786 63.3688 16.1846 63.2656 16.0845C63.2229 16.042 63.134 16.0845 63.166 16.1361C63.2466 16.2581 63.3446 16.3712 63.4578 16.4728C63.5539 16.5577 63.6607 16.6942 63.8137 16.7033C63.8212 16.7038 63.8287 16.7029 63.8357 16.7006C63.8427 16.6983 63.849 16.6947 63.8542 16.69C63.8593 16.6853 63.8631 16.6798 63.8654 16.6736C63.8676 16.6675 63.8682 16.6611 63.8671 16.6548C63.8457 16.5365 63.7034 16.4576 63.5966 16.3727Z" fill="#C66720"/>
<path opacity="0.4" fill-rule="evenodd" clip-rule="evenodd" d="M37.5883 5.81399C37.5883 6.64813 36.09 7.33061 34.2358 7.33061C32.3816 7.33061 30.8833 6.6542 30.8833 5.81399C30.8833 4.97378 32.3816 4.29736 34.2358 4.29736C36.09 4.29736 37.5883 4.97984 37.5883 5.81399Z" fill="#DA840D"/>
<path fill-rule="evenodd" clip-rule="evenodd" d="M55.9449 18.4958C48.3858 16.8609 45.222 20.4492 45.3465 24.6715C45.3964 26.3216 47.1616 28.5965 48.3218 30.3164C49.351 31.6905 50.5513 32.9658 51.902 34.1201C52.7562 34.6388 53.895 35.2363 55.0374 35.2363C55.4754 35.1995 55.8941 35.0645 56.251 34.845C56.4183 34.8729 56.5801 34.9209 56.7315 34.9876C57.2724 35.1453 57.5109 34.5023 58.1016 34.7298C59.0447 35.0968 59.8597 34.3506 60.5644 33.9441C60.7922 33.8137 63.0556 30.8229 63.3012 30.6652C65.6323 28.1142 66.8067 27.362 66.8316 24.265C66.8601 20.3946 64.5788 16.9276 55.9449 18.4958Z" fill="#C73A54"/>
<g style="mix-blend-mode:multiply">
<path fill-rule="evenodd" clip-rule="evenodd" d="M58.8101 19.509C58.8101 19.9518 57.4791 20.3401 55.81 20.3765C54.1408 20.4129 52.7778 20.0731 52.7635 19.6394C52.7493 19.2056 54.0946 18.7992 55.7637 18.7719C57.4328 18.7446 58.7959 19.0661 58.8101 19.509Z" fill="#ED6366"/>
</g>
<path fill-rule="evenodd" clip-rule="evenodd" d="M51.1834 20.9405C50.5179 20.0821 49.1549 20.3339 48.3114 20.8374L48.2687 20.8647C48.0729 20.9774 47.8957 21.1121 47.742 21.2651C47.1421 21.8076 46.7617 22.4996 46.6565 23.2397C46.5533 24.1497 46.9128 25.1598 47.8345 25.5632C47.8606 25.5745 47.8817 25.5926 47.895 25.6147C47.9304 25.6084 47.9649 25.5993 47.9982 25.5874C48.5178 25.4054 48.4929 24.6775 48.4965 24.3074C48.4965 23.4854 49.2972 23.1214 50.0304 22.7696C50.703 22.4389 51.7671 21.6958 51.1834 20.9405Z" fill="#ED6366"/>
<g style="mix-blend-mode:multiply">
<path fill-rule="evenodd" clip-rule="evenodd" d="M63.2264 27.9472C62.6001 27.2587 61.6605 28.0989 61.2121 28.5235C60.1693 29.5093 59.5181 30.7257 58.2867 31.581C57.0553 32.4364 54.8203 31.8146 53.863 33.0582C53.8182 33.1182 53.7878 33.185 53.7734 33.255C53.759 33.3249 53.761 33.3966 53.7792 33.4659C53.7974 33.5353 53.8314 33.6008 53.8794 33.6589C53.9274 33.717 53.9883 33.7664 54.0587 33.8044C54.1582 33.8376 54.2623 33.8601 54.3683 33.8712C54.5898 33.9771 54.8303 34.0509 55.0801 34.0895C55.8608 34.1765 56.6537 34.049 57.3436 33.7256C57.97 33.4708 58.6782 33.768 59.301 33.5163C59.5312 33.4093 59.7296 33.2588 59.8811 33.0764C60.0808 32.8791 60.2484 32.6598 60.3793 32.4243C60.6925 31.9824 61.0497 31.5643 61.447 31.1746C61.9298 30.7075 62.3666 30.2074 62.7531 29.6792C63.2158 29.112 63.6357 28.4022 63.2264 27.9472Z" fill="#ED6366"/>
</g>
<path fill-rule="evenodd" clip-rule="evenodd" d="M63.0274 12.7328C62.6074 12.6114 61.8351 13.1574 61.5077 13.3242C60.7604 13.7064 60.0023 14.0917 59.2834 14.5102C58.1914 15.163 57.2864 16.0174 56.6356 17.0096C56.3642 17.4322 56.1823 17.8922 56.0982 18.3685C55.9877 18.6186 55.9322 18.8839 55.9345 19.1511C55.9325 19.1699 55.935 19.1887 55.9416 19.2067C55.9483 19.2246 55.959 19.2412 55.9732 19.2556C55.9875 19.27 56.0049 19.2818 56.0245 19.2905C56.0441 19.2991 56.0655 19.3043 56.0875 19.3058C57.9097 19.324 59.7745 18.3079 61.0486 17.2857C61.7162 16.784 62.245 16.1625 62.5968 15.4657C62.7721 15.0728 62.9032 14.6665 62.9882 14.2524C63.0879 13.8096 62.9384 13.2727 63.1057 12.8632C63.1148 12.837 63.1117 12.8089 63.0972 12.7846C63.0826 12.7603 63.0576 12.7418 63.0274 12.7328Z" fill="#8DB54F"/>
<path fill-rule="evenodd" clip-rule="evenodd" d="M55.6282 19.2511C55.6282 18.8173 55.7813 18.5473 55.9272 17.1824C56.0731 15.8174 56.0446 15.1349 56.1514 14.9105C56.2582 14.686 57.1123 15.1622 57.1123 15.1622C57.1123 15.1622 56.8383 16.2087 56.6354 17.0671C56.4326 17.9255 56.2297 19.4694 56.2297 19.4694C56.2297 19.4694 56.1194 19.7212 55.8525 19.6575C55.5855 19.5938 55.6282 19.2511 55.6282 19.2511Z" fill="#300D33"/>
</svg>
