<svg width="290" height="318" viewBox="0 0 290 318" fill="none" xmlns="http://www.w3.org/2000/svg">
<ellipse opacity="0.3" cx="146" cy="109.982" rx="144" ry="109.343" fill="white"/>
<g clip-path="url(#clip0_18_3451)">
<path opacity="0.27" d="M1.86743 263.122C1.86743 292.546 66.3058 319.482 145.348 317.94C235.18 316.187 288.033 290.356 288.033 260.931C288.033 231.507 224.153 212.698 145.124 212.698C66.0954 212.698 1.86743 233.691 1.86743 263.122Z" fill="black"/>
<path d="M0 259.992C0 289.416 64.4384 316.352 143.481 314.81C233.313 313.056 286.165 287.225 286.165 257.801C286.165 228.376 222.247 209.568 143.224 209.568C64.2016 209.568 0 230.567 0 259.992Z" fill="#B22F5D"/>
<path d="M0.124878 256.702C0.124878 286.133 61.1506 309.138 140.167 309.138C219.182 309.138 286.323 286.166 286.323 256.735C286.323 227.304 222.253 203.459 143.224 203.459C64.195 203.459 0.124878 227.278 0.124878 256.702Z" fill="url(#paint0_linear_18_3451)"/>
<path d="M4.97754 256.676C4.97754 283.903 63.7808 305.167 139.91 305.167C216.039 305.167 280.767 283.903 280.767 256.676C280.767 229.449 219.038 207.377 142.889 207.377C66.7397 207.377 4.97754 229.449 4.97754 256.676Z" fill="#B22F5D"/>
<path d="M10.3232 257.913C10.3232 283.625 66.9961 303.705 140.41 303.705C213.824 303.705 276.164 283.625 276.164 257.913C276.164 232.202 216.651 211.361 143.231 211.361C69.8104 211.361 10.3232 232.202 10.3232 257.913Z" fill="url(#paint1_linear_18_3451)"/>
<path d="M43.1277 262.698L49.1376 277.305L85.8411 288.576L126.273 292.54L155.303 290.66L174.168 285.445L196.767 276.676L43.5419 247.463L43.1277 262.698Z" fill="#914004"/>
<path d="M25.0915 262.698C25.0915 262.698 24.2564 262.281 31.726 260.607C39.1956 258.933 30.8909 255.187 32.9687 247.668C35.0466 240.15 50.8011 237.662 61.5781 239.323C72.355 240.984 63.2416 259.773 63.2416 259.773L49.5518 269.376L25.0915 262.698Z" fill="#914004"/>
<path d="M44.9951 245.167C44.9951 245.167 43.3316 250.177 45.4094 260.19C47.4872 270.203 60.7496 278.556 71.9474 280.23C83.1453 281.904 113.004 286.908 128.758 286.908C144.513 286.908 166.08 284.816 177.692 282.315C189.304 279.813 220.82 271.461 227.869 270.21C234.917 268.959 248.193 261.448 251.093 258.959C253.992 256.471 254.827 246.021 252.335 243.519C249.843 241.017 229.841 245.081 229.841 245.081L44.9951 245.167Z" fill="#FFEDC4"/>
<path d="M69.7709 233.373C69.7709 233.373 54.4306 233.79 46.961 241.315C39.4915 248.84 47.7895 265.729 70.6323 271.573C93.475 277.417 148.386 279.085 167.461 275.955C186.536 272.824 219.505 264.042 227.592 261.765C235.68 259.489 258.496 248.41 251.231 238.807C243.965 229.204 69.7709 233.373 69.7709 233.373Z" fill="url(#paint2_linear_18_3451)"/>
<path d="M61.8937 232.367C61.8937 232.367 60.96 234.869 66.2466 239.568C71.5331 244.267 77.4247 245.2 82.731 245.829C88.0373 246.457 96.4142 254.591 111.34 255.842C126.266 257.093 144 259.283 174.464 260.852C204.927 262.42 230.137 248.297 237.304 247.046C244.471 245.796 255.058 239.846 255.965 235.134C256.872 230.422 255.34 225.12 255.34 225.12L61.8937 232.367Z" fill="#FFEDC4"/>
<path d="M131.974 249.442C131.974 249.442 148.149 250.488 163.286 251.95C178.422 253.413 201.422 255.081 229.841 245.061C258.26 235.041 262.599 221.48 245.181 217.099C227.763 212.718 109.374 245.895 109.374 245.895C109.374 245.895 116.219 249.442 131.974 249.442Z" fill="#E2952C"/>
<path opacity="0.18" d="M58.1589 194.869C55.7033 197.512 53.1089 200.022 50.3868 202.387C46.0274 206.139 54.1151 206.556 56.3047 215.008C58.4942 223.459 56.8373 226.921 62.0581 232.017C69.9485 239.74 81.1266 240.839 92.5414 245.008C103.417 248.979 120.085 253.221 135.281 252.367C159.432 251.011 173.74 253.83 183.071 252.262C192.401 250.693 201.62 245.643 210.233 242.817C222.674 238.747 228.178 234.062 235.739 228.992C253.493 217.079 246.917 211.46 246.917 208.019C246.917 204.578 241.322 207.357 232.616 202.063C223.91 196.768 58.1589 194.869 58.1589 194.869Z" fill="black"/>
<path d="M58.159 193.83C55.7023 196.47 53.1079 198.978 50.3869 201.341C46.0275 205.1 42.6083 207.913 44.7847 216.365C46.9612 224.816 54.4308 227.615 60.0264 232.334C65.622 237.053 83.9738 248.926 95.4806 250.203C106.987 251.481 117.252 253.016 132.493 253.334C147.735 253.651 171.058 251.454 180.388 249.886C189.718 248.317 203.5 243.003 212.114 240.183C224.555 236.113 228.191 233.049 235.785 227.973C253.539 216.06 246.963 210.448 246.963 207C246.963 203.552 241.368 206.378 232.662 201.043C223.956 195.709 58.159 193.83 58.159 193.83Z" fill="#FFEDC4"/>
<path d="M60.0263 192.473C60.0263 192.473 46.7573 197.483 44.7123 207.291C42.6674 217.099 57.7775 227.324 67.9364 229.826C78.0953 232.328 87.84 241.739 104.43 244.856C121.019 247.973 144.033 246.729 164.765 245.69C185.497 244.651 208.307 237.748 221.162 231.077C234.016 224.406 248.535 221.48 247.496 209.376C246.457 197.271 232.984 197.059 232.984 197.059L60.0263 192.473Z" fill="url(#paint3_linear_18_3451)"/>
<path opacity="0.18" d="M52.6685 196.543C52.6685 196.543 54.115 206.556 72.572 211.983C91.029 217.41 109.683 218.35 118.185 217.94C126.687 217.529 140.265 218.774 153.33 218.562C166.396 218.35 192.828 210.739 198.01 210.739C203.191 210.739 223.726 205.941 230.775 205.107C237.824 204.273 241.953 199.68 240.105 198.634C238.257 197.589 211.285 203.016 211.285 203.016L160.274 210.527L95.5857 209.905L63.8597 203.433L52.6816 196.55" fill="black"/>
<path d="M50.3869 186.781C50.3869 186.781 49.7622 195.239 55.7787 200.09C58.3036 202.129 73.6044 213.863 100.978 213.446C128.351 213.029 148.248 216.365 171.886 212.195C195.524 208.026 215.014 205.1 227.454 202.585C239.895 200.071 252.75 192.572 250.678 181.301C248.607 170.031 50.3869 186.781 50.3869 186.781Z" fill="#FFEDC4"/>
<path d="M61.6833 171.599C61.6833 171.599 50.5052 173.274 50.0713 184.121C49.6373 194.968 70.8099 204.571 94.0274 206.245C117.245 207.92 137.99 208.33 162.871 205.828C187.752 203.327 211.384 201.652 230.045 194.975C248.706 188.297 257.832 177.443 242.9 176.609C227.967 175.775 61.6833 171.599 61.6833 171.599Z" fill="#E2802C"/>
<path d="M52.5633 162.42C52.5633 162.42 49.7622 165.861 54.1151 175.252C58.468 184.644 74.6433 189.342 81.4883 191.533C88.3332 193.724 109.479 197.165 121.295 201.235C133.111 205.305 144.625 203.426 154.573 201.864C164.522 200.302 182.255 196.569 190.961 195.603C199.667 194.637 222.378 193.413 238.547 181.831C254.716 170.249 254.098 160.229 253.151 155.848C252.204 151.467 52.5633 162.42 52.5633 162.42Z" fill="#FFEDC4"/>
<path d="M58.7835 146.139C58.7835 146.139 47.6055 157.39 54.2203 172.016C60.8351 186.642 82.0011 185.378 101.497 192.473C120.993 199.568 153.33 196.629 171.991 193.32C190.652 190.011 208.07 194.154 233.799 179.131C259.529 164.107 255.36 148.687 245.826 148.687C236.291 148.687 58.7835 146.139 58.7835 146.139Z" fill="url(#paint4_radial_18_3451)"/>
<path d="M49.7622 144.266C49.7622 144.266 47.5858 150.527 52.2477 154.908C56.9096 159.289 77.1288 167.112 86.4395 172.115C95.7502 177.119 125.01 184.637 156.73 180.256C188.449 175.874 205.558 173.995 214.593 173.055C223.627 172.115 236.673 170.236 245.694 163.353C249.055 160.806 251.846 157.576 253.885 153.873C255.924 150.169 257.166 146.075 257.53 141.857C257.839 136.847 227.98 139.038 227.98 139.038L49.7885 144.259" fill="#FFEDC4"/>
<path d="M71.2241 121.513C71.2241 121.513 50.4855 123.604 49.657 139.878C48.8285 156.152 68.7255 157.827 82.8362 164.087C96.9469 170.348 134.255 176.192 154.159 174.524C174.062 172.857 194.801 167.43 215.967 166.583C237.133 165.735 244.583 153.644 251.218 149.468C257.852 145.292 260.752 139.865 251.632 133.187C242.512 126.509 71.2241 121.513 71.2241 121.513Z" fill="url(#paint5_radial_18_3451)"/>
<path d="M50.8011 253.545C50.8011 253.545 47.8948 246.451 56.6071 245.604C65.3194 244.756 71.1189 248.913 78.1677 249.78C85.2164 250.647 101.392 254.783 111.34 255.829C121.289 256.874 148.248 259.376 148.248 259.376C148.248 259.376 153.225 263.135 141.613 264.386C130.001 265.637 94.343 267.305 91.851 273.148C89.3589 278.992 93.9288 283.585 96.8285 284.836C99.7282 286.087 117.146 287.967 123.787 288.384C130.428 288.8 157.381 287.761 171.064 284.413C184.747 281.064 203.822 275.65 210.043 274.816C210.043 274.816 190.553 281.077 181.433 284.83C172.313 288.582 148.668 296.934 128.765 295.683C108.861 294.433 96 291.931 84.8219 291.077C73.6438 290.223 49.8871 284.942 37.131 279.826C24.6904 274.823 19.3052 268.979 22.6192 263.943C25.9331 258.906 37.5518 263.943 37.966 260.183C38.3803 256.424 44.2981 257.357 45.429 264.571C46.0471 268.542 52.8921 278.549 85.2362 283.559C85.2362 283.559 88.1425 281.891 87.314 277.298C86.4855 272.705 83.1649 274.379 71.1386 270.203C59.1123 266.027 53.2603 262.281 50.8011 253.545Z" fill="#914004"/>
<path d="M130.836 90.7315C138.967 90.7315 145.558 89.6115 145.558 88.2298C145.558 86.8482 138.967 85.7281 130.836 85.7281C122.705 85.7281 116.114 86.8482 116.114 88.2298C116.114 89.6115 122.705 90.7315 130.836 90.7315Z" fill="#6C3200"/>
<path opacity="0.18" d="M95.1715 160.699C96.1052 160.957 119.428 170.037 148.353 167.218C177.278 164.399 192.21 156.265 198.431 155.636C204.651 155.007 230.459 146.245 237.304 144.683C244.149 143.121 253.479 137.165 248.193 131.844C242.906 126.523 95.1715 160.699 95.1715 160.699Z" fill="black"/>
<path d="M51.1627 134.352C51.1627 134.352 51.6296 139.408 53.497 140.818C55.3644 142.228 53.497 143.326 56.4493 145.358C59.4016 147.39 78.8449 156.609 95.1715 160.699C111.498 164.789 130.159 167.43 153.639 163.201C177.12 158.972 186.299 154.438 198.582 151.149C210.865 147.86 227.198 142.386 236.219 140.196C245.241 138.005 246.477 135.338 247.568 133.465C248.66 131.592 248.969 127.357 247.259 126.417C245.55 125.477 224.088 132.995 224.088 132.995L141.199 137.846L51.1627 134.352Z" fill="#FFEDC4"/>
<path d="M57.2055 116.714C57.2055 116.714 52.5436 118.905 51.2877 127.357C50.0318 135.808 51.5968 139.269 59.9935 142.069C68.3902 144.868 83.9409 153.981 104.778 157.41C125.615 160.838 143.967 158.661 172.583 152.717C201.199 146.774 222.963 137.065 232.918 135.186C242.873 133.306 249.087 128.607 246.911 125.477C244.734 122.347 228.25 122.347 228.25 122.347L57.2055 116.714Z" fill="url(#paint6_radial_18_3451)"/>
<path d="M64.537 123.551C64.537 123.551 49.9726 127.462 51.2154 133.756C52.4581 140.05 69.8762 145.861 73.1902 147.112C76.5041 148.363 77.3392 154.623 74.4395 154.623C71.5398 154.623 62.8274 150.454 62.4132 154.206C61.9989 157.959 76.7146 160.679 82.8362 164.134C88.9578 167.588 93.5145 174.676 88.537 174.26C83.5595 173.843 65.2603 171.751 67.3315 178.846C69.4028 185.941 79.4104 183.856 91.851 189.7C104.292 195.544 93.9288 197.642 86.4592 195.961C74.4921 193.313 66.5556 201.387 83.5595 204.306C100.563 207.225 103.89 208.853 102.22 213.836C100.55 218.82 83.9737 217.595 78.9962 219.68C74.0187 221.765 74.4395 229.277 86.4592 233.036C98.4789 236.795 103.049 231.368 110.926 234.703C118.803 238.039 129.587 238.879 133.322 233.036C137.056 227.192 122.952 220.931 117.146 218.012C111.34 215.094 103.049 213.002 108.441 209.243C113.832 205.484 122.124 209.243 121.71 204.65C121.295 200.057 108.441 200.481 105.12 197.139C101.799 193.796 103.049 189.627 114.247 190.461C125.444 191.295 127.562 185.424 120.519 182.069C113.477 178.714 100.978 179.197 98.0713 175.861C95.165 172.526 91.851 165.007 96.8285 165.007C101.806 165.007 109.013 171.923 111.656 167.979C113.714 164.915 100.563 162.188 95.1715 160.699C89.7798 159.21 80.7847 156.185 80.7847 156.185C80.7847 156.185 76.0965 153.756 79.8247 147.079C83.5529 140.401 94.343 147.496 106.784 142.909C119.224 138.323 107.178 129.421 92.7124 128.164C83.2273 127.273 73.8137 125.731 64.537 123.551Z" fill="#914004"/>
<path opacity="0.18" d="M54.4307 118.7L52.2477 123.081C52.2477 123.081 64.0833 132.472 94.2378 132.161C124.392 131.85 132.493 133.723 140.581 130.593C148.669 127.462 174.477 129.931 180.079 129.931C185.681 129.931 214.271 128.058 223.312 124.928C232.353 121.797 54.4307 118.7 54.4307 118.7Z" fill="black"/>
<path d="M43.2329 95.4304C43.2361 96.657 43.4451 97.8742 43.851 99.0307C44.5086 100.434 42.6083 102.631 42.6083 106.231C42.6083 109.832 46.0275 114.835 58.159 120.944C70.2905 127.052 88.3266 128.296 111.031 129.077C133.736 129.858 128.127 127.357 159.242 126.265C190.356 125.173 182.098 129.865 215.066 126.106C248.035 122.347 248.66 117.502 249.436 116.245C250.212 114.987 251.178 110.143 250.521 108.607C249.863 107.072 237.613 104.855 237.613 104.855L43.2329 95.4304Z" fill="#FFEDC4"/>
<path d="M45.7184 100.665C45.7184 100.665 46.7573 99.4145 44.2652 97.3563C41.7732 95.298 43.851 89.8446 51.3206 84.2126C58.7902 78.5805 89.4576 65.8471 142.133 68.1436C194.808 70.4401 231.912 88.3357 238.547 93.1339C245.181 97.9321 250.159 101.691 249.955 106.906C249.955 106.906 252.441 110.665 245.392 111.499C238.343 112.333 225.902 114.418 214.29 116.086C202.678 117.754 170.124 119.395 151.259 117.76C132.395 116.125 117.462 120.891 91.542 118.594C65.622 116.298 50.8537 113.18 45.7184 106.906C42.8187 103.359 45.7184 100.665 45.7184 100.665Z" fill="url(#paint7_linear_18_3451)"/>
<path d="M126.247 81.7572C126.247 81.7572 96.0788 81.4462 98.5643 87.3165C101.05 93.1868 110.696 88.8586 114.424 96.2709C118.152 103.683 89.8586 100.904 79.5747 100.593C69.2909 100.282 62.2027 107.118 64.7671 113.69C68.1928 122.459 73.5057 121.036 69.8761 124.941C69.5145 125.331 72.7758 125.775 72.7758 125.775C72.7758 125.775 74.4854 124.703 72.4668 119.401C70.1128 113.24 83.6449 110.758 95.7895 112.611C107.934 114.464 145.243 114.775 156.44 115.391C167.638 116.006 183.498 117.244 186.917 113.227C190.336 109.209 178.52 112.016 179.77 106.145C181.019 100.275 195.005 104.603 211.798 102.446C228.592 100.288 221.444 91.3271 211.798 88.8586C202.152 86.39 224.239 86.6944 234.812 91.6382C245.385 96.582 238.856 87.932 226.415 83.9148C213.975 79.8975 185.359 82.0683 166.698 83.2993C148.037 84.5303 142.757 82.0683 126.247 81.7572Z" fill="#914004"/>
<path opacity="0.18" d="M245.701 163.359C236.679 170.242 223.621 172.122 214.599 173.062C205.578 174.001 188.476 175.881 156.736 180.262C124.997 184.643 95.7765 177.132 86.4461 172.122C77.977 167.575 60.5261 160.706 53.8981 156.199L53.1683 156.265C53.1683 156.265 52.5502 157.932 52.5502 162.42C52.5502 166.907 67.4762 168.786 76.2214 172.539C84.9666 176.291 105.764 182.976 121.315 184.643C136.866 186.311 159.57 185.06 172.945 182.87C186.319 180.679 210.575 176.298 217.111 176.913C223.647 177.529 253.184 173.604 253.184 155.841C253.181 155.637 253.153 155.435 253.098 155.239C251.147 158.378 248.639 161.131 245.701 163.359Z" fill="black"/>
<path opacity="0.18" d="M81.4882 191.533C74.6433 189.342 58.4745 184.644 54.1151 175.252C54.1151 175.252 51.6296 176.609 50.3868 180.679C50.3868 180.679 60.3353 189.448 70.5995 191.93C80.8636 194.412 89.5693 197.887 96.7233 195.689C96.8623 195.662 96.9935 195.604 97.1073 195.52C97.2211 195.435 97.3146 195.325 97.3808 195.2C90.6214 193.777 84.5852 192.526 81.4882 191.533Z" fill="black"/>
<path d="M86.137 100.387C86.1368 100.793 86.0166 101.189 85.7917 101.525C85.5667 101.862 85.2473 102.123 84.8741 102.275C84.501 102.428 84.0911 102.465 83.6969 102.382C83.3027 102.299 82.942 102.099 82.661 101.809C82.38 101.519 82.1914 101.151 82.1193 100.752C82.0472 100.353 82.0949 99.9415 82.2562 99.57C82.4176 99.1986 82.6854 98.8841 83.0252 98.6666C83.3651 98.4491 83.7617 98.3385 84.1644 98.3491C84.6929 98.3612 85.1955 98.5815 85.5644 98.9627C85.9332 99.3438 86.1388 99.8554 86.137 100.387Z" fill="#D72F5D"/>
<path d="M101.083 107.581C102.198 107.581 103.101 106.672 103.101 105.55C103.101 104.427 102.198 103.518 101.083 103.518C99.9679 103.518 99.0641 104.427 99.0641 105.55C99.0641 106.672 99.9679 107.581 101.083 107.581Z" fill="#F6605D"/>
<path d="M107.77 101.79C107.771 102.194 107.654 102.589 107.432 102.925C107.21 103.261 106.894 103.523 106.524 103.678C106.154 103.834 105.747 103.875 105.354 103.797C104.96 103.719 104.599 103.526 104.315 103.241C104.031 102.956 103.838 102.593 103.759 102.197C103.68 101.802 103.72 101.391 103.873 101.019C104.026 100.646 104.286 100.327 104.619 100.103C104.952 99.8784 105.344 99.7587 105.745 99.7587C106.281 99.7587 106.795 99.9725 107.174 100.353C107.554 100.734 107.768 101.251 107.77 101.79Z" fill="#D72F5D"/>
<path d="M213.824 99.2888C214.938 99.2888 215.842 98.3791 215.842 97.257C215.842 96.1349 214.938 95.2252 213.824 95.2252C212.709 95.2252 211.805 96.1349 211.805 97.257C211.805 98.3791 212.709 99.2888 213.824 99.2888Z" fill="#D72F5D"/>
<path d="M227.507 86.6613C228.622 86.6613 229.525 85.7517 229.525 84.6296C229.525 83.5074 228.622 82.5978 227.507 82.5978C226.392 82.5978 225.488 83.5074 225.488 84.6296C225.488 85.7517 226.392 86.6613 227.507 86.6613Z" fill="#D72F5D"/>
<path d="M98.8997 141.387C100.015 141.387 100.918 140.477 100.918 139.355C100.918 138.233 100.015 137.323 98.8997 137.323C97.7849 137.323 96.8811 138.233 96.8811 139.355C96.8811 140.477 97.7849 141.387 98.8997 141.387Z" fill="#D72F5D"/>
<path d="M77.9112 259.409C77.9125 259.813 77.7949 260.207 77.5731 260.543C77.3514 260.88 77.0356 261.142 76.6656 261.297C76.2957 261.452 75.8883 261.494 75.495 261.416C75.1017 261.338 74.7402 261.144 74.4563 260.86C74.1725 260.575 73.9789 260.212 73.9002 259.816C73.8216 259.42 73.8613 259.01 74.0144 258.637C74.1675 258.264 74.427 257.946 74.7602 257.721C75.0934 257.497 75.4852 257.377 75.886 257.377C76.422 257.377 76.9361 257.591 77.3158 257.972C77.6954 258.353 77.9095 258.87 77.9112 259.409Z" fill="#D72F5D"/>
<path d="M130.626 108.21C131.741 108.21 132.644 107.3 132.644 106.178C132.644 105.056 131.741 104.146 130.626 104.146C129.511 104.146 128.607 105.056 128.607 106.178C128.607 107.3 129.511 108.21 130.626 108.21Z" fill="#F6605D"/>
<path d="M107.178 260.978C107.178 261.381 107.059 261.775 106.837 262.11C106.614 262.445 106.298 262.707 105.928 262.861C105.558 263.015 105.151 263.056 104.758 262.977C104.365 262.898 104.004 262.704 103.721 262.419C103.438 262.134 103.245 261.771 103.167 261.375C103.088 260.98 103.129 260.57 103.282 260.198C103.435 259.825 103.695 259.507 104.028 259.283C104.361 259.059 104.752 258.939 105.153 258.939C105.69 258.939 106.205 259.154 106.585 259.536C106.965 259.919 107.178 260.437 107.178 260.978Z" fill="#F6605D"/>
<path d="M110.097 228.416C111.212 228.416 112.116 227.506 112.116 226.384C112.116 225.262 111.212 224.353 110.097 224.353C108.983 224.353 108.079 225.262 108.079 226.384C108.079 227.506 108.983 228.416 110.097 228.416Z" fill="#F6605D"/>
<path d="M88.3266 184.749C89.4415 184.749 90.3452 183.84 90.3452 182.718C90.3452 181.596 89.4415 180.686 88.3266 180.686C87.2118 180.686 86.308 181.596 86.308 182.718C86.308 183.84 87.2118 184.749 88.3266 184.749Z" fill="#F6605D"/>
<path d="M183.965 112.121C185.08 112.121 185.984 111.212 185.984 110.09C185.984 108.968 185.08 108.058 183.965 108.058C182.85 108.058 181.946 108.968 181.946 110.09C181.946 111.212 182.85 112.121 183.965 112.121Z" fill="#F6605D"/>
<path d="M59.0926 135.755C60.2075 135.755 61.1112 134.845 61.1112 133.723C61.1112 132.601 60.2075 131.691 59.0926 131.691C57.9777 131.691 57.074 132.601 57.074 133.723C57.074 134.845 57.9777 135.755 59.0926 135.755Z" fill="#F6605D"/>
<path d="M110.255 82.6971C110.257 83.1005 110.139 83.4953 109.917 83.8313C109.696 84.1674 109.38 84.4297 109.01 84.585C108.64 84.7403 108.232 84.7816 107.839 84.7037C107.446 84.6258 107.084 84.4322 106.8 84.1474C106.517 83.8626 106.323 83.4994 106.244 83.1038C106.166 82.7082 106.205 82.298 106.358 81.9252C106.512 81.5523 106.771 81.2336 107.104 81.0093C107.437 80.785 107.829 80.6653 108.23 80.6653C108.766 80.6653 109.28 80.8791 109.66 81.26C110.039 81.6408 110.254 82.1576 110.255 82.6971Z" fill="#F6605D"/>
<path d="M208.096 93.1736C208.315 93.3952 208.464 93.677 208.524 93.9836C208.584 94.2902 208.552 94.6077 208.433 94.8962C208.314 95.1847 208.112 95.4311 207.854 95.6045C207.596 95.7779 207.292 95.8705 206.982 95.8705C206.672 95.8705 206.368 95.7779 206.11 95.6045C205.852 95.4311 205.65 95.1847 205.531 94.8962C205.412 94.6077 205.38 94.2902 205.44 93.9836C205.5 93.677 205.649 93.3952 205.867 93.1736C206.163 92.8765 206.564 92.7097 206.982 92.7097C207.4 92.7097 207.801 92.8765 208.096 93.1736Z" fill="#F6605D"/>
<path d="M216.723 83.7691C217.591 83.7691 218.295 83.0609 218.295 82.1873C218.295 81.3138 217.591 80.6056 216.723 80.6056C215.855 80.6056 215.152 81.3138 215.152 82.1873C215.152 83.0609 215.855 83.7691 216.723 83.7691Z" fill="#F6605D"/>
<path d="M115.851 102.029C115.851 102.261 115.783 102.487 115.655 102.68C115.527 102.872 115.345 103.022 115.133 103.111C114.92 103.2 114.686 103.223 114.46 103.178C114.234 103.133 114.027 103.021 113.864 102.857C113.701 102.693 113.591 102.485 113.546 102.257C113.501 102.03 113.524 101.795 113.612 101.581C113.7 101.367 113.849 101.184 114.041 101.055C114.232 100.926 114.457 100.857 114.687 100.857C114.996 100.857 115.292 100.981 115.51 101.201C115.728 101.42 115.851 101.718 115.851 102.029Z" fill="#F6605D"/>
<path d="M123.708 112.201C123.71 112.434 123.642 112.663 123.514 112.857C123.387 113.052 123.204 113.204 122.991 113.294C122.777 113.384 122.541 113.408 122.314 113.364C122.086 113.319 121.877 113.207 121.713 113.043C121.548 112.878 121.436 112.669 121.391 112.44C121.345 112.211 121.368 111.974 121.456 111.758C121.545 111.543 121.695 111.358 121.887 111.229C122.08 111.099 122.306 111.03 122.538 111.03C122.847 111.03 123.144 111.153 123.363 111.372C123.583 111.592 123.707 111.89 123.708 112.201Z" fill="#F6605D"/>
<path d="M70.2904 139.355C70.2917 139.589 70.2242 139.817 70.0963 140.012C69.9685 140.206 69.7862 140.358 69.5725 140.448C69.3587 140.539 69.1232 140.563 68.8957 140.518C68.6682 140.473 68.4591 140.362 68.2947 140.197C68.1304 140.033 68.0183 139.823 67.9726 139.594C67.9269 139.365 67.9497 139.128 68.038 138.913C68.1264 138.697 68.2764 138.513 68.4691 138.383C68.6617 138.253 68.8882 138.184 69.12 138.184C69.4293 138.184 69.726 138.307 69.9453 138.527C70.1646 138.746 70.2887 139.044 70.2904 139.355Z" fill="#F6605D"/>
<path d="M80.7847 179.508C80.7847 179.741 80.7159 179.969 80.587 180.163C80.4581 180.357 80.2749 180.508 80.0606 180.597C79.8464 180.686 79.6107 180.709 79.3835 180.663C79.1563 180.617 78.9477 180.504 78.7843 180.339C78.6209 180.173 78.51 179.963 78.4655 179.734C78.4211 179.505 78.4452 179.268 78.5348 179.052C78.6244 178.837 78.7755 178.654 78.9688 178.525C79.1621 178.397 79.3891 178.329 79.6208 178.33C79.7742 178.33 79.9261 178.36 80.0677 178.42C80.2094 178.479 80.338 178.566 80.4461 178.675C80.5543 178.785 80.6399 178.915 80.698 179.058C80.7561 179.2 80.7855 179.354 80.7847 179.508Z" fill="#F6605D"/>
<path d="M107.224 137.793C107.225 138.027 107.158 138.255 107.03 138.45C106.902 138.644 106.72 138.796 106.506 138.887C106.292 138.977 106.057 139.001 105.829 138.956C105.602 138.912 105.393 138.8 105.228 138.635C105.064 138.471 104.952 138.261 104.906 138.032C104.861 137.804 104.883 137.566 104.972 137.351C105.06 137.135 105.21 136.951 105.403 136.821C105.595 136.691 105.822 136.622 106.054 136.622C106.363 136.622 106.66 136.745 106.879 136.965C107.098 137.184 107.222 137.482 107.224 137.793Z" fill="#F6605D"/>
<path d="M177.666 109.309C177.664 109.54 177.595 109.766 177.466 109.958C177.338 110.15 177.156 110.299 176.943 110.386C176.73 110.474 176.496 110.496 176.271 110.45C176.046 110.404 175.839 110.292 175.677 110.128C175.515 109.964 175.404 109.755 175.36 109.528C175.316 109.301 175.339 109.066 175.427 108.852C175.516 108.639 175.665 108.456 175.856 108.328C176.047 108.199 176.272 108.131 176.502 108.131C176.655 108.131 176.807 108.161 176.949 108.221C177.09 108.28 177.219 108.367 177.327 108.476C177.435 108.586 177.521 108.716 177.579 108.858C177.637 109.001 177.667 109.154 177.666 109.309Z" fill="#F6605D"/>
<path d="M76.4317 105C76.433 105.234 76.3653 105.463 76.2372 105.657C76.1091 105.852 75.9264 106.004 75.7123 106.094C75.4981 106.184 75.2623 106.208 75.0346 106.163C74.807 106.117 74.5978 106.005 74.4337 105.84C74.2697 105.675 74.1581 105.464 74.1131 105.235C74.0682 105.006 74.0919 104.769 74.1813 104.553C74.2707 104.338 74.4217 104.154 74.6152 104.025C74.8087 103.896 75.0359 103.828 75.2679 103.829C75.576 103.831 75.8711 103.955 76.089 104.174C76.3068 104.393 76.43 104.69 76.4317 105Z" fill="#F6605D"/>
<path d="M105.981 86.2178C105.983 86.4511 105.915 86.6795 105.787 86.8741C105.66 87.0687 105.477 87.2207 105.263 87.3109C105.05 87.4011 104.814 87.4253 104.587 87.3806C104.359 87.3359 104.15 87.2242 103.986 87.0598C103.821 86.8953 103.709 86.6854 103.664 86.4567C103.618 86.228 103.641 85.9908 103.729 85.7751C103.817 85.5595 103.967 85.3751 104.16 85.2454C104.353 85.1156 104.579 85.0464 104.811 85.0464C105.12 85.0464 105.417 85.1696 105.636 85.3891C105.856 85.6086 105.98 85.9065 105.981 86.2178Z" fill="#F6605D"/>
<path d="M124.563 96.1584C124.565 96.3916 124.497 96.62 124.369 96.8146C124.241 97.0092 124.059 97.1613 123.845 97.2514C123.632 97.3416 123.396 97.3659 123.169 97.3212C122.941 97.2765 122.732 97.1648 122.568 97.0003C122.403 96.8358 122.291 96.6259 122.245 96.3972C122.2 96.1686 122.222 95.9313 122.311 95.7157C122.399 95.5001 122.549 95.3157 122.742 95.1859C122.934 95.0562 123.161 94.9869 123.393 94.9869C123.702 94.9869 123.999 95.1101 124.218 95.3296C124.437 95.5491 124.561 95.8471 124.563 96.1584Z" fill="#F6605D"/>
<path d="M91.9824 265.279C91.9837 265.513 91.916 265.742 91.7879 265.936C91.6598 266.131 91.4771 266.283 91.2629 266.373C91.0488 266.463 90.8129 266.487 90.5853 266.442C90.3576 266.397 90.1485 266.284 89.9844 266.119C89.8203 265.954 89.7087 265.743 89.6638 265.514C89.6188 265.285 89.6426 265.048 89.732 264.832C89.8214 264.617 89.9724 264.433 90.1659 264.304C90.3593 264.175 90.5865 264.107 90.8186 264.108C91.1272 264.108 91.4233 264.231 91.6415 264.451C91.8598 264.671 91.9824 264.969 91.9824 265.279Z" fill="#F6605D"/>
<path d="M223.338 82.7962C223.339 83.0294 223.272 83.2579 223.144 83.4524C223.016 83.647 222.834 83.7991 222.62 83.8892C222.406 83.9794 222.171 84.0037 221.943 83.959C221.716 83.9143 221.507 83.8026 221.342 83.6381C221.178 83.4736 221.066 83.2638 221.02 83.0351C220.975 82.8064 220.997 82.5692 221.086 82.3535C221.174 82.1379 221.324 81.9535 221.517 81.8238C221.709 81.694 221.936 81.6248 222.168 81.6248C222.477 81.6248 222.774 81.748 222.993 81.9675C223.212 82.1869 223.336 82.4849 223.338 82.7962Z" fill="#F6605D"/>
<path d="M206.045 100.229C206.045 100.46 205.977 100.687 205.849 100.879C205.721 101.072 205.539 101.222 205.327 101.311C205.114 101.4 204.88 101.423 204.654 101.378C204.428 101.332 204.221 101.221 204.058 101.057C203.895 100.893 203.785 100.684 203.74 100.457C203.695 100.23 203.718 99.9944 203.806 99.7804C203.894 99.5663 204.043 99.3834 204.235 99.2547C204.426 99.126 204.651 99.0573 204.881 99.0573C205.19 99.0573 205.486 99.1807 205.704 99.4004C205.922 99.62 206.045 99.918 206.045 100.229Z" fill="#F6605D"/>
<path opacity="0.19" d="M246.529 281.792C246.529 283.288 239.954 284.505 231.807 284.505C223.66 284.505 217.092 283.288 217.092 281.792C217.092 280.296 223.667 279.078 231.807 279.078C239.947 279.078 246.529 280.296 246.529 281.792Z" fill="black"/>
<path opacity="0.19" d="M179.349 297.444C179.349 298.939 172.774 300.157 164.633 300.157C156.493 300.157 149.918 298.939 149.918 297.444C149.918 295.948 156.493 294.73 164.64 294.73C172.787 294.73 179.349 295.948 179.349 297.444Z" fill="black"/>
<path opacity="0.19" d="M147.63 298.073C147.63 299.568 141.054 300.786 132.907 300.786C124.761 300.786 118.185 299.568 118.185 298.073C118.185 296.577 124.761 295.359 132.907 295.359C141.054 295.359 147.63 296.564 147.63 298.073Z" fill="black"/>
<path d="M79.1539 229.356C80.4765 230.727 81.9972 231.89 83.6646 232.804C86.2948 234.207 85.841 239.376 85.0652 242.506C84.2893 245.637 80.8635 245.948 76.6684 245.815C72.4734 245.683 56.9424 243.936 53.0301 246.596C49.1178 249.257 83.04 260.058 83.04 260.058L104.66 254.869C104.66 254.869 92.995 252.367 91.2854 247.357C89.5758 242.347 89.7271 239.998 90.8186 237.966C91.9101 235.934 95.1715 234.207 98.2816 234.207C101.392 234.207 79.1539 229.356 79.1539 229.356Z" fill="#914004"/>
<path d="M226.626 259.25C226.626 259.25 229.013 257.794 229.841 257.688C230.67 257.583 232.018 259.879 232.018 259.879C232.249 259.151 232.563 258.451 232.951 257.794C233.569 256.749 235.851 259.462 235.851 259.462C235.851 259.462 236.061 257.477 236.37 257.377C236.679 257.278 239.277 259.879 239.277 259.879L236.785 263.115C236.785 263.115 228.802 263.737 228.388 263.426C227.974 263.115 226.626 259.25 226.626 259.25Z" fill="#343057"/>
<path d="M227.336 258.218C227.336 258.218 213.87 260.203 217.664 273.096C221.457 285.988 240.677 284.148 245.385 278.622C250.093 273.096 252.835 263.486 238.455 258.615C238.04 258.893 237.694 259.263 237.444 259.697C237.195 260.13 237.048 260.616 237.015 261.117C236.298 260.264 235.399 259.585 234.385 259.131C233.508 259.795 232.793 260.65 232.294 261.633C232.294 261.633 232.688 260.184 230.203 258.986C230.203 258.986 228.368 259.647 227.849 260.971L227.336 258.218Z" fill="#605A8F"/>
<path opacity="0.45" d="M241.552 272.923C237.751 281.884 226.33 281.031 220.596 278.218C227.303 285.266 241.44 283.228 245.385 278.595C249.988 273.155 252.736 263.771 239.112 258.827L239.066 259.019L238.455 258.589C238.455 258.589 245.497 263.638 241.552 272.923Z" fill="#343057"/>
<path opacity="0.16" d="M220.202 266.782C220.202 266.782 220.977 263.962 223.154 263.023C223.67 262.77 224.24 262.65 224.813 262.674C225.386 262.698 225.944 262.864 226.438 263.159C226.931 263.454 227.344 263.867 227.64 264.362C227.935 264.856 228.104 265.417 228.131 265.994C228.441 268.814 227.816 271.474 225.639 273.512C223.463 275.551 218.176 273.182 220.202 266.782Z" fill="#E0E6FF"/>
<path opacity="0.19" d="M130.626 92.0882C136.294 92.0882 140.89 91.1786 140.89 90.0564C140.89 88.9343 136.294 88.0247 130.626 88.0247C124.957 88.0247 120.362 88.9343 120.362 90.0564C120.362 91.1786 124.957 92.0882 130.626 92.0882Z" fill="black"/>
<path opacity="0.19" d="M207.781 85.9863C207.781 87.1114 203.178 88.0181 197.517 88.0181C191.855 88.0181 187.253 87.1114 187.253 85.9863C187.253 84.8612 191.855 83.9479 197.517 83.9479C203.178 83.9479 207.781 84.8612 207.781 85.9863Z" fill="black"/>
<path opacity="0.19" d="M158.775 113.683C165.733 113.683 171.373 112.563 171.373 111.182C171.373 109.8 165.733 108.68 158.775 108.68C151.817 108.68 146.176 109.8 146.176 111.182C146.176 112.563 151.817 113.683 158.775 113.683Z" fill="black"/>
<path opacity="0.19" d="M81.6395 85.1987C88.5974 85.1987 94.2379 84.0786 94.2379 82.697C94.2379 81.3153 88.5974 80.1953 81.6395 80.1953C74.6816 80.1953 69.0411 81.3153 69.0411 82.697C69.0411 84.0786 74.6816 85.1987 81.6395 85.1987Z" fill="black"/>
<path opacity="0.19" d="M169.19 84.8876C174.514 84.8876 178.83 84.4669 178.83 83.9478C178.83 83.4288 174.514 83.0081 169.19 83.0081C163.866 83.0081 159.551 83.4288 159.551 83.9478C159.551 84.4669 163.866 84.8876 169.19 84.8876Z" fill="black"/>
<path d="M126.904 64.7485C126.904 64.7485 124.682 64.4904 124.162 64.4904C123.643 64.4904 123.952 67.356 123.952 67.356C122.979 67.1568 121.992 67.0351 120.999 66.992C120.585 67.0979 120.427 70.1224 120.427 70.1224C119.33 69.8456 118.349 69.2244 117.626 68.3488C117.614 69.6755 117.685 71.0017 117.837 72.3197C118.041 73.3124 121.986 73.6764 122.242 73.4712C122.499 73.2661 128.818 68.1767 128.818 68.0443C128.818 67.912 126.904 64.7485 126.904 64.7485Z" fill="#343057"/>
<path d="M117.613 68.3488C117.613 68.3488 117.771 70.6982 115.437 74.6096C113.102 78.5209 113.569 85.2516 119.014 89.0108C124.458 92.7699 135.656 91.0425 141.409 84.6295C147.163 78.2165 144.697 69.1297 139.7 65.9993C134.702 62.8689 128.811 65.2184 126.635 63.8087C126.337 64.687 126.145 65.598 126.062 66.5222C126.062 67.5149 124.405 66.681 123.11 66.681C122.784 67.6666 122.542 68.6784 122.387 69.7055C122.334 70.6453 120.158 69.2886 119.533 69.1827C118.908 69.0768 119.428 69.9702 118.757 71.2211C118.087 72.4719 117.613 68.3488 117.613 68.3488Z" fill="#605A8F"/>
<path opacity="0.45" d="M139.7 65.9993C136.379 63.9146 132.651 64.2588 129.883 64.3051L129.692 64.4375C143.066 65.9993 141.528 84.8876 128.66 87.9122C120.46 89.838 116.732 86.4562 115.068 84.2655C115.917 86.1873 117.284 87.8312 119.014 89.0108C124.458 92.7699 135.656 91.0426 141.409 84.6295C147.163 78.2165 144.658 69.1297 139.7 65.9993Z" fill="#343057"/>
<path d="M159.242 60.4732C159.242 60.4732 161.622 59.0105 162.45 58.9046C163.279 58.7988 164.633 61.0953 164.633 61.0953C164.866 60.3684 165.177 59.6693 165.561 59.0105C166.218 57.9649 168.467 60.6783 168.467 60.6783C168.467 60.6783 168.671 58.6929 168.986 58.5936C169.302 58.4943 171.886 61.0953 171.886 61.0953L169.401 64.3316C169.401 64.3316 161.418 64.9934 161.004 64.6426C160.59 64.2918 159.242 60.4732 159.242 60.4732Z" fill="#343057"/>
<path d="M159.952 59.4407C159.952 59.4407 146.479 61.4261 150.273 74.3117C154.067 87.1973 173.287 85.3707 177.995 79.8379C182.702 74.3051 185.425 64.7021 171.064 59.8378C170.653 60.1165 170.312 60.4864 170.065 60.9189C169.819 61.3515 169.675 61.8352 169.644 62.3328C168.923 61.4839 168.025 60.8059 167.014 60.3474C166.137 61.0109 165.422 61.8664 164.923 62.849C164.923 62.849 165.311 61.3997 162.825 60.2018C162.825 60.2018 160.997 60.8636 160.471 62.1872L159.952 59.4407Z" fill="#605A8F"/>
<path opacity="0.45" d="M174.168 74.1397C170.367 83.1007 158.939 82.2469 153.205 79.4871C159.919 86.5355 174.049 84.4971 177.995 79.8644C182.63 74.4242 185.352 65.0397 171.728 60.1025L171.682 60.2944L171.064 59.8708C171.064 59.8708 178.106 64.8543 174.168 74.1397Z" fill="#343057"/>
<path d="M83.8159 199.932C84.9307 199.932 85.8345 199.022 85.8345 197.9C85.8345 196.778 84.9307 195.868 83.8159 195.868C82.701 195.868 81.7972 196.778 81.7972 197.9C81.7972 199.022 82.701 199.932 83.8159 199.932Z" fill="#D72F5D"/>
<path d="M99.3665 202.433C100.481 202.433 101.385 201.524 101.385 200.401C101.385 199.279 100.481 198.37 99.3665 198.37C98.2517 198.37 97.3479 199.279 97.3479 200.401C97.3479 201.524 98.2517 202.433 99.3665 202.433Z" fill="#F6605D"/>
<path d="M61.4268 254.71C62.5417 254.71 63.4455 253.801 63.4455 252.679C63.4455 251.556 62.5417 250.647 61.4268 250.647C60.312 250.647 59.4082 251.556 59.4082 252.679C59.4082 253.801 60.312 254.71 61.4268 254.71Z" fill="#F6605D"/>
<path d="M104.811 199.462C104.812 199.695 104.744 199.924 104.616 200.119C104.488 200.313 104.306 200.465 104.091 200.555C103.877 200.645 103.641 200.669 103.414 200.624C103.186 200.579 102.977 200.466 102.813 200.301C102.649 200.136 102.537 199.926 102.492 199.696C102.447 199.467 102.471 199.23 102.56 199.014C102.65 198.799 102.801 198.615 102.994 198.486C103.188 198.357 103.415 198.289 103.647 198.29C103.8 198.29 103.951 198.32 104.092 198.379C104.234 198.438 104.362 198.525 104.47 198.633C104.578 198.742 104.664 198.871 104.722 199.013C104.781 199.155 104.811 199.308 104.811 199.462Z" fill="#F6605D"/>
<path d="M85.7622 258.39C85.7635 258.624 85.6958 258.852 85.5677 259.047C85.4396 259.242 85.2569 259.394 85.0427 259.484C84.8286 259.574 84.5927 259.598 84.3651 259.552C84.1374 259.507 83.9283 259.395 83.7642 259.23C83.6001 259.064 83.4885 258.854 83.4436 258.625C83.3986 258.396 83.4223 258.158 83.5117 257.943C83.6011 257.727 83.7522 257.543 83.9457 257.414C84.1391 257.285 84.3663 257.217 84.5984 257.219C84.9065 257.22 85.2015 257.344 85.4194 257.564C85.6373 257.783 85.7605 258.08 85.7622 258.39Z" fill="#F6605D"/>
<path d="M123.084 225.213C123.084 225.446 123.015 225.674 122.886 225.868C122.757 226.062 122.574 226.213 122.36 226.302C122.146 226.391 121.91 226.414 121.683 226.368C121.455 226.322 121.247 226.209 121.084 226.044C120.92 225.878 120.809 225.668 120.765 225.439C120.72 225.21 120.744 224.973 120.834 224.758C120.924 224.542 121.075 224.359 121.268 224.23C121.461 224.102 121.688 224.034 121.92 224.035C122.073 224.035 122.225 224.065 122.367 224.125C122.509 224.184 122.637 224.271 122.745 224.38C122.853 224.49 122.939 224.62 122.997 224.763C123.055 224.906 123.085 225.059 123.084 225.213Z" fill="#F6605D"/>
<path d="M92.0548 222.003C92.0548 222.236 91.9862 222.464 91.8576 222.658C91.729 222.851 91.5462 223.002 91.3323 223.092C91.1184 223.181 90.8831 223.204 90.6561 223.159C90.429 223.113 90.2205 223.001 90.0568 222.836C89.8931 222.671 89.7816 222.462 89.7365 222.233C89.6913 222.005 89.7145 221.768 89.8031 221.552C89.8917 221.337 90.0417 221.153 90.2342 221.024C90.4266 220.894 90.6529 220.825 90.8844 220.825C91.1948 220.825 91.4925 220.949 91.712 221.17C91.9315 221.391 92.0548 221.691 92.0548 222.003Z" fill="#F6605D"/>
<path opacity="0.16" d="M122.854 81.1351C122.854 83.2066 121.387 84.8876 119.566 84.8876C117.745 84.8876 116.278 83.2066 116.278 81.1351C116.278 79.0636 117.745 77.376 119.566 77.376C121.387 77.376 122.854 79.057 122.854 81.1351Z" fill="#E0E6FF"/>
<path opacity="0.16" d="M120.414 74.7155C120.416 74.9438 120.349 75.1674 120.224 75.3578C120.099 75.5482 119.92 75.6968 119.711 75.7848C119.502 75.8727 119.271 75.8961 119.049 75.8519C118.826 75.8077 118.622 75.6978 118.461 75.5364C118.301 75.375 118.192 75.1692 118.148 74.9452C118.104 74.7212 118.127 74.4891 118.214 74.2784C118.302 74.0677 118.45 73.8879 118.639 73.7619C118.828 73.6359 119.05 73.5693 119.277 73.5706C119.426 73.5706 119.574 73.6002 119.712 73.6577C119.85 73.7153 119.975 73.7996 120.081 73.9059C120.187 74.0122 120.271 74.1385 120.328 74.2774C120.385 74.4163 120.414 74.5652 120.414 74.7155Z" fill="#E0E6FF"/>
<path opacity="0.16" d="M151.233 68.7657C151.233 68.7657 151.89 65.1654 153.863 63.6564C155.836 62.1475 158.939 61.8828 158.893 65.5294C158.847 69.176 157.749 71.1681 158.472 74.2985C159.196 77.4289 155.467 78.3157 153.81 76.8002C152.153 75.2846 150.575 72.9418 151.233 68.7657Z" fill="#E0E6FF"/>
<path d="M188.37 62.9749C188.37 62.9749 190.547 61.413 191.171 61.5123C192.191 61.8297 193.07 62.4942 193.657 63.3919C193.657 63.3919 195.419 60.9961 196.044 60.9961C196.668 60.9961 198.115 63.1867 198.115 63.1867L198.431 61.5123C199.285 62.0267 199.914 62.847 200.193 63.8088C200.607 65.3773 198.01 67.4621 198.01 67.4621C198.01 67.4621 192.309 69.7586 191.895 69.5534C191.48 69.3482 188.37 62.9749 188.37 62.9749Z" fill="#343057"/>
<path d="M188.791 62.0614C188.791 62.0614 175.325 64.0469 179.119 76.9325C182.913 89.8181 202.133 87.9848 206.841 82.4586C211.549 76.9325 214.29 67.3229 199.89 62.4519C199.483 62.7289 199.143 63.0958 198.897 63.5246C198.651 63.9535 198.505 64.4331 198.47 64.9271C197.753 64.0741 196.854 63.3953 195.84 62.9416C194.966 63.6077 194.251 64.4625 193.749 65.4433C193.749 65.4433 194.144 63.9939 191.658 62.796C191.658 62.796 189.824 63.4578 189.304 64.7815L188.791 62.0614Z" fill="#605A8F"/>
<path opacity="0.45" d="M207.307 66.4758C208.675 71.1814 206.795 79.2688 198.273 82.5382C191.303 85.1854 184.031 82.5977 181.572 81.5388C188.061 89.2291 202.797 87.204 206.841 82.4587C210.464 78.2099 212.91 71.5454 207.307 66.4758Z" fill="#343057"/>
<path opacity="0.16" d="M182.512 66.542C183.353 65.9653 184.379 65.729 185.385 65.8801C186.865 66.2044 188.213 67.9053 186.76 70.1952C185.306 72.4851 183.012 76.4957 181.085 75.0331C179.158 73.5705 179.31 72.0086 180.184 69.6459C180.709 68.4426 181.506 67.3796 182.512 66.542Z" fill="#E0E6FF"/>
<path d="M181.479 78.3158C181.479 78.3158 173.55 77.5349 170.124 83.9479C166.698 90.3609 168.414 98.1902 174.634 101.321C180.855 104.451 189.1 104.921 194.071 98.6734C199.042 92.4258 200.758 79.7255 181.479 78.3158Z" fill="#605A8F"/>
<path d="M179.665 78.3688C179.665 78.3688 181.578 79.6924 181.841 80.9234C181.841 80.9234 183.445 79.9307 184.642 80.1425C185.839 80.3542 186.45 82.2272 186.45 82.2272C186.45 82.2272 188.476 80.2417 189.409 80.9036C190.343 81.5654 191.014 82.7302 190.862 82.6772C190.711 82.6243 191.066 80.7977 191.842 81.0094C191.842 81.0094 191.185 78.296 189.981 78.4548C189.218 78.5728 188.501 78.8951 187.904 79.388C187.746 78.6067 187.337 77.8994 186.74 77.3761C185.859 76.7142 183.991 78.574 183.991 78.574C183.603 77.8604 183.031 77.2658 182.334 76.8532C181.322 76.3304 179.665 78.3688 179.665 78.3688Z" fill="#343057"/>
<path opacity="0.45" d="M195.801 84.4707C195.945 85.4436 196.879 93.3391 188.712 97.8262C179.954 102.631 170.959 95.4304 169.9 93.6038C169.771 93.3788 169.574 93.201 169.337 93.0963C169.101 92.9916 168.837 92.9654 168.585 93.0214C169.407 96.5754 171.478 99.7256 174.654 101.321C180.875 104.451 189.12 104.921 194.091 98.6733C197.017 94.9605 198.819 89.0108 195.801 84.4707Z" fill="#343057"/>
<path d="M154.764 85.7215C154.764 85.7215 144.566 85.1987 141.166 93.617C137.767 102.035 141.429 112.049 155.941 112.181C170.453 112.313 172.932 103.227 172.682 97.568C172.432 91.9095 167.323 85.1987 154.764 85.7215Z" fill="#605A8F"/>
<path d="M152.291 90.7382C152.291 90.7382 152.193 87.9188 153.541 88.7527C154.229 89.1438 154.855 89.6343 155.402 90.2087C155.402 90.2087 155.921 88.9579 156.717 88.7527C157.512 88.5476 157.808 91.2544 157.808 91.2544C157.808 91.2544 159.879 90.1095 160.609 90.7316C161.339 91.3537 159.676 92.717 159.676 92.717C159.676 92.717 160.813 93.2399 159.879 93.9679C158.946 94.6959 159.676 96.4695 157.598 96.4695C157.338 96.491 157.077 96.4534 156.834 96.3595C156.591 96.2656 156.372 96.1178 156.193 95.9271C156.014 95.7364 155.881 95.5077 155.802 95.2579C155.723 95.0081 155.701 94.7437 155.737 94.4841C155.737 94.4841 154.179 96.2578 153.14 95.5231C152.101 94.7885 152.416 93.3325 152.416 93.3325C152.019 93.3234 151.629 93.2137 151.285 93.0137C150.94 92.8136 150.651 92.5295 150.444 92.1876C149.806 91.0426 152.291 90.7382 152.291 90.7382Z" fill="#343057"/>
<path opacity="0.45" d="M172.682 97.5681C172.64 96.7264 172.497 95.8929 172.254 95.0863C172.412 99.2293 170.61 106.999 159.551 109.408C148.78 111.791 142.317 106.02 141.258 104.98C143.323 109.084 148.004 112.108 155.941 112.181C170.459 112.307 172.931 103.227 172.682 97.5681Z" fill="#343057"/>
<path opacity="0.16" d="M142.448 96.1054C142.87 94.875 143.739 93.8511 144.881 93.2397C146.643 92.4522 149.287 93.1868 149.484 96.6282C149.681 100.07 150.312 105.894 147.255 105.861C144.197 105.828 143.185 104.094 142.33 101.009C141.989 99.3878 142.029 97.7084 142.448 96.1054Z" fill="#E0E6FF"/>
<path opacity="0.19" d="M194.696 231.705C200.978 231.705 206.071 230.692 206.071 229.442C206.071 228.192 200.978 227.179 194.696 227.179C188.413 227.179 183.321 228.192 183.321 229.442C183.321 230.692 188.413 231.705 194.696 231.705Z" fill="black"/>
<path d="M195.011 206.166C195.011 206.166 185.806 205.689 182.729 213.3C179.651 220.911 182.965 229.938 196.07 230.058C209.175 230.177 211.424 221.977 211.193 216.868C210.963 211.758 206.347 205.689 195.011 206.166Z" fill="#605A8F"/>
<path d="M192.776 210.693C192.776 210.693 192.684 208.145 193.9 208.899C194.523 209.255 195.09 209.701 195.584 210.223C195.584 210.223 196.057 209.091 196.8 208.899C197.543 208.707 197.74 211.163 197.74 211.163C197.74 211.163 199.614 210.124 200.265 210.693C200.916 211.262 199.424 212.48 199.424 212.48C199.424 212.48 200.456 212.95 199.614 213.611C198.773 214.273 199.424 215.875 197.55 215.875C197.315 215.893 197.08 215.858 196.861 215.772C196.642 215.687 196.445 215.554 196.283 215.382C196.122 215.21 196.001 215.004 195.929 214.779C195.857 214.554 195.835 214.316 195.866 214.081C195.866 214.081 194.466 215.683 193.526 215.028C193.249 214.787 193.042 214.475 192.926 214.126C192.811 213.776 192.791 213.402 192.868 213.042C192.509 213.033 192.158 212.933 191.848 212.751C191.538 212.57 191.278 212.312 191.093 212.003C190.527 210.971 192.776 210.693 192.776 210.693Z" fill="#343057"/>
<path opacity="0.45" d="M211.187 216.867C211.152 216.104 211.024 215.349 210.805 214.617C210.944 218.363 209.319 225.352 199.331 227.562C189.607 229.707 183.768 224.498 182.808 223.558C184.675 227.265 188.91 229.991 196.07 230.057C209.181 230.177 211.424 221.977 211.187 216.867Z" fill="#343057"/>
<path opacity="0.16" d="M183.886 215.544C184.264 214.43 185.049 213.502 186.082 212.95C187.673 212.248 190.06 212.903 190.251 216.014C190.442 219.124 191 224.406 188.239 224.353C185.477 224.3 184.563 222.758 183.787 219.971C183.479 218.508 183.513 216.992 183.886 215.544Z" fill="#E0E6FF"/>
<path opacity="0.16" d="M176.581 88.2232C175.772 90.1292 173.767 91.0955 172.11 90.3807C170.453 89.666 169.769 87.5415 170.578 85.6355C171.386 83.7295 173.392 82.7566 175.049 83.4713C176.706 84.1861 177.39 86.3105 176.581 88.2232Z" fill="#E0E6FF"/>
<path opacity="0.16" d="M177.784 81.9823C177.695 82.192 177.546 82.3704 177.357 82.4949C177.167 82.6195 176.945 82.6845 176.718 82.6818C176.492 82.6792 176.271 82.6089 176.084 82.4799C175.898 82.3509 175.753 82.169 175.669 81.9572C175.585 81.7455 175.566 81.5134 175.613 81.2904C175.66 81.0674 175.772 80.8636 175.934 80.7046C176.097 80.5457 176.302 80.4389 176.525 80.3977C176.748 80.3565 176.978 80.3829 177.186 80.4733C177.463 80.5941 177.682 80.8207 177.794 81.1035C177.907 81.3863 177.903 81.7022 177.784 81.9823Z" fill="#E0E6FF"/>
<path d="M151.93 278.35C151.93 278.35 154.422 274.28 155.665 274.28C156.48 274.306 157.278 274.518 157.999 274.902C157.999 274.902 158.926 272.738 160.175 272.738C161.425 272.738 163.752 274.148 163.752 274.148L163.285 280.104L151.93 278.35Z" fill="#343057"/>
<path d="M152.778 275.518C152.778 275.518 140.239 280.852 147.15 292.368C154.06 303.883 172.195 297.206 175.358 290.66C178.521 284.115 178.77 274.115 163.627 273.069C163.297 273.444 163.056 273.89 162.924 274.373C162.791 274.856 162.771 275.363 162.865 275.855C161.961 275.219 160.928 274.794 159.84 274.611C159.159 275.476 158.682 276.485 158.446 277.563C158.446 277.563 158.446 276.061 155.757 275.577C155.757 275.577 154.152 276.676 153.975 278.086L152.778 275.518Z" fill="#605A8F"/>
<path opacity="0.16" d="M149.661 285.194C149.661 285.194 150.279 282.957 152.009 282.209C152.418 282.011 152.87 281.918 153.324 281.938C153.778 281.958 154.22 282.091 154.611 282.325C155.002 282.559 155.329 282.887 155.563 283.279C155.797 283.67 155.932 284.115 155.954 284.572C156.129 285.651 156.041 286.757 155.698 287.795C155.354 288.832 154.765 289.77 153.981 290.528C152.259 292.163 148.057 290.296 149.661 285.194Z" fill="#E0E6FF"/>
<path d="M137.425 274.598C137.425 274.598 135.847 272.996 135.452 272.672C135.058 272.348 133.512 274.783 133.512 274.783C132.874 274.015 132.177 273.298 131.428 272.639C131.04 272.46 129.041 274.724 129.041 274.724C128.353 273.82 127.973 272.718 127.956 271.58C127.124 272.607 126.358 273.686 125.661 274.81C125.208 275.716 128.055 278.476 128.39 278.476C128.726 278.476 136.8 278.476 136.899 278.377C136.997 278.278 137.425 274.598 137.425 274.598Z" fill="#343057"/>
<path d="M127.956 271.58C127.956 271.58 126.641 273.513 122.374 275.101C118.106 276.689 114.312 282.242 116.232 288.602C118.152 294.962 127.969 300.647 136.445 299.251C144.921 297.854 148.603 289.198 146.663 283.625C144.723 278.053 138.641 276.173 137.819 273.698C137.043 274.198 136.327 274.789 135.689 275.458C135.071 276.233 134.295 274.538 133.282 273.724C132.415 274.287 131.599 274.925 130.843 275.63C130.185 276.332 129.357 273.903 128.936 273.433C128.515 272.963 128.37 273.976 127.069 274.532C125.767 275.088 127.956 271.58 127.956 271.58Z" fill="#605A8F"/>
<path opacity="0.16" d="M119.783 279.303C119.783 279.303 121.499 277.04 123.814 276.98C124.371 276.941 124.93 277.041 125.44 277.272C125.95 277.503 126.395 277.858 126.735 278.304C127.075 278.751 127.3 279.275 127.389 279.831C127.478 280.387 127.429 280.956 127.246 281.487C126.516 284.135 124.991 286.339 122.288 287.384C119.586 288.43 115.641 284.38 119.783 279.303Z" fill="#E0E6FF"/>
<path opacity="0.45" d="M139.022 278.82C141.357 282.573 142.757 289.621 136.392 294.155C130.843 298.126 121.269 294.115 118.908 293.016C122.854 297.298 130.034 300.296 136.458 299.251C144.927 297.854 148.616 289.198 146.676 283.625C144.736 278.053 138.654 276.173 137.832 273.698C137.819 273.704 136.688 275.061 139.022 278.82Z" fill="#343057"/>
<path opacity="0.45" d="M149.872 295.571C157.946 302.374 172.55 296.471 175.358 290.66C178.337 284.512 178.731 275.332 166.231 273.36C169.335 274.022 174.023 276.305 173.392 283.83C172.471 294.763 158.61 298.873 149.872 295.571Z" fill="#343057"/>
<path d="M79.075 60.215C79.075 60.215 66.3583 59.8378 64.1161 70.7512C61.8739 81.6645 73.8345 88.0908 87.6756 81.2873C101.517 74.4838 97.0191 57.2037 79.075 60.215Z" fill="#605A8F"/>
<path d="M78.1348 61.2806C78.1348 61.2806 78.8844 57.9715 78.0164 56.6479C77.1485 55.3242 78.5753 54.9602 79.2 55.0198C79.8246 55.0793 80.1337 58.6598 79.509 59.9768C78.8844 61.2938 78.7594 62.2204 78.1348 61.2806Z" fill="#343057"/>
<path opacity="0.45" d="M91.0225 61.8762C93.0609 64.9801 93.7578 73.8684 85.0587 79.785C76.6685 85.4899 67.2263 80.4998 66.2598 79.9571C70.205 84.4906 78.5294 85.7679 87.6757 81.2807C97.565 76.4428 98.0844 66.2508 91.0225 61.8762Z" fill="#343057"/>
<path opacity="0.16" d="M66.7924 68.6467C66.7924 68.6467 67.6603 66.3833 69.5343 65.7877C69.9803 65.6217 70.4602 65.5697 70.9311 65.6363C71.4019 65.703 71.849 65.8862 72.2321 66.1696C72.6153 66.4529 72.9227 66.8276 73.1266 67.2599C73.3305 67.6922 73.4247 68.1688 73.4006 68.6467C73.4006 70.9962 72.697 73.1405 70.7705 74.6428C68.8439 76.1451 64.6028 73.7758 66.7924 68.6467Z" fill="#E0E6FF"/>
<path opacity="0.18" d="M167.329 228.264C167.329 229.296 166.073 230.144 164.528 230.144C162.983 230.144 161.753 229.296 161.753 228.264C161.753 227.232 163.009 226.384 164.555 226.384C166.1 226.384 167.329 227.225 167.329 228.264Z" fill="#CC562A"/>
<path opacity="0.18" d="M57.2252 214.174C58.7722 214.174 60.0263 213.332 60.0263 212.294C60.0263 211.256 58.7722 210.415 57.2252 210.415C55.6782 210.415 54.4241 211.256 54.4241 212.294C54.4241 213.332 55.6782 214.174 57.2252 214.174Z" fill="#CC562A"/>
<path opacity="0.34" d="M139.956 269.27C139.956 270.309 138.7 271.15 137.155 271.15C135.61 271.15 134.361 270.309 134.361 269.27C134.361 268.231 135.61 267.391 137.155 267.391C138.7 267.391 139.956 268.231 139.956 269.27Z" fill="#CC562A"/>
<path opacity="0.28" d="M218.019 222.943C219.566 222.943 220.82 222.101 220.82 221.063C220.82 220.025 219.566 219.184 218.019 219.184C216.472 219.184 215.218 220.025 215.218 221.063C215.218 222.101 216.472 222.943 218.019 222.943Z" fill="#CC562A"/>
<path opacity="0.38" d="M156.75 190.673C156.75 191.705 155.5 192.552 153.955 192.552C152.41 192.552 151.154 191.705 151.154 190.673C151.154 189.64 152.403 188.793 153.955 188.793C155.507 188.793 156.75 189.66 156.75 190.673Z" fill="#CC562A"/>
<path opacity="0.38" d="M140.89 140.295C140.89 141.334 139.634 142.175 138.089 142.175C136.544 142.175 135.294 141.334 135.294 140.295C135.294 139.256 136.544 138.422 138.089 138.422C139.634 138.422 140.89 139.263 140.89 140.295Z" fill="#CC562A"/>
<path opacity="0.38" d="M213.981 134.663C213.981 135.702 212.725 136.543 211.18 136.543C209.635 136.543 208.379 135.702 208.379 134.663C208.379 133.624 209.635 132.783 211.18 132.783C212.725 132.783 213.981 133.624 213.981 134.663Z" fill="#CC562A"/>
<path opacity="0.21" d="M60.0263 98.349C61.5733 98.349 62.8274 97.5075 62.8274 96.4694C62.8274 95.4314 61.5733 94.5898 60.0263 94.5898C58.4793 94.5898 57.2252 95.4314 57.2252 96.4694C57.2252 97.5075 58.4793 98.349 60.0263 98.349Z" fill="#CC562A"/>
<path opacity="0.21" d="M210.871 110.248C210.871 111.281 209.615 112.121 208.07 112.121C206.525 112.121 205.269 111.281 205.269 110.248C205.269 109.216 206.525 108.369 208.07 108.369C209.615 108.369 210.871 109.209 210.871 110.248Z" fill="#CC562A"/>
<path opacity="0.41" d="M238.862 105.861C238.862 106.9 237.607 107.74 236.061 107.74C234.516 107.74 233.26 106.9 233.26 105.861C233.26 104.822 234.516 103.974 236.055 103.974C237.593 103.974 238.862 104.828 238.862 105.861Z" fill="#CC562A"/>
<path opacity="0.21" d="M89.4246 91.6184C89.4246 92.2272 88.6948 92.717 87.7874 92.717C86.88 92.717 86.137 92.2272 86.137 91.6184C86.137 91.0095 86.8668 90.5264 87.7676 90.5264C88.6685 90.5264 89.4246 91.0161 89.4246 91.6184Z" fill="#CC562A"/>
<path opacity="0.21" d="M108.309 76.2774C108.309 76.8863 107.579 77.376 106.678 77.376C105.777 77.376 105.048 76.8863 105.048 76.2774C105.048 75.6686 105.777 75.1854 106.678 75.1854C107.579 75.1854 108.309 75.6752 108.309 76.2774Z" fill="#CC562A"/>
<path opacity="0.21" d="M63.5244 86.1384C63.5244 86.7473 62.7946 87.237 61.8937 87.237C60.9929 87.237 60.2565 86.7473 60.2565 86.1384C60.2565 85.5295 60.9929 85.0464 61.8937 85.0464C62.7946 85.0464 63.5244 85.5361 63.5244 86.1384Z" fill="#CC562A"/>
<path opacity="0.21" d="M75.6559 88.9578C75.6559 89.5667 74.926 90.0565 74.0186 90.0565C73.1112 90.0565 72.3879 89.5667 72.3879 88.9578C72.3879 88.349 73.1178 87.8658 74.0186 87.8658C74.9194 87.8658 75.6559 88.3556 75.6559 88.9578Z" fill="#CC562A"/>
<path opacity="0.21" d="M113.911 72.6837C113.911 73.286 113.181 73.7757 112.274 73.7757C111.367 73.7757 110.643 73.286 110.643 72.6837C110.643 72.0814 111.373 71.5851 112.274 71.5851C113.175 71.5851 113.911 72.0748 113.911 72.6837Z" fill="#CC562A"/>
<path opacity="0.38" d="M127.516 154.385C129.063 154.385 130.317 153.544 130.317 152.506C130.317 151.468 129.063 150.626 127.516 150.626C125.969 150.626 124.714 151.468 124.714 152.506C124.714 153.544 125.969 154.385 127.516 154.385Z" fill="#CC562A"/>
<path opacity="0.38" d="M226.731 159.395C226.731 160.428 225.475 161.268 223.93 161.268C222.385 161.268 221.129 160.428 221.129 159.395C221.129 158.363 222.385 157.516 223.93 157.516C225.475 157.516 226.731 158.356 226.731 159.395Z" fill="#CC562A"/>
<path opacity="0.38" d="M152.706 270.839C152.706 271.871 151.456 272.712 149.911 272.712C148.366 272.712 147.11 271.871 147.11 270.839C147.11 269.806 148.366 268.959 149.911 268.959C151.456 268.959 152.706 269.8 152.706 270.839Z" fill="#CC562A"/>
<path opacity="0.16" d="M168.572 240.786C168.572 241.818 167.316 242.665 165.771 242.665C164.226 242.665 162.97 241.818 162.97 240.786C162.97 239.753 164.226 238.906 165.771 238.906C167.316 238.906 168.572 239.747 168.572 240.786Z" fill="#CC562A"/>
<path opacity="0.38" d="M213.666 181.93C215.213 181.93 216.467 181.089 216.467 180.05C216.467 179.012 215.213 178.171 213.666 178.171C212.119 178.171 210.865 179.012 210.865 180.05C210.865 181.089 212.119 181.93 213.666 181.93Z" fill="#CC562A"/>
<path opacity="0.38" d="M211.18 160.017C211.18 160.54 210.556 160.957 209.78 160.957C209.004 160.957 208.379 160.54 208.379 160.017C208.379 159.494 209.004 159.077 209.78 159.077C210.556 159.077 211.18 159.501 211.18 160.017Z" fill="#CC562A"/>
<path opacity="0.38" d="M158.617 268.959C159.39 268.959 160.018 268.538 160.018 268.019C160.018 267.5 159.39 267.08 158.617 267.08C157.843 267.08 157.216 267.5 157.216 268.019C157.216 268.538 157.843 268.959 158.617 268.959Z" fill="#CC562A"/>
<path opacity="0.38" d="M137.938 149.686C137.938 150.209 137.28 150.626 136.537 150.626C135.794 150.626 135.136 150.209 135.136 149.686C135.136 149.163 135.761 148.746 136.537 148.746C137.313 148.746 137.938 149.17 137.938 149.686Z" fill="#CC562A"/>
<path opacity="0.38" d="M204.96 185.378C205.734 185.378 206.361 184.957 206.361 184.438C206.361 183.919 205.734 183.499 204.96 183.499C204.187 183.499 203.559 183.919 203.559 184.438C203.559 184.957 204.187 185.378 204.96 185.378Z" fill="#CC562A"/>
<path opacity="0.38" d="M198.74 184.438C199.513 184.438 200.14 184.018 200.14 183.499C200.14 182.98 199.513 182.559 198.74 182.559C197.966 182.559 197.339 182.98 197.339 183.499C197.339 184.018 197.966 184.438 198.74 184.438Z" fill="#CC562A"/>
<path opacity="0.18" d="M158.617 235.147C159.39 235.147 160.018 234.726 160.018 234.207C160.018 233.688 159.39 233.267 158.617 233.267C157.843 233.267 157.216 233.688 157.216 234.207C157.216 234.726 157.843 235.147 158.617 235.147Z" fill="#CC562A"/>
<path opacity="0.18" d="M103.568 241.097C104.342 241.097 104.969 240.676 104.969 240.157C104.969 239.638 104.342 239.217 103.568 239.217C102.795 239.217 102.168 239.638 102.168 240.157C102.168 240.676 102.795 241.097 103.568 241.097Z" fill="#CC562A"/>
<path opacity="0.18" d="M68.7321 226.384C69.5056 226.384 70.1326 225.964 70.1326 225.445C70.1326 224.926 69.5056 224.505 68.7321 224.505C67.9586 224.505 67.3315 224.926 67.3315 225.445C67.3315 225.964 67.9586 226.384 68.7321 226.384Z" fill="#CC562A"/>
<path opacity="0.18" d="M119.428 271.461C120.201 271.461 120.828 271.04 120.828 270.521C120.828 270.002 120.201 269.581 119.428 269.581C118.654 269.581 118.027 270.002 118.027 270.521C118.027 271.04 118.654 271.461 119.428 271.461Z" fill="#CC562A"/>
<path opacity="0.18" d="M137.004 222.003C137.004 222.519 136.346 222.943 135.603 222.943C134.86 222.943 134.203 222.519 134.203 222.003C134.203 221.487 134.86 221.063 135.603 221.063C136.346 221.063 137.004 221.48 137.004 222.003Z" fill="#CC562A"/>
<path opacity="0.18" d="M70.5994 216.682C71.3729 216.682 72 216.261 72 215.742C72 215.223 71.3729 214.802 70.5994 214.802C69.8259 214.802 69.1989 215.223 69.1989 215.742C69.1989 216.261 69.8259 216.682 70.5994 216.682Z" fill="#CC562A"/>
<path opacity="0.38" d="M169.506 187.569C170.279 187.569 170.906 187.148 170.906 186.629C170.906 186.11 170.279 185.689 169.506 185.689C168.732 185.689 168.105 186.11 168.105 186.629C168.105 187.148 168.732 187.569 169.506 187.569Z" fill="#CC562A"/>
<path opacity="0.38" d="M166.547 268.641C166.547 269.164 165.922 269.581 165.146 269.581C164.37 269.581 163.752 269.164 163.752 268.641C163.752 268.119 164.41 267.708 165.146 267.708C165.883 267.708 166.547 268.105 166.547 268.641Z" fill="#CC562A"/>
<path opacity="0.22" d="M64.5369 216.993C64.5369 217.509 63.8794 217.933 63.1364 217.933C62.3934 217.933 61.7358 217.509 61.7358 216.993C61.7358 216.477 62.3934 216.053 63.1364 216.053C63.8794 216.053 64.5369 216.484 64.5369 216.993Z" fill="#CC562A"/>
<path opacity="0.22" d="M57.5408 241.408C58.3143 241.408 58.9414 240.987 58.9414 240.468C58.9414 239.949 58.3143 239.528 57.5408 239.528C56.7673 239.528 56.1403 239.949 56.1403 240.468C56.1403 240.987 56.7673 241.408 57.5408 241.408Z" fill="#CC562A"/>
<path opacity="0.18" d="M153.021 227.953C153.795 227.953 154.422 227.532 154.422 227.013C154.422 226.494 153.795 226.073 153.021 226.073C152.248 226.073 151.621 226.494 151.621 227.013C151.621 227.532 152.248 227.953 153.021 227.953Z" fill="#CC562A"/>
<path opacity="0.18" d="M181.479 238.595C182.253 238.595 182.88 238.174 182.88 237.655C182.88 237.136 182.253 236.715 181.479 236.715C180.706 236.715 180.079 237.136 180.079 237.655C180.079 238.174 180.706 238.595 181.479 238.595Z" fill="#CC562A"/>
<path opacity="0.38" d="M163.595 141.235C164.368 141.235 164.995 140.814 164.995 140.295C164.995 139.776 164.368 139.355 163.595 139.355C162.821 139.355 162.194 139.776 162.194 140.295C162.194 140.814 162.821 141.235 163.595 141.235Z" fill="#CC562A"/>
<path opacity="0.38" d="M224.219 131.222C224.219 131.738 223.595 132.161 222.825 132.161C222.056 132.161 221.425 131.738 221.425 131.222C221.425 130.705 222.082 130.282 222.825 130.282C223.568 130.282 224.219 130.699 224.219 131.222Z" fill="#CC562A"/>
<path opacity="0.38" d="M204.184 134.663C204.958 134.663 205.585 134.242 205.585 133.723C205.585 133.204 204.958 132.783 204.184 132.783C203.411 132.783 202.784 133.204 202.784 133.723C202.784 134.242 203.411 134.663 204.184 134.663Z" fill="#CC562A"/>
<path opacity="0.21" d="M67.4893 93.9678C68.2628 93.9678 68.8898 93.5471 68.8898 93.028C68.8898 92.509 68.2628 92.0883 67.4893 92.0883C66.7158 92.0883 66.0887 92.509 66.0887 93.028C66.0887 93.5471 66.7158 93.9678 67.4893 93.9678Z" fill="#CC562A"/>
<path opacity="0.21" d="M104.66 72.3661C104.66 72.8889 104.002 73.3058 103.259 73.3058C102.516 73.3058 101.859 72.8889 101.859 72.3661C101.859 71.8432 102.516 71.4263 103.259 71.4263C104.002 71.4263 104.66 71.8498 104.66 72.3661Z" fill="#CC562A"/>
<path opacity="0.21" d="M216.158 107.429C216.931 107.429 217.558 107.008 217.558 106.489C217.558 105.97 216.931 105.55 216.158 105.55C215.384 105.55 214.757 105.97 214.757 106.489C214.757 107.008 215.384 107.429 216.158 107.429Z" fill="#CC562A"/>
<path opacity="0.38" d="M234.036 150.626C234.81 150.626 235.437 150.205 235.437 149.686C235.437 149.167 234.81 148.746 234.036 148.746C233.263 148.746 232.636 149.167 232.636 149.686C232.636 150.205 233.263 150.626 234.036 150.626Z" fill="#CC562A"/>
<path opacity="0.38" d="M173.083 144.683C173.083 145.199 172.425 145.616 171.682 145.616C170.939 145.616 170.282 145.199 170.282 144.683C170.282 144.167 170.906 143.743 171.682 143.743C172.458 143.743 173.083 144.16 173.083 144.683Z" fill="#CC562A"/>
<path opacity="0.38" d="M123.939 146.556C124.712 146.556 125.339 146.135 125.339 145.616C125.339 145.097 124.712 144.676 123.939 144.676C123.165 144.676 122.538 145.097 122.538 145.616C122.538 146.135 123.165 146.556 123.939 146.556Z" fill="#CC562A"/>
<path opacity="0.21" d="M79.7786 95.5297C79.7786 96.0526 79.1211 96.4695 78.3781 96.4695C77.6351 96.4695 76.9775 96.0526 76.9775 95.5297C76.9775 95.0069 77.6351 94.5966 78.3781 94.5966C79.1211 94.5966 79.7786 95.0135 79.7786 95.5297Z" fill="#CC562A"/>
<path fill-rule="evenodd" clip-rule="evenodd" d="M288.566 308.625C288.987 308.625 289.407 308.683 289.806 308.814C292.267 309.594 293.154 312.226 292.413 314.527C291.993 315.703 291.306 316.776 290.407 317.653C289.12 318.869 287.707 319.948 286.186 320.877L286.02 320.975L285.846 320.871C284.32 319.948 282.9 318.869 281.6 317.647C280.707 316.77 280.02 315.703 279.593 314.527C278.84 312.226 279.726 309.594 282.214 308.8C282.407 308.735 282.606 308.69 282.806 308.664H282.886C283.074 308.638 283.26 308.625 283.446 308.625H283.52C283.94 308.638 284.346 308.709 284.74 308.84H284.78C284.806 308.852 284.826 308.866 284.84 308.878C284.987 308.924 285.126 308.976 285.26 309.048L285.513 309.158C285.574 309.19 285.643 309.239 285.702 309.281C285.74 309.308 285.774 309.332 285.8 309.347C285.811 309.353 285.822 309.36 285.833 309.366C285.89 309.398 285.95 309.432 286 309.47C286.74 308.918 287.64 308.619 288.566 308.625ZM290.34 313.305C290.613 313.298 290.846 313.084 290.866 312.811V312.733C290.886 311.823 290.32 310.998 289.46 310.679C289.186 310.588 288.886 310.731 288.786 311.004C288.693 311.277 288.84 311.576 289.12 311.673C289.547 311.829 289.833 312.239 289.833 312.694V312.714C289.82 312.863 289.866 313.006 289.96 313.117C290.053 313.227 290.193 313.292 290.34 313.305Z" fill="#FF0000"/>
</g>
<defs>
<linearGradient id="paint0_linear_18_3451" x1="287.836" y1="244.902" x2="10.6964" y2="266.227" gradientUnits="userSpaceOnUse">
<stop stop-color="#D72F5D"/>
<stop offset="0.33" stop-color="#D83360"/>
<stop offset="0.64" stop-color="#DA3E68"/>
<stop offset="0.93" stop-color="#DD5077"/>
<stop offset="1" stop-color="#DE567B"/>
</linearGradient>
<linearGradient id="paint1_linear_18_3451" x1="4184.03" y1="28470.3" x2="111672" y2="28470.3" gradientUnits="userSpaceOnUse">
<stop stop-color="#D72F5D"/>
<stop offset="0.33" stop-color="#D83360"/>
<stop offset="0.64" stop-color="#DA3E68"/>
<stop offset="0.93" stop-color="#DD5077"/>
<stop offset="1" stop-color="#DE567B"/>
</linearGradient>
<linearGradient id="paint2_linear_18_3451" x1="44.2915" y1="254.988" x2="252.605" y2="254.988" gradientUnits="userSpaceOnUse">
<stop stop-color="#F0A82C"/>
<stop offset="0.31" stop-color="#EFA42C"/>
<stop offset="0.59" stop-color="#EB992C"/>
<stop offset="0.86" stop-color="#E6872C"/>
<stop offset="1" stop-color="#E27A2C"/>
</linearGradient>
<linearGradient id="paint3_linear_18_3451" x1="13578.1" y1="11956.4" x2="51027.1" y2="37178.3" gradientUnits="userSpaceOnUse">
<stop stop-color="#F0A82C"/>
<stop offset="0.31" stop-color="#EFA42C"/>
<stop offset="0.59" stop-color="#EB992C"/>
<stop offset="0.86" stop-color="#E6872C"/>
<stop offset="1" stop-color="#E27A2C"/>
</linearGradient>
<radialGradient id="paint4_radial_18_3451" cx="0" cy="0" r="1" gradientUnits="userSpaceOnUse" gradientTransform="translate(46732.4 9069.85) scale(22410.1 5650.2)">
<stop stop-color="#F0A82C"/>
<stop offset="0.31" stop-color="#EFA42C"/>
<stop offset="0.59" stop-color="#EB992C"/>
<stop offset="0.86" stop-color="#E6872C"/>
<stop offset="1" stop-color="#E27A2C"/>
</radialGradient>
<radialGradient id="paint5_radial_18_3451" cx="0" cy="0" r="1" gradientUnits="userSpaceOnUse" gradientTransform="translate(153.508 148.164) scale(75.794 76.2878)">
<stop stop-color="#E27A2C"/>
<stop offset="0.28" stop-color="#E4802C"/>
<stop offset="0.66" stop-color="#E9932C"/>
<stop offset="1" stop-color="#F0A82C"/>
</radialGradient>
<radialGradient id="paint6_radial_18_3451" cx="0" cy="0" r="1" gradientUnits="userSpaceOnUse" gradientTransform="translate(68066.4 546.733) scale(40999.1 8833.58)">
<stop stop-color="#F0A82C"/>
<stop offset="0.31" stop-color="#EFA42C"/>
<stop offset="0.59" stop-color="#EB992C"/>
<stop offset="0.86" stop-color="#E6872C"/>
<stop offset="1" stop-color="#E27A2C"/>
</radialGradient>
<linearGradient id="paint7_linear_18_3451" x1="13671.6" y1="3057.69" x2="78909.7" y2="3057.69" gradientUnits="userSpaceOnUse">
<stop stop-color="#F0A82C"/>
<stop offset="0.31" stop-color="#EFA42C"/>
<stop offset="0.59" stop-color="#EB992C"/>
<stop offset="0.86" stop-color="#E6872C"/>
<stop offset="1" stop-color="#E27A2C"/>
</linearGradient>
<clipPath id="clip0_18_3451">
<rect width="288" height="263" fill="white" transform="translate(0 55)"/>
</clipPath>
</defs>
</svg>
