<svg width="36" height="39" viewBox="0 0 36 39" fill="none" xmlns="http://www.w3.org/2000/svg">
<g clip-path="url(#clip0_346_4383)">
<path d="M33.2935 10.303H13.533C13.0536 10.303 12.5939 10.4978 12.255 10.8446C11.916 11.1913 11.7256 11.6616 11.7256 12.152V32.3682C11.7256 32.8586 11.916 33.3289 12.255 33.6757C12.5939 34.0224 13.0536 34.2172 13.533 34.2172H27.2048L32.7045 38.8502V34.2172H33.2792C33.7585 34.2172 34.2182 34.0224 34.5572 33.6757C34.8961 33.3289 35.0866 32.8586 35.0866 32.3682V12.152C35.0866 11.6642 34.8981 11.1961 34.5623 10.8497C34.2264 10.5034 33.7704 10.3069 33.2935 10.303Z" fill="white"/>
<path d="M13.7509 10.303H33.3764C33.8337 10.303 34.2722 10.4889 34.5955 10.8196C34.9188 11.1504 35.1005 11.599 35.1005 12.0668V17.7845C35.1005 17.8024 35.0935 17.8196 35.0811 17.8323C35.0687 17.845 35.0519 17.8521 35.0344 17.8521H11.7912C11.7737 17.8521 11.7569 17.845 11.7445 17.8323C11.7321 17.8196 11.7251 17.8024 11.7251 17.7845V12.3726C11.7236 12.1001 11.775 11.83 11.8763 11.5781C11.9776 11.3261 12.1268 11.0972 12.3152 10.9047C12.5037 10.7121 12.7276 10.5598 12.9741 10.4565C13.2205 10.3533 13.4846 10.3011 13.7509 10.303Z" fill="#FF725E"/>
<path d="M21.8079 21.4148V29.5459H19.9689V22.9258H18.3799V21.4148H21.8079Z" fill="#263238"/>
<path d="M29.423 21.4148V22.6348L26.4633 29.5459H24.4519L27.3024 22.9493H24.6789V24.281H23.0439V21.4148H29.423Z" fill="#263238"/>
<path d="M26.6789 14.5801C26.6789 14.6212 25.0726 14.6565 23.0928 14.6565C21.113 14.6565 19.5039 14.6271 19.5039 14.5801C19.5039 14.5331 21.1102 14.5037 23.0928 14.5037C25.0755 14.5037 26.6789 14.5448 26.6789 14.5801Z" fill="#263238"/>
<path d="M33.2933 10.303C33.2933 10.303 33.3335 10.303 33.4168 10.303C33.5372 10.3082 33.6567 10.327 33.7731 10.3588C34.0023 10.42 34.2175 10.5267 34.4064 10.673C34.5952 10.8193 34.754 11.0022 34.8736 11.2114C35.0498 11.5193 35.1374 11.8719 35.1265 12.2285C35.1265 12.6136 35.1265 13.0369 35.1265 13.4896C35.1265 14.4009 35.1265 15.4445 35.1265 16.6115C35.1265 18.9633 35.1265 21.7824 35.1265 25.0219C35.1265 26.6417 35.1265 28.3644 35.1265 30.1752C35.1265 30.6309 35.1265 31.0894 35.1265 31.5539V32.2536C35.135 32.4964 35.1029 32.739 35.0317 32.9708C34.8768 33.4493 34.5431 33.8456 34.1036 34.0732C33.8986 34.1824 33.6754 34.2512 33.4456 34.276C33.1956 34.276 32.9628 34.276 32.7186 34.276L32.7847 34.2084C32.7847 35.6783 32.7847 37.2334 32.7847 38.8384V38.9913L32.6697 38.8943L27.1585 34.276L27.2045 34.2937H13.5097C13.19 34.2894 12.8765 34.2019 12.599 34.0394C12.3215 33.8769 12.089 33.6447 11.9236 33.3647C11.8148 33.1833 11.7361 32.9846 11.6908 32.7768C11.6563 32.5681 11.6428 32.3563 11.6506 32.1448V28.4672C11.6506 25.2512 11.6506 22.1499 11.6506 19.1955C11.6506 17.7159 11.6506 16.2764 11.6506 14.8771C11.6506 14.1775 11.6506 13.4916 11.6506 12.8194C11.6377 12.4789 11.6493 12.138 11.6851 11.7993C11.7506 11.4606 11.9033 11.146 12.1276 10.888C12.3478 10.6361 12.6294 10.4484 12.9436 10.3442C13.2522 10.2581 13.5729 10.2263 13.8919 10.2501H19.156L29.5003 10.2765H32.3134H33.0433C33.2099 10.2765 33.2933 10.2765 33.2933 10.2765H33.0433H32.3134H29.5003L19.156 10.3001H15.728H13.9062C13.6009 10.2771 13.2939 10.307 12.9982 10.3882C12.7043 10.4879 12.4409 10.6642 12.2339 10.8998C12.0252 11.1403 11.8833 11.4336 11.823 11.7493C11.7901 12.0804 11.7805 12.4134 11.7943 12.7459V14.8036C11.7943 16.2029 11.7943 17.6424 11.7943 19.122C11.7943 22.0617 11.7943 25.1778 11.7943 28.3938V32.1301C11.787 32.3269 11.7995 32.5239 11.8316 32.718C11.872 32.913 11.9438 33.0998 12.0443 33.2707C12.248 33.6161 12.5614 33.8797 12.9322 34.0174C13.3188 34.128 13.7219 34.1659 14.1217 34.1291H27.2246L27.2447 34.1467L32.7416 38.7826L32.6266 38.8355C32.6266 37.2304 32.6266 35.6665 32.6266 34.2055V34.1379H32.6956C32.9341 34.1379 33.1812 34.1379 33.4139 34.1379C33.7564 34.1114 34.0837 33.9821 34.3546 33.7661C34.6255 33.5501 34.8281 33.2571 34.9369 32.9238C35.0065 32.7058 35.0376 32.4768 35.0288 32.2477V31.548C35.0288 31.0836 35.0288 30.625 35.0288 30.1693C35.0288 28.3585 35.0288 26.6417 35.0288 25.0161C35.0288 21.7824 35.0288 18.9456 35.0432 16.6057C35.0432 15.4298 35.0432 14.395 35.0432 13.4837C35.0432 12.5724 35.1581 11.7699 34.8076 11.229C34.5753 10.8109 34.1912 10.5035 33.7386 10.3735C33.5925 10.3365 33.4435 10.3129 33.2933 10.303Z" fill="#263238"/>
<path d="M26.9002 7.95996H26.8513C26.4451 7.95996 26.1157 8.29689 26.1157 8.71252V12.6076C26.1157 13.0232 26.4451 13.3601 26.8513 13.3601H26.9002C27.3064 13.3601 27.6358 13.0232 27.6358 12.6076V8.71252C27.6358 8.29689 27.3064 7.95996 26.9002 7.95996Z" fill="#E0E0E0"/>
<path d="M26.9027 13.3602C27.0592 13.3378 27.2075 13.2751 27.3337 13.178C27.4748 13.0597 27.5654 12.89 27.5866 12.7047C27.5866 12.4901 27.5866 12.2226 27.5866 11.9404C27.5866 11.3524 27.5866 10.6822 27.5866 9.93552C27.5866 9.5563 27.5866 9.15945 27.5866 8.75965C27.5913 8.66331 27.576 8.56704 27.5416 8.4772C27.5073 8.38737 27.4547 8.30601 27.3874 8.23849C27.32 8.17098 27.2394 8.11886 27.1509 8.08555C27.0624 8.05225 26.9681 8.03854 26.874 8.04531C26.7793 8.04509 26.6856 8.06572 26.5993 8.10579C26.5131 8.14586 26.4362 8.20443 26.374 8.27754C26.3136 8.3506 26.2682 8.43538 26.2406 8.5268C26.2129 8.61823 26.2036 8.71442 26.2131 8.80963C26.2131 9.22118 26.2131 9.61804 26.2131 9.9855C26.2131 10.7351 26.2131 11.4142 26.2131 11.9933C26.2131 12.1344 26.2131 12.2696 26.2131 12.399C26.2027 12.5163 26.2027 12.6344 26.2131 12.7517C26.2481 12.9358 26.351 13.0989 26.5005 13.2074C26.6341 13.2956 26.7872 13.3482 26.9458 13.3602C26.9041 13.369 26.8611 13.369 26.8194 13.3602C26.6948 13.3541 26.5739 13.3146 26.4688 13.2456C26.2992 13.1337 26.1787 12.9587 26.1327 12.7576C26.1143 12.6351 26.1075 12.5111 26.1125 12.3872C26.1125 12.2579 26.1125 12.1226 26.1125 11.9815C26.1125 11.3936 26.1125 10.7234 26.0953 9.97374C26.0953 9.59746 26.0953 9.2006 26.0953 8.79787C26.0851 8.68452 26.0972 8.57023 26.1307 8.4617C26.1643 8.35317 26.2187 8.25259 26.2907 8.16584C26.3659 8.07449 26.4595 8.0009 26.5652 7.95015C26.6708 7.8994 26.786 7.8727 26.9027 7.87187C27.018 7.86541 27.1333 7.88379 27.2413 7.92582C27.3492 7.96785 27.4472 8.03259 27.5291 8.11586C27.5971 8.20492 27.6471 8.30692 27.6762 8.41593C27.7053 8.52494 27.713 8.63878 27.6987 8.75083C27.6987 9.15945 27.6987 9.5563 27.6987 9.9267C27.6987 10.6734 27.6987 11.3524 27.6814 11.9316C27.6814 12.2255 27.6814 12.4695 27.6613 12.7076C27.647 12.8088 27.6129 12.9059 27.561 12.9933C27.5092 13.0807 27.4407 13.1565 27.3596 13.2162C27.261 13.293 27.1437 13.3407 27.0205 13.3544C26.982 13.3642 26.942 13.3662 26.9027 13.3602Z" fill="#263238"/>
<path d="M19.7654 7.95996H19.7166C19.3103 7.95996 18.981 8.29689 18.981 8.71252V12.6076C18.981 13.0232 19.3103 13.3601 19.7166 13.3601H19.7654C20.1717 13.3601 20.501 13.0232 20.501 12.6076V8.71252C20.501 8.29689 20.1717 7.95996 19.7654 7.95996Z" fill="#E0E0E0"/>
<path d="M19.7651 13.3601C19.9226 13.3384 20.072 13.2756 20.1989 13.1779C20.34 13.0596 20.4306 12.8899 20.4518 12.7046C20.4518 12.49 20.4518 12.2225 20.4518 11.9403C20.4518 11.3523 20.4518 10.6821 20.4346 9.9354C20.4346 9.55618 20.4346 9.15932 20.4346 8.75953C20.4393 8.66318 20.4239 8.56691 20.3896 8.47708C20.3553 8.38724 20.3027 8.30588 20.2353 8.23837C20.168 8.17086 20.0874 8.11873 19.9989 8.08543C19.9104 8.05213 19.816 8.03841 19.722 8.04518C19.6272 8.04458 19.5334 8.06503 19.447 8.10513C19.3607 8.14522 19.2839 8.20401 19.222 8.27742C19.1612 8.35033 19.1154 8.43502 19.0872 8.52643C19.0591 8.61784 19.0492 8.71411 19.0582 8.8095C19.0582 9.22106 19.0582 9.61791 19.0582 9.98537C19.0582 10.735 19.0582 11.4141 19.0409 11.9932C19.0409 12.1343 19.0409 12.2695 19.0409 12.3988C19.0304 12.5162 19.0304 12.6343 19.0409 12.7516C19.0748 12.9361 19.1779 13.0997 19.3283 13.2073C19.4608 13.2956 19.613 13.3482 19.7708 13.3601C19.7708 13.3601 19.7306 13.3601 19.6444 13.3601C19.5206 13.3539 19.4007 13.3143 19.2967 13.2455C19.1262 13.1345 19.0054 12.9591 18.9605 12.7575C18.9426 12.6349 18.9349 12.511 18.9375 12.3871C18.9375 12.2577 18.9375 12.1225 18.9375 11.9814C18.9375 11.3935 18.9375 10.7232 18.9375 9.97361C18.9375 9.59733 18.9375 9.20048 18.9375 8.79774C18.9206 8.56869 18.9917 8.34193 19.1358 8.16571C19.2108 8.07421 19.3045 8.00052 19.4101 7.94976C19.5158 7.899 19.6311 7.87238 19.7478 7.87174C19.8627 7.86496 19.9777 7.8832 20.0852 7.92526C20.1927 7.96732 20.2902 8.03224 20.3714 8.11574C20.45 8.19773 20.5115 8.2953 20.552 8.40246C20.5926 8.50963 20.6112 8.62413 20.607 8.73895C20.607 9.14756 20.607 9.54442 20.607 9.91482C20.607 10.6615 20.607 11.3406 20.607 11.9197C20.607 12.2136 20.607 12.4576 20.5869 12.6958C20.5593 12.897 20.4563 13.0794 20.2995 13.2043C20.2006 13.2806 20.0835 13.3283 19.9604 13.3425C19.8988 13.3694 19.8304 13.3756 19.7651 13.3601Z" fill="#263238"/>
<g opacity="0.3">
<path opacity="0.3" d="M18.1096 10.5293C18.2054 11.4867 18.1158 12.4541 17.846 13.3762C17.5763 14.2982 17.1315 15.1568 16.5372 15.9029C15.943 16.649 15.2108 17.268 14.3826 17.7245C13.5544 18.181 12.6464 18.4661 11.7104 18.5634L11.9978 14.5449L15.558 10.5852L18.1096 10.5293Z" fill="black"/>
</g>
<path d="M12.4734 16.8952C16.0619 15.9696 18.2376 12.2432 17.3329 8.57197C16.4282 4.90075 12.7857 2.67495 9.19723 3.60051C5.60875 4.52606 3.43311 8.25248 4.3378 11.9237C5.2425 15.5949 8.88494 17.8207 12.4734 16.8952Z" fill="white"/>
<path d="M10.83 17.8402C9.40676 17.8392 8.01382 17.4197 6.81714 16.6316C5.62046 15.8434 4.6705 14.7199 4.08047 13.3949C3.49045 12.0699 3.28523 10.5993 3.48928 9.15833C3.69333 7.71735 4.29805 6.36677 5.23136 5.26754C6.16467 4.16831 7.38722 3.36679 8.75333 2.95848C10.1194 2.55017 11.5715 2.5523 12.9364 2.96462C14.3014 3.37693 15.5217 4.18204 16.4519 5.284C17.3821 6.38597 17.9831 7.73831 18.1831 9.17989C18.4571 11.173 17.9473 13.196 16.7654 14.8051C15.5836 16.4143 13.8263 17.4782 11.8788 17.7637C11.5314 17.8152 11.1809 17.8407 10.83 17.8402ZM10.8472 4.13246C10.5588 4.13213 10.2707 4.15276 9.98518 4.1942C8.81546 4.36608 7.72179 4.88887 6.8424 5.69648C5.96301 6.50409 5.33737 7.56027 5.04456 8.73155C4.75175 9.90283 4.80491 11.1366 5.19732 12.277C5.58973 13.4174 6.30377 14.4132 7.24921 15.1385C8.19464 15.8638 9.32903 16.2861 10.509 16.352C11.689 16.418 12.8616 16.1245 13.8786 15.5089C14.8956 14.8932 15.7114 13.9829 16.2229 12.893C16.7343 11.8031 16.9185 10.5826 16.7521 9.38566C16.5497 7.93003 15.8413 6.59776 14.7568 5.63297C13.6723 4.66818 12.2844 4.13548 10.8472 4.13246Z" fill="#455A64"/>
<path d="M10.8464 4.13261C10.8788 4.12799 10.9116 4.12799 10.9441 4.13261C11.0073 4.13261 11.1021 4.13261 11.2314 4.13261C11.5976 4.14955 11.9614 4.20271 12.3176 4.29136C12.8823 4.43415 13.4235 4.66096 13.9238 4.96454C14.5904 5.36651 15.1757 5.89538 15.6479 6.52257C16.2184 7.28504 16.6052 8.17431 16.7771 9.1183C16.821 9.37715 16.8517 9.63815 16.8691 9.90026C16.8763 10.0344 16.8763 10.1688 16.8691 10.303C16.8691 10.4382 16.8691 10.5764 16.8691 10.7116C16.8233 11.277 16.7075 11.8341 16.5243 12.3696C16.3113 12.9261 16.0283 13.4519 15.6823 13.9335C15.315 14.4278 14.8827 14.868 14.3979 15.2416C13.3583 16.0183 12.1036 16.4354 10.8162 16.4323C9.52892 16.4291 8.27616 16.0058 7.2402 15.224C6.7546 14.8502 6.32229 14.4089 5.95578 13.9129C5.61764 13.4275 5.34327 12.8987 5.13973 12.3402C4.95835 11.8055 4.84441 11.2493 4.80066 10.6851C4.72427 9.54142 4.96069 8.39852 5.48342 7.3845C6.00616 6.37049 6.79456 5.52541 7.76029 4.94396C8.44673 4.53433 9.20723 4.27132 9.99582 4.17083L10.4584 4.14437L10.7458 4.12967C10.7783 4.12637 10.811 4.12637 10.8435 4.12967H10.7458L10.4584 4.15613L9.99869 4.19729C9.81767 4.22668 9.61366 4.26784 9.38378 4.32663C8.08089 4.66739 6.92988 5.45104 6.11956 6.54903C5.56174 7.29881 5.18291 8.17158 5.01329 9.09772C4.91872 9.61106 4.8907 10.1349 4.92996 10.6558C4.97391 11.2082 5.0869 11.7525 5.26616 12.2755C5.46622 12.82 5.73578 13.335 6.06784 13.8071C6.42709 14.2902 6.84962 14.7205 7.32353 15.0858C8.33489 15.8466 9.55663 16.2584 10.8119 16.2615C12.0672 16.2647 13.291 15.8591 14.306 15.1035C14.7813 14.74 15.2049 14.3106 15.5645 13.8277C15.8983 13.3567 16.1698 12.8427 16.372 12.299C16.5553 11.7778 16.6712 11.2342 16.7168 10.6822C16.734 10.5499 16.7168 10.4147 16.7168 10.2824C16.7239 10.1512 16.7239 10.0197 16.7168 9.8885C16.6909 9.62687 16.6794 9.37111 16.6306 9.12124C16.4665 8.1942 16.0925 7.31933 15.5387 6.56666C14.7272 5.47092 13.5815 4.68362 12.2831 4.32957C11.9308 4.23553 11.5712 4.17258 11.2084 4.14143C10.9785 4.13849 10.8464 4.13849 10.8464 4.13261Z" fill="#263238"/>
<path d="M10.8296 17.8402C10.8296 17.8402 10.8699 17.8402 10.9503 17.8402L11.3009 17.8137C11.456 17.7991 11.6457 17.7814 11.8756 17.7461L12.6428 17.5845C13.3316 17.3936 13.9925 17.1099 14.6082 16.7408C15.4149 16.2367 16.1233 15.5838 16.6972 14.8153C17.3839 13.878 17.8509 12.7917 18.062 11.6404C18.0953 11.4854 18.1183 11.3283 18.131 11.1701C18.131 11.0113 18.1655 10.8526 18.1799 10.688C18.1942 10.5234 18.1799 10.3646 18.1799 10.197V9.95012L18.1569 9.70024C18.1124 9.01242 17.9731 8.33448 17.7431 7.68657C17.2266 6.23858 16.2886 4.98741 15.0555 4.10172C13.8224 3.21603 12.3535 2.7384 10.8469 2.73321C9.33591 2.72811 7.8602 3.1999 6.62092 4.08423C5.38165 4.96856 4.43914 6.22241 3.9219 7.67481C3.46878 8.94347 3.36248 10.3145 3.61444 11.6404C3.72133 12.238 3.89787 12.8203 4.14028 13.3748C4.25724 13.6346 4.38769 13.8878 4.53107 14.1333L4.7437 14.489L4.98219 14.8153C5.54927 15.5846 6.25552 16.2353 7.06256 16.7319C7.67621 17.1052 8.33771 17.3892 9.02798 17.5756C9.27914 17.6454 9.53445 17.6984 9.79232 17.7344C9.9823 17.7692 10.1742 17.7918 10.367 17.802L10.7204 17.8284C10.7606 17.8252 10.801 17.8252 10.8411 17.8284H10.7204H10.367C10.1744 17.8241 9.9823 17.8055 9.79232 17.7726C9.53234 17.7438 9.27489 17.6946 9.02224 17.6256C8.32254 17.4485 7.65108 17.1704 7.02808 16.7996C6.20033 16.3042 5.47354 15.6505 4.88737 14.8741L4.646 14.5448L4.42762 14.1862C4.27997 13.9331 4.14569 13.6721 4.02534 13.4042C3.77713 12.8405 3.59578 12.2483 3.48514 11.6404C3.2285 10.2945 3.33377 8.90258 3.78972 7.61307C4.31645 6.13447 5.27567 4.85779 6.53687 3.95676C7.79806 3.05573 9.29997 2.5741 10.8382 2.57741C12.3772 2.57872 13.8784 3.0647 15.1379 3.96932C16.3974 4.87394 17.3542 6.15333 17.8781 7.63365C18.1119 8.29583 18.2522 8.98873 18.2948 9.69142L18.3149 9.94424V10.197C18.3149 10.3646 18.3149 10.5322 18.3149 10.6968C18.3149 10.8614 18.2689 11.0202 18.2689 11.1818C18.2567 11.3432 18.2327 11.5033 18.1971 11.661C17.972 12.8301 17.4852 13.9299 16.7748 14.8741C16.1895 15.6494 15.4672 16.3055 14.6455 16.8084C14.0197 17.174 13.3491 17.4528 12.6514 17.6374L11.8756 17.7844C11.685 17.8121 11.4932 17.8298 11.3009 17.8373C11.1457 17.8373 11.0135 17.8373 10.9474 17.8373L10.8296 17.8402Z" fill="#263238"/>
<path d="M14.2357 0.799467L13.6235 1.80396L17.5607 4.3155L18.1729 3.31101L14.2357 0.799467Z" fill="#455A64"/>
<path d="M17.5535 4.3442C17.5535 4.3442 17.6052 4.23837 17.7057 4.05023L18.1281 3.30943L18.1425 3.37116C17.2517 2.82144 15.8122 1.93954 14.2002 0.895957L14.3036 0.87244L14.2835 0.904776L14.2231 0.998846L14.1456 1.12819L13.9904 1.381L13.7031 1.87487L13.6714 1.76904C14.772 2.48044 15.7346 3.11541 16.4299 3.57988L17.2517 4.1296C17.4443 4.26189 17.5391 4.33538 17.5391 4.3442C17.4381 4.29943 17.3418 4.24427 17.2517 4.17958L16.4299 3.67689C15.7231 3.24182 14.7231 2.61861 13.5881 1.89839L13.5249 1.85723L13.5651 1.7955L13.8525 1.29869L14.0191 1.05764L14.0967 0.931233L14.1369 0.866561L14.1571 0.822465V0.804827L14.2777 0.763672C15.8926 1.7955 17.3178 2.7215 18.1914 3.30061L18.2287 3.32707L18.2057 3.36529C17.9988 3.68571 17.835 3.93558 17.7259 4.1002C17.6763 4.18708 17.6185 4.2688 17.5535 4.3442Z" fill="#263238"/>
<path d="M4.77119 2.44957L1.55225 6.19678L2.41991 6.97689L5.63886 3.22968L4.77119 2.44957Z" fill="#455A64"/>
<path d="M2.42149 6.97525C2.42149 6.97525 2.50769 6.85766 2.66286 6.66364L3.32662 5.85523C3.9013 5.17617 4.67713 4.23841 5.57939 3.18013V3.28596L4.71736 2.50694H4.82368L4.79494 2.52752L4.76333 2.57161L4.70299 2.64217L4.57943 2.78621L4.33519 3.08018L3.86395 3.61814L2.98181 4.63233L1.58532 6.22563V6.16096C1.83531 6.39907 2.03932 6.59603 2.20023 6.74889C2.27941 6.82061 2.35426 6.89719 2.42436 6.97819C2.33671 6.92418 2.25401 6.8622 2.17725 6.79299C2.02496 6.66658 1.79795 6.47844 1.51349 6.22857L1.479 6.19917L1.50774 6.1639L2.86974 4.54414L3.73177 3.51819L4.226 2.96847C4.30359 2.8744 4.38691 2.78033 4.46737 2.6745L4.59093 2.53046L4.65127 2.45697L4.68288 2.42169L4.70012 2.40405H4.80644C5.09378 2.6745 5.38112 2.93613 5.66846 3.18601L5.72306 3.23598L5.67421 3.29183C4.76333 4.356 3.94153 5.29081 3.35535 5.9493L2.6686 6.71656C2.59187 6.80825 2.50932 6.89466 2.42149 6.97525Z" fill="#263238"/>
<path d="M7.9126 10.8468L8.48441 9.73262L10.5274 10.6792L12.7256 6.58423L13.7543 7.18686L10.9067 12.3519L7.9126 10.8468Z" fill="#455A64"/>
<path d="M10.9099 12.3607L7.9043 10.8497L8.47898 9.72971L10.5162 10.6704L12.723 6.57544L13.7575 7.18101L10.9099 12.3607ZM7.92441 10.8438L10.907 12.3431L13.7489 7.18983L12.7317 6.6019L10.5306 10.688L8.4991 9.74441L7.92441 10.8438Z" fill="#263238"/>
<path d="M6.84355 18.7105C6.73494 18.6764 6.62999 18.6311 6.53035 18.5752C6.41021 18.5181 6.29318 18.4543 6.17979 18.3841C6.02541 18.2943 5.87579 18.1962 5.73153 18.0902C5.34991 17.8286 4.99129 17.5335 4.65974 17.2083C4.25442 16.8107 3.88689 16.3746 3.56209 15.906C3.248 15.4366 2.97676 14.9387 2.75179 14.4185C2.56945 13.9889 2.4224 13.5444 2.31215 13.0898C2.26798 12.9154 2.2325 12.7388 2.20584 12.5607C2.17924 12.4277 2.16101 12.2932 2.15124 12.1579C2.13401 12.0432 2.12823 11.927 2.134 11.811C2.16273 11.811 2.20871 12.299 2.42134 13.0604C2.54302 13.5059 2.69768 13.9412 2.88396 14.3627C3.11684 14.8755 3.39175 15.3672 3.70577 15.8325C4.02213 16.2923 4.37586 16.7241 4.76319 17.123C5.08755 17.4424 5.43423 17.7371 5.80049 18.0049C6.42115 18.4723 6.85792 18.6958 6.84355 18.7105Z" fill="#263238"/>
<path d="M3.45326 17.1436C3.26958 16.977 3.10823 16.7862 2.9734 16.5763C2.62379 16.0897 2.31887 15.5711 2.06252 15.0271C1.80651 14.4817 1.60158 13.9128 1.45048 13.3279C1.37234 13.0906 1.32689 12.8432 1.31543 12.593C1.40706 12.8231 1.48479 13.0587 1.54818 13.2985C1.72632 13.8662 1.94135 14.4211 2.19183 14.9595C2.44632 15.4962 2.73426 16.0156 3.05385 16.5145C3.20152 16.7142 3.335 16.9244 3.45326 17.1436Z" fill="#263238"/>
</g>
<defs>
<clipPath id="clip0_346_4383">
<rect width="34.4754" height="38.2364" fill="white" transform="translate(0.688477 0.763672)"/>
</clipPath>
</defs>
</svg>
