<svg width="116" height="76" viewBox="0 0 116 76" fill="none" xmlns="http://www.w3.org/2000/svg">
<path d="M36.6517 72.285H114.794C115.557 72.285 116.088 71.6749 115.986 70.9181L108.088 12.9858C107.986 12.229 107.293 11.6189 106.544 11.6189H29.4646C28.7159 11.6189 28.1798 12.229 28.2676 12.9858L35.1126 70.9181C35.205 71.6749 35.8937 72.285 36.6517 72.285Z" fill="#3B2645"/>
<path opacity="0.93" d="M35.889 72.285H114.031C114.794 72.285 115.325 71.6749 115.224 70.9181L107.32 12.9858C107.218 12.229 106.525 11.6189 105.776 11.6189H28.702C27.9533 11.6189 27.4171 12.229 27.5049 12.9858L34.3499 70.9181C34.4424 71.6749 35.131 72.285 35.889 72.285Z" fill="#7B6F72"/>
<path opacity="0.3" d="M111.008 40.0208L102.948 72.2849H80.8137L107.477 14.1233L111.008 40.0208Z" fill="#543753"/>
<path d="M99.3612 72.285H21.2191C20.4565 72.285 19.925 71.6749 20.0267 70.9181L27.9255 12.9858C28.0272 12.229 28.7204 11.6189 29.4692 11.6189H106.544C107.292 11.6189 107.829 12.229 107.741 12.9858L100.896 70.9181C100.808 71.6749 100.119 72.285 99.3612 72.285Z" fill="#3B2645"/>
<path d="M98.5941 72.285H20.4565C19.6939 72.285 19.1624 71.6749 19.2641 70.9181L27.1629 12.9858C27.2646 12.229 27.9578 11.6189 28.7066 11.6189H105.781C106.53 11.6189 107.066 12.229 106.978 12.9858L100.133 70.9181C100.045 71.6749 99.3567 72.285 98.5941 72.285Z" fill="url(#paint0_linear_18_1923)"/>
<path d="M97.42 70.7986H22.0372C21.8431 70.7986 21.6674 70.7252 21.5473 70.5876C21.4271 70.45 21.3716 70.2665 21.3994 70.0693L27.8561 22.5492C27.907 22.1639 28.2675 21.8474 28.6511 21.8474H103.211C103.401 21.8474 103.576 21.9208 103.697 22.0584C103.821 22.196 103.877 22.3795 103.854 22.5767L98.215 70.0922C98.1688 70.4821 97.8129 70.7986 97.42 70.7986ZM28.6511 22.0538C28.3645 22.0538 28.0965 22.2878 28.0595 22.5767L21.6027 70.0968C21.5842 70.2298 21.6212 70.3582 21.6998 70.45C21.783 70.5417 21.8985 70.5922 22.0326 70.5922H97.4154C97.7066 70.5922 97.97 70.3582 98.0024 70.0693L103.641 22.5538C103.66 22.4162 103.618 22.2923 103.535 22.196C103.452 22.1043 103.336 22.0538 103.207 22.0538H28.6511Z" fill="white"/>
<path d="M83.1154 20.1962H51.8576C51.3677 20.1962 50.9286 20.0036 50.6189 19.6596C50.3046 19.3018 50.166 18.8293 50.2307 18.3202C50.3647 17.3019 51.2984 16.4717 52.3152 16.4717H83.5499C84.0398 16.4717 84.4835 16.6643 84.7885 17.0083C85.1074 17.3661 85.2461 17.8386 85.186 18.3431C85.0612 19.366 84.1322 20.1962 83.1154 20.1962ZM52.3152 16.6735C51.4 16.6735 50.5589 17.4212 50.4341 18.3431C50.374 18.7881 50.4941 19.21 50.7715 19.5174C51.0395 19.8201 51.4231 19.9852 51.853 19.9852H83.1108C84.0259 19.9852 84.8625 19.2376 84.978 18.3156C85.0335 17.8707 84.9087 17.4487 84.6314 17.1414C84.3633 16.8386 83.9751 16.6735 83.5452 16.6735H52.3152Z" fill="white"/>
<path d="M68.5334 32.0898H60.7502L61.5359 25.948H69.3099L68.5334 32.0898Z" fill="#F2F9FF"/>
<path d="M78.5351 32.0898H70.7472L71.5237 25.948H79.2977L78.5351 32.0898Z" fill="#F2F9FF"/>
<path d="M88.5368 32.0898H80.7491L81.507 25.948H89.2856L88.5368 32.0898Z" fill="#F2F9FF"/>
<path d="M98.5386 32.0898H90.7507L91.4949 25.948H99.2689L98.5386 32.0898Z" fill="url(#paint1_radial_18_1923)"/>
<path d="M37.3356 41.0801H29.5339L30.3612 34.9382H38.1536L37.3356 41.0801Z" fill="#F2F9FF"/>
<path d="M47.356 41.0801H39.5543L40.3677 34.9382H48.1602L47.356 41.0801Z" fill="#F2F9FF"/>
<path d="M57.3762 41.0801H49.5744L50.374 34.9382H58.1665L57.3762 41.0801Z" fill="#F2F9FF"/>
<path d="M67.3964 41.0801H59.5947L60.3804 34.9382H68.1729L67.3964 41.0801Z" fill="#F2F9FF"/>
<path d="M77.4212 41.0801H69.6148L70.3913 34.9382H78.1792L77.4212 41.0801Z" fill="#F2F9FF"/>
<path d="M87.4415 41.0801H79.6351L80.3977 34.9382H88.1902L87.4415 41.0801Z" fill="#F2F9FF"/>
<path d="M97.4616 41.0801H89.6599L90.404 34.9382H98.1965L97.4616 41.0801Z" fill="url(#paint2_radial_18_1923)"/>
<path d="M36.1384 50.0752H28.3182L29.1455 43.9333H36.9565L36.1384 50.0752Z" fill="#F2F9FF"/>
<path d="M46.1772 50.0752H38.3616L39.1751 43.9333H46.9814L46.1772 50.0752Z" fill="#F2F9FF"/>
<path d="M56.2206 50.0752H48.4004L49.2046 43.9333H57.0109L56.2206 50.0752Z" fill="#F2F9FF"/>
<path d="M66.2593 50.0752H58.4437L59.2294 43.9333H67.0358L66.2593 50.0752Z" fill="#F2F9FF"/>
<path d="M76.3028 50.0752H68.4826L69.2591 43.9333H77.0655L76.3028 50.0752Z" fill="#F2F9FF"/>
<path d="M86.346 50.0752H78.5259L79.2839 43.9333H87.0948L86.346 50.0752Z" fill="#F2F9FF"/>
<path d="M96.3848 50.0752H88.5646L89.3133 43.9333H97.1197L96.3848 50.0752Z" fill="url(#paint3_radial_18_1923)"/>
<path d="M34.9416 59.0703H27.1029L27.9348 52.9285H35.7597L34.9416 59.0703Z" fill="#F2F9FF"/>
<path d="M45.0032 59.0703H37.1646L37.9826 52.9285H45.8074L45.0032 59.0703Z" fill="#F2F9FF"/>
<path d="M55.0652 59.0703H47.2265L48.0307 52.9285H55.8555L55.0652 59.0703Z" fill="#F2F9FF"/>
<path d="M65.127 59.0703H57.2882L58.0786 52.9285H65.8988L65.127 59.0703Z" fill="#F2F9FF"/>
<path d="M75.1842 59.0703H67.3502L68.1266 52.9285H75.9469L75.1842 59.0703Z" fill="#F2F9FF"/>
<path d="M85.2461 59.0703H77.412L78.1746 52.9285H85.9948L85.2461 59.0703Z" fill="#F2F9FF"/>
<path d="M95.308 59.0703H87.4738L88.2225 52.9285H96.0428L95.308 59.0703Z" fill="url(#paint4_radial_18_1923)"/>
<path d="M33.7397 68.0605H25.8918L26.7191 61.9187H34.5577L33.7397 68.0605Z" fill="#F2F9FF"/>
<path d="M43.8248 68.0605H35.9722L36.7903 61.9187H44.629L43.8248 68.0605Z" fill="#F2F9FF"/>
<path d="M53.9051 68.0605H46.0571L46.8567 61.9187H54.6954L53.9051 68.0605Z" fill="#F2F9FF"/>
<path d="M63.9901 68.0605H56.1375L56.9232 61.9187H64.7666L63.9901 68.0605Z" fill="#F2F9FF"/>
<path d="M74.0703 68.0605H66.2177L66.9942 61.9187H74.8329L74.0703 68.0605Z" fill="#FDF8EE"/>
<path d="M99.5184 24.1774H91.7444C91.5733 24.1774 91.4347 24.0398 91.4347 23.8701C91.4347 23.7004 91.5733 23.5627 91.7444 23.5627H99.5184C99.6894 23.5627 99.828 23.7004 99.828 23.8701C99.828 24.0398 99.6894 24.1774 99.5184 24.1774Z" fill="#F2F9FF"/>
<path d="M89.5351 24.1774H81.7611C81.5901 24.1774 81.4514 24.0398 81.4514 23.8701C81.4514 23.7004 81.5901 23.5627 81.7611 23.5627H89.5351C89.7061 23.5627 89.8448 23.7004 89.8448 23.8701C89.8448 24.0398 89.7061 24.1774 89.5351 24.1774Z" fill="url(#paint5_radial_18_1923)"/>
<path d="M79.5565 24.1774H71.7825C71.6115 24.1774 71.4729 24.0398 71.4729 23.8701C71.4729 23.7004 71.6115 23.5627 71.7825 23.5627H79.5565C79.7275 23.5627 79.8662 23.7004 79.8662 23.8701C79.8662 24.0398 79.7275 24.1774 79.5565 24.1774Z" fill="url(#paint6_radial_18_1923)"/>
<path d="M69.5732 24.1774H61.7992C61.6282 24.1774 61.4896 24.0398 61.4896 23.8701C61.4896 23.7004 61.6282 23.5627 61.7992 23.5627H69.5732C69.7442 23.5627 69.8829 23.7004 69.8829 23.8701C69.8829 24.0398 69.7442 24.1774 69.5732 24.1774Z" fill="url(#paint7_radial_18_1923)"/>
<path d="M59.5901 24.1774H51.816C51.645 24.1774 51.5063 24.0398 51.5063 23.8701C51.5063 23.7004 51.645 23.5627 51.816 23.5627H59.5901C59.7611 23.5627 59.8998 23.7004 59.8998 23.8701C59.8998 24.0398 59.7611 24.1774 59.5901 24.1774Z" fill="url(#paint8_radial_18_1923)"/>
<path d="M49.6113 24.1774H41.8373C41.6662 24.1774 41.5276 24.0398 41.5276 23.8701C41.5276 23.7004 41.6662 23.5627 41.8373 23.5627H49.6113C49.7823 23.5627 49.9209 23.7004 49.9209 23.8701C49.9209 24.0398 49.7823 24.1774 49.6113 24.1774Z" fill="url(#paint9_radial_18_1923)"/>
<path d="M39.628 24.1774H31.854C31.683 24.1774 31.5443 24.0398 31.5443 23.8701C31.5443 23.7004 31.683 23.5627 31.854 23.5627H39.628C39.799 23.5627 39.9377 23.7004 39.9377 23.8701C39.9377 24.0398 39.799 24.1774 39.628 24.1774Z" fill="url(#paint10_radial_18_1923)"/>
<path d="M35.6719 14.1233C35.6164 14.5407 35.2328 14.8801 34.8168 14.8801C34.4009 14.8801 34.1097 14.5407 34.1652 14.1233C34.2206 13.7059 34.6042 13.3665 35.0202 13.3665C35.4362 13.3665 35.732 13.7059 35.6719 14.1233Z" fill="#3B2645"/>
<path d="M35.3438 8.729C34.6828 8.729 34.0034 8.95835 33.4349 9.37575C32.6677 9.93535 32.1593 10.7702 32.0391 11.66C31.8219 13.2746 32.9496 14.591 34.558 14.591C34.6551 14.591 34.7522 14.5865 34.8492 14.5773C35.0988 14.5543 35.3114 14.3296 35.3207 14.0819C35.3299 13.8342 35.1358 13.6507 34.8816 13.6737C34.8169 13.6783 34.7475 13.6828 34.6828 13.6828C33.5736 13.6828 32.7925 12.7746 32.945 11.66C33.0282 11.0454 33.3795 10.4674 33.911 10.0821C34.3085 9.78857 34.766 9.63721 35.2282 9.63721C36.3236 9.63721 37.0955 10.5225 36.9707 11.6233H37.8719C38.0568 10.0225 36.9337 8.729 35.3438 8.729Z" fill="#B12525"/>
<path d="M35.6719 14.1233C35.6164 14.5407 35.2328 14.8801 34.8168 14.8801C34.4009 14.8801 34.1097 14.5407 34.1652 14.1233C34.2206 13.7059 34.6042 13.3665 35.0202 13.3665C35.4362 13.3665 35.732 13.7059 35.6719 14.1233Z" fill="#3B2645"/>
<path d="M35.3438 8.729C34.6828 8.729 34.0034 8.95835 33.4349 9.37575C32.6677 9.93535 32.1593 10.7702 32.0391 11.66C31.8219 13.2746 32.9496 14.591 34.558 14.591C34.6551 14.591 34.7522 14.5865 34.8492 14.5773C35.0988 14.5543 35.3114 14.3296 35.3207 14.0819C35.3299 13.8342 35.1358 13.6507 34.8816 13.6737C34.8169 13.6783 34.7475 13.6828 34.6828 13.6828C33.5736 13.6828 32.7925 12.7746 32.945 11.66C33.0282 11.0454 33.3795 10.4674 33.911 10.0821C34.3085 9.78857 34.766 9.63721 35.2282 9.63721C36.3236 9.63721 37.0955 10.5225 36.9707 11.6233H37.8719C38.0568 10.0225 36.9337 8.729 35.3438 8.729Z" fill="#AA8CA7"/>
<path d="M43.811 14.1233C43.7555 14.5407 43.3719 14.8801 42.9559 14.8801C42.54 14.8801 42.2488 14.5407 42.3043 14.1233C42.3597 13.7059 42.7433 13.3665 43.1593 13.3665C43.5753 13.3665 43.8664 13.7059 43.811 14.1233Z" fill="#3B2645"/>
<path d="M43.4692 8.729C42.8082 8.729 42.1288 8.95835 41.5603 9.37575C40.7931 9.93535 40.2847 10.7702 40.1645 11.66C39.9473 13.2746 41.0797 14.591 42.6881 14.591C42.7851 14.591 42.8822 14.5865 42.9793 14.5773C43.2288 14.5543 43.4414 14.3296 43.4507 14.0819C43.4599 13.8342 43.2612 13.6507 43.0116 13.6737C42.9469 13.6783 42.8776 13.6828 42.8129 13.6828C41.7036 13.6828 40.9225 12.7746 41.0704 11.66C41.1536 11.0454 41.5049 10.4674 42.0318 10.0821C42.4292 9.78857 42.8868 9.63721 43.349 9.63721C44.4444 9.63721 45.2209 10.5225 45.0961 11.6233H45.9974C46.1869 10.0225 45.0637 8.729 43.4692 8.729Z" fill="#AA8CA7"/>
<path d="M51.9501 14.1233C51.8947 14.5407 51.5157 14.8801 51.0997 14.8801C50.6837 14.8801 50.3925 14.5407 50.4434 14.1233C50.4988 13.7059 50.8778 13.3665 51.2938 13.3665C51.7144 13.3665 52.0056 13.7059 51.9501 14.1233Z" fill="#3B2645"/>
<path d="M51.599 8.729C50.938 8.729 50.2586 8.95835 49.6901 9.37575C48.9229 9.93535 48.4191 10.7702 48.2989 11.66C48.0863 13.2746 49.2187 14.591 50.8271 14.591C50.9242 14.591 51.0212 14.5865 51.1183 14.5773C51.3679 14.5543 51.5805 14.3296 51.5851 14.0819C51.5943 13.8342 51.3956 13.6507 51.146 13.6737C51.0813 13.6783 51.012 13.6828 50.9473 13.6828C49.838 13.6828 49.0523 12.7746 49.2002 11.66C49.2834 11.0454 49.63 10.4674 50.1616 10.0821C50.559 9.78857 51.0166 9.63721 51.4788 9.63721C52.5742 9.63721 53.3506 10.5225 53.2305 11.6233H54.1317C54.3166 10.0225 53.1889 8.729 51.599 8.729Z" fill="#AA8CA7"/>
<path d="M60.0894 14.1233C60.0339 14.5407 59.6549 14.8801 59.239 14.8801C58.823 14.8801 58.5272 14.5407 58.5827 14.1233C58.6381 13.7059 59.0171 13.3665 59.4331 13.3665C59.849 13.3665 60.1448 13.7059 60.0894 14.1233Z" fill="#3B2645"/>
<path d="M59.7288 8.729C59.0679 8.729 58.3931 8.95835 57.8246 9.37575C57.062 9.93535 56.5536 10.7702 56.4381 11.66C56.2301 13.2746 57.3671 14.591 58.9709 14.591C59.0679 14.591 59.165 14.5865 59.262 14.5773C59.5116 14.5543 59.7242 14.3296 59.7288 14.0819C59.7381 13.8342 59.5393 13.6507 59.2898 13.6737C59.2251 13.6783 59.1557 13.6828 59.091 13.6828C57.9818 13.6828 57.196 12.7746 57.3393 11.66C57.4179 11.0454 57.7692 10.4674 58.2961 10.0821C58.6935 9.78857 59.1511 9.63721 59.6133 9.63721C60.7087 9.63721 61.4852 10.5225 61.365 11.6233H62.2663C62.4465 10.0225 61.3188 8.729 59.7288 8.729Z" fill="#AA8CA7"/>
<path d="M68.2284 14.1233C68.1776 14.5407 67.794 14.8801 67.378 14.8801C66.962 14.8801 66.6662 14.5407 66.7217 14.1233C66.7771 13.7059 67.1561 13.3665 67.5721 13.3665C67.9881 13.3665 68.2793 13.7059 68.2284 14.1233Z" fill="#3B2645"/>
<path d="M67.8541 8.729C67.1931 8.729 66.5184 8.95835 65.9499 9.37575C65.1873 9.93535 64.6835 10.7702 64.5679 11.66C64.36 13.2746 65.5016 14.591 67.11 14.591C67.207 14.591 67.3041 14.5865 67.4011 14.5773C67.6507 14.5543 67.8633 14.3296 67.8679 14.0819C67.8772 13.8342 67.6784 13.6507 67.4289 13.6737C67.3642 13.6783 67.2948 13.6828 67.2301 13.6828C66.1209 13.6828 65.3352 12.7746 65.4738 11.66C65.5524 11.0454 65.899 10.4674 66.4259 10.0821C66.8234 9.78857 67.2763 9.63721 67.7431 9.63721C68.8385 9.63721 69.6196 10.5225 69.4994 11.6233H70.4007C70.581 10.0225 69.4486 8.729 67.8541 8.729Z" fill="#AA8CA7"/>
<path d="M76.3676 14.1233C76.3168 14.5407 75.9378 14.8801 75.5172 14.8801C75.1012 14.8801 74.8054 14.5407 74.8609 14.1233C74.9117 13.7059 75.2953 13.3665 75.7113 13.3665C76.1273 13.3665 76.4185 13.7059 76.3676 14.1233Z" fill="#3B2645"/>
<path d="M75.9841 8.729C75.3231 8.729 74.6483 8.95835 74.0798 9.37575C73.3172 9.93535 72.8134 10.7702 72.7025 11.66C72.4991 13.2746 73.6408 14.591 75.2492 14.591C75.3462 14.591 75.4433 14.5865 75.5404 14.5773C75.7899 14.5543 75.9979 14.3296 76.0072 14.0819C76.0118 13.8342 75.8177 13.6507 75.5635 13.6737C75.4988 13.6783 75.4294 13.6828 75.3647 13.6828C74.2555 13.6828 73.4651 12.7746 73.6084 11.66C73.687 11.0454 74.0336 10.4674 74.5605 10.0821C74.958 9.78857 75.4109 9.63721 75.8731 9.63721C76.9685 9.63721 77.7496 10.5225 77.6341 11.6233H78.5354C78.711 10.0225 77.574 8.729 75.9841 8.729Z" fill="#AA8CA7"/>
<path d="M84.5021 14.1233C84.4512 14.5407 84.0722 14.8801 83.6562 14.8801C83.2403 14.8801 82.9445 14.5407 82.9953 14.1233C83.0462 13.7059 83.4252 13.3665 83.8411 13.3665C84.2617 13.3665 84.5575 13.7059 84.5021 14.1233Z" fill="#3B2645"/>
<path d="M84.1093 8.729C83.4484 8.729 82.7736 8.95835 82.2051 9.37575C81.4424 9.93535 80.9433 10.7702 80.8323 11.66C80.6336 13.2746 81.7752 14.591 83.3836 14.591C83.4807 14.591 83.5778 14.5865 83.6748 14.5773C83.9244 14.5543 84.1324 14.3296 84.1416 14.0819C84.1463 13.8342 83.9521 13.6507 83.6979 13.6737C83.6332 13.6783 83.5639 13.6828 83.4992 13.6828C82.3899 13.6828 81.5996 12.7746 81.7382 11.66C81.8168 11.0454 82.1588 10.4674 82.6857 10.0821C83.0832 9.78857 83.5362 9.63721 83.9984 9.63721C85.0938 9.63721 85.8795 10.5225 85.7639 11.6233H86.6652C86.8408 10.0225 85.7039 8.729 84.1093 8.729Z" fill="#AA8CA7"/>
<path d="M92.6412 14.1233C92.5903 14.5407 92.2114 14.8801 91.7954 14.8801C91.3794 14.8801 91.0837 14.5407 91.1345 14.1233C91.1853 13.7059 91.5643 13.3665 91.9803 13.3665C92.3962 13.3665 92.692 13.7059 92.6412 14.1233Z" fill="#3B2645"/>
<path d="M92.2391 8.729C91.5782 8.729 90.9034 8.95835 90.3395 9.37575C89.5815 9.93535 89.0824 10.7702 88.9715 11.66C88.7727 13.2746 89.9189 14.591 91.5273 14.591C91.6244 14.591 91.7215 14.5865 91.8185 14.5773C92.0681 14.5543 92.2761 14.3296 92.2807 14.0819C92.2853 13.8342 92.0866 13.6507 91.837 13.6737C91.7723 13.6783 91.703 13.6828 91.6383 13.6828C90.529 13.6828 89.7341 12.7746 89.8727 11.66C89.9467 11.0454 90.2933 10.4674 90.8202 10.0821C91.2177 9.78857 91.6706 9.63721 92.1328 9.63721C93.2282 9.63721 94.0139 10.5225 93.903 11.6233H94.8042C94.9706 10.0225 93.8336 8.729 92.2391 8.729Z" fill="#AA8CA7"/>
<path d="M100.78 14.1233C100.729 14.5407 100.35 14.8801 99.9345 14.8801C99.5186 14.8801 99.2228 14.5407 99.2736 14.1233C99.3245 13.7059 99.7035 13.3665 100.119 13.3665C100.535 13.3665 100.831 13.7059 100.78 14.1233Z" fill="#3B2645"/>
<path d="M100.369 8.729C99.7081 8.729 99.0333 8.95835 98.4694 9.37575C97.7115 9.93535 97.2123 10.7702 97.106 11.66C96.9119 13.2746 98.0627 14.591 99.6665 14.591C99.7636 14.591 99.8606 14.5865 99.9577 14.5773C100.207 14.5543 100.415 14.3296 100.42 14.0819C100.425 13.8342 100.226 13.6507 99.9762 13.6737C99.9115 13.6783 99.8421 13.6828 99.7774 13.6828C98.6682 13.6828 97.8732 12.7746 98.0073 11.66C98.0812 11.0454 98.4232 10.4674 98.9501 10.0821C99.3476 9.78857 99.8006 9.63721 100.263 9.63721C101.358 9.63721 102.144 10.5225 102.033 11.6233H102.934C103.101 10.0225 101.959 8.729 100.369 8.729Z" fill="#AA8CA7"/>
<path d="M45.4473 40.1214C45.3641 40.1214 45.2809 40.0893 45.2208 40.0251L41.8006 36.3786C41.6851 36.2547 41.6897 36.0621 41.8145 35.9428C41.9393 35.8281 42.1334 35.8327 42.2536 35.9566L45.6738 39.6031C45.7893 39.7269 45.7847 39.9196 45.6599 40.0389C45.5952 40.0939 45.5212 40.1214 45.4473 40.1214Z" fill="#3B2645"/>
<path d="M41.7035 40.1215C41.6157 40.1215 41.5278 40.0848 41.4678 40.0114C41.3568 39.883 41.3707 39.6903 41.5047 39.5802L45.817 35.9337C45.9464 35.8236 46.1405 35.8373 46.2514 35.9704C46.3624 36.0988 46.3485 36.2914 46.2145 36.4015L41.9022 40.0481C41.8468 40.0985 41.7774 40.1215 41.7035 40.1215Z" fill="#3B2645"/>
<path d="M64.115 48.6393C64.0318 48.6393 63.9486 48.6072 63.8885 48.543L60.9213 45.3827C60.8058 45.2589 60.8104 45.0662 60.9352 44.947C61.06 44.8323 61.2541 44.8369 61.3742 44.9607L64.3415 48.121C64.457 48.2449 64.4524 48.4375 64.3276 48.5568C64.2629 48.6118 64.1889 48.6393 64.115 48.6393Z" fill="#3B2645"/>
<path d="M60.8703 48.6395C60.7825 48.6395 60.6947 48.6028 60.6346 48.5294C60.5237 48.4009 60.5375 48.2083 60.6716 48.0982L64.4107 44.9378C64.5401 44.8277 64.7342 44.8415 64.8451 44.9745C64.9561 45.1029 64.9422 45.2956 64.8082 45.4057L61.0691 48.5661C61.0136 48.6165 60.9396 48.6395 60.8703 48.6395Z" fill="#3B2645"/>
<path d="M73.9363 30.9156L72.6099 28.9799C72.4804 28.7919 72.5313 28.5396 72.7208 28.4111C72.9103 28.2827 73.1645 28.3332 73.2939 28.5212L74.112 29.7138L77.4536 27.003C77.6292 26.8608 77.8881 26.8837 78.036 27.0626C78.1793 27.2369 78.1561 27.4938 77.9759 27.6406L73.9363 30.9156Z" fill="#3B2645"/>
<path d="M71.0153 57.2764L70.0863 55.9187C69.9892 55.7765 70.0262 55.5884 70.1695 55.4921C70.3128 55.3958 70.5023 55.4325 70.5993 55.5746L71.1493 56.3773L73.4419 54.5197C73.5759 54.4142 73.77 54.4325 73.8763 54.561C73.9826 54.694 73.9641 54.8866 73.8347 54.9921L71.0153 57.2764Z" fill="#3B2645"/>
<path d="M70.3959 58.6068C69.2496 58.6068 68.7782 58.1298 68.5887 57.7078C68.0618 56.5336 69.1387 54.6713 70.4745 53.4328C70.5992 53.3181 70.7934 53.3227 70.9135 53.4466C71.0291 53.5704 71.0245 53.7631 70.8997 53.8823C69.5963 55.0887 68.8152 56.6895 69.1572 57.4555C69.3929 57.9784 70.1602 58.0243 70.761 57.9738C72.693 57.8041 74.1673 56.4739 74.6249 55.2492C74.8005 54.7813 74.7959 54.3731 74.6157 54.1896C74.0333 53.5979 72.1938 54.3272 71.5976 54.63C71.445 54.708 71.2602 54.6483 71.1816 54.497C71.103 54.3456 71.1631 54.1621 71.3156 54.0841C71.5929 53.9419 74.0518 52.7402 75.0594 53.7631C75.4199 54.13 75.4753 54.7492 75.2073 55.4648C74.6989 56.8317 73.1089 58.3913 70.8165 58.5885C70.6639 58.6023 70.5253 58.6068 70.3959 58.6068Z" fill="#3B2645"/>
<path d="M53.5214 57.8175L52.4075 54.9919L50.9424 56.5607L50.4571 55.9323L48.8672 57.8129L53.5214 57.8175Z" fill="url(#paint11_radial_18_1923)"/>
<path d="M51.7096 54.5838C51.7512 54.3591 51.594 54.1802 51.3629 54.1802C51.1318 54.1802 50.9146 54.3637 50.873 54.5838C50.8314 54.8086 50.9886 54.9875 51.2197 54.9875C51.4508 54.9875 51.668 54.8086 51.7096 54.5838Z" fill="url(#paint12_radial_18_1923)"/>
<path d="M66.8742 30.6358L65.7603 27.8103L64.2905 29.3836L63.8099 28.7506L62.2153 30.6312L66.8742 30.6358Z" fill="#3B2645"/>
<path d="M65.0623 27.4066C65.1039 27.1818 64.9468 27.0029 64.7157 27.0029C64.4847 27.0029 64.2675 27.1864 64.2259 27.4066C64.1843 27.6313 64.3414 27.8102 64.5725 27.8102C64.7989 27.8102 65.0208 27.6267 65.0623 27.4066Z" fill="#3B2645"/>
<path opacity="0.3" d="M45.9462 44.6902C45.9462 44.6902 45.6827 49.7862 44.9525 51.8045H37.9457C37.9457 51.8045 39.3739 48.268 39.8545 45.0984L45.9462 44.6902Z" fill="#543753"/>
<path d="M45.9463 44.6899C45.9463 44.6899 45.7383 48.786 43.9959 50.8456L36.8504 50.6804C36.8504 50.6804 38.9673 48.153 39.6236 44.6853H45.9463V44.6899Z" fill="url(#paint13_radial_18_1923)"/>
<path d="M44.4211 46.6163H40.4463C40.3862 46.6163 40.34 46.5704 40.34 46.5108C40.34 46.4511 40.3862 46.4053 40.4463 46.4053H44.4211C44.4812 46.4053 44.5274 46.4511 44.5274 46.5108C44.5228 46.5658 44.4766 46.6163 44.4211 46.6163Z" fill="#3B2645"/>
<path d="M44.0791 47.4009H40.1042C40.0441 47.4009 39.9979 47.3551 39.9979 47.2954C39.9979 47.2358 40.0441 47.1899 40.1042 47.1899H44.0791C44.1391 47.1899 44.1854 47.2358 44.1854 47.2954C44.1807 47.3551 44.1345 47.4009 44.0791 47.4009Z" fill="#3B2645"/>
<path d="M43.7093 48.1898H39.7345C39.6744 48.1898 39.6282 48.1439 39.6282 48.0843C39.6282 48.0246 39.6744 47.9788 39.7345 47.9788H43.7093C43.7694 47.9788 43.8156 48.0246 43.8156 48.0843C43.8156 48.1439 43.7694 48.1898 43.7093 48.1898Z" fill="#3B2645"/>
<path d="M43.3349 49.0064H39.3601C39.3 49.0064 39.2538 48.9605 39.2538 48.9009C39.2538 48.8413 39.3 48.7954 39.3601 48.7954H43.3349C43.395 48.7954 43.4412 48.8413 43.4412 48.9009C43.4412 48.9605 43.395 49.0064 43.3349 49.0064Z" fill="#3B2645"/>
<path opacity="0.3" d="M77.5969 35.5024C77.5969 35.5024 77.3103 41.0709 76.5108 43.2726H68.8569C68.8569 43.2726 70.4145 39.4059 70.9414 35.9474L77.5969 35.5024Z" fill="#543753"/>
<path d="M77.5969 35.5024C77.5969 35.5024 77.3704 39.9792 75.4662 42.2268L67.6598 42.0479C67.6598 42.0479 69.9707 39.2866 70.6871 35.5024H77.5969Z" fill="url(#paint14_radial_18_1923)"/>
<path d="M75.9329 37.6034H71.5884C71.5236 37.6034 71.4728 37.5529 71.4728 37.4887C71.4728 37.4245 71.5236 37.374 71.5884 37.374H75.9329C75.9976 37.374 76.0485 37.4245 76.0485 37.4887C76.0485 37.5529 75.993 37.6034 75.9329 37.6034Z" fill="#3B2645"/>
<path d="M75.5586 38.4657H71.2141C71.1494 38.4657 71.0986 38.4152 71.0986 38.351C71.0986 38.2868 71.1494 38.2363 71.2141 38.2363H75.5586C75.6233 38.2363 75.6742 38.2868 75.6742 38.351C75.6742 38.4152 75.6187 38.4657 75.5586 38.4657Z" fill="#3B2645"/>
<path d="M75.1565 39.3275H70.8119C70.7472 39.3275 70.6963 39.2771 70.6963 39.2128C70.6963 39.1486 70.7472 39.0981 70.8119 39.0981H75.1565C75.2212 39.0981 75.272 39.1486 75.272 39.2128C75.272 39.2771 75.2212 39.3275 75.1565 39.3275Z" fill="#3B2645"/>
<path d="M74.7498 40.2179H70.4051C70.3404 40.2179 70.2896 40.1674 70.2896 40.1032C70.2896 40.039 70.3404 39.9885 70.4051 39.9885H74.7498C74.8145 39.9885 74.8653 40.039 74.8653 40.1032C74.8653 40.1674 74.8099 40.2179 74.7498 40.2179Z" fill="#3B2645"/>
<path d="M17.4846 47.6898L10.6534 46.5339C10.6534 46.5339 9.49798 51.1529 9.18369 52.0611C8.8694 52.9693 7.59376 54.6206 6.45678 58.836C5.32442 63.0467 3.48953 66.6383 3.48953 66.6383C3.48953 66.6383 4.26139 66.5328 4.61265 67.2345C4.96391 67.9363 5.46308 69.7023 6.53073 68.9592C6.53073 68.9592 12.872 57.8956 14.5358 54.7903C16.1997 51.6804 17.4846 47.6898 17.4846 47.6898Z" fill="#FFEDE5"/>
<path d="M10.6535 46.5381C10.6535 46.5381 10.3439 47.7811 9.99722 49.1022C11.9199 49.8407 15.5805 49.9462 16.6759 49.9599C17.1796 48.6343 17.4801 47.694 17.4801 47.694L10.6535 46.5381Z" fill="#DD825C"/>
<path d="M4.61736 67.2343C4.2661 66.5325 3.49424 66.638 3.49424 66.638C3.49424 66.638 0.984561 67.7617 0.120269 69.2204C-0.485198 70.2386 1.45137 73.1467 2.67155 74.8026C3.22617 75.5548 4.10433 75.9998 5.04257 75.9998H8.68C8.74932 75.9998 8.80941 75.9401 8.80479 75.8713C8.76781 73.5962 7.79722 72.7385 7.03461 72.5367C6.25813 72.3303 5.87914 71.1652 6.34595 70.1148C6.81738 69.0644 6.53544 68.9589 6.53544 68.9589C5.46317 69.702 4.96862 67.936 4.61736 67.2343Z" fill="#3B2645"/>
<path d="M11.5687 34.1263C11.5687 34.1263 9.68758 38.805 10.7737 41.3186L9.92792 47.5659C9.92792 47.5659 14.6284 49.9832 18.104 49.2401C18.104 49.2401 20.5213 41.4883 19.7633 35.241C19.0053 28.9936 11.9477 31.9934 11.5687 34.1263Z" fill="#3B2645"/>
<path opacity="0.5" d="M16.9949 39.1172L18.534 47.6901C18.8991 46.2498 19.4121 43.9518 19.6987 41.4106L16.9949 39.1172Z" fill="#3B2645"/>
<path d="M5.49091 73.5691C4.40015 71.8765 2.31568 68.0969 0.85054 68.3446C0.559362 68.6152 0.295914 68.9134 0.115661 69.2253C-0.489806 70.2436 1.44676 73.1517 2.66694 74.8076C3.22157 75.5598 4.09972 76.0047 5.03797 76.0047H8.67539C8.74472 76.0047 8.8048 75.9451 8.80018 75.8763C8.79556 75.6745 8.78631 75.4818 8.76783 75.3029C8.19471 75.2846 6.47537 75.0965 5.49091 73.5691Z" fill="#E5E5E5"/>
<path d="M2.66694 74.8072C3.22157 75.5595 4.09972 76.0044 5.03796 76.0044H8.22706C7.41823 75.9585 5.69889 75.6328 4.67746 73.7981C3.30476 71.3395 1.04928 68.2296 0.115661 69.2249C-0.489806 70.2432 1.44676 73.1513 2.66694 74.8072Z" fill="#AFAFAF"/>
<path d="M30.6432 71.5692C31.1517 71.6425 31.1193 70.6105 31.1193 70.6105C31.1193 70.6105 28.1336 53.3363 27.7361 51.685C27.3386 50.0338 26.3264 44.9377 26.3264 44.9377L20.4659 47.566C20.4659 47.566 21.9587 51.4924 22.0558 52.3777C22.1528 53.2629 22.8276 58.0241 23.8398 60.1065C24.852 62.189 27.3386 67.7666 27.6252 71.138C29.0533 70.0509 30.1348 71.4958 30.6432 71.5692Z" fill="#FFEDE5"/>
<path d="M27.1212 75.8489C27.1304 75.936 27.209 76.0049 27.2968 76.0049H36.4112C36.5175 76.0049 36.6007 75.9177 36.5961 75.8168C36.5776 75.3168 36.4666 73.9866 35.8242 73.7252C35.0292 73.4041 32.3717 72.8766 31.5721 70.9685C31.3179 70.3584 31.133 70.5924 31.1191 70.6107C31.1191 70.6107 31.1515 71.6428 30.6431 71.5694C30.1347 71.496 29.0531 70.0511 27.6296 71.1382C27.6296 71.1382 26.9317 74.2068 27.1212 75.8489Z" fill="#3B2645"/>
<path d="M27.2971 76.0002H36.4114C36.5178 76.0002 36.6009 75.913 36.5963 75.8121C36.5917 75.6837 36.5825 75.5048 36.5547 75.303H27.0891C27.0891 75.4956 27.103 75.6791 27.1215 75.8488C27.1307 75.936 27.2047 76.0002 27.2971 76.0002Z" fill="#E5E5E5"/>
<path d="M21.3856 50.0888C21.3856 50.0888 24.4129 50.6713 26.9088 47.8045L26.331 44.9377L20.4659 47.566L21.3856 50.0888Z" fill="#DD825C"/>
<path d="M24.8797 34.7044C24.8797 34.7044 26.6175 42.0572 27.736 47.0156C27.736 47.0156 25.0461 50.3228 20.3919 49.3412C20.3919 49.3412 18.52 43.6213 18.2242 43.048C17.9284 42.4746 14.4805 37.9244 15.978 34.3604C17.4754 30.7964 23.507 31.6266 24.8797 34.7044Z" fill="#3B2645"/>
<path d="M22.4994 13.4667C22.4994 13.4667 18.3952 12.3934 16.9948 12.4209C15.5944 12.4439 13.4729 14.2282 12.8721 18.0078C12.2712 21.7873 12.5578 26.8375 12.2712 28.4429C11.98 30.0483 10.8985 34.571 10.8985 34.6398C10.8985 34.7132 16.5095 36.369 18.52 36.3323C20.5259 36.2956 21.1221 35.9562 21.1221 35.9562C21.1221 35.9562 22.028 34.3416 22.0788 34.4104C22.1343 34.4838 22.712 35.8278 22.712 35.8278L25.1847 35.4287C25.1847 35.4287 24.3667 30.5804 24.3898 29.9612C24.4129 29.3373 25.365 19.8012 25.536 19.0581C25.6978 18.3197 25.2726 14.6547 22.4994 13.4667Z" fill="#AA8CA7"/>
<path opacity="0.5" d="M21.2978 20.5948L24.4037 29.7226C24.5332 28.1035 25.3743 19.7554 25.5315 19.0627C25.7025 18.3197 25.2727 14.6547 22.4995 13.4667C22.4995 13.4667 18.3953 12.3934 16.9949 12.4209C16.8192 12.4255 16.6344 12.453 16.4402 12.5127L23.0357 16.3198L21.2978 20.5948Z" fill="#543753"/>
<path d="M26.5807 5.28362C26.5807 5.28362 25.8551 12.0126 23.7059 13.0721C21.5521 14.1317 19.6895 9.30173 19.9067 7.39817C20.1239 5.49462 23.595 2.8067 26.5807 5.28362Z" fill="#FFEDE5"/>
<path d="M23.3361 8.91682C23.3361 8.91682 24.0617 8.80215 24.2836 7.47195C24.2836 7.47195 25.1894 7.21967 25.0138 6.02708C25.0138 6.02708 26.2525 6.67384 27.1399 6.1601C28.0273 5.64637 28.2445 4.39416 28.0874 4.18775C27.9348 3.98134 27.6437 4.12353 27.6437 4.12353C27.6437 4.12353 28.0504 2.65573 26.2617 2.63738C24.4731 2.61445 22.9987 1.72001 21.76 1.40351C20.5213 1.08702 18.6218 2.00439 18.6218 3.77493C18.6218 3.77493 16.3801 4.59598 17.5957 9.10488C18.8113 13.6138 22.4672 11.6185 22.4672 11.6185C22.4672 11.6185 22.1714 9.00397 23.3361 8.91682Z" fill="#3B2645"/>
<path d="M23.1016 10.2165C23.5722 10.0897 23.7899 9.38838 23.5879 8.65004C23.3859 7.91169 22.8408 7.41591 22.3702 7.54268C21.8997 7.66945 21.682 8.37077 21.884 9.10911C22.0859 9.84746 22.6311 10.3432 23.1016 10.2165Z" fill="#FFEDE5"/>
<path d="M39.1891 22.9208L44.3009 24.04C44.4118 24.0629 44.4857 23.9299 44.4072 23.8473L40.4878 20.0586L39.1891 22.9208Z" fill="#F2F9FF"/>
<path d="M39.3276 21.2644C38.9902 22.0717 38.9301 22.8147 39.1889 22.9202C39.4478 23.0257 39.9331 22.4615 40.2705 21.6497C40.6078 20.8424 40.6679 20.0993 40.4091 19.9938C40.1457 19.8883 39.6604 20.4571 39.3276 21.2644Z" fill="url(#paint15_radial_18_1923)"/>
<path d="M39.1891 22.9205L0.453064 4.24736L2.21862 0.0136719L40.4092 19.9941L39.1891 22.9205Z" fill="url(#paint16_radial_18_1923)"/>
<path d="M43.4366 23.8519C43.5753 23.5858 43.6631 23.3657 43.7139 23.1868L44.4211 23.8702C44.495 23.9436 44.4303 24.072 44.324 24.0491L43.4366 23.8519Z" fill="#3B2645"/>
<path d="M6.25371 2.12383C6.41085 2.51371 6.28144 3.38063 5.88858 4.32095C5.4495 5.37593 4.83479 6.14652 4.44193 6.17404L2.20032 5.09154L3.94277 0.91748L6.25371 2.12383Z" fill="#3B2645"/>
<path d="M4.19227 1.0547L4.48345 1.20607C4.68219 1.55926 4.5574 2.48122 4.14143 3.4674C3.68849 4.55449 3.05067 5.33885 2.66243 5.3205L2.4868 5.23793L0.448547 4.25176L2.21411 0.0180664L4.19227 1.0547Z" fill="#EEEEEE"/>
<path d="M2.01531 2.41713C2.50349 1.24689 2.59335 0.172544 2.21602 0.0175082C1.83868 -0.137528 1.13704 0.685459 0.648858 1.8557C0.160674 3.02594 0.0708134 4.10029 0.448148 4.25533C0.825483 4.41036 1.52713 3.58738 2.01531 2.41713Z" fill="#EEEEEE"/>
<path d="M18.4737 11.3757C18.3859 11.3757 18.2935 11.3573 18.2103 11.3115L1.75175 2.92664C1.46981 2.77986 1.35427 2.43585 1.50217 2.15605C1.65007 1.87625 1.99671 1.76158 2.27864 1.90836L18.7372 10.2886C19.0191 10.4354 19.1346 10.7794 18.9867 11.0592C18.8851 11.261 18.6817 11.3757 18.4737 11.3757Z" fill="#EEEEEE"/>
<path d="M37.6503 18.4487C37.5855 18.1185 35.1729 16.8983 35.0204 16.8158C34.8679 16.7332 34.6183 16.9626 34.6183 16.9626L34.8355 17.0772C34.8355 17.0772 34.7015 17.7332 34.6368 18.0313C34.5721 18.3295 33.5229 19.4578 33.5229 19.4578C33.5229 19.4578 33.2133 19.178 32.8527 18.7331C32.4922 18.2882 32.0763 18.3386 32.0485 18.4212C32.0208 18.5038 32.6078 19.8569 32.691 19.9899C32.7742 20.1229 33.1994 20.8981 33.1994 21.0403C33.1994 21.1825 29.8069 24.8382 29.8069 24.8382C29.5019 24.164 28.9796 23.3521 28.4435 22.5769C27.4821 24.1135 25.5317 25.5354 24.2607 26.3565C25.1943 27.4665 28.1662 30.8471 29.6637 30.6498C31.4523 30.4159 35.404 22.7604 35.5242 22.5356C35.6397 22.3109 35.8154 22.2375 36.5318 21.6412C37.2482 21.0449 37.7103 18.7836 37.6503 18.4487Z" fill="#FFEDE5"/>
<path d="M28.4387 22.5733C27.7039 21.5046 26.9505 20.5138 26.7379 20.0643C26.3774 19.2891 25.5917 15.6242 23.4702 15.5737C21.3488 15.5279 20.7109 17.6332 20.7109 20.0643C20.7109 22.4953 23.9647 26.0089 23.9647 26.0089C23.9647 26.0089 24.0711 26.1419 24.2513 26.3575C25.5223 25.5318 27.4728 24.1053 28.4387 22.5733Z" fill="#AA8CA7"/>
<path opacity="0.5" d="M23.4702 15.568C22.9803 15.5588 22.5736 15.6597 22.2316 15.8569L25.9892 18.0265C25.4761 16.8385 24.6997 15.5955 23.4702 15.568Z" fill="#543753"/>
<defs>
<linearGradient id="paint0_linear_18_1923" x1="106.988" y1="72.285" x2="-9.19153" y2="59.2834" gradientUnits="userSpaceOnUse">
<stop stop-color="#B12525"/>
<stop offset="1" stop-color="#F96363"/>
</linearGradient>
<radialGradient id="paint1_radial_18_1923" cx="0" cy="0" r="1" gradientUnits="userSpaceOnUse" gradientTransform="translate(79.4264 10.9246) scale(24.4804 24.295)">
<stop offset="0.0747467" stop-color="#F99E96"/>
<stop offset="0.7122" stop-color="#F78F98"/>
<stop offset="1" stop-color="#F68699"/>
</radialGradient>
<radialGradient id="paint2_radial_18_1923" cx="0" cy="0" r="1" gradientUnits="userSpaceOnUse" gradientTransform="translate(79.4263 10.9245) scale(24.4804 24.295)">
<stop offset="0.0747467" stop-color="#F99E96"/>
<stop offset="0.7122" stop-color="#F78F98"/>
<stop offset="1" stop-color="#F68699"/>
</radialGradient>
<radialGradient id="paint3_radial_18_1923" cx="0" cy="0" r="1" gradientUnits="userSpaceOnUse" gradientTransform="translate(79.4264 10.9246) scale(24.4804 24.2952)">
<stop offset="0.0747467" stop-color="#F99E96"/>
<stop offset="0.7122" stop-color="#F78F98"/>
<stop offset="1" stop-color="#F68699"/>
</radialGradient>
<radialGradient id="paint4_radial_18_1923" cx="0" cy="0" r="1" gradientUnits="userSpaceOnUse" gradientTransform="translate(79.4263 10.925) scale(24.4806 24.295)">
<stop offset="0.0747467" stop-color="#F99E96"/>
<stop offset="0.7122" stop-color="#F78F98"/>
<stop offset="1" stop-color="#F68699"/>
</radialGradient>
<radialGradient id="paint5_radial_18_1923" cx="0" cy="0" r="1" gradientUnits="userSpaceOnUse" gradientTransform="translate(79.4263 10.9245) scale(24.4804 24.295)">
<stop offset="0.0747467" stop-color="#F99E96"/>
<stop offset="0.7122" stop-color="#F78F98"/>
<stop offset="1" stop-color="#F68699"/>
</radialGradient>
<radialGradient id="paint6_radial_18_1923" cx="0" cy="0" r="1" gradientUnits="userSpaceOnUse" gradientTransform="translate(79.4264 10.9245) scale(24.4804 24.295)">
<stop offset="0.0747467" stop-color="#F99E96"/>
<stop offset="0.7122" stop-color="#F78F98"/>
<stop offset="1" stop-color="#F68699"/>
</radialGradient>
<radialGradient id="paint7_radial_18_1923" cx="0" cy="0" r="1" gradientUnits="userSpaceOnUse" gradientTransform="translate(79.4263 10.9245) scale(24.4804 24.295)">
<stop offset="0.0747467" stop-color="#F99E96"/>
<stop offset="0.7122" stop-color="#F78F98"/>
<stop offset="1" stop-color="#F68699"/>
</radialGradient>
<radialGradient id="paint8_radial_18_1923" cx="0" cy="0" r="1" gradientUnits="userSpaceOnUse" gradientTransform="translate(79.4266 10.9245) scale(24.4807 24.295)">
<stop offset="0.0747467" stop-color="#F99E96"/>
<stop offset="0.7122" stop-color="#F78F98"/>
<stop offset="1" stop-color="#F68699"/>
</radialGradient>
<radialGradient id="paint9_radial_18_1923" cx="0" cy="0" r="1" gradientUnits="userSpaceOnUse" gradientTransform="translate(79.4262 10.9245) scale(24.4804 24.295)">
<stop offset="0.0747467" stop-color="#F99E96"/>
<stop offset="0.7122" stop-color="#F78F98"/>
<stop offset="1" stop-color="#F68699"/>
</radialGradient>
<radialGradient id="paint10_radial_18_1923" cx="0" cy="0" r="1" gradientUnits="userSpaceOnUse" gradientTransform="translate(79.4263 10.9245) scale(24.4804 24.295)">
<stop offset="0.0747467" stop-color="#F99E96"/>
<stop offset="0.7122" stop-color="#F78F98"/>
<stop offset="1" stop-color="#F68699"/>
</radialGradient>
<radialGradient id="paint11_radial_18_1923" cx="0" cy="0" r="1" gradientUnits="userSpaceOnUse" gradientTransform="translate(53.7809 53.4268) scale(8.69533 8.62946)">
<stop offset="0.0747467" stop-color="#F99E96"/>
<stop offset="0.7122" stop-color="#F78F98"/>
<stop offset="1" stop-color="#F68699"/>
</radialGradient>
<radialGradient id="paint12_radial_18_1923" cx="0" cy="0" r="1" gradientUnits="userSpaceOnUse" gradientTransform="translate(53.7809 53.4269) scale(8.69546 8.6295)">
<stop offset="0.0747467" stop-color="#F99E96"/>
<stop offset="0.7122" stop-color="#F78F98"/>
<stop offset="1" stop-color="#F68699"/>
</radialGradient>
<radialGradient id="paint13_radial_18_1923" cx="0" cy="0" r="1" gradientUnits="userSpaceOnUse" gradientTransform="translate(47.1617 44.0577) scale(9.24615 9.17624)">
<stop offset="0.0747467" stop-color="#F99E96"/>
<stop offset="0.7122" stop-color="#F78F98"/>
<stop offset="1" stop-color="#F68699"/>
</radialGradient>
<radialGradient id="paint14_radial_18_1923" cx="0" cy="0" r="1" gradientUnits="userSpaceOnUse" gradientTransform="translate(78.6306 33.827) scale(9.91827 9.84306)">
<stop offset="0.0747467" stop-color="#F99E96"/>
<stop offset="0.7122" stop-color="#F78F98"/>
<stop offset="1" stop-color="#F68699"/>
</radialGradient>
<radialGradient id="paint15_radial_18_1923" cx="0" cy="0" r="1" gradientUnits="userSpaceOnUse" gradientTransform="translate(47.8125 19.2882) scale(30.7848 30.552)">
<stop offset="0.0747467" stop-color="#F99E96"/>
<stop offset="0.7122" stop-color="#F78F98"/>
<stop offset="1" stop-color="#F68699"/>
</radialGradient>
<radialGradient id="paint16_radial_18_1923" cx="0" cy="0" r="1" gradientUnits="userSpaceOnUse" gradientTransform="translate(47.8127 19.2885) scale(30.7852 30.5521)">
<stop offset="0.0747467" stop-color="#F99E96"/>
<stop offset="0.7122" stop-color="#F78F98"/>
<stop offset="1" stop-color="#F68699"/>
</radialGradient>
</defs>
</svg>
