<svg width="40" height="40" viewBox="0 0 40 40" fill="none" xmlns="http://www.w3.org/2000/svg">
<circle opacity="0.2" cx="20" cy="20" r="20" fill="url(#paint0_linear_79_3734)"/>
<g clip-path="url(#clip0_79_3734)">
<path d="M16.5591 17.7329C16.5591 17.7329 17.1497 12.9661 17.0164 11.2253C16.948 10.3323 16.513 10.1303 15.8481 10.1812C15.1831 10.2322 11.3808 12.2396 11.3808 12.2396L11.9226 13.5382L15.0849 12.5502C15.0849 12.5502 14.7626 14.4048 14.6883 14.7571C14.6139 15.1093 14.4584 15.5838 14.3345 16.009C14.2738 16.2187 14.1892 16.4903 14.1892 16.6219C14.1909 16.9325 16.5591 17.7329 16.5591 17.7329Z" fill="#FFEDE5"/>
<path d="M15.0848 12.5503C15.5258 12.4654 15.966 12.2065 16.1044 12.0002C16.0333 12.2322 15.8764 12.4287 15.6652 12.5503C15.4641 12.679 15.2512 12.7884 15.0293 12.877L15.0848 12.5503Z" fill="#F28F8F"/>
<path d="M22.5451 17.648C22.4793 17.4052 22.0502 17.1498 20.7717 16.9367C19.4931 16.7237 18.3299 16.9367 18.3231 17.0869C18.3163 17.2372 18.6385 18.2413 20.1127 18.4246C21.587 18.608 22.6801 18.181 22.5451 17.648Z" fill="#263238"/>
<path d="M18.6992 19.7117C18.6992 19.7117 17.8659 14.3439 17.9856 13.2481C18.1095 12.1158 18.5419 11.5904 19.2675 11.5166C20.2154 12.0632 20.7204 13.3695 21.3264 14.6571C21.9323 15.9447 22.5887 18.7067 22.6238 20.0266C22.6588 21.3464 21.6076 22.2869 20.417 22.4584C19.2265 22.6298 18.6992 19.7117 18.6992 19.7117Z" fill="#FFEDE5"/>
<path d="M20.0084 15.5093C19.6239 15.2023 19.3641 14.7676 19.2769 14.2853L20.4691 13.8728L21.2733 14.5374L21.2973 14.5892C21.3075 14.6112 21.3178 14.6333 21.3289 14.6554C21.352 14.7046 21.375 14.7564 21.3981 14.809C21.4041 14.8243 21.4109 14.8396 21.4178 14.8557C21.4357 14.8964 21.4528 14.9406 21.4707 14.983L21.4887 15.0272C21.5126 15.0857 21.5357 15.146 21.5596 15.2079C21.5827 15.2699 21.6058 15.3336 21.6289 15.3981C21.634 15.4125 21.6391 15.4261 21.6434 15.4397L21.7049 15.6179C21.7049 15.6264 21.7109 15.6357 21.7143 15.6442C21.7622 15.7885 21.81 15.9379 21.8562 16.0907L21.8639 16.1153C21.887 16.1908 21.9092 16.2672 21.9314 16.3445C21.9314 16.3445 20.8238 16.1866 20.0084 15.5093Z" fill="#F28F8F"/>
<path d="M19.0162 11.5624C19.4692 11.385 20.0204 11.8001 20.3118 11.9868C20.9041 12.3637 24.5253 15.1664 25.3697 15.8234C25.5526 15.9337 25.7389 16.0398 25.9286 16.14L24.9338 17.6848C24.8521 17.4627 24.7243 17.2603 24.5586 17.0906C23.6561 16.4506 21.9092 16.1018 20.7845 15.6672C19.9093 15.3277 19.7264 15.1375 19.4316 14.641C19.2059 14.248 18.3914 11.8561 19.0162 11.5624Z" fill="#FFEDE5"/>
<path d="M18.6812 19.7413L18.3231 17.0872C18.3231 17.0872 18.6444 17.8188 20.299 18.0115C21.9536 18.2042 22.5869 17.9266 22.545 17.6482C22.545 17.6482 22.9775 19.3101 22.81 20.3898C22.6425 21.4695 20.9819 22.6196 20.9819 22.6196L18.6812 19.7413Z" fill="#37474F"/>
<path opacity="0.15" d="M19.4137 20.1045C19.2615 20.1045 19.1188 20.1139 18.9863 20.1223L20.8255 22.42H21.2529C21.7298 22.044 22.6861 21.1986 22.8109 20.3923C22.934 19.6003 22.734 18.4969 22.6186 17.9639C22.6844 18.5767 21.3041 20.0646 19.4137 20.1045Z" fill="black"/>
<path d="M27.6969 13.894C27.0987 13.7837 26.8209 14.2123 26.6004 14.5663C26.3799 14.9202 26.0107 15.5695 25.8458 15.679C25.6808 15.7885 25.5894 15.679 25.3543 15.8547C25.1193 16.0304 24.9475 16.364 25.0202 16.4854L25.1911 16.7807C25.0926 16.77 24.9928 16.7825 24.9 16.8171C24.8073 16.8518 24.724 16.9077 24.6569 16.9802C24.4006 17.2348 24.5339 17.2773 24.6783 17.4216C24.8228 17.5659 25.162 18.2177 25.5022 18.3951C25.5022 18.3951 26.4184 18.1227 27.0824 17.0906C27.7465 16.0584 27.6969 13.894 27.6969 13.894Z" fill="url(#paint1_linear_79_3734)"/>
<path d="M25.6912 18.5318C25.6561 18.5256 25.6228 18.5122 25.5932 18.4925C25.5637 18.4728 25.5386 18.4472 25.5195 18.4173C25.5004 18.3875 25.4879 18.354 25.4825 18.319C25.4772 18.2841 25.4793 18.2484 25.4886 18.2143C25.5899 17.896 25.7419 17.596 25.939 17.3256C26.1689 17.0014 26.5997 16.392 26.6723 16.0584C26.745 15.7248 26.9014 14.7903 27.1569 14.399C27.4125 14.0077 27.6748 13.7819 28.0116 13.9084C28.3483 14.0349 27.2851 16.5396 26.9732 16.964C26.6612 17.3884 25.6912 18.5318 25.6912 18.5318Z" fill="#37474F"/>
<path d="M25.8875 18.4774C26.7294 18.0318 27.0063 17.5989 27.255 17.0345C27.5037 16.47 28.0848 15.9497 28.2353 15.443C28.3857 14.9363 28.4011 13.6368 27.8225 13.9517C27.2439 14.2666 27.1234 15.4286 26.8695 16.1C26.6157 16.7713 25.0619 18.9162 25.8875 18.4774Z" fill="#263238"/>
<path d="M20.8281 19.8499C21.2127 19.7913 21.952 19.9492 22.6229 20.8795C23.3433 21.8785 23.4775 23.6219 23.0254 23.7654C23.0254 23.7654 21.9776 23.6431 21.258 23.2688C20.5384 22.8945 19.3291 20.366 20.8281 19.8499Z" fill="#263238"/>
<path d="M33.118 28.1681C32.0019 27.7326 31.0882 26.984 30.2977 26.1471C29.6618 25.2898 26.9372 21.6188 26.4646 21.1019C26.2936 20.9185 25.8885 20.4466 25.327 20.3286C23.3391 19.9042 19.6581 19.967 19.6581 19.967L18.2428 19.7302L15.4225 22.3666C15.8114 22.7782 16.2994 23.1373 17.013 23.5065C17.7266 23.8757 18.4984 24.1439 19.5393 24.0565C21.623 23.8817 22.8725 23.2968 23.9878 23.038C24.3109 22.9633 24.6459 22.8945 24.8997 23.4208C25.1535 23.947 25.174 24.211 25.9253 24.7703C26.8885 25.4884 28.479 26.2914 29.173 27.147C29.2873 27.3567 29.3554 27.5881 29.3729 27.826C29.4388 28.7283 30.2011 28.5509 30.8156 28.943C31.1506 29.1569 31.3993 29.4166 31.8027 29.5049C32.17 29.5799 32.5495 29.573 32.9138 29.4845C33.2419 29.4073 33.712 29.1722 33.8735 28.8547C34.0855 28.432 33.4394 28.2928 33.118 28.1681Z" fill="#FFEDE5"/>
<path d="M33.118 28.1681C32.0019 27.7326 31.0882 26.984 30.2977 26.1471C29.6618 25.2898 26.9372 21.6188 26.4646 21.1019C26.2936 20.9185 25.8885 20.4466 25.327 20.3286C23.3391 19.9042 19.6581 19.967 19.6581 19.967L18.2428 19.7302L15.4225 22.3666C15.8114 22.7782 16.2994 23.1373 17.013 23.5065C17.7266 23.8757 18.4984 24.1439 19.5393 24.0565C21.623 23.8817 22.8725 23.2968 23.9878 23.038C24.3109 22.9633 24.6459 22.8945 24.8997 23.4208C25.1535 23.947 25.174 24.211 25.9253 24.7703C26.8885 25.4884 28.479 26.2914 29.173 27.147C29.2873 27.3567 29.3554 27.5881 29.3729 27.826C29.4388 28.7283 30.2011 28.5509 30.8156 28.943C31.1506 29.1569 31.3993 29.4166 31.8027 29.5049C32.17 29.5799 32.5495 29.573 32.9138 29.4845C33.2419 29.4073 33.712 29.1722 33.8735 28.8547C34.0855 28.432 33.4394 28.2928 33.118 28.1681Z" fill="#FFEDE5"/>
<path d="M25.8612 24.3427C25.6496 24.1098 25.489 23.8358 25.3895 23.538C25.313 23.2892 25.2146 23.0475 25.0955 22.8157C24.7485 22.2216 22.4461 22.9795 21.4265 23.2902C21.3692 23.3751 21.1299 23.6297 21.0444 23.8419C22.2794 23.5915 23.1682 23.2274 23.9861 23.0373C24.3092 22.9626 24.6442 22.8938 24.8981 23.4201C25.1519 23.9463 25.1724 24.2103 25.9236 24.7696C26.3151 25.0616 26.8099 25.3638 27.3065 25.6855C26.7518 25.2577 26.3339 24.8291 25.8612 24.3427Z" fill="#F28F8F"/>
<path d="M18.4616 19.7302C18.4616 19.7302 20.4846 19.8287 20.8281 19.8533C20.8281 19.8533 20.0667 20.057 20.9931 21.9167C21.9195 23.7764 23.0263 23.7662 23.0263 23.7662C21.5734 24.228 20.8187 24.7466 18.9667 24.5301C16.7592 24.2135 15.4208 22.572 15.4208 22.572L18.4616 19.7302Z" fill="#455A64"/>
<path opacity="0.15" d="M23.0212 23.7663C23.0044 23.7674 22.9875 23.7674 22.9708 23.7663C22.8058 23.7476 22.3152 23.6407 21.7657 23.0593C21.3295 23.1748 20.8869 23.2652 20.4401 23.33C18.789 23.5702 17.5506 23.2808 15.7054 22.3038L15.4208 22.5704C16.1531 23.3905 17.0924 24.0017 18.142 24.3409C18.2061 24.3605 18.2719 24.38 18.3386 24.3978C18.4009 24.4139 18.4642 24.4301 18.5274 24.4445L18.5445 24.4487C18.6026 24.4623 18.6625 24.4742 18.7223 24.4861L18.7539 24.492C18.824 24.5056 18.8941 24.5175 18.9659 24.5277C19.0821 24.5412 19.1932 24.5514 19.3009 24.5599C19.4086 24.5684 19.512 24.5727 19.6128 24.576H19.7607C19.8094 24.576 19.8573 24.576 19.9043 24.576C20.0453 24.576 20.1795 24.565 20.3085 24.5523C20.394 24.5438 20.4777 24.5336 20.5598 24.5217C20.7574 24.492 20.9531 24.4512 21.1461 24.3995C21.2213 24.3791 21.2956 24.3579 21.3691 24.335C21.5546 24.279 21.7375 24.2162 21.9255 24.1483L22.1537 24.0634C22.4238 23.9649 22.7075 23.8614 23.0255 23.7604L23.0212 23.7663Z" fill="black"/>
<path d="M11.6971 17.1984C10.8749 17.4819 10.098 17.9776 10.757 19.4282C11.6971 21.523 15.9584 23.8487 18.1463 24.3427C17.0352 22.6731 17.96 20.9034 18.6856 19.7414L18.4898 18.3222C18.4898 18.3222 17.8335 18.009 16.7463 17.1746C15.6592 16.3403 15.208 16.1136 13.5901 16.6025C12.4782 16.9387 11.6971 17.1984 11.6971 17.1984Z" fill="url(#paint2_linear_79_3734)"/>
<path opacity="0.05" d="M15.0275 21.9328C12.7901 20.6596 12.0867 19.5256 11.209 18.4366L10.6346 19.1327C10.65 19.1776 10.6671 19.2235 10.6859 19.271C10.6856 19.2735 10.6856 19.2761 10.6859 19.2786C10.7047 19.327 10.7261 19.3771 10.7492 19.428C11.1662 20.3447 12.2132 21.3056 13.4439 22.1416C13.6148 22.2604 13.7994 22.3767 13.9806 22.4896C14.072 22.5465 14.1635 22.6025 14.2558 22.6594C14.8817 23.0315 15.5295 23.366 16.1959 23.6609C16.821 23.9476 17.472 24.1749 18.1402 24.34C17.8968 23.9808 17.7342 23.5738 17.6633 23.1466C16.8856 22.914 16.0514 22.5159 15.0275 21.9328Z" fill="black"/>
<path d="M11.08 17.4827C11.08 17.4827 8.32032 16.0177 7.88359 15.8199L10.2988 14.4118L9.78604 13.0902C9.78604 13.0902 6.19651 14.3575 5.51279 14.7216C5.15469 14.9143 5 15.073 5 15.3463C5 15.8021 5.43673 16.3929 6.04182 16.9047C7.32807 17.9937 9.07326 19.008 10.7732 19.9349C11.1629 20.2217 11.568 20.5825 11.568 20.5825C12.015 20.8049 12.6654 18.7525 11.08 17.4827Z" fill="#FFEDE5"/>
<path d="M13.6635 12.3908C13.4911 11.9934 13.1669 11.6802 12.762 11.5202C12.3571 11.3603 11.9049 11.3666 11.5047 11.5378C11.1045 11.709 10.7892 12.031 10.6281 12.4331C10.467 12.8352 10.4734 13.2844 10.6458 13.6818C10.6569 13.709 10.6705 13.7336 10.6834 13.7591L10.2663 14.6605L9.65009 13.5324C9.65034 13.4436 9.61734 13.3578 9.55748 13.2918C9.49762 13.2257 9.41518 13.1841 9.32618 13.1751C9.28104 13.1713 9.23559 13.1766 9.1926 13.1908C9.1496 13.2049 9.10995 13.2276 9.07606 13.2575C9.04216 13.2873 9.01474 13.3237 8.99544 13.3644C8.97614 13.4051 8.96538 13.4493 8.96381 13.4942L9.43472 13.535C9.33138 13.6031 9.25217 13.7016 9.20824 13.8168C9.09628 14.1071 9.486 14.6987 10.0082 15.2181C10.0082 15.2181 10.7475 16.2545 10.9269 16.3996C11.0426 16.4871 11.1876 16.5272 11.332 16.5117L11.3765 14.4746C11.6767 14.6355 12.0198 14.6995 12.3584 14.6578C12.6969 14.6161 13.0139 14.4707 13.2654 14.2419C13.5169 14.013 13.6904 13.712 13.7617 13.3808C13.8331 13.0495 13.7987 12.7044 13.6635 12.3934V12.3908Z" fill="#263238"/>
<path d="M10.6296 15.0119C10.5612 15.1061 10.3527 14.9864 10.1877 14.9168C10.0228 14.8472 9.58094 14.8447 9.56385 15.3123C9.54675 15.78 10.1254 16.1611 10.4578 16.1263C11.0304 16.0678 10.9706 15.7138 10.9706 15.7138L11.8116 17.5633C12.785 18.093 14.5969 17.2595 13.5098 16.7358L13.2696 16.1866C13.4774 16.1311 13.6781 16.0523 13.8679 15.9515C14.2097 15.7359 14.3217 15.3454 14.261 14.8981C14.1644 14.1809 14.0046 13.6343 13.3089 12.4366C12.5397 11.1278 10.9159 11.8051 10.2818 12.7244C9.6476 13.6436 10.6296 15.0119 10.6296 15.0119Z" fill="#FFEDE5"/>
<path d="M10.697 15.1689C10.6509 15.1901 10.3475 14.9745 10.1842 14.9194C9.96286 14.8438 9.60305 13.4527 9.60305 13.4527C9.60305 13.4527 9.30906 13.1938 9.47058 12.7269C9.60305 12.3441 10.0919 12.0878 10.4304 11.918C11.0406 11.6116 11.7234 11.2628 12.0226 10.6211C12.0465 10.5702 12.0807 10.5124 12.1371 10.5116C12.1546 10.5131 12.1716 10.5182 12.1872 10.5263C12.2028 10.5345 12.2165 10.5456 12.2277 10.5591C12.3686 10.7162 12.448 10.9183 12.4516 11.1287C12.4516 11.1482 12.4576 11.1728 12.4772 11.1787C12.4969 11.1847 12.5114 11.1686 12.5234 11.1541C12.5855 11.0787 12.6327 10.9923 12.6627 10.8995C12.7037 10.773 12.9191 11.0947 12.9345 11.1389C12.9849 11.2785 13.0066 11.4267 12.9984 11.5748C12.9902 11.723 12.9522 11.8679 12.8866 12.0012C12.7533 12.2669 12.479 12.4316 12.2277 12.5767C11.6679 12.9009 10.7107 13.2099 10.5774 13.2464C10.3962 13.2965 10.4312 13.4773 10.5338 13.967C10.6278 14.3999 10.8517 15.0968 10.697 15.1689Z" fill="#263238"/>
<path d="M13.2696 16.1865C13.2696 16.1865 12.2696 16.3962 11.9141 16.3698C11.7055 16.3548 11.5065 16.2773 11.3432 16.1475C11.4592 16.2971 11.6046 16.4218 11.7705 16.5141C12.0987 16.6924 13.3636 16.408 13.3636 16.408L13.2696 16.1865Z" fill="#F28F8F"/>
<path d="M11.7074 13.6021L11.41 13.9246C11.3671 13.8833 11.3421 13.827 11.34 13.7677C11.3379 13.7084 11.359 13.6506 11.3989 13.6063C11.4186 13.5856 11.4424 13.569 11.4687 13.5575C11.4951 13.5461 11.5235 13.54 11.5522 13.5396C11.581 13.5392 11.6095 13.5445 11.6362 13.5552C11.6628 13.566 11.687 13.5819 11.7074 13.6021Z" fill="#263238"/>
<path d="M12.6653 15.2496L13.1055 15.2292C13.1082 15.258 13.105 15.287 13.0961 15.3145C13.0873 15.342 13.0729 15.3675 13.0539 15.3893C13.035 15.4112 13.0117 15.429 12.9856 15.4418C12.9595 15.4545 12.9311 15.4619 12.9021 15.4635C12.8424 15.4652 12.7844 15.4438 12.7403 15.404C12.6962 15.3641 12.6693 15.3088 12.6653 15.2496Z" fill="#F28F8F"/>
<path d="M13.5175 13.0901L13.0901 12.9815C13.096 12.9532 13.1075 12.9264 13.124 12.9027C13.1406 12.879 13.1618 12.8589 13.1864 12.8436C13.211 12.8282 13.2385 12.818 13.2672 12.8136C13.2959 12.8091 13.3252 12.8105 13.3534 12.8177C13.4105 12.8338 13.4593 12.871 13.4898 12.9216C13.5203 12.9722 13.5302 13.0325 13.5175 13.0901Z" fill="#263238"/>
<path d="M12.6056 13.7548L12.897 14.7962L13.4098 14.4873L12.6056 13.7548Z" fill="#F28F8F"/>
<path d="M11.7944 14.2216C11.7946 14.2592 11.806 14.2959 11.8271 14.327C11.8483 14.3582 11.8782 14.3824 11.9132 14.3967C11.9482 14.4109 11.9867 14.4146 12.0237 14.4071C12.0608 14.3997 12.0949 14.3815 12.1215 14.3549C12.1482 14.3283 12.1664 14.2944 12.1737 14.2576C12.181 14.2207 12.1772 14.1825 12.1627 14.1478C12.1481 14.1131 12.1236 14.0835 12.0921 14.0626C12.0607 14.0418 12.0237 14.0306 11.9859 14.0306C11.9607 14.0306 11.9357 14.0356 11.9124 14.0452C11.8891 14.0548 11.868 14.0689 11.8502 14.0866C11.8324 14.1044 11.8183 14.1254 11.8088 14.1486C11.7992 14.1718 11.7943 14.1966 11.7944 14.2216Z" fill="#263238"/>
<path d="M13.1799 13.6827C13.1798 13.7192 13.1905 13.755 13.2108 13.7854C13.2311 13.8158 13.2601 13.8395 13.294 13.8536C13.3279 13.8676 13.3653 13.8713 13.4014 13.8643C13.4374 13.8572 13.4705 13.8396 13.4965 13.8138C13.5225 13.788 13.5402 13.7551 13.5473 13.7193C13.5545 13.6835 13.5507 13.6464 13.5366 13.6127C13.5224 13.579 13.4985 13.5503 13.4679 13.5301C13.4373 13.5099 13.4013 13.4992 13.3645 13.4994C13.3156 13.4996 13.2688 13.519 13.2343 13.5533C13.1997 13.5877 13.1802 13.6342 13.1799 13.6827Z" fill="#263238"/>
<path d="M29.2617 28.0154C29.1891 28.0646 29.3019 28.3753 29.3677 28.4517C29.5048 28.584 29.6741 28.6788 29.8591 28.7267C30.1956 28.829 30.51 28.9925 30.7864 29.2088C31.1273 29.4829 31.5238 29.6806 31.9488 29.7885C32.453 29.8997 33.0359 29.7579 33.5444 29.4583C34.0777 29.1451 34.0281 28.8446 33.9555 28.6443L29.2617 28.0154Z" fill="#37474F"/>
<path d="M30.4156 26.272C30.5865 26.4519 31.5164 27.3652 32.23 27.5978C32.7983 27.7828 33.5376 27.9594 33.8615 28.3031C34.1982 28.6613 33.6966 29.1197 33.0069 29.3828C32.2873 29.6561 31.7984 29.4354 31.3206 29.1969C30.9848 29.0271 30.4899 28.6876 30.2412 28.551C29.9925 28.4143 29.5319 28.3396 29.3396 28.1368C29.2336 28.0247 29.1575 27.7124 29.1114 27.4382C29.0695 27.1836 28.9003 26.9536 28.9866 26.94L29.1268 27.0919C29.7763 27.2107 30.4532 26.6149 30.4156 26.272Z" fill="url(#paint3_linear_79_3734)"/>
<path d="M7.8836 15.8198C7.47403 16.0396 7.03173 16.1929 6.57343 16.2739C6.57343 16.2739 7.29902 16.4547 8.16222 15.9582L7.8836 15.8198Z" fill="#F28F8F"/>
</g>
<defs>
<linearGradient id="paint0_linear_79_3734" x1="40" y1="40" x2="-13.3117" y2="35.8747" gradientUnits="userSpaceOnUse">
<stop stop-color="#92A3FD"/>
<stop offset="1" stop-color="#9DCEFF"/>
</linearGradient>
<linearGradient id="paint1_linear_79_3734" x1="27.6978" y1="18.3951" x2="23.4391" y2="18.1628" gradientUnits="userSpaceOnUse">
<stop stop-color="#92A3FD"/>
<stop offset="1" stop-color="#9DCEFF"/>
</linearGradient>
<linearGradient id="paint2_linear_79_3734" x1="18.6856" y1="24.3427" x2="7.7918" y2="23.4806" gradientUnits="userSpaceOnUse">
<stop stop-color="#92A3FD"/>
<stop offset="1" stop-color="#9DCEFF"/>
</linearGradient>
<linearGradient id="paint3_linear_79_3734" x1="33.9689" y1="29.5091" x2="27.3511" y2="28.7171" gradientUnits="userSpaceOnUse">
<stop stop-color="#92A3FD"/>
<stop offset="1" stop-color="#9DCEFF"/>
</linearGradient>
<clipPath id="clip0_79_3734">
<rect width="29" height="19.6529" fill="white" transform="translate(5 10.1736)"/>
</clipPath>
</defs>
</svg>
