<svg width="316" height="401" viewBox="0 0 316 401" fill="none" xmlns="http://www.w3.org/2000/svg">
<g clip-path="url(#clip0_58_1776)">
<path d="M149.226 388.957C143.068 388.968 136.927 388.34 130.908 387.084C120.388 385 110.479 380.692 101.893 374.47C93.3079 368.249 86.2604 360.269 81.2585 351.105C77.2895 342.534 74.341 333.556 72.4696 324.344L72.0379 322.59C65.8702 297.256 58.099 270.465 43.7592 246.261C41.4463 242.366 38.9176 238.471 36.4813 234.724C30.5874 226.241 25.5971 217.205 21.5864 207.755C15.4188 191.55 16.5598 175.433 24.9787 164.818C26.0876 163.169 27.5306 161.753 29.221 160.654C30.9114 159.556 32.8145 158.798 34.8161 158.425C36.0357 158.283 37.2727 158.384 38.4503 158.722C39.6279 159.059 40.7211 159.626 41.6622 160.388C42.3962 160.952 42.9983 161.66 43.4287 162.464C43.8592 163.269 44.1084 164.152 44.1601 165.056H42.1556C42.1073 164.426 41.9234 163.812 41.6154 163.254C41.3074 162.696 40.8823 162.206 40.367 161.815C39.6348 161.229 38.7882 160.79 37.8772 160.524C36.9662 160.259 36.0092 160.172 35.0628 160.269C31.5885 161.032 28.552 163.055 26.5822 165.918C18.5951 176.058 17.3308 191.431 23.4984 207.012C27.4751 216.394 32.4349 225.361 38.3008 233.773C40.737 237.549 43.2658 241.444 45.6095 245.369C59.9801 269.751 67.8439 296.691 74.0115 322.173L74.4433 323.928C76.2755 332.987 79.1724 341.816 83.078 350.243C87.9387 359.148 94.7893 366.901 103.135 372.943C111.482 378.985 121.115 383.165 131.34 385.181C152.016 389.132 173.468 386.328 192.307 377.212C199.85 373.971 206.661 369.334 212.352 363.564C218.142 356.807 222.604 349.089 225.52 340.787C230.67 327.764 234.772 314.026 238.472 300.794C244.177 281.051 250.067 260.623 260.059 242.128C263.143 236.716 266.227 231.394 269.495 226.25C275.616 217.018 280.781 207.227 284.915 197.021C288.461 187.327 288.615 179.18 285.408 173.233C284.282 171.25 282.718 169.53 280.826 168.194C278.934 166.858 276.761 165.939 274.46 165.502C272.854 165.136 271.182 165.136 269.576 165.503C267.97 165.869 266.474 166.592 265.209 167.613L263.883 166.156C265.371 164.929 267.135 164.053 269.036 163.599C270.936 163.145 272.92 163.124 274.831 163.54C277.441 164.059 279.9 165.128 282.032 166.67C284.165 168.212 285.918 170.189 287.166 172.46C290.651 179.002 290.496 187.506 286.765 197.734C282.588 208.07 277.34 217.972 271.099 227.291C268.015 232.435 264.623 237.727 261.848 243.08C251.979 261.396 246.12 281.734 240.446 301.359C236.591 314.68 232.613 328.447 227.401 341.531C224.42 350.061 219.842 357.993 213.894 364.932C208.016 370.886 200.986 375.674 193.202 379.026C179.495 385.459 164.47 388.852 149.226 388.957Z" fill="#AB8DA8"/>
<path d="M171.861 42.7284C173.456 40.288 174.369 37.4918 174.513 34.6109C174.687 33.317 174.565 32.0021 174.155 30.7588C173.744 29.5155 173.056 28.3741 172.139 27.4151C171.368 26.7015 170.412 26.1365 169.702 25.3634C168.993 24.5903 168.654 23.7875 168.068 23.0441C167.433 22.2466 166.615 21.6011 165.68 21.1576C164.744 20.7141 163.714 20.4846 162.671 20.487C160.543 20.487 158.292 21.4385 156.504 20.487C155.393 19.9518 154.653 18.8813 153.42 18.2866C152.259 17.7169 150.927 17.559 149.658 17.8406C148.549 18.2135 147.377 18.3849 146.204 18.3461C144.538 18.1082 143.397 16.681 141.917 15.8781C141.156 15.503 140.319 15.2929 139.465 15.2626C138.611 15.2323 137.761 15.3825 136.973 15.7026C136.186 16.0228 135.481 16.5051 134.907 17.1159C134.333 17.7266 133.905 18.451 133.653 19.2381C133.451 19.989 133.451 20.7768 133.653 21.5277C133.992 23.3415 135.287 24.7985 135.379 26.6123C135.472 28.4261 134.331 30.002 135.379 31.6077C136.428 33.2134 137.97 33.2728 138.71 34.7893C139.697 36.841 138.71 39.5171 139.604 41.7174C140.067 43.115 140.314 45.1072 141.67 45.9992C143.552 47.2481 147.653 46.2074 149.904 45.9992L158.631 45.3153C162.486 44.9585 167.235 45.3153 170.72 43.4718C171.141 43.2873 171.527 43.036 171.861 42.7284Z" fill="#3B2645"/>
<path d="M142.257 41.4202C141.951 41.0147 141.549 40.6848 141.086 40.4574C140.622 40.2299 140.11 40.1113 139.589 40.1113C139.069 40.1113 138.556 40.2299 138.093 40.4574C137.629 40.6848 137.228 41.0147 136.922 41.4202C134.239 44.3936 138.772 50.3405 142.257 50.6974C142.46 47.6081 142.46 44.5095 142.257 41.4202Z" fill="#FFEDE5"/>
<path d="M185.585 91.2252C184.772 96.2339 183.681 101.197 182.316 106.093C182.1 107.014 181.915 107.906 181.792 108.769C181.668 109.631 181.545 110.285 181.391 111.385C181.391 111.593 181.391 111.831 181.391 112.039C181.391 112.753 181.175 113.496 181.082 114.299L177.197 149.237C153.05 155.63 127.855 149.237 127.855 149.237C127.855 149.237 127.855 148.791 127.855 147.929C127.455 143.974 126.221 131.397 124.987 117.213C124.987 117.213 124.987 117.005 124.987 116.916C125 116.698 125 116.48 124.987 116.262C124.463 110.315 123.97 104.011 123.569 98.0047C122.829 87.5679 122.366 77.9339 122.459 71.9573C122.459 69.7569 127.794 69.9948 131.433 69.519C134.116 69.1622 136.86 68.9243 139.235 68.8054C141.609 68.6865 143.398 68.627 144.601 68.627H145.958C145.958 68.627 146.266 65.2075 146.266 65.1778L147.099 56.7927C147.503 56.8933 147.916 56.9629 148.332 57.0008C149.095 57.1387 149.869 57.2182 150.645 57.2387C151.663 57.2387 152.619 57.2387 153.513 57.2387L154.839 57.09H155.61C156.473 56.9413 157.306 56.7629 158.077 56.5548C158.848 56.3466 159.095 56.2574 159.588 56.1088C161.841 55.4127 163.98 54.4115 165.941 53.1353L166.218 52.9569L166.743 52.5703L167.113 52.3027C167.113 52.719 167.113 52.8974 167.113 53.0758C166.866 55.0383 166.588 57.536 166.465 60.004C166.465 61.7286 166.28 63.4235 166.218 64.8804C166.157 66.3374 165.663 68.4486 166.743 69.192C167.128 69.4006 167.544 69.551 167.976 69.638C169.669 69.8957 171.382 70.0052 173.095 69.9651C173.619 69.9651 174.144 69.9651 174.668 69.9651C175.983 69.8912 177.301 69.8912 178.615 69.9651C179.534 69.9625 180.444 70.1374 181.291 70.4796C182.139 70.8218 182.907 71.3242 183.549 71.9573C184.349 73.0729 184.856 74.3582 185.03 75.7038L185.4 78.1421C185.987 82.4815 186.049 86.872 185.585 91.2252Z" fill="#FFEDE5"/>
<path d="M166.989 52.0942C166.572 54.2222 165.671 56.2346 164.351 57.9868C163.031 59.739 161.325 61.1875 159.355 62.228C157.386 63.2686 155.201 63.8755 152.959 64.005C150.717 64.1345 148.473 63.7835 146.389 62.9771L146.975 56.822C150.467 57.4716 154.064 57.3854 157.518 56.5694C160.973 55.7533 164.203 54.2267 166.989 52.0942Z" fill="#E0855C" fill-opacity="0.1"/>
<path d="M142.873 32.4999C141.085 34.284 140.931 38.2684 140.807 42.6691C140.345 56.0497 144.508 60.2125 151.57 60.9559C158.632 61.6992 166.064 59.0528 167.575 46.6833C168.346 40.4688 169.148 34.7895 166.804 32.0836C163.443 28.0992 148.301 27.0288 142.873 32.4999Z" fill="#FFEDE5"/>
<path d="M166.527 44.8694C166.527 44.8694 168.685 39.3388 172.108 42.2825C175.531 45.2262 170.813 53.5816 165.571 52.9572C165.632 52.9572 164.923 46.7724 166.527 44.8694Z" fill="#FFEDE5"/>
<path d="M170.597 44.8097C169.788 45.0535 169.063 45.5059 168.5 46.118C167.864 46.631 167.348 47.2698 166.989 47.9913C166.989 48.1994 167.205 48.3481 167.359 48.1994C167.794 47.7845 168.206 47.3478 168.593 46.8911C168.874 47.1902 169.222 47.424 169.611 47.575C169.919 47.575 170.166 47.3074 170.042 47.0695C169.829 46.7546 169.544 46.4904 169.21 46.2964C169.785 45.941 170.332 45.5433 170.844 45.107C170.854 45.0713 170.855 45.0338 170.847 44.9977C170.839 44.9615 170.822 44.9277 170.798 44.8988C170.774 44.87 170.743 44.8469 170.709 44.8314C170.674 44.816 170.636 44.8085 170.597 44.8097Z" fill="#E0855C" fill-opacity="0.1"/>
<path d="M146.882 42.3714C146.882 42.3714 145.68 42.7877 145.865 40.736C146.05 38.6843 146.882 39.1601 146.882 39.1601C146.882 39.1601 147.715 39.1601 147.592 40.7657C147.468 42.3714 146.882 42.3714 146.882 42.3714Z" fill="#3B2645"/>
<path d="M159.002 42.3714C159.002 42.3714 157.83 42.7877 158.015 40.736C158.2 38.6843 159.002 39.1601 159.002 39.1601C159.002 39.1601 159.835 39.1601 159.712 40.7657C159.588 42.3714 159.002 42.3714 159.002 42.3714Z" fill="#3B2645"/>
<path d="M148.178 36.1571C147.694 35.8926 147.135 35.7818 146.581 35.8405C146.028 35.8992 145.508 36.1244 145.094 36.4842C145.073 36.5249 145.064 36.57 145.066 36.6153C145.068 36.6607 145.082 36.7048 145.107 36.7434C145.131 36.7821 145.166 36.814 145.207 36.8363C145.248 36.8586 145.294 36.8705 145.341 36.8708C145.773 36.8708 146.143 36.6329 146.575 36.6032C147.027 36.5824 147.479 36.6533 147.901 36.8113C148.302 36.9302 148.579 36.3355 148.178 36.1571Z" fill="#3B2645"/>
<path d="M160.822 37.1678C160.328 35.9784 158.2 35.8892 157.275 36.6028C157.23 36.6362 157.194 36.679 157.169 36.7279C157.144 36.7769 157.131 36.8307 157.131 36.8853C157.131 36.9399 157.144 36.9937 157.169 37.0427C157.194 37.0916 157.23 37.1344 157.275 37.1678C157.829 37.2123 158.386 37.2123 158.94 37.1678C159.389 37.2374 159.825 37.3675 160.236 37.5543C160.289 37.6292 160.371 37.6807 160.463 37.6975C160.556 37.7142 160.651 37.6948 160.729 37.6435C160.807 37.5923 160.86 37.5133 160.878 37.4241C160.895 37.3349 160.875 37.2427 160.822 37.1678Z" fill="#3B2645"/>
<path d="M149.319 51.9456C151.92 52.2744 154.564 51.8392 156.905 50.6968C156.555 51.4902 156.036 52.2043 155.383 52.7932C154.73 53.3821 153.956 53.8327 153.112 54.1163C150.429 54.8299 149.319 51.9456 149.319 51.9456Z" fill="white"/>
<path d="M133.746 71.9276C140.838 76.7148 141.486 86.0217 138.032 93.4554C135.688 98.421 131.34 101.9 128.781 106.598C126.113 111.155 123.016 115.464 119.529 119.473C111.881 128.839 104.603 137.314 101.797 140.525C92.1446 151.646 71.8531 166.335 64.5444 171.449C62.8791 172.638 61.8923 173.293 61.8923 173.293C61.8923 173.293 54.892 169.754 56.7423 163.213C56.7423 163.213 84.4968 134.786 88.5982 128.988C93.1308 121.452 97.2483 113.69 100.934 105.736C105.662 96.9145 110.586 88.2122 115.705 79.6288C118.049 75.6741 121.04 70.7084 126.19 69.8164C128.268 69.5912 130.367 70.0188 132.173 71.0355C132.718 71.2963 133.244 71.5944 133.746 71.9276Z" fill="#FFEDE5"/>
<path d="M56.7424 163.242C57.5019 163.186 58.2649 163.186 59.0244 163.242C59.0244 163.242 65.6855 166.811 64.5445 171.449C64.5445 171.449 63.8352 172.074 62.725 173.025C61.6148 173.977 60.4121 175.107 58.9627 176.534C57.5133 177.961 54.2136 182.481 52.7951 182.094C52.4645 181.976 52.1756 181.77 51.9625 181.499L49.0945 178.526C47.4909 176.801 44.808 173.887 46.8433 171.598C45.3631 172.46 41.9092 174.571 40.2131 173.56L39.5038 172.46C39.5038 172.46 44.5921 168.803 46.6891 166.989C49.518 164.702 53.0537 163.384 56.7424 163.242Z" fill="#FFEDE5"/>
<path d="M142.164 117.481C142.154 117.64 142.154 117.799 142.164 117.957C142.164 117.957 142.442 117.957 142.38 117.957L142.164 117.481Z" fill="#D6BED3"/>
<path d="M252.873 400.108C249.605 400.435 246.305 400.703 242.943 400.851L53.1338 401H52.5479H51.561L48.2305 400.702C47.4699 400.702 46.7404 400.411 46.2026 399.893C45.6647 399.374 45.3625 398.671 45.3625 397.937C45.3625 397.204 45.6647 396.5 46.2026 395.982C46.7404 395.463 47.4699 395.172 48.2305 395.172L51.5919 394.875H52.5479H53.1646L242.943 395.023C246.274 395.023 249.574 395.41 252.873 395.767C253.345 395.919 253.755 396.211 254.046 396.6C254.336 396.99 254.493 397.457 254.493 397.937C254.493 398.417 254.336 398.885 254.046 399.274C253.755 399.664 253.345 399.955 252.873 400.108Z" fill="#C6C6C6"/>
<path d="M153.606 213.851C150.768 235.765 147.438 254.825 147.438 254.825C147.9 260.118 148.116 265.856 148.116 271.744C148.116 283.281 147.315 295.531 146.297 306.325C145.002 320.092 143.213 331.808 142.442 337.695V338.438C143.583 377.48 132.05 382.654 126.653 374.12C121.256 365.586 126.653 340.431 126.653 340.431C126.67 340.203 126.67 339.974 126.653 339.747C124.382 328.064 122.868 316.256 122.12 304.392C120.269 275.669 123.446 256.014 123.076 252.446C116.63 190.004 125.635 155.571 125.635 155.571C127.041 150.568 129.579 145.927 133.067 141.982C139.636 135.143 147.53 136.868 152.495 145.223C153.017 146.08 153.491 146.964 153.914 147.87C155.937 152.669 157.085 157.769 157.306 162.945C157.8 175.88 155.918 195.832 153.606 213.851Z" fill="#F5A784"/>
<path d="M185.461 302.876C184.744 314.987 183.24 327.044 180.959 338.974L180.681 340.431C180.681 340.431 186.078 365.675 180.681 374.12C175.284 382.564 163.874 377.628 164.892 338.974C164.892 338.795 164.892 338.617 164.892 338.468C164.028 332.878 162.302 320.776 160.945 306.444C159.896 295.561 159.094 283.37 159.094 271.833C159.094 265.886 159.341 260.177 159.804 254.855C159.804 254.855 156.381 235.795 153.636 213.91C151.323 195.861 149.411 175.909 150.213 163.094C150.444 157.916 151.602 152.816 153.636 148.018C154.04 147.084 154.514 146.18 155.055 145.313C160.76 135.768 170.258 134.935 177.258 145.699C179.263 148.819 180.839 152.178 181.946 155.69C181.946 155.69 190.95 190.033 184.505 252.565C184.043 256.074 187.096 275.044 185.461 302.876Z" fill="#F5A784"/>
<path d="M56.0023 182.54C56.6167 183.226 57.3798 183.773 58.2378 184.143C59.0958 184.513 60.0276 184.697 60.9673 184.681C61.3977 184.584 61.8034 184.405 62.1598 184.153C62.5161 183.901 62.8158 183.581 63.0406 183.215C63.2655 182.848 63.4108 182.441 63.4679 182.018C63.525 181.595 63.4925 181.166 63.3726 180.756C63.014 179.851 62.4318 179.045 61.6765 178.407C57.02 173.947 52.24 169.487 47.3984 165.354C46.5893 164.474 45.508 163.869 44.3146 163.629C43.2047 163.628 42.1306 164.008 41.2836 164.699C40.4365 165.391 39.8714 166.35 39.6888 167.405C39.6888 169.308 41.3849 170.022 42.7727 171.092C47.1517 174.839 51.5307 178.764 56.0023 182.54Z" fill="#3B2645"/>
<path d="M55.3232 177.277C55.5151 177.087 55.6716 176.865 55.7858 176.623C55.8639 176.316 55.8685 175.996 55.799 175.687C55.7295 175.378 55.5879 175.088 55.3849 174.839C54.2439 173.025 51.9001 170.111 49.5873 169.844C48.8237 169.806 48.0632 169.962 47.3815 170.296C46.6998 170.63 46.1206 171.13 45.7016 171.747C45.0096 172.707 44.5695 173.814 44.4191 174.975C44.2687 176.135 44.4125 177.313 44.8382 178.407C45.515 180.377 46.9055 182.045 48.7546 183.105C49.6774 183.482 50.7155 183.501 51.6522 183.158C52.5889 182.814 53.3517 182.135 53.7813 181.262C54.2439 180.162 54.0897 178.824 54.8298 177.902C54.9701 177.677 55.1356 177.468 55.3232 177.277Z" fill="#FFEDE5"/>
<path d="M173.342 71.9276C166.218 76.7149 165.571 86.0218 169.055 93.4554C171.368 98.4211 175.716 101.9 178.307 106.598C180.996 111.141 184.091 115.449 187.558 119.473C195.206 128.84 202.515 137.314 205.29 140.525C214.974 151.705 235.265 166.335 242.574 171.449L245.257 173.293C245.257 173.293 252.226 169.754 250.376 163.213C250.376 163.213 222.621 134.786 218.52 128.988C213.975 121.458 209.857 113.696 206.185 105.736C201.436 96.8154 196.532 88.2222 191.382 79.6289C189.039 75.6742 186.078 70.7085 180.897 69.8165C178.819 69.5934 176.722 70.0208 174.915 71.0356C174.368 71.2951 173.843 71.5933 173.342 71.9276Z" fill="#FFEDE5"/>
<path d="M250.345 163.242C249.575 163.186 248.802 163.186 248.032 163.242C248.032 163.242 241.371 166.81 242.512 171.449C242.512 171.449 243.252 172.073 244.332 173.025C245.411 173.976 246.675 175.106 248.094 176.533C249.512 177.961 252.874 182.48 254.261 182.094C254.588 181.968 254.874 181.763 255.094 181.499L257.931 178.526C259.566 176.801 262.218 173.887 260.213 171.597C261.663 172.46 265.117 174.571 266.843 173.56L267.429 172.46C267.429 172.46 262.341 168.802 260.213 166.989C257.439 164.73 253.971 163.414 250.345 163.242Z" fill="#FFEDE5"/>
<path d="M251.054 182.54C250.44 183.226 249.677 183.773 248.819 184.143C247.961 184.513 247.029 184.696 246.089 184.681C245.653 184.591 245.241 184.416 244.877 184.167C244.514 183.918 244.207 183.6 243.976 183.232C243.745 182.864 243.595 182.455 243.534 182.029C243.473 181.603 243.503 181.17 243.622 180.756C244.007 179.891 244.598 179.127 245.349 178.526C250.016 174.065 254.785 169.714 259.658 165.472C260.463 164.588 261.546 163.982 262.742 163.748C263.848 163.748 264.918 164.128 265.76 164.82C266.602 165.512 267.161 166.471 267.337 167.524C267.337 169.427 265.671 170.14 264.253 171.211C259.905 174.839 255.526 178.763 251.054 182.54Z" fill="#3B2645"/>
<path d="M251.764 177.277C251.553 177.095 251.385 176.872 251.27 176.623C251.205 176.313 251.21 175.994 251.284 175.686C251.359 175.378 251.501 175.089 251.702 174.839C252.812 173.025 255.156 170.111 257.469 169.844C258.232 169.806 258.993 169.962 259.675 170.296C260.356 170.63 260.935 171.13 261.354 171.747C262.039 172.711 262.467 173.823 262.601 174.984C262.736 176.146 262.572 177.321 262.125 178.407C261.469 180.387 260.073 182.062 258.209 183.105C257.286 183.482 256.248 183.501 255.311 183.158C254.375 182.814 253.612 182.135 253.182 181.262C252.751 180.162 252.905 178.824 252.134 177.902L251.764 177.277Z" fill="#FFEDE5"/>
<path d="M185.923 283.816V286.79C185.923 288.782 185.923 290.834 185.923 292.945V295.353C185.923 297.791 185.738 300.319 185.615 302.906C177.63 305.03 169.409 306.218 161.13 306.444C160.79 303.114 160.112 294.253 160.081 293.272C160.081 291.25 159.618 285.541 159.588 284.768C159.403 280.426 159.279 276.085 159.279 271.833C159.279 266.303 159.495 260.891 159.927 255.866C159.927 255.509 159.927 255.182 159.927 254.855C159.927 254.528 156.504 235.825 153.759 213.91C153.451 216.23 153.142 218.549 152.834 220.779C150.244 239.631 147.499 254.855 147.499 254.855C147.962 260.147 148.177 265.886 148.177 271.774C148.177 276.264 148.177 280.694 147.838 285.392C147.838 286.165 147.221 296.097 147.129 297.048C146.913 300.23 146.636 303.352 146.358 306.355C142.041 306.177 137.785 305.909 133.56 305.552C130.23 305.285 126.036 305.106 121.965 304.541C121.78 301.865 121.656 299.308 121.564 296.81C121.564 296.186 121.564 295.561 121.564 294.937C121.564 292.201 121.564 289.614 121.564 287.117V285.154C121.564 267.135 123.383 255.271 123.106 252.446C116.661 190.004 125.665 155.571 125.665 155.571C127.071 150.568 129.61 145.927 133.098 141.982C135.741 142.377 138.335 143.035 140.838 143.945C144.651 144.905 148.586 145.336 152.526 145.223H155.363C158.786 145.223 162.209 144.837 165.601 144.748H167.883C171.135 144.701 174.382 145 177.566 145.64C179.469 148.794 180.941 152.172 181.945 155.69C184.437 166.913 185.902 178.325 186.324 189.796C187.369 210.733 186.761 231.717 184.505 252.565C184.135 255.212 185.769 266.54 185.923 283.816Z" fill="#3B2645"/>
<path d="M142.257 338.438C142.689 353.811 141.178 363.921 138.834 370.016C135.257 379.442 129.582 379.323 126.498 374.239C125.666 372.828 125.092 371.289 124.802 369.689C122.551 359.074 126.498 340.549 126.498 340.549C126.516 340.322 126.516 340.093 126.498 339.865C128.033 340.945 129.772 341.723 131.618 342.155C133.688 342.645 135.868 342.476 137.83 341.672C139.793 340.868 141.432 339.472 142.504 337.695L142.257 338.438Z" fill="#AB8DA8"/>
<path d="M182.532 368.857C182.269 370.747 181.641 372.572 180.682 374.239C177.351 379.472 171.615 379.443 168.069 369.303C165.91 363.356 164.522 353.455 164.985 338.944C167.294 340.945 170.269 342.084 173.373 342.156C176.142 341.91 178.772 340.875 180.928 339.182C180.985 339.646 180.985 340.116 180.928 340.58C180.928 340.58 184.444 358.123 182.532 368.857Z" fill="#AB8DA8"/>
<path d="M137.6 347.566C136.038 346.668 134.253 346.194 132.435 346.194C130.616 346.194 128.831 346.668 127.269 347.566C127.211 347.628 127.173 347.705 127.157 347.787C127.142 347.869 127.151 347.953 127.183 348.031C127.215 348.108 127.269 348.175 127.339 348.225C127.409 348.274 127.491 348.303 127.578 348.31C129.119 348.31 130.661 347.685 132.111 347.715C133.807 347.854 135.483 348.173 137.107 348.667C137.246 348.683 137.386 348.656 137.508 348.589C137.629 348.522 137.725 348.419 137.781 348.295C137.836 348.171 137.849 348.033 137.816 347.901C137.784 347.77 137.708 347.653 137.6 347.566Z" fill="#291B30"/>
<path d="M137.106 352.324C134.473 350.844 131.383 350.307 128.379 350.808C127.362 350.808 127.331 352.443 128.379 352.354C129.83 352.22 131.294 352.28 132.727 352.532C134.053 352.77 135.256 353.306 136.582 353.573C136.745 353.607 136.916 353.584 137.063 353.509C137.211 353.433 137.326 353.31 137.388 353.161C137.451 353.012 137.457 352.846 137.405 352.693C137.354 352.54 137.248 352.409 137.106 352.324Z" fill="#291B30"/>
<path d="M177.937 347.567C175.593 346.793 170.505 346.496 168.686 348.578C168.439 348.845 168.686 349.41 169.025 349.38C170.474 349.202 171.739 348.637 173.25 348.578C174.761 348.518 176.333 348.905 177.752 348.815C177.837 348.827 177.924 348.823 178.007 348.802C178.09 348.781 178.168 348.745 178.237 348.696C178.306 348.646 178.364 348.584 178.407 348.512C178.451 348.441 178.48 348.362 178.492 348.28C178.504 348.198 178.5 348.115 178.478 348.034C178.457 347.954 178.419 347.879 178.368 347.813C178.316 347.746 178.252 347.69 178.178 347.648C178.104 347.606 178.022 347.578 177.937 347.567Z" fill="#291B30"/>
<path d="M179.078 352.592C176.518 351.492 170.134 350.689 168.839 354.019C168.654 354.465 169.24 354.822 169.61 354.614C170.943 353.898 172.427 353.485 173.951 353.408C175.474 353.33 176.996 353.59 178.399 354.168C179.324 354.525 180.034 352.978 179.078 352.592Z" fill="#291B30"/>
<path d="M62.324 68.3892C62.324 68.2108 61.9539 68.2108 61.9231 68.3892C60.3812 78.5287 61.2755 89.2034 61.2755 99.5807C61.2755 110.553 60.9054 121.614 61.5839 132.556C61.6131 132.673 61.6821 132.777 61.78 132.851C61.8779 132.926 61.9989 132.966 62.1236 132.966C62.2482 132.966 62.3692 132.926 62.4671 132.851C62.565 132.777 62.6341 132.673 62.6632 132.556C63.3108 121.614 62.9408 110.553 62.9408 99.5807C62.9408 89.4412 63.8351 78.6179 62.324 68.3892Z" fill="#F7F8F8"/>
<path d="M75.8003 71.8382C75.7674 71.6922 75.6837 71.5615 75.5631 71.4677C75.4425 71.3739 75.2922 71.3228 75.1373 71.3228C74.9823 71.3228 74.832 71.3739 74.7114 71.4677C74.5908 71.5615 74.5071 71.6922 74.4742 71.8382C74.4742 81.5912 73.8266 91.5225 74.4742 101.246C74.4742 101.411 74.5425 101.57 74.6639 101.687C74.7854 101.804 74.9501 101.87 75.1218 101.87C75.2936 101.87 75.4583 101.804 75.5798 101.687C75.7012 101.57 75.7694 101.411 75.7694 101.246C76.4787 91.5225 75.862 81.5912 75.8003 71.8382Z" fill="#F7F8F8"/>
<path d="M213.679 173.947C213.654 173.859 213.599 173.781 213.524 173.726C213.449 173.671 213.357 173.641 213.262 173.641C213.168 173.641 213.076 173.671 213.001 173.726C212.925 173.781 212.871 173.859 212.846 173.947C211.977 186.715 211.802 199.518 212.322 212.304C212.322 225.09 212.322 237.846 212.815 250.632C212.841 250.727 212.899 250.811 212.98 250.871C213.061 250.931 213.16 250.964 213.262 250.964C213.364 250.964 213.464 250.931 213.544 250.871C213.625 250.811 213.683 250.727 213.71 250.632C214.141 237.846 214.141 225.09 214.203 212.304C214.707 199.518 214.532 186.716 213.679 173.947Z" fill="#F7F8F8"/>
<path d="M237.455 99.1647C237.358 90.6565 236.782 82.1597 235.728 73.712C235.728 73.2065 234.895 73.3551 234.864 73.712C234.626 82.8483 234.904 91.9903 235.697 101.097C236.098 109.572 236.005 118.254 237.177 126.639C237.177 127.413 238.534 127.175 238.565 126.461C238.996 117.392 238.01 108.145 237.455 99.1647Z" fill="#F7F8F8"/>
<path d="M243.622 103.893C243.601 103.826 243.558 103.768 243.5 103.727C243.441 103.685 243.371 103.663 243.299 103.663C243.226 103.663 243.156 103.685 243.098 103.727C243.039 103.768 242.996 103.826 242.975 103.893C242.158 116.109 242.096 128.362 242.79 140.585C242.771 140.66 242.769 140.737 242.786 140.812C242.803 140.887 242.837 140.958 242.886 141.018C242.935 141.079 242.997 141.128 243.069 141.161C243.141 141.195 243.219 141.212 243.299 141.212C243.378 141.212 243.457 141.195 243.528 141.161C243.6 141.128 243.663 141.079 243.712 141.018C243.761 140.958 243.795 140.887 243.811 140.812C243.828 140.737 243.827 140.66 243.808 140.585C244.501 128.362 244.44 116.109 243.622 103.893Z" fill="#F7F8F8"/>
<path d="M152.68 220.749C152.727 218.434 153.037 216.13 153.605 213.88C153.297 216.2 152.989 218.519 152.68 220.749Z" fill="#291B30"/>
<path d="M186.232 189.795C182.069 165.68 147.685 164.55 147.685 164.55C145.557 154.619 159.434 151.646 159.434 151.646L167.544 144.896C170.796 144.849 174.044 145.148 177.228 145.788C179.236 148.879 180.822 152.207 181.946 155.689C184.386 166.918 185.82 178.329 186.232 189.795Z" fill="#291B30"/>
<path d="M182.439 158.277C154.685 170.854 124.525 159.317 124.525 159.317C126.715 153.37 125.08 123.041 124.926 117.273C124.926 117.273 124.926 117.064 124.926 116.975C124.938 116.757 124.938 116.539 124.926 116.321C130.754 103.297 131.402 78.2014 131.433 69.5784C134.054 69.1918 136.799 68.9837 139.173 68.8647C140.098 78.4987 143.398 103.208 152.588 102.138C161.778 101.067 166.157 79.0637 167.76 69.4297C169.451 69.7032 171.166 69.8127 172.88 69.7568C173.404 69.7568 173.928 69.7568 174.452 69.7568C173.651 82.9292 181.237 110.612 181.453 111.385C181.453 111.593 181.453 111.831 181.453 112.039C181.453 112.753 181.237 113.496 181.144 114.299C181.144 114.299 181.144 114.626 181.144 114.805C179.201 131.575 182.439 158.277 182.439 158.277Z" fill="#AB8DA8"/>
<rect x="1" y="386.506" width="306" height="63.7735" fill="#B12525"/>
</g>
<defs>
<clipPath id="clip0_58_1776">
<rect width="316" height="401" fill="white"/>
</clipPath>
</defs>
</svg>
