<svg width="40" height="40" viewBox="0 0 40 40" fill="none" xmlns="http://www.w3.org/2000/svg">
<circle opacity="0.2" cx="20" cy="20" r="20" fill="url(#paint0_linear_79_3401)"/>
<g clip-path="url(#clip0_79_3401)">
<g opacity="0.3">
<path opacity="0.3" d="M14.6142 22.8281H14.6018L14.1228 22.6889C14.1063 22.6838 14.0925 22.6723 14.0843 22.6569C14.0761 22.6415 14.0741 22.6234 14.0788 22.6065C14.0835 22.5897 14.0944 22.5753 14.1093 22.5666C14.1242 22.5579 14.1419 22.5555 14.1585 22.5599L14.6342 22.6974C14.6493 22.7025 14.6621 22.7129 14.6702 22.7268C14.6783 22.7407 14.6812 22.7572 14.6784 22.7731C14.6755 22.7891 14.6671 22.8034 14.6547 22.8135C14.6423 22.8236 14.6268 22.8288 14.6109 22.8281H14.6142Z" fill="black"/>
<path opacity="0.3" d="M14.1236 23.2049C14.11 23.2036 14.0971 23.1981 14.0867 23.1892C14.0763 23.1802 14.0689 23.1682 14.0653 23.1548C14.0627 23.146 14.0619 23.1367 14.0629 23.1276C14.064 23.1184 14.0668 23.1096 14.0714 23.1016C14.0759 23.0937 14.082 23.0867 14.0892 23.0813C14.0965 23.0758 14.1048 23.0719 14.1136 23.0699L14.5926 22.946C14.6092 22.9423 14.6265 22.9454 14.641 22.9545C14.6555 22.9636 14.6659 22.9781 14.6701 22.995C14.6743 23.0118 14.6719 23.0296 14.6635 23.0447C14.6551 23.0598 14.6413 23.0709 14.625 23.0758L14.1452 23.1998C14.1383 23.2027 14.131 23.2044 14.1236 23.2049Z" fill="black"/>
<path opacity="0.3" d="M14.3681 23.6566C14.3523 23.655 14.3376 23.6478 14.3265 23.6362C14.3144 23.6236 14.3076 23.6067 14.3076 23.5891C14.3076 23.5714 14.3144 23.5545 14.3265 23.542L14.6808 23.1897C14.6868 23.1829 14.6941 23.1775 14.7023 23.1737C14.7104 23.1699 14.7193 23.1679 14.7282 23.1677C14.7372 23.1676 14.7461 23.1693 14.7544 23.1728C14.7627 23.1763 14.7702 23.1814 14.7765 23.188C14.7827 23.1946 14.7876 23.2024 14.7908 23.2109C14.794 23.2195 14.7954 23.2286 14.795 23.2378C14.7946 23.2469 14.7924 23.2559 14.7885 23.2641C14.7846 23.2723 14.779 23.2797 14.7722 23.2856L14.4196 23.6396C14.4127 23.6459 14.4045 23.6507 14.3956 23.6536C14.3867 23.6565 14.3774 23.6575 14.3681 23.6566Z" fill="black"/>
<path opacity="0.3" d="M14.798 23.9239H14.7855C14.777 23.9215 14.7691 23.9173 14.7622 23.9117C14.7553 23.9061 14.7496 23.8991 14.7454 23.8912C14.7412 23.8833 14.7387 23.8746 14.7378 23.8656C14.737 23.8566 14.738 23.8476 14.7406 23.839L14.872 23.3535C14.877 23.3367 14.8883 23.3226 14.9034 23.3142C14.9185 23.3058 14.9362 23.3038 14.9527 23.3086C14.9693 23.3133 14.9833 23.3245 14.9919 23.3398C15.0004 23.355 15.0028 23.373 14.9984 23.39L14.8637 23.8755C14.8596 23.8899 14.8509 23.9025 14.839 23.9113C14.8271 23.92 14.8127 23.9245 14.798 23.9239Z" fill="black"/>
</g>
<path d="M27.7888 16.3865L26.5971 17.0867L23.9876 17.4721C23.9876 17.4721 22.0825 14.5505 21.7906 14.0913C21.4987 13.6321 21.1569 13.3375 20.3661 13.3384L20.5158 15.6692C20.5407 15.7448 22.1182 17.7285 23.1585 18.8098C23.5261 19.191 23.7514 19.2886 24.3227 19.1256C25.7888 18.7105 27.5659 17.4806 27.7089 17.1733C27.901 16.7718 27.7746 16.395 27.7888 16.3865Z" fill="#FFEDE5"/>
<path d="M27.299 14.9088C27.4553 14.3876 28.094 13.9632 28.6869 14.1329C28.7808 14.1594 28.8709 14.1985 28.9547 14.2492C29.5368 14.5888 30 15.4164 30 16.0971C30.0019 16.2121 29.9862 16.3266 29.9534 16.4366C29.7979 16.957 29.1609 17.3848 28.5655 17.2141C28.4717 17.1873 28.3817 17.1482 28.2977 17.0979C27.7206 16.7583 27.2524 15.9299 27.2524 15.2491C27.2508 15.1339 27.2665 15.0191 27.299 14.9088Z" fill="#455A64"/>
<path d="M28.2986 17.0928C27.7215 16.7533 27.2533 15.9248 27.2533 15.2441C27.2533 14.5633 27.7215 14.2883 28.2986 14.6279C28.8757 14.9674 29.3414 15.795 29.3414 16.4757C29.3414 17.1565 28.8757 17.4323 28.2986 17.0928Z" fill="#37474F"/>
<path d="M28.2985 15.3824C28.0764 15.2517 27.896 15.3578 27.896 15.6192C27.9035 15.7617 27.9439 15.9004 28.0139 16.024C28.0838 16.1476 28.1813 16.2526 28.2985 16.3305C28.5205 16.4612 28.7001 16.3551 28.7001 16.0937C28.6927 15.9512 28.6525 15.8126 28.5827 15.689C28.5129 15.5654 28.4155 15.4603 28.2985 15.3824Z" fill="#455A64"/>
<path d="M28.1605 15.7754C28.1632 15.8242 28.177 15.8717 28.201 15.914C28.225 15.9563 28.2584 15.9923 28.2985 16.019C28.3117 16.0287 28.327 16.0349 28.3431 16.0371C28.3592 16.0393 28.3756 16.0375 28.3908 16.0317L28.4008 16.0258C28.4127 16.0154 28.4221 16.0023 28.4281 15.9875C28.4342 15.9728 28.4368 15.9568 28.4357 15.9409C28.4331 15.8922 28.4193 15.8447 28.3955 15.8024C28.3717 15.7601 28.3385 15.7241 28.2985 15.6973C28.2853 15.6876 28.27 15.6814 28.2539 15.6791C28.2378 15.6769 28.2215 15.6788 28.2062 15.6845L28.1962 15.6905C28.1842 15.7008 28.1746 15.7138 28.1684 15.7286C28.1622 15.7433 28.1595 15.7593 28.1605 15.7754Z" fill="#37474F"/>
<path d="M25.9528 17.0766C25.9553 17.1253 25.9691 17.1728 25.9929 17.2151C26.0168 17.2574 26.05 17.2934 26.09 17.3202C26.1079 17.332 26.1286 17.3384 26.1498 17.3389C26.166 17.3386 26.1818 17.3339 26.1956 17.3253L28.391 16.0317L28.4009 16.0258C28.4128 16.0154 28.4222 16.0023 28.4282 15.9875C28.4343 15.9728 28.4369 15.9568 28.4359 15.9409C28.4332 15.8922 28.4194 15.8447 28.3956 15.8024C28.3718 15.7601 28.3386 15.7241 28.2986 15.6973C28.2855 15.6876 28.2702 15.6814 28.2541 15.6791C28.238 15.6769 28.2216 15.6788 28.2063 15.6845L28.1964 15.6905L26.001 16.9841C25.9852 16.9933 25.9724 17.0069 25.9638 17.0232C25.9553 17.0396 25.9515 17.0581 25.9528 17.0766Z" fill="#FAFAFA"/>
<path d="M23.7981 16.9723C23.9536 16.452 24.5906 16.0216 25.186 16.1922C25.28 16.2192 25.3702 16.2583 25.4546 16.3085C26.0317 16.6481 26.4999 17.4765 26.4999 18.1572C26.5013 18.2722 26.4856 18.3867 26.4533 18.4968C26.297 19.0171 25.6608 19.4449 25.0654 19.2751C24.9717 19.2481 24.8817 19.209 24.7977 19.1588C24.2205 18.8193 23.7524 17.9909 23.7524 17.311C23.7504 17.1964 23.7659 17.0821 23.7981 16.9723Z" fill="#455A64"/>
<path d="M24.7968 19.1555C24.2197 18.816 23.7515 17.9875 23.7515 17.3076C23.7515 16.6277 24.2197 16.351 24.7968 16.6905C25.3739 17.03 25.8421 17.8585 25.8421 18.5392C25.8421 19.22 25.3748 19.4959 24.7968 19.1555Z" fill="#37474F"/>
<path d="M24.7968 17.4435C24.5748 17.3119 24.3951 17.418 24.3951 17.6803C24.4027 17.8226 24.443 17.9611 24.5127 18.0845C24.5825 18.208 24.6798 18.3129 24.7968 18.3907C25.0188 18.5214 25.1993 18.4153 25.1993 18.1539C25.1916 18.0115 25.1512 17.873 25.0812 17.7496C25.0113 17.6261 24.9139 17.5213 24.7968 17.4435Z" fill="#455A64"/>
<path d="M24.6596 17.8381C24.6622 17.8868 24.676 17.9343 24.6998 17.9766C24.7236 18.0189 24.7569 18.0549 24.7968 18.0817C24.81 18.0914 24.8253 18.0976 24.8414 18.0998C24.8575 18.1021 24.8739 18.1002 24.8892 18.0944C24.8928 18.0931 24.8962 18.0911 24.8991 18.0885C24.9112 18.0782 24.9207 18.0651 24.9269 18.0504C24.9331 18.0356 24.9358 18.0196 24.9349 18.0036C24.9322 17.9548 24.9182 17.9073 24.8943 17.865C24.8703 17.8227 24.8369 17.7867 24.7968 17.76C24.7837 17.7506 24.7685 17.7446 24.7525 17.7425C24.7366 17.7404 24.7204 17.7424 24.7054 17.7481L24.6954 17.754C24.6833 17.7641 24.6738 17.777 24.6675 17.7916C24.6613 17.8063 24.6586 17.8222 24.6596 17.8381Z" fill="#37474F"/>
<path d="M24.327 18.0375C24.3294 18.0862 24.3431 18.1338 24.3669 18.1761C24.3908 18.2184 24.4241 18.2544 24.4642 18.2811C24.4821 18.2928 24.5029 18.2993 24.5241 18.2997C24.5403 18.2993 24.556 18.2946 24.5699 18.2862L24.8892 18.0977C24.8929 18.0964 24.8963 18.0944 24.8992 18.0918C24.9112 18.0815 24.9207 18.0684 24.9269 18.0537C24.9331 18.0389 24.9359 18.0229 24.9349 18.0069C24.9322 17.9581 24.9183 17.9106 24.8943 17.8683C24.8703 17.826 24.837 17.79 24.7969 17.7633C24.7837 17.7539 24.7685 17.7479 24.7526 17.7458C24.7366 17.7437 24.7204 17.7457 24.7054 17.7514L24.6954 17.7573L24.3753 17.9449C24.3595 17.9542 24.3466 17.9677 24.3381 17.9841C24.3296 18.0005 24.3257 18.019 24.327 18.0375Z" fill="#FAFAFA"/>
<path d="M24.327 18.0375C24.3295 18.0864 24.3432 18.134 24.367 18.1765C24.3909 18.219 24.4242 18.2551 24.4642 18.282C24.4776 18.2914 24.4929 18.2974 24.509 18.2995C24.525 18.3016 24.5414 18.2996 24.5566 18.2939L24.5665 18.2879C24.5787 18.2777 24.5883 18.2647 24.5945 18.2499C24.6007 18.2352 24.6034 18.2191 24.6023 18.2031C24.5995 18.1542 24.5856 18.1066 24.5616 18.0642C24.5376 18.0217 24.5043 17.9856 24.4642 17.9586C24.4509 17.9492 24.4356 17.9432 24.4195 17.9411C24.4034 17.939 24.3871 17.941 24.3719 17.9467L24.362 17.9527C24.35 17.963 24.3406 17.9761 24.3346 17.9908C24.3285 18.0056 24.3259 18.0216 24.327 18.0375Z" fill="#E0E0E0"/>
<path d="M27.0271 17.7709C27.5318 17.3779 28.0158 17.3805 27.9285 16.4196C27.8545 15.9952 27.7514 15.9646 27.3464 15.8034C27.1684 15.7329 26.9306 15.6794 26.7884 15.8458C26.7728 15.8667 26.7556 15.8863 26.7369 15.9044C26.6949 15.9316 26.6468 15.9474 26.5972 15.9502C26.5023 15.9549 26.4122 15.9937 26.3427 16.0597C26.2953 16.1149 26.277 16.1904 26.2304 16.2456C26.1857 16.2888 26.1376 16.3283 26.0866 16.3636C26.05 16.3959 26.0205 16.4358 26.0001 16.4805C25.9796 16.5253 25.9685 16.5739 25.9677 16.6233C25.971 16.6798 25.9864 16.7348 26.0129 16.7845C26.0393 16.8342 26.0761 16.8774 26.1207 16.9111L26.3751 16.7617C26.4791 16.6887 26.6936 16.9493 26.6013 17.0868C26.4541 17.3058 27.0271 17.7709 27.0271 17.7709Z" fill="#FFEDE5"/>
<path d="M21.1478 19.7028C21.3092 19.0373 21.3557 17.3745 21.3557 17.3745L16.634 17.5188L16.891 18.5688C16.9334 18.8055 16.9559 19.0454 16.9583 19.286C16.9583 19.286 17.4165 20.1527 18.7753 20.3046C19.6103 20.3859 20.4473 20.1735 21.1478 19.7028Z" fill="#FFEDE5"/>
<path d="M21.3583 17.3746C21.3641 17.4272 21.3309 17.9306 21.3309 17.9306C20.7271 18.4492 18.7904 18.7115 16.7572 18.0214L16.3264 16.3238C16.3264 16.3238 17.7883 15.6685 16.8004 13.4701L17.8623 13.3852L19.7475 13.3368H20.3662C20.8749 13.8413 21.3049 14.4224 21.641 15.0599C21.888 15.5301 22.2024 16.2194 21.3583 17.3746Z" fill="#455A64"/>
<path d="M18.6865 17.3898C17.8358 17.1683 17.6229 16.6259 17.5622 16.2269C17.5622 16.2269 17.4017 17.3898 18.6175 17.6606C19.8997 17.9458 20.427 16.9094 20.427 16.9094C20.427 16.9094 19.7126 17.6572 18.6865 17.3898Z" fill="#37474F"/>
<path d="M11.445 30.33C11.1955 30.5159 10.6209 30.5609 10.1145 30.3181C9.60803 30.0753 9.39681 29.3844 9.49161 28.8505C9.60637 28.1995 9.92154 27.8438 10.0014 27.4517C10.0812 27.0595 10.0014 26.518 10.1228 26.1682C10.1728 26.0338 10.2508 25.912 10.3512 25.8112C10.4517 25.7104 10.5723 25.633 10.7049 25.5843C10.7894 25.5509 10.8802 25.5378 10.9705 25.5459C11.0607 25.554 11.1479 25.5831 11.2255 25.6309L11.3751 25.7209L11.445 30.33Z" fill="#263238"/>
<path d="M12.0397 27.8472L11.6455 29.0542C11.6455 29.0542 11.895 29.9149 11.7544 30.1441C11.5474 30.4836 11.1823 30.5431 10.5678 30.3512C9.86508 30.1331 9.6996 29.4837 9.73619 28.9795C9.78608 28.2606 10.4372 27.7199 10.3624 27.0273C10.3258 26.6877 10.3715 26.3083 10.5536 26.0163C10.7574 25.6904 11.0917 25.6293 11.4384 25.7354C11.7361 25.827 11.9973 26.018 12.2492 26.1971C12.3216 26.2441 12.3871 26.3013 12.4438 26.3669C12.4889 26.4283 12.5228 26.4976 12.5436 26.5714C12.5892 26.7198 12.6028 26.8764 12.5835 27.0307C12.5652 27.175 12.4746 27.259 12.3906 27.3702L12.0397 27.8472Z" fill="url(#paint1_linear_79_3401)"/>
<path d="M13.7385 27.2761C13.7144 27.2667 12.5102 26.4807 12.3805 26.4213C12.2508 26.3619 11.9315 26.2778 11.6229 27.007C11.4026 27.5256 11.7194 27.7174 11.7194 27.7174L13.1331 28.5747L13.7385 27.2761Z" fill="#FFEDE5"/>
<path d="M11.6454 29.0542C11.3906 28.9242 11.1085 28.8598 10.8238 28.8666C10.8026 28.8686 10.7813 28.8653 10.7617 28.857C10.7421 28.8486 10.7248 28.8355 10.7114 28.8187C10.6979 28.802 10.6887 28.7821 10.6845 28.7608C10.6803 28.7396 10.6813 28.7176 10.6874 28.6968C10.6954 28.6721 10.7104 28.6503 10.7305 28.6343C10.7507 28.6183 10.775 28.6087 10.8005 28.6069C10.9909 28.5916 11.4533 28.5856 11.7601 28.8437C11.8416 29.0117 11.6454 29.0542 11.6454 29.0542Z" fill="url(#paint2_linear_79_3401)"/>
<path d="M11.7901 28.5025C11.5423 28.3592 11.2639 28.2803 10.9793 28.2724C10.9578 28.2735 10.9365 28.2692 10.9171 28.2597C10.8977 28.2503 10.8809 28.2362 10.8683 28.2185C10.8556 28.2008 10.8474 28.1802 10.8444 28.1585C10.8414 28.1368 10.8438 28.1147 10.8512 28.0942C10.8604 28.0698 10.8764 28.0488 10.8973 28.0336C10.9181 28.0185 10.9429 28.0101 10.9685 28.0093C11.1597 28.0042 11.6221 28.0237 11.9156 28.297C11.988 28.4711 11.7901 28.5025 11.7901 28.5025Z" fill="url(#paint3_linear_79_3401)"/>
<path opacity="0.3" d="M11.6454 29.0542C11.3906 28.9242 11.1085 28.8598 10.8238 28.8666C10.8026 28.8686 10.7813 28.8653 10.7617 28.857C10.7421 28.8486 10.7248 28.8355 10.7114 28.8187C10.6979 28.802 10.6887 28.7821 10.6845 28.7608C10.6803 28.7396 10.6813 28.7176 10.6874 28.6968C10.6954 28.6721 10.7104 28.6503 10.7305 28.6343C10.7507 28.6183 10.775 28.6087 10.8005 28.6069C10.9909 28.5916 11.4533 28.5856 11.7601 28.8437C11.8416 29.0117 11.6454 29.0542 11.6454 29.0542Z" fill="black"/>
<path opacity="0.3" d="M11.7901 28.5025C11.5423 28.3592 11.2639 28.2803 10.9793 28.2724C10.9578 28.2735 10.9365 28.2692 10.9171 28.2597C10.8977 28.2503 10.8809 28.2362 10.8683 28.2185C10.8556 28.2008 10.8474 28.1802 10.8444 28.1585C10.8414 28.1368 10.8438 28.1147 10.8512 28.0942C10.8604 28.0698 10.8764 28.0488 10.8973 28.0336C10.9181 28.0185 10.9429 28.0101 10.9685 28.0093C11.1597 28.0042 11.6221 28.0237 11.9156 28.297C11.988 28.4711 11.7901 28.5025 11.7901 28.5025Z" fill="black"/>
<path d="M24.0618 30.4607L25.626 29.8275C25.5994 29.4158 25.4996 28.8674 25.6036 27.7903L23.829 27.4457V29.2587L24.0618 30.4607Z" fill="#FFEDE5"/>
<path d="M28.5248 31.8631C28.5663 31.9916 28.5586 32.1314 28.5031 32.2544C28.4499 32.369 27.8637 32.706 27.0728 32.6516C26.4864 32.6097 25.9216 32.4084 25.4371 32.0685C25.1361 31.8648 24.8217 31.8266 24.4309 31.8037C24.0401 31.7808 23.5245 31.5813 23.4388 31.3945C23.3532 31.2078 23.4521 30.8853 23.4521 30.8853L28.5248 31.8631Z" fill="#263238"/>
<path d="M25.334 29.3438L25.3963 29.3302C25.4302 29.3209 25.4657 29.3191 25.5003 29.3251C25.5387 29.3372 25.5728 29.3605 25.5984 29.3921C25.6758 29.4929 25.7432 29.6012 25.7996 29.7155C25.966 29.9914 26.3136 30.2206 26.6936 30.4285C26.9522 30.5703 27.205 30.6832 27.4719 30.8029C27.7389 30.9226 28.1048 31.004 28.3177 31.1509C28.6278 31.3639 28.6686 31.9004 28.3177 32.1117C28.0133 32.2951 27.2108 32.4929 26.3693 32.2492C25.9102 32.1168 25.4013 31.6169 24.8001 31.5702C24.4176 31.5396 23.6932 31.4301 23.4471 31.1339C23.3565 31.0023 23.4779 30.5847 23.5777 30.2248C23.6866 29.8318 23.7265 29.1392 23.8546 29.174C23.8546 29.174 23.8196 29.2716 23.8695 29.3242C23.9194 29.3769 24.0949 29.4821 24.1465 29.5263C24.2327 29.616 24.3023 29.721 24.3519 29.8361C24.3725 29.888 24.4109 29.9306 24.46 29.9558C24.5248 29.9804 24.5731 29.9388 24.6263 29.9125C24.6982 29.8796 24.7793 29.8739 24.855 29.8963C24.8477 29.8184 24.834 29.7411 24.8142 29.6655C24.8057 29.6415 24.8037 29.6157 24.8084 29.5908C24.8189 29.5675 24.836 29.5479 24.8575 29.5347C25.0015 29.4378 25.1638 29.3727 25.334 29.3438Z" fill="url(#paint4_linear_79_3401)"/>
<path d="M26.336 30.2163C26.336 30.2163 26.2811 30.066 26.0541 30.0236C25.8795 29.9905 25.5718 30.1212 25.3805 30.2782C25.3625 30.2934 25.3484 30.3128 25.3394 30.3348C25.3304 30.3568 25.3268 30.3806 25.3288 30.4044C25.3308 30.4281 25.3385 30.4509 25.3511 30.471C25.3638 30.491 25.381 30.5076 25.4013 30.5193C25.4274 30.5345 25.4576 30.5409 25.4874 30.5376C25.5173 30.5342 25.5454 30.5213 25.5676 30.5006C25.7782 30.3081 26.0535 30.2062 26.336 30.2163Z" fill="url(#paint5_linear_79_3401)"/>
<path d="M26.8757 30.5245C26.838 30.4702 26.7881 30.4259 26.7303 30.3954C26.6724 30.3648 26.6082 30.3488 26.543 30.3488C26.543 30.3488 26.0882 30.3623 25.8063 30.6297C25.7891 30.6445 25.7756 30.6632 25.7671 30.6844C25.7585 30.7055 25.755 30.7285 25.757 30.7513C25.759 30.7741 25.7663 30.7961 25.7783 30.8154C25.7904 30.8347 25.8068 30.8508 25.8262 30.8623C25.8509 30.8763 25.8793 30.882 25.9073 30.8787C25.9354 30.8753 25.9617 30.8631 25.9826 30.8436C26.0986 30.7257 26.2391 30.6359 26.3937 30.5807C26.5482 30.5254 26.7129 30.5062 26.8757 30.5245Z" fill="url(#paint6_linear_79_3401)"/>
<path d="M27.4721 30.8028C27.4287 30.7524 27.3751 30.7122 27.3152 30.6848C27.2552 30.6574 27.1902 30.6435 27.1245 30.6441C27.1245 30.6441 26.7004 30.6602 26.4193 30.9276C26.4019 30.9421 26.3882 30.9608 26.3795 30.9819C26.3707 31.0031 26.3671 31.0261 26.369 31.049C26.3709 31.0719 26.3782 31.0939 26.3903 31.1133C26.4024 31.1327 26.4189 31.1487 26.4384 31.1601C26.4633 31.1741 26.4917 31.1798 26.5199 31.1764C26.5481 31.1731 26.5745 31.1609 26.5956 31.1415C26.7058 31.0193 26.8424 30.925 26.9945 30.8662C27.1467 30.8074 27.3102 30.7857 27.4721 30.8028Z" fill="url(#paint7_linear_79_3401)"/>
<path opacity="0.3" d="M26.336 30.2163C26.336 30.2163 26.2811 30.066 26.0541 30.0236C25.8795 29.9905 25.5718 30.1212 25.3805 30.2782C25.3625 30.2934 25.3484 30.3128 25.3394 30.3348C25.3304 30.3568 25.3268 30.3806 25.3288 30.4044C25.3308 30.4281 25.3385 30.4509 25.3511 30.471C25.3638 30.491 25.381 30.5076 25.4013 30.5193C25.4274 30.5345 25.4576 30.5409 25.4874 30.5376C25.5173 30.5342 25.5454 30.5213 25.5676 30.5006C25.7782 30.3081 26.0535 30.2062 26.336 30.2163Z" fill="black"/>
<path opacity="0.3" d="M26.8757 30.5245C26.838 30.4702 26.7881 30.4259 26.7303 30.3954C26.6724 30.3648 26.6082 30.3488 26.543 30.3488C26.543 30.3488 26.0882 30.3623 25.8063 30.6297C25.7891 30.6445 25.7756 30.6632 25.7671 30.6844C25.7585 30.7055 25.755 30.7285 25.757 30.7513C25.759 30.7741 25.7663 30.7961 25.7783 30.8154C25.7904 30.8347 25.8068 30.8508 25.8262 30.8623C25.8509 30.8763 25.8793 30.882 25.9073 30.8787C25.9354 30.8753 25.9617 30.8631 25.9826 30.8436C26.0986 30.7257 26.2391 30.6359 26.3937 30.5807C26.5482 30.5254 26.7129 30.5062 26.8757 30.5245Z" fill="black"/>
<path opacity="0.3" d="M27.4721 30.8028C27.4287 30.7524 27.3751 30.7122 27.3152 30.6848C27.2552 30.6574 27.1902 30.6435 27.1245 30.6441C27.1245 30.6441 26.7004 30.6602 26.4193 30.9276C26.4019 30.9421 26.3882 30.9608 26.3795 30.9819C26.3707 31.0031 26.3671 31.0261 26.369 31.049C26.3709 31.0719 26.3782 31.0939 26.3903 31.1133C26.4024 31.1327 26.4189 31.1487 26.4384 31.1601C26.4633 31.1741 26.4917 31.1798 26.5199 31.1764C26.5481 31.1731 26.5745 31.1609 26.5956 31.1415C26.7058 31.0193 26.8424 30.925 26.9945 30.8662C27.1467 30.8074 27.3102 30.7857 27.4721 30.8028Z" fill="black"/>
<path d="M25.1311 21.3555C23.9419 21.0831 21.1021 20.477 21.1021 20.477L21.1478 19.7029C20.1208 20.2461 17.9562 20.0925 16.9583 19.2861L16.8011 20.1069C16.4228 20.5693 16.0951 21.0725 15.824 21.6076C15.5962 22.0685 15.2153 22.7875 15.5945 24.4622C15.8174 25.446 16.1143 28.0357 16.1143 28.0357L13.2037 26.9407C13.2037 26.9407 12.9543 26.984 12.743 27.5409C12.6183 27.8702 12.5767 28.1868 12.7031 28.3506C13.7675 29.2088 15.4922 30.6102 17.2352 31.3962C18.3994 31.8511 19.0181 30.8521 19.0747 30.482C19.2934 29.0645 19.5453 24.5097 19.5453 24.5097L23.4371 24.3833C23.3082 25.1353 23.8321 28.0739 23.8321 28.0739C23.8321 28.0739 24.7901 28.4983 25.5834 28.0637C25.5834 28.0637 26.114 24.6821 26.1655 23.554C26.2179 22.296 26.2811 21.6195 25.1311 21.3555Z" fill="url(#paint8_linear_79_3401)"/>
<path opacity="0.15" d="M23.4372 24.3832C23.4372 24.1804 23.5695 23.4716 24.0193 23.0939C24.0193 23.0939 23.4023 23.2068 23.1196 24.3934L23.4372 24.3832Z" fill="black"/>
<path opacity="0.15" d="M16.1143 28.0356C16.1143 28.0356 16.1975 29.1535 16.4071 29.6985C16.4071 29.6985 15.8823 28.7308 15.825 27.9253L16.1143 28.0356Z" fill="black"/>
<path opacity="0.15" d="M21.1013 20.477L21.147 19.7038C20.12 20.2461 17.9562 20.0925 16.9592 19.287L16.802 20.1069C16.8103 20.1146 17.4506 20.7902 19.1155 20.8777C20.7803 20.9651 21.1013 20.477 21.1013 20.477Z" fill="black"/>
<path opacity="0.15" d="M19.5487 24.5097C19.5349 24.0896 19.4376 23.6767 19.2626 23.2961C19.0876 22.9156 18.8386 22.5753 18.5308 22.296C18.5308 22.296 19.4256 22.7204 19.725 24.0641C19.725 24.0641 20.3902 23.7475 20.7378 22.7985C20.7378 22.7985 20.6314 23.7475 20.0959 24.2873L21.7099 24.4393L19.5487 24.5097Z" fill="black"/>
<path d="M19.0298 7.34241C18.6881 7.34185 18.3497 7.41005 18.0339 7.54309C17.7181 7.67613 17.431 7.87141 17.1892 8.11777C16.9474 8.36413 16.7555 8.65672 16.6246 8.97883C16.4937 9.30093 16.4262 9.64622 16.4261 9.99496C16.4261 10.3438 16.4935 10.6891 16.6244 11.0114C16.7553 11.3336 16.9471 11.6262 17.1889 11.8727C17.4308 12.1191 17.7178 12.3145 18.0337 12.4476C18.3496 12.5807 18.688 12.6489 19.0298 12.6484C19.7184 12.6472 20.3784 12.3672 20.8649 11.8696C21.3514 11.3721 21.6245 10.6979 21.6243 9.99496C21.6243 9.29219 21.3511 8.61815 20.8646 8.12082C20.3782 7.6235 19.7183 7.34354 19.0298 7.34241Z" fill="#263238"/>
<path d="M16.3148 8.95509C16.4088 8.9507 16.503 8.9561 16.5959 8.97122C16.6274 8.97333 16.657 8.98724 16.679 9.01026C16.6918 9.02931 16.6991 9.05169 16.6998 9.07477C16.7213 9.22214 16.7079 9.37261 16.6607 9.51361C16.6242 9.61207 16.5102 9.66215 16.4379 9.73345C16.1568 10.0119 16.1344 10.4728 16.245 10.8556C16.3556 11.2384 16.5776 11.5796 16.7215 11.9497C16.8653 12.3198 16.9418 12.7654 16.7381 13.1381C16.6591 13.2807 16.5152 13.3927 16.5327 13.5625C16.5526 13.7704 16.7306 13.969 16.8071 14.1566C16.8911 14.3789 16.9197 14.6189 16.8903 14.8552C16.8692 15.149 16.7623 15.4296 16.5834 15.6607C16.4466 15.8234 16.2701 15.9462 16.0717 16.0166C15.8734 16.0869 15.6603 16.1024 15.4541 16.0614C15.3672 16.0459 15.285 16.0102 15.2138 15.957C15.0916 15.8568 15.0425 15.693 14.976 15.5478C14.7623 15.0784 14.3107 14.7372 14.1735 14.239C14.0246 13.7085 14.2725 13.1567 14.5768 12.706C14.719 12.4955 14.8778 12.2892 14.9477 12.0431C15.0417 11.7112 14.9593 11.3581 14.9377 11.0126C14.9171 10.6752 14.9551 10.3367 15.05 10.0127C15.1182 9.77844 15.2238 9.50852 15.4026 9.34045C15.6535 9.1076 15.9761 8.97133 16.3148 8.95509Z" fill="#263238"/>
<path d="M20.6547 8.55615C20.9391 8.73016 21.2892 9.46438 21.2484 11.0007C21.2135 12.3028 20.7985 12.6228 20.5906 12.7153C20.3827 12.8079 19.9819 12.7485 19.5927 12.6805V13.4623C19.5927 13.4623 20.1283 14.1023 20.0917 14.4614C20.0551 14.8204 19.3133 14.901 18.8111 14.5462C18.3088 14.1914 17.8872 13.5098 17.8872 13.5098L17.9038 11.712C17.9038 11.712 17.6718 11.9412 17.2835 11.5932C16.965 11.3055 16.8585 10.8225 17.1097 10.5678C17.3608 10.3132 17.8223 10.382 17.9986 10.752C17.9986 10.752 18.619 10.7775 19.4481 10.3174C19.7706 10.1413 20.0479 9.88997 20.2575 9.58397C20.4672 9.27796 20.6032 8.92584 20.6547 8.55615Z" fill="#FFEDE5"/>
<path d="M19.8248 10.6681C19.825 10.7003 19.8158 10.7318 19.7985 10.7587C19.7812 10.7856 19.7566 10.8067 19.7276 10.8194C19.6986 10.8321 19.6666 10.8358 19.6356 10.83C19.6046 10.8243 19.5759 10.8093 19.5532 10.787C19.5305 10.7647 19.5146 10.7361 19.5077 10.7047C19.5008 10.6733 19.5031 10.6405 19.5144 10.6105C19.5256 10.5804 19.5453 10.5544 19.5709 10.5356C19.5965 10.5169 19.627 10.5063 19.6585 10.5051C19.7015 10.5051 19.7428 10.522 19.7738 10.5524C19.8048 10.5828 19.8231 10.6243 19.8248 10.6681Z" fill="#263238"/>
<g style="mix-blend-mode:multiply" opacity="0.5">
<g style="mix-blend-mode:multiply" opacity="0.5">
<path d="M19.8614 11.7723L20.2332 11.8946C20.2264 11.92 20.2147 11.9439 20.1987 11.9646C20.1827 11.9853 20.1627 12.0025 20.1401 12.0152C20.1174 12.0279 20.0924 12.0358 20.0667 12.0384C20.041 12.041 20.015 12.0383 19.9903 12.0304C19.9402 12.0129 19.8987 11.9762 19.8746 11.928C19.8506 11.8799 19.8459 11.824 19.8614 11.7723Z" fill="#F28F8F"/>
</g>
</g>
<path d="M21.1429 10.1706L20.8194 9.9397C20.8329 9.91734 20.8508 9.89805 20.872 9.88302C20.8931 9.86798 20.917 9.85751 20.9423 9.85227C20.9675 9.84702 20.9935 9.8471 21.0187 9.8525C21.0439 9.8579 21.0678 9.86852 21.0888 9.88368C21.1318 9.9156 21.1613 9.96298 21.1713 10.0162C21.1814 10.0695 21.1712 10.1247 21.1429 10.1706Z" fill="#263238"/>
<path d="M21.0664 10.5543C21.0667 10.5865 21.0577 10.6181 21.0405 10.6452C21.0233 10.6722 20.9987 10.6934 20.9698 10.7062C20.9408 10.719 20.9088 10.7229 20.8777 10.7172C20.8466 10.7115 20.8179 10.6966 20.7951 10.6744C20.7722 10.6522 20.7564 10.6235 20.7494 10.5921C20.7424 10.5607 20.7447 10.5279 20.7559 10.4978C20.7671 10.4676 20.7867 10.4416 20.8124 10.4228C20.838 10.404 20.8685 10.3934 20.9001 10.3922C20.9429 10.3922 20.9841 10.409 21.0151 10.4392C21.0461 10.4694 21.0645 10.5106 21.0664 10.5543Z" fill="#263238"/>
<g style="mix-blend-mode:multiply" opacity="0.5">
<g style="mix-blend-mode:multiply" opacity="0.5">
<path d="M20.3096 10.4576L20.3313 11.444L20.8402 11.2852L20.3096 10.4576Z" fill="#F28F8F"/>
</g>
</g>
<g style="mix-blend-mode:multiply" opacity="0.5">
<g style="mix-blend-mode:multiply" opacity="0.5">
<path d="M19.5937 12.6806C19.1829 12.6246 18.3397 12.3733 18.21 12.0321C18.2622 12.2045 18.3649 12.3565 18.5043 12.4675C18.7555 12.6899 19.592 12.9446 19.592 12.9446L19.5937 12.6806Z" fill="#F28F8F"/>
</g>
</g>
<path d="M16.8004 13.4708C15.9954 13.5294 15.6636 13.6338 15.2154 14.649C14.8121 15.5615 13.8475 17.9229 13.6063 18.4491C13.3651 18.9754 13.3194 19.1867 13.5231 19.7376C13.6895 20.1867 15.0483 22.7662 15.1971 23.1422C15.346 23.5183 15.4117 23.8985 15.6653 24.3365C15.9189 24.7745 16.3197 25.2023 16.6366 25.3033C17.1064 25.4536 17.7176 25.2447 17.7351 24.9553C17.7526 24.6658 17.0457 24.1829 16.8536 23.5403C16.9814 23.6261 17.1161 23.7007 17.2561 23.7636C17.4465 23.8433 17.6594 23.8255 17.7226 23.7152C17.7858 23.6048 17.5954 23.5378 17.4257 23.3655C17.3243 23.2628 17.1447 23.0319 16.9152 22.8282C16.7596 22.6907 16.5052 22.6499 16.3904 22.4988C16.3289 22.4182 16.0495 21.7196 15.8391 21.0974C15.5796 20.3259 15.2379 19.2988 15.2379 19.2988L16.6366 16.3279C16.6366 16.3279 17.7334 15.2109 16.8004 13.4708Z" fill="#FFEDE5"/>
<path d="M15.1946 23.1423C15.1946 23.1423 15.5165 22.4777 16.3879 22.4989L16.1576 21.9761C16.1576 21.9761 15.3069 22.0372 14.9485 22.6254L15.1946 23.1423Z" fill="#37474F"/>
<path d="M15.1005 22.5777L15.2876 22.8485C15.3012 22.8682 15.3185 22.8849 15.3385 22.8976C15.3585 22.9103 15.3808 22.9188 15.4041 22.9225C15.4273 22.9263 15.4511 22.9252 15.474 22.9193C15.4968 22.9134 15.5183 22.9029 15.5371 22.8884L15.8697 22.6338C15.9084 22.6035 15.9343 22.5594 15.9422 22.5104C15.9501 22.4613 15.9393 22.411 15.9121 22.3698L15.7383 22.1084C15.7253 22.0882 15.7083 22.0709 15.6885 22.0577C15.6687 22.0444 15.6464 22.0354 15.6231 22.0312C15.5997 22.027 15.5758 22.0276 15.5527 22.0332C15.5296 22.0387 15.5079 22.049 15.4889 22.0634L15.1363 22.318C15.0979 22.3477 15.0726 22.3917 15.0659 22.4403C15.0592 22.489 15.0716 22.5384 15.1005 22.5777Z" fill="#263238"/>
<path d="M15.0382 22.571L15.227 22.8418C15.2406 22.8614 15.2579 22.878 15.2779 22.8907C15.298 22.9033 15.3202 22.9117 15.3435 22.9155C15.3667 22.9192 15.3905 22.9181 15.4133 22.9123C15.4362 22.9065 15.4576 22.8961 15.4765 22.8817L15.8091 22.6271C15.8477 22.5968 15.8737 22.5528 15.8817 22.5038C15.8897 22.4548 15.8792 22.4045 15.8523 22.3631L15.6785 22.1016C15.6654 22.0816 15.6484 22.0644 15.6286 22.0512C15.6088 22.038 15.5865 22.029 15.5632 22.0248C15.5399 22.0206 15.516 22.0213 15.493 22.0267C15.4699 22.0322 15.4482 22.0424 15.4291 22.0567L15.0765 22.3155C15.0387 22.3446 15.0136 22.3876 15.0064 22.4353C14.9993 22.4831 15.0107 22.5318 15.0382 22.571Z" fill="#455A64"/>
<path d="M15.8182 22.4818C15.814 22.5154 15.797 22.5459 15.7708 22.5667L15.4382 22.8213C15.4266 22.8307 15.4132 22.8375 15.3989 22.8412C15.3845 22.8448 15.3696 22.8453 15.3551 22.8425C15.3408 22.8403 15.3271 22.8352 15.3148 22.8274C15.3026 22.8197 15.2919 22.8095 15.2835 22.7976L15.0939 22.5259C15.0779 22.5034 15.0708 22.4755 15.074 22.4478C15.0751 22.4311 15.0799 22.4147 15.0879 22.4001C15.096 22.3854 15.1071 22.3727 15.1205 22.363L15.4731 22.1083C15.4849 22.0994 15.4984 22.093 15.5127 22.0897C15.527 22.0863 15.5419 22.086 15.5563 22.0888C15.5705 22.0914 15.5841 22.0968 15.5963 22.1048C15.6084 22.1128 15.6189 22.1233 15.627 22.1355L15.8008 22.3969C15.8171 22.4219 15.8242 22.452 15.8207 22.4818H15.8182Z" fill="url(#paint9_linear_79_3401)"/>
</g>
<defs>
<linearGradient id="paint0_linear_79_3401" x1="40" y1="40" x2="-13.3117" y2="35.8747" gradientUnits="userSpaceOnUse">
<stop stop-color="#C58BF2"/>
<stop offset="1" stop-color="#EEA4CE"/>
</linearGradient>
<linearGradient id="paint1_linear_79_3401" x1="12.592" y1="30.4595" x2="8.76487" y2="30.282" gradientUnits="userSpaceOnUse">
<stop stop-color="#92A3FD"/>
<stop offset="1" stop-color="#9DCEFF"/>
</linearGradient>
<linearGradient id="paint2_linear_79_3401" x1="11.7799" y1="29.0542" x2="10.3577" y2="28.7877" gradientUnits="userSpaceOnUse">
<stop stop-color="#92A3FD"/>
<stop offset="1" stop-color="#9DCEFF"/>
</linearGradient>
<linearGradient id="paint3_linear_79_3401" x1="11.9315" y1="28.5025" x2="10.5135" y2="28.2606" gradientUnits="userSpaceOnUse">
<stop stop-color="#92A3FD"/>
<stop offset="1" stop-color="#9DCEFF"/>
</linearGradient>
<linearGradient id="paint4_linear_79_3401" x1="28.5658" y1="32.3626" x2="21.7662" y2="31.513" gradientUnits="userSpaceOnUse">
<stop stop-color="#92A3FD"/>
<stop offset="1" stop-color="#9DCEFF"/>
</linearGradient>
<linearGradient id="paint5_linear_79_3401" x1="26.336" y1="30.5385" x2="25.0145" y2="30.3403" gradientUnits="userSpaceOnUse">
<stop stop-color="#92A3FD"/>
<stop offset="1" stop-color="#9DCEFF"/>
</linearGradient>
<linearGradient id="paint6_linear_79_3401" x1="26.8757" y1="30.8796" x2="25.414" y2="30.6412" gradientUnits="userSpaceOnUse">
<stop stop-color="#92A3FD"/>
<stop offset="1" stop-color="#9DCEFF"/>
</linearGradient>
<linearGradient id="paint7_linear_79_3401" x1="27.4721" y1="31.1774" x2="26.0295" y2="30.9464" gradientUnits="userSpaceOnUse">
<stop stop-color="#92A3FD"/>
<stop offset="1" stop-color="#9DCEFF"/>
</linearGradient>
<linearGradient id="paint8_linear_79_3401" x1="26.1887" y1="31.5127" x2="8.13781" y2="29.9633" gradientUnits="userSpaceOnUse">
<stop stop-color="#92A3FD"/>
<stop offset="1" stop-color="#9DCEFF"/>
</linearGradient>
<linearGradient id="paint9_linear_79_3401" x1="15.8216" y1="22.8443" x2="14.8241" y2="22.768" gradientUnits="userSpaceOnUse">
<stop stop-color="#92A3FD"/>
<stop offset="1" stop-color="#9DCEFF"/>
</linearGradient>
<clipPath id="clip0_79_3401">
<rect width="20.5333" height="25.3151" fill="white" transform="translate(9.46667 7.34241)"/>
</clipPath>
</defs>
</svg>
