<svg width="20" height="20" viewBox="0 0 20 20" fill="none" xmlns="http://www.w3.org/2000/svg">
<path fill-rule="evenodd" clip-rule="evenodd" d="M14.3983 11.5745C14.9605 11.5745 15.4325 12.0386 15.3465 12.5938C14.8421 15.8605 12.0456 18.2859 8.67281 18.2859C4.94123 18.2859 1.91667 15.2614 1.91667 11.5307C1.91667 8.45699 4.25176 5.59383 6.88071 4.94646C7.44562 4.80699 8.02457 5.20436 8.02457 5.78593C8.02457 9.72629 8.15702 10.7456 8.90527 11.3C9.65351 11.8544 10.5333 11.5745 14.3983 11.5745Z" stroke="url(#paint0_linear_58_2158)" stroke-width="1.2" stroke-linecap="round" stroke-linejoin="round"/>
<path fill-rule="evenodd" clip-rule="evenodd" d="M18.0771 8.293C18.1218 5.76142 15.0122 1.68072 11.2227 1.75089C10.928 1.75616 10.692 2.00177 10.6789 2.29563C10.5832 4.37721 10.7122 7.07458 10.7841 8.29738C10.8061 8.67809 11.1052 8.97721 11.485 8.99914C12.742 9.07107 15.5376 9.16931 17.5894 8.85879C17.8683 8.81668 18.0727 8.57458 18.0771 8.293Z" stroke="url(#paint1_linear_58_2158)" stroke-width="1.2" stroke-linecap="round" stroke-linejoin="round"/>
<defs>
<linearGradient id="paint0_linear_58_2158" x1="15.3567" y1="18.2859" x2="-2.5549" y2="16.8924" gradientUnits="userSpaceOnUse">
<stop stop-color="#B12525"/>
<stop offset="1" stop-color="#F96363"/>
</linearGradient>
<linearGradient id="paint1_linear_58_2158" x1="18.0776" y1="9.07283" x2="8.17307" y2="8.29491" gradientUnits="userSpaceOnUse">
<stop stop-color="#B12525"/>
<stop offset="1" stop-color="#F96363"/>
</linearGradient>
</defs>
</svg>
