<svg width="36" height="39" viewBox="0 0 36 39" fill="none" xmlns="http://www.w3.org/2000/svg">
<g clip-path="url(#clip0_339_234)">
<path d="M33.2933 10.303H13.5327C13.0534 10.303 12.5936 10.4978 12.2547 10.8446C11.9157 11.1913 11.7253 11.6616 11.7253 12.152V32.3682C11.7253 32.8586 11.9157 33.3289 12.2547 33.6757C12.5936 34.0224 13.0534 34.2172 13.5327 34.2172H27.2045L32.7042 38.8502V34.2172H33.2789C33.7583 34.2172 34.218 34.0224 34.5569 33.6757C34.8959 33.3289 35.0863 32.8586 35.0863 32.3682V12.152C35.0863 11.6642 34.8979 11.1961 34.562 10.8497C34.2262 10.5034 33.7701 10.3069 33.2933 10.303Z" fill="white"/>
<path d="M13.751 10.303H33.3765C33.8338 10.303 34.2723 10.4889 34.5956 10.8196C34.9189 11.1504 35.1006 11.599 35.1006 12.0668V17.7845C35.1006 17.8024 35.0936 17.8196 35.0812 17.8323C35.0688 17.845 35.052 17.8521 35.0345 17.8521H11.7913C11.7738 17.8521 11.757 17.845 11.7446 17.8323C11.7322 17.8196 11.7252 17.8024 11.7252 17.7845V12.3726C11.7237 12.1001 11.7751 11.83 11.8764 11.5781C11.9777 11.3261 12.1269 11.0972 12.3153 10.9047C12.5038 10.7121 12.7277 10.5598 12.9742 10.4565C13.2206 10.3533 13.4847 10.3011 13.751 10.303Z" fill="#FF725E"/>
<path d="M21.808 21.4148V29.5459H19.969V22.9258H18.38V21.4148H21.808Z" fill="#263238"/>
<path d="M29.4229 21.4148V22.6348L26.4632 29.5459H24.4518L27.3023 22.9493H24.6788V24.281H23.0439V21.4148H29.4229Z" fill="#263238"/>
<path d="M26.6787 14.5801C26.6787 14.6212 25.0724 14.6565 23.0926 14.6565C21.1128 14.6565 19.5037 14.6271 19.5037 14.5801C19.5037 14.5331 21.11 14.5037 23.0926 14.5037C25.0753 14.5037 26.6787 14.5448 26.6787 14.5801Z" fill="#263238"/>
<path d="M33.2934 10.303C33.2934 10.303 33.3336 10.303 33.417 10.303C33.5374 10.3082 33.6569 10.327 33.7733 10.3588C34.0025 10.42 34.2177 10.5267 34.4065 10.673C34.5954 10.8193 34.7541 11.0022 34.8738 11.2114C35.05 11.5193 35.1376 11.8719 35.1267 12.2285C35.1267 12.6136 35.1267 13.0369 35.1267 13.4896C35.1267 14.4009 35.1267 15.4445 35.1267 16.6115C35.1267 18.9633 35.1267 21.7824 35.1267 25.0219C35.1267 26.6417 35.1267 28.3644 35.1267 30.1752C35.1267 30.6309 35.1267 31.0894 35.1267 31.5539V32.2536C35.1351 32.4964 35.1031 32.739 35.0318 32.9708C34.8769 33.4493 34.5433 33.8456 34.1037 34.0732C33.8987 34.1824 33.6755 34.2512 33.4457 34.276C33.1957 34.276 32.963 34.276 32.7187 34.276L32.7848 34.2084C32.7848 35.6783 32.7848 37.2334 32.7848 38.8384V38.9913L32.6699 38.8943L27.1586 34.276L27.2046 34.2937H13.5099C13.1901 34.2894 12.8767 34.2019 12.5992 34.0394C12.3217 33.8769 12.0892 33.6447 11.9237 33.3647C11.8149 33.1833 11.7363 32.9846 11.691 32.7768C11.6564 32.5681 11.6429 32.3563 11.6508 32.1448V28.4672C11.6508 25.2512 11.6508 22.1499 11.6508 19.1955C11.6508 17.7159 11.6508 16.2764 11.6508 14.8771C11.6508 14.1775 11.6508 13.4916 11.6508 12.8194C11.6379 12.4789 11.6494 12.138 11.6852 11.7993C11.7507 11.4606 11.9035 11.146 12.1277 10.888C12.348 10.6361 12.6296 10.4484 12.9438 10.3442C13.2524 10.2581 13.573 10.2263 13.892 10.2501H19.1561L29.5005 10.2765H32.3136H33.0434C33.2101 10.2765 33.2934 10.2765 33.2934 10.2765H33.0434H32.3136H29.5005L19.1561 10.3001H15.7281H13.9064C13.601 10.2771 13.2941 10.307 12.9984 10.3882C12.7045 10.4879 12.4411 10.6642 12.2341 10.8998C12.0253 11.1403 11.8834 11.4336 11.8232 11.7493C11.7902 12.0804 11.7806 12.4134 11.7944 12.7459V14.8036C11.7944 16.2029 11.7944 17.6424 11.7944 19.122C11.7944 22.0617 11.7944 25.1778 11.7944 28.3938V32.1301C11.7871 32.3269 11.7997 32.5239 11.8318 32.718C11.8721 32.913 11.944 33.0998 12.0444 33.2707C12.2482 33.6161 12.5616 33.8797 12.9323 34.0174C13.3189 34.128 13.722 34.1659 14.1219 34.1291H27.2247L27.2448 34.1467L32.7417 38.7826L32.6268 38.8355C32.6268 37.2304 32.6268 35.6665 32.6268 34.2055V34.1379H32.6957C32.9342 34.1379 33.1814 34.1379 33.4141 34.1379C33.7566 34.1114 34.0838 33.9821 34.3547 33.7661C34.6257 33.5501 34.8282 33.2571 34.937 32.9238C35.0067 32.7058 35.0378 32.4768 35.029 32.2477V31.548C35.029 31.0836 35.029 30.625 35.029 30.1693C35.029 28.3585 35.029 26.6417 35.029 25.0161C35.029 21.7824 35.029 18.9456 35.0433 16.6057C35.0433 15.4298 35.0433 14.395 35.0433 13.4837C35.0433 12.5724 35.1583 11.7699 34.8077 11.229C34.5754 10.8109 34.1913 10.5035 33.7388 10.3735C33.5927 10.3365 33.4436 10.3129 33.2934 10.303Z" fill="#263238"/>
<path d="M26.8999 7.95996H26.8511C26.4448 7.95996 26.1155 8.29689 26.1155 8.71252V12.6076C26.1155 13.0232 26.4448 13.3601 26.8511 13.3601H26.8999C27.3062 13.3601 27.6355 13.0232 27.6355 12.6076V8.71252C27.6355 8.29689 27.3062 7.95996 26.8999 7.95996Z" fill="#E0E0E0"/>
<path d="M26.9025 13.3602C27.0589 13.3378 27.2072 13.2751 27.3335 13.178C27.4746 13.0597 27.5652 12.89 27.5864 12.7047C27.5864 12.4901 27.5864 12.2226 27.5864 11.9404C27.5864 11.3524 27.5864 10.6822 27.5864 9.93552C27.5864 9.5563 27.5864 9.15945 27.5864 8.75965C27.5911 8.66331 27.5758 8.56704 27.5414 8.4772C27.5071 8.38737 27.4545 8.30601 27.3871 8.23849C27.3198 8.17098 27.2392 8.11886 27.1507 8.08555C27.0622 8.05225 26.9678 8.03854 26.8738 8.04531C26.779 8.04509 26.6854 8.06572 26.5991 8.10579C26.5128 8.14586 26.436 8.20443 26.3738 8.27754C26.3134 8.3506 26.268 8.43538 26.2403 8.5268C26.2127 8.61823 26.2034 8.71442 26.2129 8.80963C26.2129 9.22118 26.2129 9.61804 26.2129 9.9855C26.2129 10.7351 26.2129 11.4142 26.2129 11.9933C26.2129 12.1344 26.2129 12.2696 26.2129 12.399C26.2025 12.5163 26.2025 12.6344 26.2129 12.7517C26.2478 12.9358 26.3508 13.0989 26.5002 13.2074C26.6339 13.2956 26.787 13.3482 26.9456 13.3602C26.9039 13.369 26.8609 13.369 26.8192 13.3602C26.6945 13.3541 26.5737 13.3146 26.4686 13.2456C26.299 13.1337 26.1784 12.9587 26.1324 12.7576C26.114 12.6351 26.1073 12.5111 26.1123 12.3872C26.1123 12.2579 26.1123 12.1226 26.1123 11.9815C26.1123 11.3936 26.1123 10.7234 26.0951 9.97374C26.0951 9.59746 26.0951 9.2006 26.0951 8.79787C26.0849 8.68452 26.097 8.57023 26.1305 8.4617C26.1641 8.35317 26.2184 8.25259 26.2905 8.16584C26.3657 8.07449 26.4593 8.0009 26.565 7.95015C26.6706 7.8994 26.7858 7.8727 26.9025 7.87187C27.0178 7.86541 27.1331 7.88379 27.241 7.92582C27.3489 7.96785 27.447 8.03259 27.5289 8.11586C27.5969 8.20492 27.6469 8.30692 27.676 8.41593C27.7051 8.52494 27.7127 8.63878 27.6985 8.75083C27.6985 9.15945 27.6985 9.5563 27.6985 9.9267C27.6985 10.6734 27.6985 11.3524 27.6812 11.9316C27.6812 12.2255 27.6812 12.4695 27.6611 12.7076C27.6468 12.8088 27.6126 12.9059 27.5608 12.9933C27.509 13.0807 27.4405 13.1565 27.3594 13.2162C27.2608 13.293 27.1435 13.3407 27.0203 13.3544C26.9818 13.3642 26.9418 13.3662 26.9025 13.3602Z" fill="#263238"/>
<path d="M19.7654 7.95996H19.7166C19.3103 7.95996 18.981 8.29689 18.981 8.71252V12.6076C18.981 13.0232 19.3103 13.3601 19.7166 13.3601H19.7654C20.1717 13.3601 20.501 13.0232 20.501 12.6076V8.71252C20.501 8.29689 20.1717 7.95996 19.7654 7.95996Z" fill="#E0E0E0"/>
<path d="M19.7651 13.3601C19.9226 13.3384 20.072 13.2756 20.1989 13.1779C20.34 13.0596 20.4306 12.8899 20.4518 12.7046C20.4518 12.49 20.4518 12.2225 20.4518 11.9403C20.4518 11.3523 20.4518 10.6821 20.4346 9.9354C20.4346 9.55618 20.4346 9.15932 20.4346 8.75953C20.4393 8.66318 20.4239 8.56691 20.3896 8.47708C20.3553 8.38724 20.3027 8.30588 20.2353 8.23837C20.168 8.17086 20.0874 8.11873 19.9989 8.08543C19.9104 8.05213 19.816 8.03841 19.722 8.04518C19.6272 8.04458 19.5334 8.06503 19.447 8.10513C19.3607 8.14522 19.2839 8.20401 19.222 8.27742C19.1612 8.35033 19.1154 8.43502 19.0872 8.52643C19.0591 8.61784 19.0492 8.71411 19.0582 8.8095C19.0582 9.22106 19.0582 9.61791 19.0582 9.98537C19.0582 10.735 19.0582 11.4141 19.0409 11.9932C19.0409 12.1343 19.0409 12.2695 19.0409 12.3988C19.0304 12.5162 19.0304 12.6343 19.0409 12.7516C19.0748 12.9361 19.1779 13.0997 19.3283 13.2073C19.4608 13.2956 19.613 13.3482 19.7708 13.3601C19.7708 13.3601 19.7306 13.3601 19.6444 13.3601C19.5206 13.3539 19.4007 13.3143 19.2967 13.2455C19.1262 13.1345 19.0054 12.9591 18.9605 12.7575C18.9426 12.6349 18.9349 12.511 18.9375 12.3871C18.9375 12.2577 18.9375 12.1225 18.9375 11.9814C18.9375 11.3935 18.9375 10.7232 18.9375 9.97361C18.9375 9.59733 18.9375 9.20048 18.9375 8.79774C18.9206 8.56869 18.9917 8.34193 19.1358 8.16571C19.2108 8.07421 19.3045 8.00052 19.4101 7.94976C19.5158 7.899 19.6311 7.87238 19.7478 7.87174C19.8627 7.86496 19.9777 7.8832 20.0852 7.92526C20.1927 7.96732 20.2902 8.03224 20.3714 8.11574C20.45 8.19773 20.5115 8.2953 20.552 8.40246C20.5926 8.50963 20.6112 8.62413 20.607 8.73895C20.607 9.14756 20.607 9.54442 20.607 9.91482C20.607 10.6615 20.607 11.3406 20.607 11.9197C20.607 12.2136 20.607 12.4576 20.5869 12.6958C20.5593 12.897 20.4563 13.0794 20.2995 13.2043C20.2006 13.2806 20.0835 13.3283 19.9604 13.3425C19.8988 13.3694 19.8304 13.3756 19.7651 13.3601Z" fill="#263238"/>
<g opacity="0.3">
<path opacity="0.3" d="M18.1096 10.5293C18.2054 11.4867 18.1159 12.4541 17.8461 13.3762C17.5763 14.2982 17.1316 15.1568 16.5373 15.9029C15.943 16.649 15.2109 17.268 14.3827 17.7245C13.5545 18.181 12.6464 18.4661 11.7105 18.5634L11.9979 14.5449L15.558 10.5852L18.1096 10.5293Z" fill="black"/>
</g>
<path d="M12.4734 16.8952C16.0619 15.9696 18.2375 12.2432 17.3328 8.57197C16.4281 4.90075 12.7857 2.67495 9.19719 3.60051C5.6087 4.52606 3.43306 8.25248 4.33776 11.9237C5.24245 15.5949 8.88489 17.8207 12.4734 16.8952Z" fill="white"/>
<path d="M10.8298 17.8402C9.40658 17.8392 8.01364 17.4197 6.81695 16.6316C5.62027 15.8434 4.67032 14.7199 4.08029 13.3949C3.49026 12.0699 3.28505 10.5993 3.4891 9.15833C3.69315 7.71735 4.29786 6.36677 5.23117 5.26754C6.16449 4.16831 7.38704 3.36679 8.75314 2.95848C10.1192 2.55017 11.5713 2.5523 12.9363 2.96462C14.3012 3.37693 15.5215 4.18204 16.4517 5.284C17.382 6.38597 17.9829 7.73831 18.1829 9.17989C18.4569 11.173 17.9471 13.196 16.7653 14.8051C15.5834 16.4143 13.8261 17.4782 11.8786 17.7637C11.5313 17.8152 11.1807 17.8407 10.8298 17.8402ZM10.847 4.13246C10.5586 4.13213 10.2706 4.15276 9.985 4.1942C8.81527 4.36608 7.7216 4.88887 6.84221 5.69648C5.96283 6.50409 5.33719 7.56027 5.04438 8.73155C4.75157 9.90283 4.80473 11.1366 5.19714 12.277C5.58954 13.4174 6.30359 14.4132 7.24902 15.1385C8.19446 15.8638 9.32885 16.2861 10.5088 16.352C11.6888 16.418 12.8614 16.1245 13.8784 15.5089C14.8954 14.8932 15.7112 13.9829 16.2227 12.893C16.7341 11.8031 16.9183 10.5826 16.7519 9.38566C16.5495 7.93003 15.8411 6.59776 14.7566 5.63297C13.6722 4.66818 12.2842 4.13548 10.847 4.13246Z" fill="#455A64"/>
<path d="M10.8465 4.13261C10.8789 4.12799 10.9118 4.12799 10.9442 4.13261C11.0074 4.13261 11.1022 4.13261 11.2315 4.13261C11.5978 4.14955 11.9615 4.20271 12.3177 4.29136C12.8824 4.43415 13.4236 4.66096 13.924 4.96454C14.5906 5.36651 15.1758 5.89538 15.648 6.52257C16.2185 7.28504 16.6054 8.17431 16.7773 9.1183C16.8212 9.37715 16.8518 9.63815 16.8692 9.90026C16.8764 10.0344 16.8764 10.1688 16.8692 10.303C16.8692 10.4382 16.8692 10.5764 16.8692 10.7116C16.8235 11.277 16.7076 11.8341 16.5244 12.3696C16.3115 12.9261 16.0284 13.4519 15.6825 13.9335C15.3151 14.4278 14.8829 14.868 14.3981 15.2416C13.3584 16.0183 12.1037 16.4354 10.8164 16.4323C9.52907 16.4291 8.27631 16.0058 7.24036 15.224C6.75475 14.8502 6.32245 14.4089 5.95593 13.9129C5.61779 13.4275 5.34343 12.8987 5.13988 12.3402C4.9585 11.8055 4.84456 11.2493 4.80081 10.6851C4.72442 9.54142 4.96084 8.39852 5.48358 7.3845C6.00631 6.37049 6.79471 5.52541 7.76045 4.94396C8.44689 4.53433 9.20738 4.27132 9.99597 4.17083L10.4586 4.14437L10.7459 4.12967C10.7784 4.12637 10.8112 4.12637 10.8436 4.12967H10.7459L10.4586 4.15613L9.99885 4.19729C9.81782 4.22668 9.61381 4.26784 9.38393 4.32663C8.08105 4.66739 6.93004 5.45104 6.11972 6.54903C5.5619 7.29881 5.18307 8.17158 5.01345 9.09772C4.91887 9.61106 4.89085 10.1349 4.93012 10.6558C4.97407 11.2082 5.08705 11.7525 5.26631 12.2755C5.46637 12.82 5.73594 13.335 6.068 13.8071C6.42724 14.2902 6.84977 14.7205 7.32368 15.0858C8.33504 15.8466 9.55679 16.2584 10.8121 16.2615C12.0674 16.2647 13.2911 15.8591 14.3061 15.1035C14.7815 14.74 15.2051 14.3106 15.5647 13.8277C15.8985 13.3567 16.17 12.8427 16.3721 12.299C16.5554 11.7778 16.6714 11.2342 16.7169 10.6822C16.7342 10.5499 16.7169 10.4147 16.7169 10.2824C16.7241 10.1512 16.7241 10.0197 16.7169 9.8885C16.6911 9.62687 16.6796 9.37111 16.6307 9.12124C16.4666 8.1942 16.0927 7.31933 15.5388 6.56666C14.7274 5.47092 13.5816 4.68362 12.2832 4.32957C11.9309 4.23553 11.5714 4.17258 11.2086 4.14143C10.9787 4.13849 10.8465 4.13849 10.8465 4.13261Z" fill="#263238"/>
<path d="M10.8296 17.8402C10.8296 17.8402 10.8698 17.8402 10.9503 17.8402L11.3008 17.8137C11.456 17.7991 11.6456 17.7814 11.8755 17.7461L12.6427 17.5845C13.3315 17.3936 13.9925 17.1099 14.6082 16.7408C15.4149 16.2367 16.1232 15.5838 16.6971 14.8153C17.3839 13.878 17.8509 12.7917 18.062 11.6404C18.0952 11.4854 18.1183 11.3283 18.131 11.1701C18.131 11.0113 18.1655 10.8526 18.1798 10.688C18.1942 10.5234 18.1798 10.3646 18.1798 10.197V9.95012L18.1568 9.70024C18.1124 9.01242 17.9731 8.33448 17.7431 7.68657C17.2266 6.23858 16.2885 4.98741 15.0554 4.10172C13.8224 3.21603 12.3535 2.7384 10.8468 2.73321C9.33588 2.72811 7.86017 3.1999 6.62089 4.08423C5.38162 4.96856 4.43911 6.22241 3.92187 7.67481C3.46875 8.94347 3.36245 10.3145 3.61441 11.6404C3.7213 12.238 3.89784 12.8203 4.14025 13.3748C4.25721 13.6346 4.38766 13.8878 4.53104 14.1333L4.74367 14.489L4.98216 14.8153C5.54924 15.5846 6.25549 16.2353 7.06253 16.7319C7.67617 17.1052 8.33768 17.3892 9.02795 17.5756C9.2791 17.6454 9.53442 17.6984 9.79229 17.7344C9.98227 17.7692 10.1742 17.7918 10.367 17.802L10.7204 17.8284C10.7606 17.8252 10.8009 17.8252 10.8411 17.8284H10.7204H10.367C10.1743 17.8241 9.98227 17.8055 9.79229 17.7726C9.5323 17.7438 9.27486 17.6946 9.02221 17.6256C8.32251 17.4485 7.65105 17.1704 7.02805 16.7996C6.2003 16.3042 5.47351 15.6505 4.88734 14.8741L4.64597 14.5448L4.42759 14.1862C4.27994 13.9331 4.14566 13.6721 4.02531 13.4042C3.7771 12.8405 3.59574 12.2483 3.48511 11.6404C3.22847 10.2945 3.33374 8.90258 3.78969 7.61307C4.31642 6.13447 5.27564 4.85779 6.53684 3.95676C7.79803 3.05573 9.29994 2.5741 10.8382 2.57741C12.3771 2.57872 13.8783 3.0647 15.1379 3.96932C16.3974 4.87394 17.3541 6.15333 17.8781 7.63365C18.1119 8.29583 18.2522 8.98873 18.2948 9.69142L18.3149 9.94424V10.197C18.3149 10.3646 18.3149 10.5322 18.3149 10.6968C18.3149 10.8614 18.2689 11.0202 18.2689 11.1818C18.2566 11.3432 18.2326 11.5033 18.1971 11.661C17.972 12.8301 17.4851 13.9299 16.7747 14.8741C16.1894 15.6494 15.4672 16.3055 14.6455 16.8084C14.0197 17.174 13.3491 17.4528 12.6513 17.6374L11.8755 17.7844C11.685 17.8121 11.4932 17.8298 11.3008 17.8373C11.1457 17.8373 11.0135 17.8373 10.9474 17.8373L10.8296 17.8402Z" fill="#263238"/>
<path d="M14.2357 0.799467L13.6235 1.80396L17.5607 4.3155L18.1729 3.31101L14.2357 0.799467Z" fill="#455A64"/>
<path d="M17.5531 4.3442C17.5531 4.3442 17.6049 4.23837 17.7054 4.05023L18.1278 3.30943L18.1422 3.37116C17.2514 2.82144 15.8118 1.93954 14.1999 0.895957L14.3033 0.87244L14.2832 0.904776L14.2228 0.998846L14.1453 1.12819L13.9901 1.381L13.7027 1.87487L13.6711 1.76904C14.7717 2.48044 15.7343 3.11541 16.4296 3.57988L17.2514 4.1296C17.444 4.26189 17.5388 4.33538 17.5388 4.3442C17.4378 4.29943 17.3415 4.24427 17.2514 4.17958L16.4296 3.67689C15.7228 3.24182 14.7228 2.61861 13.5878 1.89839L13.5246 1.85723L13.5648 1.7955L13.8522 1.29869L14.0188 1.05764L14.0964 0.931233L14.1366 0.866561L14.1568 0.822465V0.804827L14.2774 0.763672C15.8923 1.7955 17.3175 2.7215 18.191 3.30061L18.2284 3.32707L18.2054 3.36529C17.9985 3.68571 17.8347 3.93558 17.7256 4.1002C17.676 4.18708 17.6182 4.2688 17.5531 4.3442Z" fill="#263238"/>
<path d="M4.77121 2.44957L1.55226 6.19678L2.41993 6.97689L5.63887 3.22968L4.77121 2.44957Z" fill="#455A64"/>
<path d="M2.42153 6.97525C2.42153 6.97525 2.50774 6.85766 2.6629 6.66364L3.32666 5.85523C3.90135 5.17617 4.67718 4.23841 5.57943 3.18013V3.28596L4.71741 2.50694H4.82372L4.79499 2.52752L4.76338 2.57161L4.70304 2.64217L4.57948 2.78621L4.33524 3.08018L3.864 3.61814L2.98185 4.63233L1.58537 6.22563V6.16096C1.83535 6.39907 2.03937 6.59603 2.20028 6.74889C2.27946 6.82061 2.3543 6.89719 2.42441 6.97819C2.33676 6.92418 2.25405 6.8622 2.17729 6.79299C2.025 6.66658 1.798 6.47844 1.51353 6.22857L1.47905 6.19917L1.50778 6.1639L2.86979 4.54414L3.73182 3.51819L4.22605 2.96847C4.30363 2.8744 4.38696 2.78033 4.46742 2.6745L4.59097 2.53046L4.65132 2.45697L4.68292 2.42169L4.70016 2.40405H4.80648C5.09382 2.6745 5.38117 2.93613 5.66851 3.18601L5.72311 3.23598L5.67426 3.29183C4.76338 4.356 3.94158 5.29081 3.3554 5.9493L2.66865 6.71656C2.59192 6.80825 2.50937 6.89466 2.42153 6.97525Z" fill="#263238"/>
<path d="M7.91275 10.8468L8.48456 9.73262L10.5276 10.6792L12.7257 6.58423L13.7544 7.18686L10.9069 12.3519L7.91275 10.8468Z" fill="#455A64"/>
<path d="M10.9099 12.3607L7.90428 10.8497L8.47897 9.72971L10.5162 10.6704L12.723 6.57544L13.7575 7.18101L10.9099 12.3607ZM7.9244 10.8438L10.907 12.3431L13.7488 7.18983L12.7316 6.6019L10.5306 10.688L8.49908 9.74441L7.9244 10.8438Z" fill="#263238"/>
<path d="M6.8436 18.7105C6.73498 18.6764 6.63004 18.6311 6.53039 18.5752C6.41025 18.5181 6.29323 18.4543 6.17983 18.3841C6.02546 18.2943 5.87583 18.1962 5.73158 18.0902C5.34996 17.8286 4.99134 17.5335 4.65979 17.2083C4.25446 16.8107 3.88693 16.3746 3.56214 15.906C3.24805 15.4366 2.97681 14.9387 2.75183 14.4185C2.5695 13.9889 2.42245 13.5444 2.3122 13.0898C2.26803 12.9154 2.23254 12.7388 2.20588 12.5607C2.17929 12.4277 2.16105 12.2932 2.15129 12.1579C2.13405 12.0432 2.12828 11.927 2.13405 11.811C2.16278 11.811 2.20875 12.299 2.42139 13.0604C2.54307 13.5059 2.69772 13.9412 2.88401 14.3627C3.11688 14.8755 3.3918 15.3672 3.70581 15.8325C4.02217 16.2923 4.3759 16.7241 4.76323 17.123C5.08759 17.4424 5.43428 17.7371 5.80054 18.0049C6.4212 18.4723 6.85796 18.6958 6.8436 18.7105Z" fill="#263238"/>
<path d="M3.4532 17.1436C3.26952 16.977 3.10817 16.7862 2.97334 16.5763C2.62373 16.0897 2.31881 15.5711 2.06246 15.0271C1.80645 14.4817 1.60152 13.9128 1.45042 13.3279C1.37228 13.0906 1.32683 12.8432 1.31537 12.593C1.407 12.8231 1.48473 13.0587 1.54812 13.2985C1.72626 13.8662 1.94129 14.4211 2.19176 14.9595C2.44626 15.4962 2.7342 16.0156 3.05379 16.5145C3.20146 16.7142 3.33494 16.9244 3.4532 17.1436Z" fill="#263238"/>
</g>
<defs>
<clipPath id="clip0_339_234">
<rect width="34.4754" height="38.2364" fill="white" transform="translate(0.688477 0.763672)"/>
</clipPath>
</defs>
</svg>
