<svg width="20" height="20" viewBox="0 0 20 20" fill="none" xmlns="http://www.w3.org/2000/svg">
<path d="M13.0967 13.5197H7.08008" stroke="url(#paint0_linear_121_65380)" stroke-width="1.2" stroke-linecap="round" stroke-linejoin="round"/>
<path d="M13.0967 10.0309H7.08008" stroke="url(#paint1_linear_121_65380)" stroke-width="1.2" stroke-linecap="round" stroke-linejoin="round"/>
<path d="M9.37689 6.55046H7.08105" stroke="url(#paint2_linear_121_65380)" stroke-width="1.2" stroke-linecap="round" stroke-linejoin="round"/>
<path fill-rule="evenodd" clip-rule="evenodd" d="M13.2576 2.2915C13.2576 2.2915 6.86014 2.29484 6.85014 2.29484C4.55014 2.309 3.12598 3.82234 3.12598 6.13067V13.794C3.12598 16.114 4.56098 17.6332 6.88098 17.6332C6.88098 17.6332 13.2776 17.6307 13.2885 17.6307C15.5885 17.6165 17.0135 16.1023 17.0135 13.794V6.13067C17.0135 3.81067 15.5776 2.2915 13.2576 2.2915Z" stroke="url(#paint3_linear_121_65380)" stroke-width="1.2" stroke-linecap="round" stroke-linejoin="round"/>
<defs>
<linearGradient id="paint0_linear_121_65380" x1="13.0967" y1="13.9364" x2="6.94876" y2="10.5015" gradientUnits="userSpaceOnUse">
<stop stop-color="#B12525"/>
<stop offset="1" stop-color="#F96363"/>
</linearGradient>
<linearGradient id="paint1_linear_121_65380" x1="13.0967" y1="10.4476" x2="6.94876" y2="7.01277" gradientUnits="userSpaceOnUse">
<stop stop-color="#B12525"/>
<stop offset="1" stop-color="#F96363"/>
</linearGradient>
<linearGradient id="paint2_linear_121_65380" x1="9.37689" y1="6.96712" x2="6.43251" y2="6.33943" gradientUnits="userSpaceOnUse">
<stop stop-color="#B12525"/>
<stop offset="1" stop-color="#F96363"/>
</linearGradient>
<linearGradient id="paint3_linear_121_65380" x1="17.0135" y1="17.6332" x2="-1.51561" y2="16.3353" gradientUnits="userSpaceOnUse">
<stop stop-color="#B12525"/>
<stop offset="1" stop-color="#F96363"/>
</linearGradient>
</defs>
</svg>
